M48
;GenerationSoftware,Autodesk,EAGLE,9.6.2*%
;CreationDate,2023-07-31T10:46:38Z*%
FMAT,2
ICI,OFF
METRIC,TZ,000.000
T7C0.350
T6C0.813
T5C0.991
T4C1.016
T3C2.375
T2C2.800
%
G90
M71
T2
X21082Y62586
X54737Y62586
X53594Y11176
X4826Y12446
T3
X23722Y12192
X18642Y12192
X18642Y17907
X23722Y17907
T4
X39500Y56920
X42040Y4510
X39500Y4510
X36960Y4510
X34420Y4510
X34420Y56920
X36960Y56920
X42040Y56920
X66040Y26670
X66040Y29210
X66040Y31750
X66040Y34290
X1270Y34290
X1270Y31750
X1270Y29210
X1270Y26670
T5
X21182Y12192
X22198Y19812
X20166Y19812
T6
X17000Y3000
X11460Y56000
X14000Y56000
X28460Y22000
X31000Y22000
X45460Y22000
X48000Y22000
X62460Y22000
X65000Y22000
X11460Y5000
X14000Y5000
X28460Y5000
X31000Y5000
X48000Y5000
X45460Y5000
X25000Y3000
X25000Y6000
X17000Y6000
X14000Y22000
X11460Y22000
X65000Y39000
X62460Y39000
X48000Y39000
X45460Y39000
X31000Y39000
X14000Y39000
X28460Y39000
X62460Y5000
X65000Y5000
X28460Y56000
X31000Y56000
X45460Y56000
X48000Y56000
X62460Y56000
X65000Y56000
X11460Y39000
T7
X36322Y17526
X31496Y17272
X41402Y18796
X36322Y18542
X31496Y18288
X23114Y40894
X26670Y21844
X26416Y24384
X25101Y34377
X24638Y32004
X20320Y49784
X19507Y55474
X9906Y33782
X31496Y16256
X18567Y27867
X41910Y16510
X41910Y17526
X57150Y17526
X56896Y15748
X53340Y32766
X53340Y35306
X57150Y49784
X57150Y52527
X23876Y27686
X18848Y27009
X17630Y33556
X17501Y35382
X21336Y48158
X21133Y53848
X43078Y59385
X40716Y59385
X23622Y66294
X40488Y23825
X36373Y23825
X40437Y10262
X38862Y8534
X22047Y32258
X25908Y37338
X36322Y36322
X42164Y36322
X18034Y15494
X16002Y18796
X21133Y32258
X5334Y31496
X9040Y51918
X8204Y58115
X17526Y60452
X36322Y16510
X33782Y66294
X52578Y66040
X66548Y65786
X7620Y47244
X7798Y37516
X10922Y37338
X35281Y45618
X41046Y46609
X24638Y42164
X36322Y31242
X42164Y34290
X10945Y34798
X7322Y36682
X5844Y36832
X7214Y16459
X27178Y33680
X36322Y34290
X40437Y34417
X41290Y9184
X44196Y6604
X28169Y33680
X36322Y33274
X40894Y33528
X40894Y25908
X54356Y14986
X20726Y30836
X9144Y17018
X7112Y15494
X19050Y14732
X14476Y17780
X41402Y22098
X9144Y18034
X19863Y29108
X10160Y24384
X20320Y29972
X14478Y18796
X22098Y10414
X22352Y6858
X22352Y5080
X23622Y30480
X16873Y18085
X20676Y21133
X22504Y23673
X23368Y22555
X10795Y52959
X25000Y22606
X16612Y35379
X35331Y39472
X16764Y39370
X25516Y39000
X18593Y26151
X18157Y32690
X18390Y35331
X35281Y46558
X41046Y47955
X17780Y40894
X23749Y41681
X25908Y40386
X35052Y24203
X36830Y37338
X43180Y37338
X16637Y33553
X26162Y34290
X36322Y35306
X43739Y35357
X62738Y35052
X62738Y32766
X54356Y23622
X52070Y23876
X58928Y39116
X29210Y33632
X36322Y32258
X41402Y32512
X54356Y22352
X52578Y22352
X36322Y22098
X49759Y20320
X51765Y8026
X51765Y13614
X55321Y15392
X55829Y8534
X60655Y22250
X64211Y19710
X58369Y17424
X55067Y21488
X43078Y24054
X43129Y20904
X43383Y17831
X56845Y2946
X51841Y17882
X55575Y17932
X51968Y20803
X55524Y24435
X61366Y24435
X52603Y28905
X51587Y25603
X51587Y32715
X65303Y36525
X60477Y35001
X55651Y35509
X35509Y21234
X41173Y43891
X39319Y30404
X39268Y27356
X39319Y24790
X39319Y23012
X39319Y21234
X39319Y19456
X39319Y12344
X33985Y16662
X29159Y20472
X33731Y19202
X50063Y35509
X36525Y19710
X35509Y15392
X36525Y12598
X35255Y9296
X49733Y6502
X43129Y6248
X45415Y3454
X49987Y2946
X62687Y2946
X59385Y5994
X28448Y36068
X36322Y29718
X39878Y40132
X39878Y39370
X39878Y38608
X5588Y34290
X8636Y34290
X9144Y19050
X2540Y14986
X12954Y23622
X13208Y20574
X23622Y15494
X34468Y29718
X34521Y36144
X10363Y54610
X9144Y53137
X13716Y51562
X9398Y50800
X7620Y33020
X7620Y30226
X24638Y7874
X18923Y51943
X31699Y37744
X49022Y54864
X53365Y39319
X66319Y40589
X58953Y40843
X56413Y42367
X51587Y42367
X56413Y48717
X51841Y49225
X41935Y45923
X35687Y54610
X39878Y52324
X44704Y53086
X35331Y42113
X48260Y52324
X55626Y54102
X56388Y59690
X53086Y58674
X56642Y65278
X20320Y59436
X18542Y56896
X32394Y38760
X34595Y38633
X4572Y47244
X10439Y35916
X25578Y7239
X27610Y7493
X23647Y7010
X19355Y7036
X21260Y6985
X15773Y23571
X16027Y21031
X12979Y18745
X18923Y23724
X17399Y25248
X12700Y33782
X33198Y6223
X3886Y36068
X584Y36322
X6426Y30734
X3378Y30480
X4597Y24841
X6375Y24841
X6121Y15443
X2565Y10109
X6629Y8585
X15519Y2743
X27457Y2489
X18263Y57734
X24790Y29159
X39624Y65532
X7874Y65786
X7620Y50292
X32004Y2111
X37287Y48489
X36830Y11176
X23038Y26467
X23520Y31674
X22200Y51156
X17323Y57734
X23393Y2743
X52324Y64770
X12471Y53797
X8611Y53746
X24028Y35992
X23749Y9881
X20371Y11100
X42951Y41097
X39319Y15646
X33020Y24384
X41605Y13868
X19837Y43383
X787Y66497
X3581Y61671
X21361Y59385
X6121Y61163
X1549Y47193
X6883Y48209
X5867Y38049
X1803Y37795
X14503Y41097
X12725Y39065
X11201Y41097
X6375Y66497
X17805Y44653
X17551Y48971
X23393Y43129
X23901Y44907
X23139Y47955
X26695Y39319
X26441Y41351
X28219Y40589
X31775Y41351
X35331Y44653
X60731Y56083
X21361Y4521
X12725Y4267
X8661Y2743
X15519Y7315
X8661Y7061
X66573Y37287
X66573Y44399
X66573Y47955
X66573Y61417
X66573Y64465
X66065Y51003
X35560Y37744
X59969Y51511
X38125Y50749
X42951Y65227
X42189Y60401
X36347Y60401
X33553Y64465
X38633Y64719
X23647Y64465
X23901Y59639
X18567Y64719
M30