G04 EAGLE Gerber RS-274X export*
G75*
%MOMM*%
%FSLAX34Y34*%
%LPD*%
%INTop Copper*%
%IPPOS*%
%AMOC8*
5,1,8,0,0,1.08239X$1,22.5*%
G01*
%ADD10R,0.010000X0.010000*%
%ADD11R,7.600000X0.800000*%
%ADD12R,0.200000X8.000000*%
%ADD13R,0.100000X0.100000*%
%ADD14R,6.600000X0.800000*%
%ADD15R,0.200000X7.200000*%
%ADD16R,6.900000X0.800000*%
%ADD17P,1.429621X8X22.500000*%
%ADD18C,0.787400*%
%ADD19C,1.524000*%
%ADD20P,1.429621X8X202.500000*%
%ADD21C,0.203200*%
%ADD22C,0.654800*%
%ADD23C,0.508000*%
%ADD24C,0.254000*%
%ADD25C,0.304800*%
%ADD26C,0.812800*%
%ADD27C,0.609600*%
%ADD28C,0.152400*%


D10*
X88300Y585920D03*
X166300Y663920D03*
D11*
X125300Y610920D03*
X129300Y600920D03*
X125300Y590920D03*
X129300Y620920D03*
X125300Y630920D03*
X129300Y640920D03*
X125300Y650920D03*
X129300Y660920D03*
D12*
X88300Y624920D03*
X166300Y624920D03*
D10*
X258300Y251000D03*
X336300Y329000D03*
D11*
X295300Y276000D03*
X299300Y266000D03*
X295300Y256000D03*
X299300Y286000D03*
X295300Y296000D03*
X299300Y306000D03*
X295300Y316000D03*
X299300Y326000D03*
D12*
X258300Y290000D03*
X336300Y290000D03*
D10*
X428300Y251000D03*
X506300Y329000D03*
D11*
X465300Y276000D03*
X469300Y266000D03*
X465300Y256000D03*
X469300Y286000D03*
X465300Y296000D03*
X469300Y306000D03*
X465300Y316000D03*
X469300Y326000D03*
D12*
X428300Y290000D03*
X506300Y290000D03*
D10*
X540200Y251000D03*
X618200Y329000D03*
D11*
X577200Y276000D03*
X581200Y266000D03*
X577200Y256000D03*
X581200Y286000D03*
X577200Y296000D03*
X581200Y306000D03*
X577200Y316000D03*
X581200Y326000D03*
D12*
X540200Y290000D03*
X618200Y290000D03*
D10*
X88300Y81000D03*
X166300Y159000D03*
D11*
X125300Y106000D03*
X129300Y96000D03*
X125300Y86000D03*
X129300Y116000D03*
X125300Y126000D03*
X129300Y136000D03*
X125300Y146000D03*
X129300Y156000D03*
D12*
X88300Y120000D03*
X166300Y120000D03*
D10*
X258300Y81000D03*
X336300Y159000D03*
D11*
X295300Y106000D03*
X299300Y96000D03*
X295300Y86000D03*
X299300Y116000D03*
X295300Y126000D03*
X299300Y136000D03*
X295300Y146000D03*
X299300Y156000D03*
D12*
X258300Y120000D03*
X336300Y120000D03*
D10*
X428300Y81000D03*
X506300Y159000D03*
D11*
X465300Y106000D03*
X469300Y96000D03*
X465300Y86000D03*
X469300Y116000D03*
X465300Y126000D03*
X469300Y136000D03*
X465300Y146000D03*
X469300Y156000D03*
D12*
X428300Y120000D03*
X506300Y120000D03*
D10*
X578300Y81000D03*
X656300Y159000D03*
D11*
X615300Y106000D03*
X619300Y96000D03*
X615300Y86000D03*
X619300Y116000D03*
X615300Y126000D03*
X619300Y136000D03*
X615300Y146000D03*
X619300Y156000D03*
D12*
X578300Y120000D03*
X656300Y120000D03*
D13*
X7640Y170740D03*
X75640Y240740D03*
D14*
X39640Y195740D03*
X43640Y185740D03*
X39640Y175740D03*
X43640Y205740D03*
X39640Y215740D03*
X43640Y225740D03*
X39640Y235740D03*
D15*
X7640Y205740D03*
X75640Y205740D03*
D10*
X78200Y464860D03*
X7200Y386860D03*
D16*
X44700Y439860D03*
X40700Y449860D03*
X44700Y459860D03*
X40700Y429860D03*
X44700Y419860D03*
X40700Y409860D03*
X44700Y399860D03*
X40700Y389860D03*
D12*
X78200Y425860D03*
X7200Y425860D03*
D10*
X248300Y585920D03*
X326300Y663920D03*
D11*
X285300Y610920D03*
X289300Y600920D03*
X285300Y590920D03*
X289300Y620920D03*
X285300Y630920D03*
X289300Y640920D03*
X285300Y650920D03*
X289300Y660920D03*
D12*
X248300Y624920D03*
X326300Y624920D03*
D10*
X438300Y585920D03*
X516300Y663920D03*
D11*
X475300Y610920D03*
X479300Y600920D03*
X475300Y590920D03*
X479300Y620920D03*
X475300Y630920D03*
X479300Y640920D03*
X475300Y650920D03*
X479300Y660920D03*
D12*
X438300Y624920D03*
X516300Y624920D03*
D10*
X578300Y585920D03*
X656300Y663920D03*
D11*
X615300Y610920D03*
X619300Y600920D03*
X615300Y590920D03*
X619300Y620920D03*
X615300Y630920D03*
X619300Y640920D03*
X615300Y650920D03*
X619300Y660920D03*
D12*
X578300Y624920D03*
X656300Y624920D03*
D10*
X88300Y421000D03*
X166300Y499000D03*
D11*
X125300Y446000D03*
X129300Y436000D03*
X125300Y426000D03*
X129300Y456000D03*
X125300Y466000D03*
X129300Y476000D03*
X125300Y486000D03*
X129300Y496000D03*
D12*
X88300Y460000D03*
X166300Y460000D03*
D10*
X258300Y421000D03*
X336300Y499000D03*
D11*
X295300Y446000D03*
X299300Y436000D03*
X295300Y426000D03*
X299300Y456000D03*
X295300Y466000D03*
X299300Y476000D03*
X295300Y486000D03*
X299300Y496000D03*
D12*
X258300Y460000D03*
X336300Y460000D03*
D10*
X428300Y421000D03*
X506300Y499000D03*
D11*
X465300Y446000D03*
X469300Y436000D03*
X465300Y426000D03*
X469300Y456000D03*
X465300Y466000D03*
X469300Y476000D03*
X465300Y486000D03*
X469300Y496000D03*
D12*
X428300Y460000D03*
X506300Y460000D03*
D10*
X578300Y421000D03*
X656300Y499000D03*
D11*
X615300Y446000D03*
X619300Y436000D03*
X615300Y426000D03*
X619300Y456000D03*
X615300Y466000D03*
X619300Y476000D03*
X615300Y486000D03*
X619300Y496000D03*
D12*
X578300Y460000D03*
X656300Y460000D03*
D10*
X88300Y251000D03*
X166300Y329000D03*
D11*
X125300Y276000D03*
X129300Y266000D03*
X125300Y256000D03*
X129300Y286000D03*
X125300Y296000D03*
X129300Y306000D03*
X125300Y316000D03*
X129300Y326000D03*
D12*
X88300Y290000D03*
X166300Y290000D03*
D17*
X114600Y560000D03*
X140000Y560000D03*
X284600Y220000D03*
X310000Y220000D03*
X454600Y220000D03*
X480000Y220000D03*
X624600Y220000D03*
X650000Y220000D03*
X114600Y50000D03*
X140000Y50000D03*
X284600Y50000D03*
X310000Y50000D03*
X454600Y50000D03*
X480000Y50000D03*
X624600Y50000D03*
X650000Y50000D03*
X284600Y560000D03*
X310000Y560000D03*
X454600Y560000D03*
X480000Y560000D03*
X624600Y560000D03*
X650000Y560000D03*
X114600Y390000D03*
X140000Y390000D03*
X284600Y390000D03*
X310000Y390000D03*
X454600Y390000D03*
X480000Y390000D03*
X624600Y390000D03*
X650000Y390000D03*
X114600Y220000D03*
X140000Y220000D03*
D18*
X218170Y134620D03*
X218170Y147320D03*
X218170Y160020D03*
X218170Y172720D03*
X218170Y185420D03*
X205470Y185420D03*
X205470Y172720D03*
X205470Y160020D03*
X205470Y147320D03*
X205470Y134620D03*
D19*
X420400Y52720D02*
X420400Y37480D01*
X395000Y37480D02*
X395000Y52720D01*
X369600Y52720D02*
X369600Y37480D01*
X344200Y37480D02*
X344200Y52720D01*
X344200Y561582D02*
X344200Y576822D01*
X369600Y576822D02*
X369600Y561582D01*
X395000Y561582D02*
X395000Y576822D01*
X420400Y576822D02*
X420400Y561582D01*
X645160Y266700D02*
X660400Y266700D01*
X660400Y292100D02*
X645160Y292100D01*
X645160Y317500D02*
X660400Y317500D01*
X660400Y342900D02*
X645160Y342900D01*
X27940Y342900D02*
X12700Y342900D01*
X12700Y317500D02*
X27940Y317500D01*
X27940Y292100D02*
X12700Y292100D01*
X12700Y266700D02*
X27940Y266700D01*
D17*
X170000Y60000D03*
X250000Y60000D03*
D20*
X250000Y30000D03*
X170000Y30000D03*
D13*
X76180Y78180D03*
X8180Y8180D03*
D14*
X44180Y53180D03*
X40180Y63180D03*
X44180Y73180D03*
X40180Y43180D03*
X44180Y33180D03*
X40180Y23180D03*
X44180Y13180D03*
D15*
X76180Y43180D03*
X8180Y43180D03*
D21*
X218170Y134620D02*
X223250Y139700D01*
X236220Y139700D01*
D22*
X355600Y377444D03*
D23*
X316992Y377444D01*
D22*
X316992Y377444D03*
D23*
X355600Y377444D02*
X368554Y390398D01*
X368554Y475234D02*
X363982Y479806D01*
X363982Y497078D01*
X340868Y520192D01*
X189992Y520192D02*
X189230Y519430D01*
D22*
X189230Y519430D03*
D23*
X368554Y475234D02*
X368554Y390398D01*
X340868Y520192D02*
X189992Y520192D01*
D24*
X236220Y139700D02*
X246380Y139700D01*
X253492Y132588D01*
X253492Y101092D02*
X246380Y93980D01*
D25*
X246380Y78740D02*
X246380Y63620D01*
X250000Y60000D01*
D24*
X253492Y101092D02*
X253492Y132588D01*
D25*
X246380Y93980D02*
X246380Y78740D01*
D22*
X246380Y78740D03*
X76200Y302260D03*
D23*
X76200Y330200D01*
D22*
X76200Y330200D03*
X93980Y508000D03*
D23*
X101600Y515620D01*
X137160Y515620D01*
D22*
X137160Y515620D03*
D24*
X75640Y301700D02*
X75640Y240740D01*
X75640Y301700D02*
X76200Y302260D01*
D21*
X218170Y160020D02*
X223250Y154940D01*
X236220Y154940D01*
D26*
X420400Y527080D02*
X420400Y569202D01*
X420400Y69820D02*
X420400Y45100D01*
X393700Y500380D02*
X420400Y527080D01*
X393700Y500380D02*
X393700Y401320D01*
X393700Y393700D01*
X393700Y386080D01*
X393700Y96520D01*
X420400Y69820D01*
D22*
X91440Y531368D03*
D23*
X103632Y543560D01*
X103632Y546100D01*
D22*
X103632Y546100D03*
X345214Y361442D03*
D24*
X285242Y361442D01*
X284480Y360680D01*
D22*
X284480Y360680D03*
X236220Y154940D03*
X132080Y205740D03*
D24*
X127000Y210820D01*
X127000Y233680D02*
X129540Y236220D01*
D22*
X129540Y236220D03*
D24*
X127000Y233680D02*
X127000Y210820D01*
X7620Y8740D02*
X8180Y8180D01*
X7620Y132080D02*
X25400Y149860D01*
D22*
X25400Y149860D03*
D24*
X7620Y132080D02*
X7620Y8740D01*
X116840Y190500D02*
X132080Y205740D01*
X116840Y190500D02*
X91440Y190500D01*
D22*
X91440Y190500D03*
X86360Y342900D03*
D24*
X55880Y342900D01*
D22*
X55880Y342900D03*
X398780Y386080D03*
X398780Y393700D03*
X398780Y401320D03*
D23*
X393700Y401320D01*
X393700Y393700D02*
X398780Y393700D01*
X398780Y386080D02*
X393700Y386080D01*
D22*
X363220Y297180D03*
D24*
X344678Y297180D01*
D22*
X344678Y297180D03*
D24*
X62620Y472440D02*
X45720Y472440D01*
D22*
X45720Y472440D03*
X345948Y386334D03*
D27*
X344678Y387604D01*
X323942Y387604D01*
D22*
X323942Y387604D03*
X185420Y568960D03*
X203200Y594360D03*
D26*
X203200Y586740D02*
X189230Y572770D01*
X203200Y586740D02*
X203200Y594360D01*
D28*
X549135Y153585D02*
X550136Y151168D01*
X549135Y153585D02*
X547285Y155435D01*
X544868Y156436D01*
X542252Y156436D01*
X539835Y155435D01*
X537985Y153585D01*
X536984Y151168D01*
X536984Y148552D01*
X537985Y146135D01*
X539835Y144285D01*
X542252Y143284D01*
X543670Y143284D01*
X551494Y135460D01*
X546864Y138133D01*
X539666Y140062D01*
X532214Y140062D01*
X525016Y138133D01*
X518562Y134407D01*
X513293Y129138D01*
X510602Y124477D01*
X510602Y156836D01*
X510872Y157106D01*
X510872Y160528D01*
X563105Y160528D01*
X562384Y158788D01*
X562384Y156172D01*
X563385Y153755D01*
X565235Y151905D01*
X566928Y151204D01*
X566928Y132958D01*
X550136Y149750D01*
X550136Y151168D01*
X414189Y460515D02*
X411772Y459514D01*
X414189Y460515D02*
X416039Y462365D01*
X417040Y464782D01*
X417040Y466200D01*
X422402Y471562D01*
X422402Y495692D01*
X423998Y497288D01*
X423998Y446068D01*
X410552Y459514D01*
X411772Y459514D01*
X3302Y260848D02*
X3441Y260513D01*
X6513Y257441D01*
X10527Y255778D01*
X30113Y255778D01*
X34127Y257441D01*
X37199Y260513D01*
X38862Y264527D01*
X38862Y268873D01*
X37199Y272887D01*
X34127Y275959D01*
X30113Y277622D01*
X10527Y277622D01*
X6513Y275959D01*
X3441Y272887D01*
X3302Y272552D01*
X3302Y286248D01*
X3441Y285913D01*
X6513Y282841D01*
X10527Y281178D01*
X30113Y281178D01*
X34127Y282841D01*
X37199Y285913D01*
X38862Y289927D01*
X38862Y294273D01*
X37199Y298287D01*
X34127Y301359D01*
X30113Y303022D01*
X10527Y303022D01*
X6513Y301359D01*
X3441Y298287D01*
X3302Y297952D01*
X3302Y311648D01*
X3441Y311313D01*
X6513Y308241D01*
X10527Y306578D01*
X30113Y306578D01*
X34127Y308241D01*
X36274Y310388D01*
X48612Y310388D01*
X49615Y309385D01*
X52032Y308384D01*
X54648Y308384D01*
X57065Y309385D01*
X58915Y311235D01*
X59916Y313652D01*
X59916Y316268D01*
X58915Y318685D01*
X57065Y320535D01*
X54648Y321536D01*
X52032Y321536D01*
X49615Y320535D01*
X48612Y319532D01*
X38862Y319532D01*
X38862Y319673D01*
X37199Y323687D01*
X34127Y326759D01*
X30113Y328422D01*
X10527Y328422D01*
X6513Y326759D01*
X3441Y323687D01*
X3302Y323352D01*
X3302Y337287D01*
X3359Y337176D01*
X4369Y335785D01*
X5585Y334569D01*
X6976Y333559D01*
X8507Y332778D01*
X10142Y332247D01*
X11840Y331978D01*
X11938Y331978D01*
X11938Y342138D01*
X13462Y342138D01*
X13462Y331978D01*
X28800Y331978D01*
X30498Y332247D01*
X32133Y332778D01*
X33664Y333559D01*
X35055Y334569D01*
X36271Y335785D01*
X37281Y337176D01*
X38062Y338707D01*
X38593Y340342D01*
X38862Y342040D01*
X38862Y342138D01*
X13462Y342138D01*
X13462Y343662D01*
X38862Y343662D01*
X38862Y343760D01*
X38593Y345458D01*
X38062Y347093D01*
X37281Y348624D01*
X36271Y350015D01*
X35055Y351231D01*
X33664Y352241D01*
X32133Y353022D01*
X30498Y353553D01*
X28800Y353822D01*
X13462Y353822D01*
X13462Y343662D01*
X11938Y343662D01*
X11938Y353822D01*
X11840Y353822D01*
X10142Y353553D01*
X8507Y353022D01*
X6976Y352241D01*
X5585Y351231D01*
X4369Y350015D01*
X3359Y348624D01*
X3302Y348513D01*
X3302Y373607D01*
X12911Y363998D01*
X53454Y363998D01*
X54711Y362741D01*
X57128Y361740D01*
X59744Y361740D01*
X61262Y362369D01*
X61262Y361612D01*
X63940Y358934D01*
X63940Y358934D01*
X69306Y353568D01*
X81926Y353568D01*
X93717Y341777D01*
X93485Y341545D01*
X92484Y339128D01*
X92484Y339090D01*
X81926Y339090D01*
X79248Y336412D01*
X79248Y336055D01*
X77508Y336776D01*
X74892Y336776D01*
X72475Y335775D01*
X70625Y333925D01*
X69624Y331508D01*
X69624Y328892D01*
X70358Y327120D01*
X70358Y305340D01*
X69624Y303568D01*
X69624Y300952D01*
X70625Y298535D01*
X71068Y298092D01*
X71068Y243042D01*
X11942Y243042D01*
X11942Y243108D01*
X10008Y245042D01*
X5272Y245042D01*
X3338Y243108D01*
X3338Y172904D01*
X3302Y172868D01*
X3302Y260848D01*
X347472Y153046D02*
X354954Y160528D01*
X358492Y160528D01*
X359495Y159525D01*
X361912Y158524D01*
X364528Y158524D01*
X366945Y159525D01*
X368795Y161375D01*
X369796Y163792D01*
X369796Y166408D01*
X368795Y168825D01*
X367440Y170180D01*
X368795Y171535D01*
X369796Y173952D01*
X369796Y176568D01*
X368795Y178985D01*
X367440Y180340D01*
X368795Y181695D01*
X369796Y184112D01*
X369796Y186728D01*
X368795Y189145D01*
X366945Y190995D01*
X364528Y191996D01*
X361912Y191996D01*
X359495Y190995D01*
X357645Y189145D01*
X356944Y187452D01*
X319688Y187452D01*
X318685Y188455D01*
X316268Y189456D01*
X313652Y189456D01*
X311235Y188455D01*
X309385Y186605D01*
X308384Y184188D01*
X308384Y181572D01*
X309385Y179155D01*
X310740Y177800D01*
X309385Y176445D01*
X308384Y174028D01*
X308384Y171412D01*
X309385Y168995D01*
X310740Y167640D01*
X309385Y166285D01*
X308384Y163868D01*
X308384Y163302D01*
X266288Y163302D01*
X268732Y165746D01*
X268732Y188606D01*
X271272Y191146D01*
X271272Y213712D01*
X272275Y214715D01*
X273276Y217132D01*
X273276Y219748D01*
X272555Y221488D01*
X274694Y221488D01*
X274694Y215897D01*
X280497Y210094D01*
X288703Y210094D01*
X294506Y215897D01*
X294506Y224103D01*
X292295Y226314D01*
X302305Y226314D01*
X300094Y224103D01*
X300094Y215897D01*
X305897Y210094D01*
X314103Y210094D01*
X319906Y215897D01*
X319906Y216408D01*
X358492Y216408D01*
X359495Y215405D01*
X361912Y214404D01*
X364528Y214404D01*
X366945Y215405D01*
X368795Y217255D01*
X369796Y219672D01*
X369796Y222288D01*
X368795Y224705D01*
X367186Y226314D01*
X370332Y226314D01*
X370332Y120258D01*
X368410Y118336D01*
X366992Y118336D01*
X364575Y117335D01*
X362725Y115485D01*
X361724Y113068D01*
X361724Y110452D01*
X362725Y108035D01*
X364575Y106185D01*
X366992Y105184D01*
X369608Y105184D01*
X372025Y106185D01*
X373875Y108035D01*
X374876Y110452D01*
X374876Y111870D01*
X375412Y112406D01*
X375412Y106937D01*
X347472Y78997D01*
X347472Y153046D01*
X573998Y635829D02*
X573743Y636780D01*
X570017Y643234D01*
X564748Y648503D01*
X558294Y652229D01*
X551096Y654158D01*
X543644Y654158D01*
X536446Y652229D01*
X529992Y648503D01*
X524723Y643234D01*
X520997Y636780D01*
X520602Y635307D01*
X520602Y656278D01*
X522055Y654825D01*
X524472Y653824D01*
X527088Y653824D01*
X529505Y654825D01*
X531355Y656675D01*
X532356Y659092D01*
X532356Y660510D01*
X536564Y664718D01*
X573998Y664718D01*
X573998Y635829D01*
X61262Y374263D02*
X59744Y374892D01*
X57128Y374892D01*
X54711Y373891D01*
X53454Y372634D01*
X16489Y372634D01*
X11518Y377605D01*
X11518Y382558D01*
X65768Y382558D01*
X61262Y378052D01*
X61262Y374264D01*
X61262Y374263D01*
X182654Y518122D02*
X182654Y520738D01*
X182654Y518122D02*
X183655Y515705D01*
X185505Y513855D01*
X187922Y512854D01*
X190538Y512854D01*
X192955Y513855D01*
X193450Y514350D01*
X338448Y514350D01*
X358140Y494658D01*
X358140Y477386D01*
X361562Y473964D01*
X362712Y472814D01*
X362712Y465698D01*
X358256Y470154D01*
X357534Y470154D01*
X356531Y471157D01*
X354114Y472158D01*
X351498Y472158D01*
X349081Y471157D01*
X347231Y469307D01*
X346230Y466890D01*
X346230Y464274D01*
X347231Y461857D01*
X348205Y460883D01*
X348078Y460756D01*
X347842Y460756D01*
X345440Y463158D01*
X345440Y501766D01*
X342762Y504444D01*
X337174Y510032D01*
X227722Y510032D01*
X226198Y508508D01*
X213222Y508508D01*
X211698Y510032D01*
X170866Y510032D01*
X168188Y507354D01*
X164136Y503302D01*
X98582Y503302D01*
X99555Y504275D01*
X100289Y506047D01*
X104020Y509778D01*
X134080Y509778D01*
X135852Y509044D01*
X138468Y509044D01*
X140885Y510045D01*
X142735Y511895D01*
X143736Y514312D01*
X143736Y516928D01*
X142735Y519345D01*
X140885Y521195D01*
X139014Y521970D01*
X183164Y521970D01*
X182654Y520738D01*
X149906Y564103D02*
X144103Y569906D01*
X135897Y569906D01*
X130094Y564103D01*
X130094Y555897D01*
X135897Y550094D01*
X143440Y550094D01*
X148450Y545084D01*
X135982Y545084D01*
X124506Y556560D01*
X124506Y564103D01*
X118703Y569906D01*
X110497Y569906D01*
X104694Y564103D01*
X104694Y555897D01*
X110497Y550094D01*
X118040Y550094D01*
X129516Y538618D01*
X129516Y538618D01*
X132194Y535940D01*
X205094Y535940D01*
X205213Y536059D01*
X205753Y534755D01*
X205838Y534670D01*
X112170Y534670D01*
X111675Y535165D01*
X109258Y536166D01*
X106642Y536166D01*
X104225Y535165D01*
X102375Y533315D01*
X101374Y530898D01*
X101374Y528282D01*
X102375Y525865D01*
X104225Y524015D01*
X104771Y523789D01*
X105623Y522937D01*
X107957Y521970D01*
X135306Y521970D01*
X134080Y521462D01*
X99180Y521462D01*
X96972Y519254D01*
X96972Y520484D01*
X95971Y522901D01*
X94121Y524751D01*
X91704Y525752D01*
X90286Y525752D01*
X83312Y532726D01*
X83312Y574576D01*
X83350Y574576D01*
X85767Y575577D01*
X87617Y577427D01*
X88618Y579844D01*
X88618Y581348D01*
X90194Y581348D01*
X90464Y581618D01*
X90668Y581618D01*
X92602Y583552D01*
X92602Y583618D01*
X161998Y583618D01*
X161998Y583552D01*
X163932Y581618D01*
X168668Y581618D01*
X170602Y583552D01*
X170602Y599878D01*
X171535Y598945D01*
X173952Y597944D01*
X176568Y597944D01*
X178985Y598945D01*
X180835Y600795D01*
X181836Y603212D01*
X181836Y605828D01*
X180835Y608245D01*
X179832Y609248D01*
X179832Y658368D01*
X231492Y658368D01*
X232495Y657365D01*
X234912Y656364D01*
X237528Y656364D01*
X239945Y657365D01*
X241795Y659215D01*
X242796Y661632D01*
X242796Y664248D01*
X241795Y666665D01*
X239945Y668515D01*
X237528Y669516D01*
X234912Y669516D01*
X232495Y668515D01*
X231492Y667512D01*
X177154Y667512D01*
X176174Y668492D01*
X164406Y668492D01*
X164136Y668222D01*
X85932Y668222D01*
X83998Y666288D01*
X83998Y661902D01*
X82465Y663435D01*
X80048Y664436D01*
X77432Y664436D01*
X75015Y663435D01*
X73165Y661585D01*
X72164Y659168D01*
X72164Y656552D01*
X73165Y654135D01*
X75015Y652285D01*
X76708Y651584D01*
X76708Y608954D01*
X64008Y596254D01*
X64008Y508646D01*
X66686Y505968D01*
X69624Y503030D01*
X69624Y501612D01*
X70625Y499195D01*
X72475Y497345D01*
X74892Y496344D01*
X77508Y496344D01*
X79248Y497065D01*
X79248Y478295D01*
X77508Y479016D01*
X74892Y479016D01*
X72475Y478015D01*
X70625Y476165D01*
X69624Y473748D01*
X69624Y471132D01*
X70625Y468715D01*
X71628Y467712D01*
X71628Y467162D01*
X11502Y467162D01*
X11502Y467228D01*
X9568Y469162D01*
X4832Y469162D01*
X3302Y467632D01*
X3302Y468532D01*
X28702Y493932D01*
X28702Y623668D01*
X26768Y625602D01*
X3302Y649068D01*
X3302Y669798D01*
X528712Y669798D01*
X525890Y666976D01*
X525670Y666976D01*
X524154Y668492D01*
X514406Y668492D01*
X514136Y668222D01*
X435932Y668222D01*
X433998Y666288D01*
X433998Y599638D01*
X432092Y600428D01*
X429476Y600428D01*
X427059Y599427D01*
X426564Y598932D01*
X411382Y598932D01*
X410887Y599427D01*
X408470Y600428D01*
X405854Y600428D01*
X403437Y599427D01*
X401587Y597577D01*
X400586Y595160D01*
X400586Y592544D01*
X401587Y590127D01*
X403437Y588277D01*
X405854Y587276D01*
X408470Y587276D01*
X410887Y588277D01*
X412398Y589788D01*
X425548Y589788D01*
X427059Y588277D01*
X429476Y587276D01*
X432092Y587276D01*
X433967Y588053D01*
X432308Y586394D01*
X432308Y532754D01*
X398018Y498464D01*
X398018Y459116D01*
X400696Y456438D01*
X417068Y440066D01*
X417068Y377814D01*
X409448Y370194D01*
X409448Y348390D01*
X408093Y349745D01*
X405676Y350746D01*
X403060Y350746D01*
X400643Y349745D01*
X398793Y347895D01*
X397792Y345478D01*
X397792Y343298D01*
X396748Y342254D01*
X396748Y252106D01*
X399426Y249428D01*
X399426Y249428D01*
X404026Y244828D01*
X403568Y244828D01*
X401151Y243827D01*
X399301Y241977D01*
X398300Y239560D01*
X398300Y237634D01*
X396748Y236082D01*
X396748Y103770D01*
X397792Y102726D01*
X397792Y101308D01*
X398793Y98891D01*
X400643Y97041D01*
X403060Y96040D01*
X405676Y96040D01*
X406908Y96550D01*
X406908Y94564D01*
X406323Y93151D01*
X406323Y90535D01*
X406908Y89121D01*
X406908Y88530D01*
X409586Y85852D01*
X410177Y85852D01*
X411591Y85267D01*
X414207Y85267D01*
X416624Y86268D01*
X418473Y88118D01*
X419475Y90535D01*
X419475Y93151D01*
X418473Y95568D01*
X416624Y97417D01*
X416052Y97654D01*
X416052Y108574D01*
X410972Y113654D01*
X410972Y151522D01*
X423418Y139076D01*
X423418Y79416D01*
X423998Y78836D01*
X423998Y78632D01*
X425932Y76698D01*
X426136Y76698D01*
X426406Y76428D01*
X430194Y76428D01*
X430464Y76698D01*
X430668Y76698D01*
X432602Y78632D01*
X432602Y78698D01*
X501998Y78698D01*
X501998Y78632D01*
X503932Y76698D01*
X508668Y76698D01*
X510602Y78632D01*
X510602Y99043D01*
X513293Y94382D01*
X518562Y89113D01*
X525016Y85387D01*
X532214Y83458D01*
X539666Y83458D01*
X546864Y85387D01*
X553318Y89113D01*
X558587Y94382D01*
X561848Y100030D01*
X561848Y79386D01*
X566928Y74306D01*
X569606Y71628D01*
X621906Y71628D01*
X640094Y53440D01*
X640094Y46560D01*
X637222Y43688D01*
X632297Y43688D01*
X634506Y45897D01*
X634506Y54103D01*
X628703Y59906D01*
X620497Y59906D01*
X615163Y54572D01*
X489437Y54572D01*
X484103Y59906D01*
X476560Y59906D01*
X465854Y70612D01*
X446688Y70612D01*
X445685Y71615D01*
X443268Y72616D01*
X440652Y72616D01*
X438235Y71615D01*
X436385Y69765D01*
X435384Y67348D01*
X435384Y64732D01*
X436385Y62315D01*
X438235Y60465D01*
X440652Y59464D01*
X443268Y59464D01*
X445685Y60465D01*
X446688Y61468D01*
X462066Y61468D01*
X470094Y53440D01*
X470094Y45897D01*
X472303Y43688D01*
X467378Y43688D01*
X464506Y46560D01*
X464506Y54103D01*
X458703Y59906D01*
X450497Y59906D01*
X444694Y54103D01*
X444694Y45897D01*
X450497Y40094D01*
X458040Y40094D01*
X460912Y37222D01*
X463590Y34544D01*
X641010Y34544D01*
X643688Y37222D01*
X646560Y40094D01*
X654103Y40094D01*
X659906Y45897D01*
X659906Y54103D01*
X654103Y59906D01*
X646560Y59906D01*
X627768Y78698D01*
X651998Y78698D01*
X651998Y78632D01*
X653932Y76698D01*
X658668Y76698D01*
X660602Y78632D01*
X660602Y156836D01*
X660872Y157106D01*
X660872Y160894D01*
X660602Y161164D01*
X660602Y161368D01*
X659892Y162078D01*
X659892Y166994D01*
X657214Y169672D01*
X575193Y169672D01*
X575225Y169685D01*
X577075Y171535D01*
X578076Y173952D01*
X578076Y176568D01*
X577075Y178985D01*
X575225Y180835D01*
X572808Y181836D01*
X571390Y181836D01*
X540512Y212714D01*
X540512Y217665D01*
X542252Y216944D01*
X544868Y216944D01*
X547285Y217945D01*
X548288Y218948D01*
X584586Y218948D01*
X602228Y201306D01*
X602228Y201306D01*
X604906Y198628D01*
X635094Y198628D01*
X637772Y201306D01*
X646560Y210094D01*
X654103Y210094D01*
X659906Y215897D01*
X659906Y224103D01*
X654103Y229906D01*
X645897Y229906D01*
X640094Y224103D01*
X640094Y216560D01*
X631306Y207772D01*
X608694Y207772D01*
X591052Y225414D01*
X591052Y225414D01*
X588374Y228092D01*
X548288Y228092D01*
X547285Y229095D01*
X545414Y229870D01*
X547285Y230645D01*
X548288Y231648D01*
X606486Y231648D01*
X614694Y223440D01*
X614694Y215897D01*
X620497Y210094D01*
X628703Y210094D01*
X634506Y215897D01*
X634506Y224103D01*
X628703Y229906D01*
X627074Y229906D01*
X627074Y320888D01*
X627270Y321084D01*
X628688Y321084D01*
X631105Y322085D01*
X632607Y323587D01*
X634907Y321287D01*
X634238Y319673D01*
X634238Y315327D01*
X635901Y311313D01*
X638973Y308241D01*
X642987Y306578D01*
X662573Y306578D01*
X666587Y308241D01*
X669659Y311313D01*
X669798Y311648D01*
X669798Y297952D01*
X669659Y298287D01*
X666587Y301359D01*
X662573Y303022D01*
X642987Y303022D01*
X638973Y301359D01*
X635901Y298287D01*
X634238Y294273D01*
X634238Y289927D01*
X635901Y285913D01*
X638973Y282841D01*
X642987Y281178D01*
X662573Y281178D01*
X666587Y282841D01*
X669659Y285913D01*
X669798Y286248D01*
X669798Y272552D01*
X669659Y272887D01*
X666587Y275959D01*
X662573Y277622D01*
X642987Y277622D01*
X638973Y275959D01*
X635901Y272887D01*
X634238Y268873D01*
X634238Y264527D01*
X635901Y260513D01*
X638973Y257441D01*
X642987Y255778D01*
X662573Y255778D01*
X666587Y257441D01*
X669659Y260513D01*
X669798Y260848D01*
X669798Y3302D01*
X3302Y3302D01*
X3302Y162952D01*
X3556Y162698D01*
X6234Y160020D01*
X66900Y160020D01*
X65545Y158665D01*
X64544Y156248D01*
X64544Y153632D01*
X65545Y151215D01*
X67395Y149365D01*
X69812Y148364D01*
X72428Y148364D01*
X73377Y148757D01*
X74168Y147966D01*
X74168Y136190D01*
X70907Y141838D01*
X65638Y147107D01*
X59184Y150833D01*
X51986Y152762D01*
X44534Y152762D01*
X37336Y150833D01*
X30882Y147107D01*
X25613Y141838D01*
X21887Y135384D01*
X19958Y128186D01*
X19958Y120734D01*
X21887Y113536D01*
X25613Y107082D01*
X30882Y101813D01*
X37336Y98087D01*
X44534Y96158D01*
X51986Y96158D01*
X59184Y98087D01*
X65638Y101813D01*
X70907Y107082D01*
X74168Y112730D01*
X74168Y82634D01*
X74016Y82482D01*
X73812Y82482D01*
X71878Y80548D01*
X71878Y80482D01*
X12482Y80482D01*
X12482Y80548D01*
X10548Y82482D01*
X5812Y82482D01*
X3878Y80548D01*
X3878Y5812D01*
X5812Y3878D01*
X10548Y3878D01*
X12482Y5812D01*
X12482Y5878D01*
X71878Y5878D01*
X71878Y5812D01*
X73812Y3878D01*
X78548Y3878D01*
X80482Y5812D01*
X80482Y76016D01*
X80634Y76168D01*
X83312Y78846D01*
X83312Y79522D01*
X83998Y78836D01*
X83998Y78632D01*
X85932Y76698D01*
X86136Y76698D01*
X86406Y76428D01*
X90194Y76428D01*
X90464Y76698D01*
X90668Y76698D01*
X92602Y78632D01*
X92602Y78698D01*
X161998Y78698D01*
X161998Y78632D01*
X163932Y76698D01*
X165756Y76698D01*
X172548Y69906D01*
X165897Y69906D01*
X164063Y68072D01*
X126206Y68072D01*
X118040Y59906D01*
X110497Y59906D01*
X104694Y54103D01*
X104694Y45897D01*
X110497Y40094D01*
X118703Y40094D01*
X124506Y45897D01*
X124506Y53440D01*
X129994Y58928D01*
X134919Y58928D01*
X130094Y54103D01*
X130094Y45897D01*
X135897Y40094D01*
X144103Y40094D01*
X149906Y45897D01*
X149906Y54103D01*
X145081Y58928D01*
X160094Y58928D01*
X160094Y55897D01*
X165897Y50094D01*
X174103Y50094D01*
X179906Y55897D01*
X179906Y62548D01*
X185928Y56526D01*
X188606Y53848D01*
X217665Y53848D01*
X216944Y52108D01*
X216944Y49492D01*
X217945Y47075D01*
X219795Y45225D01*
X222212Y44224D01*
X223989Y44224D01*
X229362Y38851D01*
X231891Y36322D01*
X242313Y36322D01*
X240094Y34103D01*
X240094Y25897D01*
X245897Y20094D01*
X254103Y20094D01*
X259906Y25897D01*
X259906Y25908D01*
X271134Y25908D01*
X285320Y40094D01*
X288703Y40094D01*
X294506Y45897D01*
X294506Y54103D01*
X290697Y57912D01*
X295981Y57912D01*
X300094Y53799D01*
X300094Y45897D01*
X305897Y40094D01*
X314103Y40094D01*
X319906Y45897D01*
X319906Y54103D01*
X314103Y59906D01*
X306201Y59906D01*
X299559Y66548D01*
X285358Y66548D01*
X287898Y69088D01*
X337793Y69088D01*
X336834Y66773D01*
X336834Y60800D01*
X334941Y58907D01*
X333278Y54893D01*
X333278Y35307D01*
X334941Y31293D01*
X338013Y28221D01*
X342027Y26558D01*
X346373Y26558D01*
X350387Y28221D01*
X353459Y31293D01*
X355122Y35307D01*
X355122Y54893D01*
X353459Y58907D01*
X351566Y60800D01*
X351566Y62257D01*
X389023Y99713D01*
X390144Y102421D01*
X390144Y492447D01*
X389023Y495155D01*
X386951Y497227D01*
X352806Y531371D01*
X352806Y554742D01*
X353459Y555395D01*
X355122Y559409D01*
X355122Y578995D01*
X353459Y583009D01*
X350387Y586081D01*
X346373Y587744D01*
X342027Y587744D01*
X338013Y586081D01*
X334941Y583009D01*
X333278Y578995D01*
X333278Y559409D01*
X334941Y555395D01*
X338013Y552323D01*
X338074Y552298D01*
X338074Y534670D01*
X216818Y534670D01*
X216903Y534755D01*
X217904Y537172D01*
X217904Y539788D01*
X216903Y542205D01*
X215053Y544055D01*
X213749Y544595D01*
X235574Y566420D01*
X260234Y566420D01*
X265684Y560970D01*
X265684Y554874D01*
X273812Y546746D01*
X273812Y546746D01*
X276490Y544068D01*
X300534Y544068D01*
X303212Y546746D01*
X303212Y546746D01*
X306560Y550094D01*
X314103Y550094D01*
X319906Y555897D01*
X319906Y564103D01*
X314103Y569906D01*
X305897Y569906D01*
X300094Y564103D01*
X300094Y556560D01*
X296746Y553212D01*
X291821Y553212D01*
X294506Y555897D01*
X294506Y564103D01*
X288703Y569906D01*
X281160Y569906D01*
X269406Y581660D01*
X250710Y581660D01*
X252602Y583552D01*
X252602Y583618D01*
X321998Y583618D01*
X321998Y583552D01*
X323932Y581618D01*
X328668Y581618D01*
X330602Y583552D01*
X330602Y659348D01*
X332190Y659348D01*
X332245Y659215D01*
X334095Y657365D01*
X336512Y656364D01*
X339128Y656364D01*
X341545Y657365D01*
X343395Y659215D01*
X344396Y661632D01*
X344396Y664248D01*
X343395Y666665D01*
X341545Y668515D01*
X339128Y669516D01*
X336512Y669516D01*
X334095Y668515D01*
X334072Y668492D01*
X324406Y668492D01*
X324136Y668222D01*
X245932Y668222D01*
X243998Y666288D01*
X243998Y590492D01*
X224054Y590492D01*
X194874Y561312D01*
X193764Y561312D01*
X191347Y560311D01*
X189497Y558461D01*
X188496Y556044D01*
X188496Y553428D01*
X189427Y551180D01*
X155286Y551180D01*
X149906Y556560D01*
X149906Y564103D01*
X179906Y34103D02*
X179906Y25897D01*
X179906Y34103D02*
X174103Y39906D01*
X165897Y39906D01*
X160094Y34103D01*
X160094Y25897D01*
X165897Y20094D01*
X174103Y20094D01*
X179906Y25897D01*
X419540Y26558D02*
X419638Y26558D01*
X419638Y44338D01*
X421162Y44338D01*
X421162Y26558D01*
X421260Y26558D01*
X422958Y26827D01*
X424593Y27358D01*
X426124Y28139D01*
X427515Y29149D01*
X428731Y30365D01*
X429741Y31756D01*
X430522Y33287D01*
X431053Y34922D01*
X431322Y36620D01*
X431322Y44338D01*
X421162Y44338D01*
X421162Y45862D01*
X431322Y45862D01*
X431322Y53580D01*
X431053Y55278D01*
X430522Y56913D01*
X429741Y58444D01*
X428731Y59835D01*
X427515Y61051D01*
X426124Y62061D01*
X424593Y62842D01*
X422958Y63373D01*
X421260Y63642D01*
X421162Y63642D01*
X421162Y45862D01*
X419638Y45862D01*
X419638Y63642D01*
X419540Y63642D01*
X417842Y63373D01*
X416207Y62842D01*
X414676Y62061D01*
X413285Y61051D01*
X412069Y59835D01*
X411059Y58444D01*
X410278Y56913D01*
X409747Y55278D01*
X409478Y53580D01*
X409478Y45862D01*
X419638Y45862D01*
X419638Y44338D01*
X409478Y44338D01*
X409478Y36620D01*
X409747Y34922D01*
X410278Y33287D01*
X411059Y31756D01*
X412069Y30365D01*
X413285Y29149D01*
X414676Y28139D01*
X416207Y27358D01*
X417842Y26827D01*
X419540Y26558D01*
X380522Y35307D02*
X380522Y54893D01*
X378859Y58907D01*
X375787Y61979D01*
X371773Y63642D01*
X367427Y63642D01*
X363413Y61979D01*
X360341Y58907D01*
X358678Y54893D01*
X358678Y35307D01*
X360341Y31293D01*
X363413Y28221D01*
X365028Y27552D01*
X365028Y24638D01*
X327268Y24638D01*
X326224Y25682D01*
X324768Y25682D01*
X323765Y26685D01*
X321348Y27686D01*
X318732Y27686D01*
X316315Y26685D01*
X314465Y24835D01*
X313464Y22418D01*
X313464Y19802D01*
X314465Y17385D01*
X316315Y15535D01*
X318732Y14534D01*
X321348Y14534D01*
X323666Y15494D01*
X371494Y15494D01*
X374172Y18172D01*
X374172Y27552D01*
X375787Y28221D01*
X378859Y31293D01*
X380522Y35307D01*
X358678Y559409D02*
X358678Y578995D01*
X358678Y559409D02*
X360341Y555395D01*
X363413Y552323D01*
X367427Y550660D01*
X371773Y550660D01*
X375787Y552323D01*
X378859Y555395D01*
X380522Y559409D01*
X380522Y578995D01*
X378859Y583009D01*
X375787Y586081D01*
X371773Y587744D01*
X367427Y587744D01*
X363413Y586081D01*
X360341Y583009D01*
X358678Y578995D01*
X384078Y578995D02*
X384078Y559409D01*
X385741Y555395D01*
X388813Y552323D01*
X392827Y550660D01*
X397173Y550660D01*
X401187Y552323D01*
X404259Y555395D01*
X405922Y559409D01*
X405922Y578995D01*
X404259Y583009D01*
X401187Y586081D01*
X398272Y587289D01*
X398272Y649044D01*
X399965Y649745D01*
X401815Y651595D01*
X402816Y654012D01*
X402816Y656628D01*
X401815Y659045D01*
X399965Y660895D01*
X397548Y661896D01*
X394932Y661896D01*
X392515Y660895D01*
X390665Y659045D01*
X389664Y656628D01*
X389664Y655210D01*
X389128Y654674D01*
X389128Y586212D01*
X388813Y586081D01*
X385741Y583009D01*
X384078Y578995D01*
X421162Y587744D02*
X421260Y587744D01*
X421162Y587744D02*
X421162Y569964D01*
X419638Y569964D01*
X419638Y587744D01*
X419540Y587744D01*
X417842Y587475D01*
X416207Y586944D01*
X414676Y586163D01*
X413285Y585153D01*
X412069Y583937D01*
X411059Y582546D01*
X410278Y581015D01*
X409747Y579380D01*
X409478Y577682D01*
X409478Y569964D01*
X419638Y569964D01*
X419638Y568440D01*
X409478Y568440D01*
X409478Y560722D01*
X409747Y559024D01*
X410278Y557389D01*
X411059Y555858D01*
X412069Y554467D01*
X413285Y553251D01*
X414676Y552241D01*
X416207Y551460D01*
X417842Y550929D01*
X419540Y550660D01*
X419638Y550660D01*
X419638Y568440D01*
X421162Y568440D01*
X421162Y550660D01*
X421260Y550660D01*
X422958Y550929D01*
X424593Y551460D01*
X426124Y552241D01*
X427515Y553251D01*
X428731Y554467D01*
X429741Y555858D01*
X430522Y557389D01*
X431053Y559024D01*
X431322Y560722D01*
X431322Y568440D01*
X421162Y568440D01*
X421162Y569964D01*
X431322Y569964D01*
X431322Y577682D01*
X431053Y579380D01*
X430522Y581015D01*
X429741Y582546D01*
X428731Y583937D01*
X427515Y585153D01*
X426124Y586163D01*
X424593Y586944D01*
X422958Y587475D01*
X421260Y587744D01*
X239122Y622130D02*
X239122Y629582D01*
X237193Y636780D01*
X233467Y643234D01*
X228198Y648503D01*
X221744Y652229D01*
X214546Y654158D01*
X207094Y654158D01*
X199896Y652229D01*
X193442Y648503D01*
X188173Y643234D01*
X184447Y636780D01*
X182518Y629582D01*
X182518Y622130D01*
X184447Y614932D01*
X188173Y608478D01*
X193442Y603209D01*
X199896Y599483D01*
X207094Y597554D01*
X214546Y597554D01*
X221744Y599483D01*
X228198Y603209D01*
X233467Y608478D01*
X237193Y614932D01*
X239122Y622130D01*
X394195Y89069D02*
X395196Y86652D01*
X394195Y89069D02*
X392345Y90919D01*
X389928Y91920D01*
X387312Y91920D01*
X384895Y90919D01*
X383045Y89069D01*
X382044Y86652D01*
X382044Y84036D01*
X383045Y81619D01*
X384895Y79769D01*
X387312Y78768D01*
X388730Y78768D01*
X390144Y77354D01*
X390144Y62530D01*
X388813Y61979D01*
X385741Y58907D01*
X384078Y54893D01*
X384078Y35307D01*
X385741Y31293D01*
X388813Y28221D01*
X392827Y26558D01*
X397173Y26558D01*
X401187Y28221D01*
X404259Y31293D01*
X405922Y35307D01*
X405922Y54893D01*
X404259Y58907D01*
X401187Y61979D01*
X399288Y62766D01*
X399288Y81142D01*
X396610Y83820D01*
X395196Y85234D01*
X395196Y86652D01*
X519204Y223630D02*
X516266Y226568D01*
X519204Y223630D02*
X519204Y222212D01*
X520205Y219795D01*
X522055Y217945D01*
X524472Y216944D01*
X527088Y216944D01*
X529505Y217945D01*
X531355Y219795D01*
X531368Y219827D01*
X531368Y208926D01*
X534046Y206248D01*
X564924Y175370D01*
X564924Y175150D01*
X564526Y174752D01*
X426074Y174752D01*
X425676Y175150D01*
X425676Y176568D01*
X424675Y178985D01*
X422825Y180835D01*
X420408Y181836D01*
X417792Y181836D01*
X416272Y181206D01*
X417243Y182177D01*
X417745Y182385D01*
X419595Y184235D01*
X420596Y186652D01*
X420596Y188070D01*
X423534Y191008D01*
X426212Y193686D01*
X426212Y246622D01*
X426406Y246428D01*
X430194Y246428D01*
X430464Y246698D01*
X430668Y246698D01*
X432602Y248632D01*
X432602Y248698D01*
X501998Y248698D01*
X501998Y248632D01*
X503932Y246698D01*
X508668Y246698D01*
X510602Y248632D01*
X510602Y326836D01*
X510872Y327106D01*
X510872Y330708D01*
X527545Y330708D01*
X526824Y328968D01*
X526824Y326352D01*
X527825Y323935D01*
X529675Y322085D01*
X531368Y321384D01*
X531368Y227213D01*
X531355Y227245D01*
X529505Y229095D01*
X527088Y230096D01*
X525670Y230096D01*
X523121Y232645D01*
X524425Y233185D01*
X526275Y235035D01*
X527276Y237452D01*
X527276Y240068D01*
X526275Y242485D01*
X524425Y244335D01*
X522008Y245336D01*
X519392Y245336D01*
X516975Y244335D01*
X515972Y243332D01*
X496866Y243332D01*
X483440Y229906D01*
X475897Y229906D01*
X470094Y224103D01*
X470094Y219632D01*
X465154Y224572D01*
X464037Y224572D01*
X458703Y229906D01*
X450497Y229906D01*
X444694Y224103D01*
X444694Y215897D01*
X450497Y210094D01*
X458703Y210094D01*
X462702Y214093D01*
X473086Y203708D01*
X487034Y203708D01*
X497332Y214006D01*
X497332Y221626D01*
X502274Y226568D01*
X516266Y226568D01*
X540512Y246428D02*
X542094Y246428D01*
X542364Y246698D01*
X542568Y246698D01*
X544502Y248632D01*
X544502Y248698D01*
X613898Y248698D01*
X613898Y248632D01*
X615832Y246698D01*
X617930Y246698D01*
X617930Y233136D01*
X612952Y238114D01*
X610274Y240792D01*
X548288Y240792D01*
X547285Y241795D01*
X544868Y242796D01*
X542252Y242796D01*
X540512Y242075D01*
X540512Y246428D01*
X363358Y250952D02*
X352972Y250952D01*
X350630Y248610D01*
X349212Y248610D01*
X346795Y247609D01*
X344945Y245759D01*
X343944Y243342D01*
X343944Y240726D01*
X344232Y240030D01*
X269650Y240030D01*
X269735Y240115D01*
X270736Y242532D01*
X270736Y245148D01*
X269735Y247565D01*
X268602Y248698D01*
X331998Y248698D01*
X331998Y248632D01*
X333932Y246698D01*
X338668Y246698D01*
X340602Y248632D01*
X340602Y324428D01*
X342206Y324428D01*
X357437Y309197D01*
X357645Y308695D01*
X359495Y306845D01*
X361912Y305844D01*
X364528Y305844D01*
X365760Y306354D01*
X365760Y253354D01*
X363358Y250952D01*
X277559Y383032D02*
X274694Y385897D01*
X277559Y383032D02*
X268594Y383032D01*
X261736Y389890D01*
X261736Y391308D01*
X260735Y393725D01*
X258885Y395575D01*
X256468Y396576D01*
X253852Y396576D01*
X251435Y395575D01*
X249585Y393725D01*
X248584Y391308D01*
X248584Y388692D01*
X249585Y386275D01*
X251435Y384425D01*
X253852Y383424D01*
X255270Y383424D01*
X258738Y379956D01*
X257772Y379956D01*
X255355Y378955D01*
X253505Y377105D01*
X252504Y374688D01*
X252504Y372072D01*
X253505Y369655D01*
X255355Y367805D01*
X257772Y366804D01*
X260388Y366804D01*
X261337Y367197D01*
X262128Y366406D01*
X264806Y363728D01*
X356246Y363728D01*
X356644Y363330D01*
X356644Y361912D01*
X357645Y359495D01*
X359000Y358140D01*
X358492Y357632D01*
X273672Y357632D01*
X273672Y357632D01*
X271793Y357632D01*
X269885Y357632D01*
X269885Y357632D01*
X269885Y357632D01*
X268612Y356359D01*
X267207Y354954D01*
X267207Y354954D01*
X261730Y349476D01*
X260312Y349476D01*
X257895Y348475D01*
X256680Y347260D01*
X256583Y347495D01*
X255580Y348498D01*
X255580Y363026D01*
X252902Y365704D01*
X252902Y365704D01*
X240792Y377814D01*
X240792Y394346D01*
X250814Y404368D01*
X250814Y404368D01*
X253133Y406688D01*
X252504Y405168D01*
X252504Y402552D01*
X253505Y400135D01*
X255355Y398285D01*
X257772Y397284D01*
X260388Y397284D01*
X262805Y398285D01*
X263808Y399288D01*
X268846Y399288D01*
X274694Y393440D01*
X274694Y385897D01*
X281160Y399906D02*
X288040Y399906D01*
X281160Y399906D02*
X272634Y408432D01*
X263808Y408432D01*
X262805Y409435D01*
X260388Y410436D01*
X257772Y410436D01*
X256252Y409807D01*
X258572Y412126D01*
X258572Y416428D01*
X260194Y416428D01*
X260464Y416698D01*
X260668Y416698D01*
X262602Y418632D01*
X262602Y418698D01*
X331998Y418698D01*
X331998Y418632D01*
X333932Y416698D01*
X338668Y416698D01*
X340602Y418632D01*
X340602Y455064D01*
X344054Y451612D01*
X348078Y451612D01*
X349081Y450609D01*
X351498Y449608D01*
X354114Y449608D01*
X356531Y450609D01*
X357632Y451710D01*
X357632Y406908D01*
X295042Y406908D01*
X292364Y404230D01*
X288040Y399906D01*
X353647Y383753D02*
X362712Y392818D01*
X353647Y383753D02*
X352520Y383286D01*
X320072Y383286D01*
X318300Y384020D01*
X318029Y384020D01*
X319906Y385897D01*
X319906Y392540D01*
X347098Y392540D01*
X347739Y390991D01*
X349589Y389141D01*
X352006Y388140D01*
X354622Y388140D01*
X357039Y389141D01*
X358889Y390991D01*
X359890Y393408D01*
X359890Y396024D01*
X359169Y397764D01*
X362712Y397764D01*
X362712Y392818D01*
X464506Y393440D02*
X464506Y385897D01*
X464506Y393440D02*
X467814Y396748D01*
X472739Y396748D01*
X470094Y394103D01*
X470094Y386560D01*
X461486Y377952D01*
X436528Y377952D01*
X435525Y378955D01*
X433108Y379956D01*
X430492Y379956D01*
X428075Y378955D01*
X426225Y377105D01*
X426212Y377073D01*
X426212Y416428D01*
X430194Y416428D01*
X430464Y416698D01*
X430668Y416698D01*
X432602Y418632D01*
X432602Y418698D01*
X501998Y418698D01*
X501998Y418632D01*
X503932Y416698D01*
X508668Y416698D01*
X510602Y418632D01*
X510602Y496836D01*
X510872Y497106D01*
X510872Y500888D01*
X565645Y500888D01*
X564924Y499148D01*
X564924Y496532D01*
X565925Y494115D01*
X567775Y492265D01*
X569468Y491564D01*
X569468Y395594D01*
X533510Y359636D01*
X532092Y359636D01*
X529675Y358635D01*
X527825Y356785D01*
X526824Y354368D01*
X526824Y351752D01*
X527825Y349335D01*
X529675Y347485D01*
X532092Y346484D01*
X534708Y346484D01*
X537125Y347485D01*
X538975Y349335D01*
X539976Y351752D01*
X539976Y353170D01*
X578612Y391806D01*
X578612Y416428D01*
X580194Y416428D01*
X580464Y416698D01*
X580668Y416698D01*
X582602Y418632D01*
X582602Y418698D01*
X651998Y418698D01*
X651998Y418632D01*
X653932Y416698D01*
X658668Y416698D01*
X660602Y418632D01*
X660602Y496836D01*
X660872Y497106D01*
X660872Y500894D01*
X660602Y501164D01*
X660602Y501368D01*
X658668Y503302D01*
X658464Y503302D01*
X654412Y507354D01*
X651734Y510032D01*
X589650Y510032D01*
X594572Y514954D01*
X594572Y523506D01*
X621160Y550094D01*
X628703Y550094D01*
X634506Y555897D01*
X634506Y564103D01*
X628703Y569906D01*
X620497Y569906D01*
X614694Y564103D01*
X614694Y556560D01*
X588106Y529972D01*
X585428Y527294D01*
X585428Y518742D01*
X582560Y515874D01*
X428360Y515874D01*
X441452Y528966D01*
X441452Y582402D01*
X442602Y583552D01*
X442602Y583618D01*
X511998Y583618D01*
X511998Y583552D01*
X513932Y581618D01*
X518668Y581618D01*
X520602Y583552D01*
X520602Y616405D01*
X520997Y614932D01*
X524723Y608478D01*
X529992Y603209D01*
X536446Y599483D01*
X543644Y597554D01*
X551096Y597554D01*
X558294Y599483D01*
X564748Y603209D01*
X570017Y608478D01*
X573743Y614932D01*
X573998Y615883D01*
X573998Y588084D01*
X566928Y581014D01*
X566928Y530000D01*
X565925Y528997D01*
X564924Y526580D01*
X564924Y523964D01*
X565925Y521547D01*
X567775Y519697D01*
X570192Y518696D01*
X572808Y518696D01*
X575225Y519697D01*
X577075Y521547D01*
X578076Y523964D01*
X578076Y526580D01*
X577075Y528997D01*
X576072Y530000D01*
X576072Y577226D01*
X580464Y581618D01*
X580668Y581618D01*
X582602Y583552D01*
X582602Y583618D01*
X651998Y583618D01*
X651998Y583552D01*
X653932Y581618D01*
X658668Y581618D01*
X660602Y583552D01*
X660602Y653438D01*
X661755Y652285D01*
X664172Y651284D01*
X666788Y651284D01*
X669205Y652285D01*
X669798Y652878D01*
X669798Y348513D01*
X669741Y348624D01*
X668731Y350015D01*
X667515Y351231D01*
X666124Y352241D01*
X664593Y353022D01*
X662958Y353553D01*
X661260Y353822D01*
X661162Y353822D01*
X661162Y343662D01*
X659638Y343662D01*
X659638Y353822D01*
X644300Y353822D01*
X642602Y353553D01*
X640967Y353022D01*
X639436Y352241D01*
X638045Y351231D01*
X636829Y350015D01*
X635819Y348624D01*
X635038Y347093D01*
X634507Y345458D01*
X634238Y343760D01*
X634238Y343662D01*
X659638Y343662D01*
X659638Y342138D01*
X634238Y342138D01*
X634238Y342040D01*
X634507Y340342D01*
X635038Y338707D01*
X635819Y337176D01*
X636649Y336033D01*
X635508Y337174D01*
X635508Y337174D01*
X632830Y339852D01*
X624194Y339852D01*
X621792Y342254D01*
X621792Y342254D01*
X619114Y344932D01*
X438774Y344932D01*
X436714Y346992D01*
X438696Y346992D01*
X441113Y347993D01*
X442963Y349843D01*
X443964Y352260D01*
X443964Y354876D01*
X443571Y355825D01*
X448934Y361188D01*
X474588Y361188D01*
X477266Y363866D01*
X493384Y379984D01*
X496062Y382662D01*
X496062Y396864D01*
X489712Y403214D01*
X487034Y405892D01*
X464026Y405892D01*
X461348Y403214D01*
X458040Y399906D01*
X450497Y399906D01*
X444694Y394103D01*
X444694Y385897D01*
X450497Y380094D01*
X458703Y380094D01*
X464506Y385897D01*
X659906Y555897D02*
X659906Y564103D01*
X654103Y569906D01*
X645897Y569906D01*
X640094Y564103D01*
X640094Y555897D01*
X645897Y550094D01*
X654103Y550094D01*
X659906Y555897D01*
X489906Y555897D02*
X489906Y564103D01*
X484103Y569906D01*
X475897Y569906D01*
X470094Y564103D01*
X470094Y555897D01*
X475897Y550094D01*
X484103Y550094D01*
X489906Y555897D01*
X464506Y555897D02*
X464506Y564103D01*
X458703Y569906D01*
X450497Y569906D01*
X444694Y564103D01*
X444694Y555897D01*
X450497Y550094D01*
X458703Y550094D01*
X464506Y555897D01*
X594855Y394885D02*
X595856Y392468D01*
X594855Y394885D02*
X593005Y396735D01*
X590588Y397736D01*
X587972Y397736D01*
X585555Y396735D01*
X583705Y394885D01*
X582704Y392468D01*
X582704Y389852D01*
X583705Y387435D01*
X585555Y385585D01*
X587972Y384584D01*
X589390Y384584D01*
X599948Y374026D01*
X599948Y374026D01*
X602626Y371348D01*
X631348Y371348D01*
X631348Y360954D01*
X627490Y357096D01*
X626072Y357096D01*
X623655Y356095D01*
X621805Y354245D01*
X620804Y351828D01*
X620804Y349212D01*
X621805Y346795D01*
X623655Y344945D01*
X626072Y343944D01*
X628688Y343944D01*
X631105Y344945D01*
X632955Y346795D01*
X633956Y349212D01*
X633956Y350630D01*
X640492Y357166D01*
X640492Y374026D01*
X646560Y380094D01*
X654103Y380094D01*
X659906Y385897D01*
X659906Y394103D01*
X654103Y399906D01*
X645897Y399906D01*
X640094Y394103D01*
X640094Y386560D01*
X634026Y380492D01*
X629101Y380492D01*
X634506Y385897D01*
X634506Y394103D01*
X628703Y399906D01*
X620497Y399906D01*
X614694Y394103D01*
X614694Y385897D01*
X620099Y380492D01*
X606414Y380492D01*
X595856Y391050D01*
X595856Y392468D01*
X256170Y50292D02*
X254301Y50292D01*
X259906Y55897D01*
X259906Y64103D01*
X254103Y69906D01*
X251206Y69906D01*
X251206Y74266D01*
X251955Y75015D01*
X252956Y77432D01*
X252956Y80048D01*
X251955Y82465D01*
X251206Y83214D01*
X251206Y92340D01*
X253492Y94626D01*
X253492Y79342D01*
X253998Y78836D01*
X253998Y78632D01*
X255932Y76698D01*
X256136Y76698D01*
X256170Y76664D01*
X256406Y76428D01*
X260194Y76428D01*
X260464Y76698D01*
X260668Y76698D01*
X262602Y78632D01*
X262602Y78698D01*
X331998Y78698D01*
X331998Y78632D01*
X332398Y78232D01*
X284110Y78232D01*
X281432Y75554D01*
X256170Y50292D01*
X639436Y333559D02*
X640967Y332778D01*
X642602Y332247D01*
X644300Y331978D01*
X659638Y331978D01*
X659638Y342138D01*
X661162Y342138D01*
X661162Y331978D01*
X661260Y331978D01*
X662958Y332247D01*
X664593Y332778D01*
X666124Y333559D01*
X667515Y334569D01*
X668731Y335785D01*
X669741Y337176D01*
X669798Y337287D01*
X669798Y323352D01*
X669659Y323687D01*
X666587Y326759D01*
X662573Y328422D01*
X642987Y328422D01*
X641373Y327753D01*
X639572Y329554D01*
X639572Y333110D01*
X638293Y334389D01*
X639436Y333559D01*
X182742Y429260D02*
X178954Y429260D01*
X170602Y420908D01*
X170602Y496836D01*
X174654Y500888D01*
X188468Y500888D01*
X188468Y490866D01*
X191008Y488326D01*
X191008Y488326D01*
X193686Y485648D01*
X208124Y485648D01*
X207785Y485309D01*
X206784Y482892D01*
X206784Y480276D01*
X207785Y477859D01*
X208788Y476856D01*
X208788Y438774D01*
X199274Y429260D01*
X182742Y429260D01*
X224564Y410248D02*
X224564Y407632D01*
X225565Y405215D01*
X227415Y403365D01*
X229832Y402364D01*
X232448Y402364D01*
X234865Y403365D01*
X235868Y404368D01*
X237882Y404368D01*
X231648Y398134D01*
X231648Y374026D01*
X246436Y359238D01*
X246436Y348498D01*
X245433Y347495D01*
X244432Y345078D01*
X244432Y342462D01*
X245433Y340045D01*
X245626Y339852D01*
X200014Y339852D01*
X191262Y348604D01*
X189707Y350159D01*
X190472Y352006D01*
X190472Y354622D01*
X189471Y357039D01*
X187621Y358889D01*
X187452Y358959D01*
X187452Y374026D01*
X189992Y376566D01*
X189992Y403214D01*
X187314Y405892D01*
X184376Y408830D01*
X184376Y409050D01*
X187314Y411988D01*
X225285Y411988D01*
X224564Y410248D01*
X215254Y432308D02*
X215254Y432308D01*
X217932Y434986D01*
X217932Y476856D01*
X218935Y477859D01*
X219936Y480276D01*
X219936Y482892D01*
X218935Y485309D01*
X218596Y485648D01*
X244348Y485648D01*
X244348Y427916D01*
X242655Y427215D01*
X240805Y425365D01*
X239813Y422970D01*
X238798Y423390D01*
X236182Y423390D01*
X233765Y422389D01*
X232508Y421132D01*
X204078Y421132D01*
X215254Y432308D01*
X160541Y357519D02*
X159540Y355102D01*
X159540Y352486D01*
X160039Y351282D01*
X145426Y351282D01*
X142748Y348604D01*
X142748Y333302D01*
X113792Y333302D01*
X113792Y343026D01*
X115021Y344255D01*
X116022Y346672D01*
X116022Y349288D01*
X115021Y351705D01*
X113171Y353555D01*
X110754Y354556D01*
X108138Y354556D01*
X105721Y353555D01*
X104718Y352552D01*
X104510Y352552D01*
X86476Y370586D01*
X103260Y370586D01*
X103645Y369655D01*
X105495Y367805D01*
X107912Y366804D01*
X110528Y366804D01*
X112945Y367805D01*
X114795Y369655D01*
X115796Y372072D01*
X115796Y374688D01*
X114795Y377105D01*
X112945Y378955D01*
X110528Y379956D01*
X107912Y379956D01*
X107366Y379730D01*
X85196Y379730D01*
X85206Y379740D01*
X87884Y382418D01*
X87884Y416428D01*
X90194Y416428D01*
X90464Y416698D01*
X90668Y416698D01*
X92602Y418632D01*
X92602Y418698D01*
X161998Y418698D01*
X161998Y418632D01*
X163932Y416698D01*
X166392Y416698D01*
X164084Y414390D01*
X164084Y399345D01*
X163915Y399275D01*
X162065Y397425D01*
X161064Y395008D01*
X161064Y392392D01*
X161544Y391233D01*
X161544Y358522D01*
X160541Y357519D01*
X149906Y385897D02*
X149906Y394103D01*
X144103Y399906D01*
X135897Y399906D01*
X130094Y394103D01*
X130094Y385897D01*
X135897Y380094D01*
X144103Y380094D01*
X149906Y385897D01*
X124506Y385897D02*
X124506Y394103D01*
X118703Y399906D01*
X110497Y399906D01*
X104694Y394103D01*
X104694Y385897D01*
X110497Y380094D01*
X118703Y380094D01*
X124506Y385897D01*
X351166Y169672D02*
X358492Y169672D01*
X351166Y169672D02*
X348488Y166994D01*
X341630Y160136D01*
X340872Y160894D01*
X340872Y160894D01*
X340602Y161164D01*
X340602Y161368D01*
X338668Y163302D01*
X338464Y163302D01*
X338194Y163572D01*
X321536Y163572D01*
X321536Y163868D01*
X320535Y166285D01*
X319180Y167640D01*
X320535Y168995D01*
X321236Y170688D01*
X358492Y170688D01*
X359000Y170180D01*
X358492Y169672D01*
X170602Y248632D02*
X170602Y308431D01*
X178562Y300471D01*
X178562Y279671D01*
X179098Y279135D01*
X179098Y277358D01*
X180099Y274941D01*
X181949Y273091D01*
X182509Y272859D01*
X181903Y271394D01*
X181903Y268778D01*
X182547Y267223D01*
X182203Y267081D01*
X180353Y265231D01*
X179352Y262814D01*
X179352Y260198D01*
X180353Y257781D01*
X182203Y255931D01*
X184620Y254930D01*
X187236Y254930D01*
X189653Y255931D01*
X191503Y257781D01*
X191515Y257810D01*
X193283Y257810D01*
X183631Y248158D01*
X170128Y248158D01*
X170602Y248632D01*
X221719Y153685D02*
X222271Y153457D01*
X221719Y153685D02*
X222785Y154397D01*
X223793Y155405D01*
X224585Y156591D01*
X225131Y157908D01*
X225399Y159258D01*
X218932Y159258D01*
X218932Y160782D01*
X224002Y160782D01*
X224012Y160771D01*
X224012Y160771D01*
X226541Y158242D01*
X245629Y158242D01*
X247142Y159755D01*
X247142Y159269D01*
X239511Y151638D01*
X224089Y151638D01*
X222271Y153457D01*
X232495Y299225D02*
X232263Y299457D01*
X232495Y299225D02*
X234912Y298224D01*
X237528Y298224D01*
X239945Y299225D01*
X241795Y301075D01*
X242796Y303492D01*
X242796Y306108D01*
X241795Y308525D01*
X239945Y310375D01*
X237528Y311376D01*
X234912Y311376D01*
X232495Y310375D01*
X231492Y309372D01*
X229246Y309372D01*
X226568Y306694D01*
X223012Y303138D01*
X223012Y316514D01*
X224197Y317005D01*
X226047Y318855D01*
X227048Y321272D01*
X227048Y323888D01*
X226047Y326305D01*
X224197Y328155D01*
X221780Y329156D01*
X219164Y329156D01*
X216747Y328155D01*
X215900Y327308D01*
X215053Y328155D01*
X212636Y329156D01*
X210020Y329156D01*
X207603Y328155D01*
X205753Y326305D01*
X204752Y323888D01*
X204752Y321272D01*
X205753Y318855D01*
X207603Y317005D01*
X209550Y316199D01*
X209550Y314527D01*
X208572Y314932D01*
X205956Y314932D01*
X203539Y313931D01*
X201689Y312081D01*
X200688Y309664D01*
X200688Y307048D01*
X201130Y305980D01*
X199475Y305295D01*
X197625Y303445D01*
X196624Y301028D01*
X196624Y298412D01*
X196992Y297524D01*
X195326Y296834D01*
X195326Y311161D01*
X187198Y319289D01*
X187198Y323301D01*
X188146Y325590D01*
X188146Y328206D01*
X187145Y330623D01*
X185295Y332473D01*
X182878Y333474D01*
X182552Y333474D01*
X182875Y334254D01*
X182875Y336870D01*
X181874Y339287D01*
X180024Y341137D01*
X177607Y342138D01*
X174991Y342138D01*
X172574Y341137D01*
X171320Y339884D01*
X170095Y341109D01*
X167678Y342110D01*
X165062Y342110D01*
X162645Y341109D01*
X160795Y339259D01*
X159794Y336842D01*
X159794Y334226D01*
X160177Y333302D01*
X151892Y333302D01*
X151892Y342138D01*
X184796Y342138D01*
X196226Y330708D01*
X253998Y330708D01*
X253998Y323968D01*
X253354Y324612D01*
X251108Y324612D01*
X250105Y325615D01*
X247688Y326616D01*
X245072Y326616D01*
X242655Y325615D01*
X240805Y323765D01*
X239804Y321348D01*
X239804Y318732D01*
X240805Y316315D01*
X242655Y314465D01*
X245072Y313464D01*
X247688Y313464D01*
X250105Y314465D01*
X250337Y314697D01*
X251968Y313066D01*
X251968Y296828D01*
X251629Y297167D01*
X249212Y298168D01*
X246596Y298168D01*
X244179Y297167D01*
X242329Y295317D01*
X241328Y292900D01*
X241328Y290284D01*
X241838Y289052D01*
X231786Y289052D01*
X229108Y286374D01*
X228092Y285358D01*
X228092Y295286D01*
X232263Y299457D01*
X139205Y191685D02*
X138204Y189268D01*
X138204Y186652D01*
X139205Y184235D01*
X140551Y182889D01*
X140034Y182372D01*
X97716Y182372D01*
X97015Y184065D01*
X95165Y185915D01*
X92748Y186916D01*
X90132Y186916D01*
X88392Y186195D01*
X88392Y246428D01*
X90194Y246428D01*
X90464Y246698D01*
X90668Y246698D01*
X92602Y248632D01*
X92602Y248698D01*
X97158Y248698D01*
X96025Y247565D01*
X95024Y245148D01*
X95024Y242532D01*
X96025Y240115D01*
X97875Y238265D01*
X100292Y237264D01*
X102908Y237264D01*
X105325Y238265D01*
X106582Y239522D01*
X187209Y239522D01*
X189738Y242051D01*
X200914Y253227D01*
X200914Y242581D01*
X163311Y204978D01*
X150611Y204978D01*
X140462Y194829D01*
X140462Y192942D01*
X139205Y191685D01*
X149906Y215897D02*
X149906Y224103D01*
X144103Y229906D01*
X135897Y229906D01*
X130094Y224103D01*
X130094Y215897D01*
X135897Y210094D01*
X144103Y210094D01*
X149906Y215897D01*
X124506Y215897D02*
X124506Y224103D01*
X118703Y229906D01*
X110497Y229906D01*
X104694Y224103D01*
X104694Y215897D01*
X110497Y210094D01*
X118703Y210094D01*
X124506Y215897D01*
X226555Y107865D02*
X227556Y105448D01*
X226555Y107865D02*
X224705Y109715D01*
X222288Y110716D01*
X219672Y110716D01*
X217255Y109715D01*
X215405Y107865D01*
X214404Y105448D01*
X214404Y102832D01*
X215405Y100415D01*
X217255Y98565D01*
X219202Y97759D01*
X219202Y73562D01*
X217945Y72305D01*
X216944Y69888D01*
X216944Y67272D01*
X217945Y64855D01*
X219795Y63005D01*
X219827Y62992D01*
X192394Y62992D01*
X172212Y83174D01*
X172212Y116564D01*
X173554Y113323D01*
X177823Y109054D01*
X183401Y106744D01*
X189439Y106744D01*
X195017Y109054D01*
X199286Y113323D01*
X201596Y118901D01*
X201596Y124939D01*
X199286Y130517D01*
X195017Y134786D01*
X193577Y135382D01*
X198231Y135382D01*
X198231Y133180D01*
X199333Y130519D01*
X201369Y128483D01*
X204030Y127381D01*
X205607Y127381D01*
X204822Y126596D01*
X203565Y123562D01*
X203565Y120278D01*
X204822Y117244D01*
X207144Y114922D01*
X210178Y113665D01*
X213462Y113665D01*
X216496Y114922D01*
X218818Y117244D01*
X220075Y120278D01*
X220075Y123562D01*
X218818Y126596D01*
X218033Y127381D01*
X219610Y127381D01*
X222271Y128483D01*
X224307Y130519D01*
X225409Y133180D01*
X225409Y135382D01*
X230063Y135382D01*
X228623Y134786D01*
X224354Y130517D01*
X222044Y124939D01*
X222044Y118901D01*
X224354Y113323D01*
X228623Y109054D01*
X234201Y106744D01*
X240239Y106744D01*
X245817Y109054D01*
X248920Y112158D01*
X248920Y102986D01*
X244740Y98806D01*
X244381Y98806D01*
X241554Y95979D01*
X241554Y83214D01*
X240805Y82465D01*
X239804Y80048D01*
X239804Y77432D01*
X240805Y75015D01*
X241554Y74266D01*
X241554Y65563D01*
X240094Y64103D01*
X240094Y55897D01*
X245699Y50292D01*
X243194Y50292D01*
X230494Y62992D01*
X227213Y62992D01*
X227245Y63005D01*
X229095Y64855D01*
X230096Y67272D01*
X230096Y69888D01*
X229095Y72305D01*
X227838Y73562D01*
X227838Y103389D01*
X227556Y103671D01*
X227556Y105448D01*
X4610Y5080D02*
X3302Y5080D01*
X11750Y5080D02*
X72610Y5080D01*
X79750Y5080D02*
X669798Y5080D01*
X3878Y10160D02*
X3302Y10160D01*
X80482Y10160D02*
X669798Y10160D01*
X3878Y15240D02*
X3302Y15240D01*
X80482Y15240D02*
X317027Y15240D01*
X323052Y15240D02*
X669798Y15240D01*
X3878Y20320D02*
X3302Y20320D01*
X80482Y20320D02*
X165671Y20320D01*
X174329Y20320D02*
X245671Y20320D01*
X254329Y20320D02*
X313464Y20320D01*
X374172Y20320D02*
X669798Y20320D01*
X3878Y25400D02*
X3302Y25400D01*
X80482Y25400D02*
X160591Y25400D01*
X179409Y25400D02*
X240591Y25400D01*
X259409Y25400D02*
X315030Y25400D01*
X326506Y25400D02*
X365028Y25400D01*
X374172Y25400D02*
X669798Y25400D01*
X3878Y30480D02*
X3302Y30480D01*
X80482Y30480D02*
X160094Y30480D01*
X179906Y30480D02*
X240094Y30480D01*
X275706Y30480D02*
X335754Y30480D01*
X352646Y30480D02*
X361154Y30480D01*
X378046Y30480D02*
X386554Y30480D01*
X403446Y30480D02*
X411985Y30480D01*
X419638Y30480D02*
X421162Y30480D01*
X428815Y30480D02*
X669798Y30480D01*
X3878Y35560D02*
X3302Y35560D01*
X80482Y35560D02*
X161551Y35560D01*
X178449Y35560D02*
X241551Y35560D01*
X280786Y35560D02*
X333278Y35560D01*
X355122Y35560D02*
X358678Y35560D01*
X380522Y35560D02*
X384078Y35560D01*
X405922Y35560D02*
X409646Y35560D01*
X419638Y35560D02*
X421162Y35560D01*
X431154Y35560D02*
X462574Y35560D01*
X642026Y35560D02*
X669798Y35560D01*
X3878Y40640D02*
X3302Y40640D01*
X80482Y40640D02*
X109951Y40640D01*
X119249Y40640D02*
X135351Y40640D01*
X144649Y40640D02*
X227573Y40640D01*
X289249Y40640D02*
X305351Y40640D01*
X314649Y40640D02*
X333278Y40640D01*
X355122Y40640D02*
X358678Y40640D01*
X380522Y40640D02*
X384078Y40640D01*
X405922Y40640D02*
X409478Y40640D01*
X419638Y40640D02*
X421162Y40640D01*
X431322Y40640D02*
X449951Y40640D01*
X654649Y40640D02*
X669798Y40640D01*
X3878Y45720D02*
X3302Y45720D01*
X80482Y45720D02*
X104871Y45720D01*
X124329Y45720D02*
X130271Y45720D01*
X149729Y45720D02*
X219300Y45720D01*
X294329Y45720D02*
X300271Y45720D01*
X319729Y45720D02*
X333278Y45720D01*
X355122Y45720D02*
X358678Y45720D01*
X380522Y45720D02*
X384078Y45720D01*
X405922Y45720D02*
X419638Y45720D01*
X421162Y45720D02*
X444871Y45720D01*
X465346Y45720D02*
X470271Y45720D01*
X634329Y45720D02*
X639254Y45720D01*
X659729Y45720D02*
X669798Y45720D01*
X3878Y50800D02*
X3302Y50800D01*
X80482Y50800D02*
X104694Y50800D01*
X124506Y50800D02*
X130094Y50800D01*
X149906Y50800D02*
X165191Y50800D01*
X174809Y50800D02*
X216944Y50800D01*
X242686Y50800D02*
X245191Y50800D01*
X254809Y50800D02*
X256678Y50800D01*
X294506Y50800D02*
X300094Y50800D01*
X319906Y50800D02*
X333278Y50800D01*
X355122Y50800D02*
X358678Y50800D01*
X380522Y50800D02*
X384078Y50800D01*
X405922Y50800D02*
X409478Y50800D01*
X419638Y50800D02*
X421162Y50800D01*
X431322Y50800D02*
X444694Y50800D01*
X464506Y50800D02*
X470094Y50800D01*
X634506Y50800D02*
X640094Y50800D01*
X659906Y50800D02*
X669798Y50800D01*
X3878Y55880D02*
X3302Y55880D01*
X80482Y55880D02*
X106471Y55880D01*
X126946Y55880D02*
X131871Y55880D01*
X148129Y55880D02*
X160111Y55880D01*
X179889Y55880D02*
X186574Y55880D01*
X237606Y55880D02*
X240111Y55880D01*
X259889Y55880D02*
X261758Y55880D01*
X292729Y55880D02*
X298013Y55880D01*
X318129Y55880D02*
X333687Y55880D01*
X354713Y55880D02*
X359087Y55880D01*
X380113Y55880D02*
X384487Y55880D01*
X405513Y55880D02*
X409943Y55880D01*
X419638Y55880D02*
X421162Y55880D01*
X430857Y55880D02*
X446471Y55880D01*
X462729Y55880D02*
X467654Y55880D01*
X488129Y55880D02*
X616471Y55880D01*
X632729Y55880D02*
X637654Y55880D01*
X658129Y55880D02*
X669798Y55880D01*
X3878Y60960D02*
X3302Y60960D01*
X80482Y60960D02*
X119094Y60960D01*
X179906Y60960D02*
X181494Y60960D01*
X232526Y60960D02*
X240094Y60960D01*
X259906Y60960D02*
X266838Y60960D01*
X305147Y60960D02*
X336834Y60960D01*
X351566Y60960D02*
X362394Y60960D01*
X376806Y60960D02*
X387794Y60960D01*
X402206Y60960D02*
X413194Y60960D01*
X419638Y60960D02*
X421162Y60960D01*
X427606Y60960D02*
X437740Y60960D01*
X446180Y60960D02*
X462574Y60960D01*
X475506Y60960D02*
X632574Y60960D01*
X645506Y60960D02*
X669798Y60960D01*
X3878Y66040D02*
X3302Y66040D01*
X80482Y66040D02*
X124174Y66040D01*
X189346Y66040D02*
X217454Y66040D01*
X229586Y66040D02*
X241554Y66040D01*
X257969Y66040D02*
X271918Y66040D01*
X300067Y66040D02*
X336834Y66040D01*
X355349Y66040D02*
X390144Y66040D01*
X399288Y66040D02*
X435384Y66040D01*
X470426Y66040D02*
X627494Y66040D01*
X640426Y66040D02*
X669798Y66040D01*
X3878Y71120D02*
X3302Y71120D01*
X80482Y71120D02*
X171334Y71120D01*
X184266Y71120D02*
X217454Y71120D01*
X229586Y71120D02*
X241554Y71120D01*
X251206Y71120D02*
X276998Y71120D01*
X360429Y71120D02*
X390144Y71120D01*
X399288Y71120D02*
X437740Y71120D01*
X446180Y71120D02*
X622414Y71120D01*
X635346Y71120D02*
X669798Y71120D01*
X3878Y76200D02*
X3302Y76200D01*
X80666Y76200D02*
X166254Y76200D01*
X179186Y76200D02*
X219202Y76200D01*
X227838Y76200D02*
X240314Y76200D01*
X252446Y76200D02*
X282078Y76200D01*
X365509Y76200D02*
X390144Y76200D01*
X399288Y76200D02*
X565034Y76200D01*
X630266Y76200D02*
X669798Y76200D01*
X4610Y81280D02*
X3302Y81280D01*
X11750Y81280D02*
X72610Y81280D01*
X174106Y81280D02*
X219202Y81280D01*
X227838Y81280D02*
X240314Y81280D01*
X252446Y81280D02*
X253492Y81280D01*
X347472Y81280D02*
X349755Y81280D01*
X370589Y81280D02*
X383384Y81280D01*
X399150Y81280D02*
X423418Y81280D01*
X510602Y81280D02*
X561848Y81280D01*
X660602Y81280D02*
X669798Y81280D01*
X74168Y86360D02*
X3302Y86360D01*
X172212Y86360D02*
X219202Y86360D01*
X227838Y86360D02*
X241554Y86360D01*
X251206Y86360D02*
X253492Y86360D01*
X347472Y86360D02*
X354835Y86360D01*
X375669Y86360D02*
X382044Y86360D01*
X395196Y86360D02*
X409078Y86360D01*
X416716Y86360D02*
X423418Y86360D01*
X510602Y86360D02*
X523330Y86360D01*
X548550Y86360D02*
X561848Y86360D01*
X660602Y86360D02*
X669798Y86360D01*
X74168Y91440D02*
X3302Y91440D01*
X172212Y91440D02*
X219202Y91440D01*
X227838Y91440D02*
X241554Y91440D01*
X251206Y91440D02*
X253492Y91440D01*
X347472Y91440D02*
X359915Y91440D01*
X380749Y91440D02*
X386153Y91440D01*
X391087Y91440D02*
X406323Y91440D01*
X419475Y91440D02*
X423418Y91440D01*
X510602Y91440D02*
X516235Y91440D01*
X555645Y91440D02*
X561848Y91440D01*
X660602Y91440D02*
X669798Y91440D01*
X43183Y96520D02*
X3302Y96520D01*
X53337Y96520D02*
X74168Y96520D01*
X172212Y96520D02*
X219202Y96520D01*
X227838Y96520D02*
X242095Y96520D01*
X347472Y96520D02*
X364995Y96520D01*
X385829Y96520D02*
X401901Y96520D01*
X406835Y96520D02*
X406908Y96520D01*
X417521Y96520D02*
X423418Y96520D01*
X510602Y96520D02*
X512058Y96520D01*
X559821Y96520D02*
X561848Y96520D01*
X660602Y96520D02*
X669798Y96520D01*
X31251Y101600D02*
X3302Y101600D01*
X65269Y101600D02*
X74168Y101600D01*
X172212Y101600D02*
X214914Y101600D01*
X227838Y101600D02*
X247534Y101600D01*
X347472Y101600D02*
X370075Y101600D01*
X389804Y101600D02*
X397792Y101600D01*
X416052Y101600D02*
X423418Y101600D01*
X660602Y101600D02*
X669798Y101600D01*
X26015Y106680D02*
X3302Y106680D01*
X70505Y106680D02*
X74168Y106680D01*
X172212Y106680D02*
X214914Y106680D01*
X227046Y106680D02*
X248920Y106680D01*
X347472Y106680D02*
X364080Y106680D01*
X372520Y106680D02*
X375155Y106680D01*
X390144Y106680D02*
X396748Y106680D01*
X416052Y106680D02*
X423418Y106680D01*
X660602Y106680D02*
X669798Y106680D01*
X22912Y111760D02*
X3302Y111760D01*
X73608Y111760D02*
X74168Y111760D01*
X172212Y111760D02*
X175118Y111760D01*
X197722Y111760D02*
X225918Y111760D01*
X248522Y111760D02*
X248920Y111760D01*
X347472Y111760D02*
X361724Y111760D01*
X374876Y111760D02*
X375412Y111760D01*
X390144Y111760D02*
X396748Y111760D01*
X412866Y111760D02*
X423418Y111760D01*
X660602Y111760D02*
X669798Y111760D01*
X21001Y116840D02*
X3302Y116840D01*
X200742Y116840D02*
X205226Y116840D01*
X218414Y116840D02*
X222898Y116840D01*
X347472Y116840D02*
X364080Y116840D01*
X390144Y116840D02*
X396748Y116840D01*
X410972Y116840D02*
X423418Y116840D01*
X660602Y116840D02*
X669798Y116840D01*
X19958Y121920D02*
X3302Y121920D01*
X201596Y121920D02*
X203565Y121920D01*
X220075Y121920D02*
X222044Y121920D01*
X347472Y121920D02*
X370332Y121920D01*
X390144Y121920D02*
X396748Y121920D01*
X410972Y121920D02*
X423418Y121920D01*
X660602Y121920D02*
X669798Y121920D01*
X19958Y127000D02*
X3302Y127000D01*
X200742Y127000D02*
X205226Y127000D01*
X218414Y127000D02*
X222898Y127000D01*
X347472Y127000D02*
X370332Y127000D01*
X390144Y127000D02*
X396748Y127000D01*
X410972Y127000D02*
X423418Y127000D01*
X510602Y127000D02*
X512059Y127000D01*
X660602Y127000D02*
X669798Y127000D01*
X21001Y132080D02*
X3302Y132080D01*
X197722Y132080D02*
X198687Y132080D01*
X224953Y132080D02*
X225918Y132080D01*
X347472Y132080D02*
X370332Y132080D01*
X390144Y132080D02*
X396748Y132080D01*
X410972Y132080D02*
X423418Y132080D01*
X510602Y132080D02*
X516235Y132080D01*
X660602Y132080D02*
X669798Y132080D01*
X22912Y137160D02*
X3302Y137160D01*
X73608Y137160D02*
X74168Y137160D01*
X347472Y137160D02*
X370332Y137160D01*
X390144Y137160D02*
X396748Y137160D01*
X410972Y137160D02*
X423418Y137160D01*
X510602Y137160D02*
X523330Y137160D01*
X548550Y137160D02*
X549794Y137160D01*
X562726Y137160D02*
X566928Y137160D01*
X660602Y137160D02*
X669798Y137160D01*
X26015Y142240D02*
X3302Y142240D01*
X70505Y142240D02*
X74168Y142240D01*
X347472Y142240D02*
X370332Y142240D01*
X390144Y142240D02*
X396748Y142240D01*
X410972Y142240D02*
X420254Y142240D01*
X510602Y142240D02*
X544714Y142240D01*
X557646Y142240D02*
X566928Y142240D01*
X660602Y142240D02*
X669798Y142240D01*
X31251Y147320D02*
X3302Y147320D01*
X65269Y147320D02*
X74168Y147320D01*
X347472Y147320D02*
X370332Y147320D01*
X390144Y147320D02*
X396748Y147320D01*
X410972Y147320D02*
X415174Y147320D01*
X510602Y147320D02*
X537494Y147320D01*
X552566Y147320D02*
X566928Y147320D01*
X660602Y147320D02*
X669798Y147320D01*
X43183Y152400D02*
X3302Y152400D01*
X53337Y152400D02*
X65054Y152400D01*
X223327Y152400D02*
X240273Y152400D01*
X347472Y152400D02*
X370332Y152400D01*
X390144Y152400D02*
X396748Y152400D01*
X510602Y152400D02*
X537494Y152400D01*
X549626Y152400D02*
X564740Y152400D01*
X660602Y152400D02*
X669798Y152400D01*
X65054Y157480D02*
X3302Y157480D01*
X224953Y157480D02*
X245353Y157480D01*
X351906Y157480D02*
X370332Y157480D01*
X390144Y157480D02*
X396748Y157480D01*
X510872Y157480D02*
X562384Y157480D01*
X660872Y157480D02*
X669798Y157480D01*
X3694Y162560D02*
X3302Y162560D01*
X339410Y162560D02*
X344054Y162560D01*
X369286Y162560D02*
X370332Y162560D01*
X390144Y162560D02*
X396748Y162560D01*
X659892Y162560D02*
X669798Y162560D01*
X310740Y167640D02*
X268732Y167640D01*
X319180Y167640D02*
X349134Y167640D01*
X369286Y167640D02*
X370332Y167640D01*
X390144Y167640D02*
X396748Y167640D01*
X659246Y167640D02*
X669798Y167640D01*
X308384Y172720D02*
X268732Y172720D01*
X369286Y172720D02*
X370332Y172720D01*
X390144Y172720D02*
X396748Y172720D01*
X577566Y172720D02*
X669798Y172720D01*
X3338Y177800D02*
X3302Y177800D01*
X268732Y177800D02*
X310740Y177800D01*
X369286Y177800D02*
X370332Y177800D01*
X390144Y177800D02*
X396748Y177800D01*
X425166Y177800D02*
X562494Y177800D01*
X577566Y177800D02*
X669798Y177800D01*
X3338Y182880D02*
X3302Y182880D01*
X97506Y182880D02*
X140542Y182880D01*
X268732Y182880D02*
X308384Y182880D01*
X369286Y182880D02*
X370332Y182880D01*
X390144Y182880D02*
X396748Y182880D01*
X418240Y182880D02*
X557414Y182880D01*
X570346Y182880D02*
X669798Y182880D01*
X3338Y187960D02*
X3302Y187960D01*
X88392Y187960D02*
X138204Y187960D01*
X268732Y187960D02*
X310740Y187960D01*
X319180Y187960D02*
X357154Y187960D01*
X369286Y187960D02*
X370332Y187960D01*
X390144Y187960D02*
X396748Y187960D01*
X420596Y187960D02*
X552334Y187960D01*
X565266Y187960D02*
X669798Y187960D01*
X3338Y193040D02*
X3302Y193040D01*
X88392Y193040D02*
X140462Y193040D01*
X271272Y193040D02*
X370332Y193040D01*
X390144Y193040D02*
X396748Y193040D01*
X425566Y193040D02*
X547254Y193040D01*
X560186Y193040D02*
X669798Y193040D01*
X3338Y198120D02*
X3302Y198120D01*
X88392Y198120D02*
X143753Y198120D01*
X271272Y198120D02*
X370332Y198120D01*
X390144Y198120D02*
X396748Y198120D01*
X426212Y198120D02*
X542174Y198120D01*
X555106Y198120D02*
X669798Y198120D01*
X3338Y203200D02*
X3302Y203200D01*
X88392Y203200D02*
X148833Y203200D01*
X271272Y203200D02*
X370332Y203200D01*
X390144Y203200D02*
X396748Y203200D01*
X426212Y203200D02*
X537094Y203200D01*
X550026Y203200D02*
X600334Y203200D01*
X639666Y203200D02*
X669798Y203200D01*
X3338Y208280D02*
X3302Y208280D01*
X88392Y208280D02*
X166613Y208280D01*
X271272Y208280D02*
X370332Y208280D01*
X390144Y208280D02*
X396748Y208280D01*
X426212Y208280D02*
X468514Y208280D01*
X491606Y208280D02*
X532014Y208280D01*
X544946Y208280D02*
X595254Y208280D01*
X608186Y208280D02*
X631814Y208280D01*
X644746Y208280D02*
X669798Y208280D01*
X3338Y213360D02*
X3302Y213360D01*
X88392Y213360D02*
X107231Y213360D01*
X121969Y213360D02*
X132631Y213360D01*
X147369Y213360D02*
X171693Y213360D01*
X271272Y213360D02*
X277231Y213360D01*
X291969Y213360D02*
X302631Y213360D01*
X317369Y213360D02*
X370332Y213360D01*
X390144Y213360D02*
X396748Y213360D01*
X426212Y213360D02*
X447231Y213360D01*
X461969Y213360D02*
X463434Y213360D01*
X496686Y213360D02*
X531368Y213360D01*
X540512Y213360D02*
X590174Y213360D01*
X603106Y213360D02*
X617231Y213360D01*
X631969Y213360D02*
X636894Y213360D01*
X657369Y213360D02*
X669798Y213360D01*
X3338Y218440D02*
X3302Y218440D01*
X88392Y218440D02*
X104694Y218440D01*
X124506Y218440D02*
X130094Y218440D01*
X149906Y218440D02*
X176773Y218440D01*
X273276Y218440D02*
X274694Y218440D01*
X294506Y218440D02*
X300094Y218440D01*
X369286Y218440D02*
X370332Y218440D01*
X390144Y218440D02*
X396748Y218440D01*
X426212Y218440D02*
X444694Y218440D01*
X497332Y218440D02*
X521560Y218440D01*
X530000Y218440D02*
X531368Y218440D01*
X547780Y218440D02*
X585094Y218440D01*
X598026Y218440D02*
X614694Y218440D01*
X634506Y218440D02*
X640094Y218440D01*
X659906Y218440D02*
X669798Y218440D01*
X3338Y223520D02*
X3302Y223520D01*
X88392Y223520D02*
X104694Y223520D01*
X124506Y223520D02*
X130094Y223520D01*
X149906Y223520D02*
X181853Y223520D01*
X294506Y223520D02*
X300094Y223520D01*
X369286Y223520D02*
X370332Y223520D01*
X390144Y223520D02*
X396748Y223520D01*
X426212Y223520D02*
X444694Y223520D01*
X466206Y223520D02*
X470094Y223520D01*
X499226Y223520D02*
X519204Y223520D01*
X592946Y223520D02*
X614614Y223520D01*
X634506Y223520D02*
X640094Y223520D01*
X659906Y223520D02*
X669798Y223520D01*
X3338Y228600D02*
X3302Y228600D01*
X88392Y228600D02*
X109191Y228600D01*
X120009Y228600D02*
X134591Y228600D01*
X145409Y228600D02*
X186933Y228600D01*
X390144Y228600D02*
X396748Y228600D01*
X426212Y228600D02*
X449191Y228600D01*
X460009Y228600D02*
X474591Y228600D01*
X530000Y228600D02*
X531368Y228600D01*
X547780Y228600D02*
X609534Y228600D01*
X630009Y228600D02*
X644591Y228600D01*
X655409Y228600D02*
X669798Y228600D01*
X3338Y233680D02*
X3302Y233680D01*
X88392Y233680D02*
X192013Y233680D01*
X390144Y233680D02*
X396748Y233680D01*
X426212Y233680D02*
X487214Y233680D01*
X524920Y233680D02*
X531368Y233680D01*
X617386Y233680D02*
X617930Y233680D01*
X627074Y233680D02*
X669798Y233680D01*
X3338Y238760D02*
X3302Y238760D01*
X88392Y238760D02*
X97380Y238760D01*
X105820Y238760D02*
X197093Y238760D01*
X390144Y238760D02*
X398300Y238760D01*
X426212Y238760D02*
X492294Y238760D01*
X527276Y238760D02*
X531368Y238760D01*
X612306Y238760D02*
X617930Y238760D01*
X627074Y238760D02*
X669798Y238760D01*
X4070Y243840D02*
X3302Y243840D01*
X11210Y243840D02*
X71068Y243840D01*
X88392Y243840D02*
X95024Y243840D01*
X191527Y243840D02*
X200914Y243840D01*
X270736Y243840D02*
X344150Y243840D01*
X390144Y243840D02*
X401183Y243840D01*
X426212Y243840D02*
X516480Y243840D01*
X524920Y243840D02*
X531368Y243840D01*
X540512Y243840D02*
X617930Y243840D01*
X627074Y243840D02*
X669798Y243840D01*
X71068Y248920D02*
X3302Y248920D01*
X170602Y248920D02*
X184393Y248920D01*
X196607Y248920D02*
X200914Y248920D01*
X340602Y248920D02*
X350940Y248920D01*
X390144Y248920D02*
X399934Y248920D01*
X510602Y248920D02*
X531368Y248920D01*
X627074Y248920D02*
X669798Y248920D01*
X71068Y254000D02*
X3302Y254000D01*
X170602Y254000D02*
X189473Y254000D01*
X340602Y254000D02*
X365760Y254000D01*
X390144Y254000D02*
X396748Y254000D01*
X510602Y254000D02*
X531368Y254000D01*
X627074Y254000D02*
X669798Y254000D01*
X4874Y259080D02*
X3302Y259080D01*
X35766Y259080D02*
X71068Y259080D01*
X170602Y259080D02*
X179815Y259080D01*
X340602Y259080D02*
X365760Y259080D01*
X390144Y259080D02*
X396748Y259080D01*
X510602Y259080D02*
X531368Y259080D01*
X627074Y259080D02*
X637334Y259080D01*
X668226Y259080D02*
X669798Y259080D01*
X71068Y264160D02*
X38710Y264160D01*
X170602Y264160D02*
X179910Y264160D01*
X340602Y264160D02*
X365760Y264160D01*
X390144Y264160D02*
X396748Y264160D01*
X510602Y264160D02*
X531368Y264160D01*
X627074Y264160D02*
X634390Y264160D01*
X71068Y269240D02*
X38710Y269240D01*
X170602Y269240D02*
X181903Y269240D01*
X340602Y269240D02*
X365760Y269240D01*
X390144Y269240D02*
X396748Y269240D01*
X510602Y269240D02*
X531368Y269240D01*
X627074Y269240D02*
X634390Y269240D01*
X4874Y274320D02*
X3302Y274320D01*
X35766Y274320D02*
X71068Y274320D01*
X170602Y274320D02*
X180720Y274320D01*
X340602Y274320D02*
X365760Y274320D01*
X390144Y274320D02*
X396748Y274320D01*
X510602Y274320D02*
X531368Y274320D01*
X627074Y274320D02*
X637334Y274320D01*
X668226Y274320D02*
X669798Y274320D01*
X71068Y279400D02*
X3302Y279400D01*
X170602Y279400D02*
X178833Y279400D01*
X340602Y279400D02*
X365760Y279400D01*
X390144Y279400D02*
X396748Y279400D01*
X510602Y279400D02*
X531368Y279400D01*
X627074Y279400D02*
X669798Y279400D01*
X4874Y284480D02*
X3302Y284480D01*
X35766Y284480D02*
X71068Y284480D01*
X170602Y284480D02*
X178562Y284480D01*
X340602Y284480D02*
X365760Y284480D01*
X390144Y284480D02*
X396748Y284480D01*
X510602Y284480D02*
X531368Y284480D01*
X627074Y284480D02*
X637334Y284480D01*
X668226Y284480D02*
X669798Y284480D01*
X71068Y289560D02*
X38710Y289560D01*
X170602Y289560D02*
X178562Y289560D01*
X228092Y289560D02*
X241628Y289560D01*
X340602Y289560D02*
X365760Y289560D01*
X390144Y289560D02*
X396748Y289560D01*
X510602Y289560D02*
X531368Y289560D01*
X627074Y289560D02*
X634390Y289560D01*
X71068Y294640D02*
X38710Y294640D01*
X170602Y294640D02*
X178562Y294640D01*
X228092Y294640D02*
X242049Y294640D01*
X340602Y294640D02*
X365760Y294640D01*
X390144Y294640D02*
X396748Y294640D01*
X510602Y294640D02*
X531368Y294640D01*
X627074Y294640D02*
X634390Y294640D01*
X4874Y299720D02*
X3302Y299720D01*
X35766Y299720D02*
X70134Y299720D01*
X170602Y299720D02*
X178562Y299720D01*
X195326Y299720D02*
X196624Y299720D01*
X240440Y299720D02*
X251968Y299720D01*
X340602Y299720D02*
X365760Y299720D01*
X390144Y299720D02*
X396748Y299720D01*
X510602Y299720D02*
X531368Y299720D01*
X627074Y299720D02*
X637334Y299720D01*
X668226Y299720D02*
X669798Y299720D01*
X70134Y304800D02*
X3302Y304800D01*
X170602Y304800D02*
X174233Y304800D01*
X195326Y304800D02*
X198980Y304800D01*
X223012Y304800D02*
X224674Y304800D01*
X242796Y304800D02*
X251968Y304800D01*
X340602Y304800D02*
X365760Y304800D01*
X390144Y304800D02*
X396748Y304800D01*
X510602Y304800D02*
X531368Y304800D01*
X627074Y304800D02*
X669798Y304800D01*
X4874Y309880D02*
X3302Y309880D01*
X35766Y309880D02*
X49120Y309880D01*
X57560Y309880D02*
X70358Y309880D01*
X195326Y309880D02*
X200777Y309880D01*
X223012Y309880D02*
X232000Y309880D01*
X240440Y309880D02*
X251968Y309880D01*
X340602Y309880D02*
X356754Y309880D01*
X390144Y309880D02*
X396748Y309880D01*
X510602Y309880D02*
X531368Y309880D01*
X627074Y309880D02*
X637334Y309880D01*
X668226Y309880D02*
X669798Y309880D01*
X70358Y314960D02*
X59916Y314960D01*
X191527Y314960D02*
X209550Y314960D01*
X223012Y314960D02*
X242160Y314960D01*
X340602Y314960D02*
X351674Y314960D01*
X390144Y314960D02*
X396748Y314960D01*
X510602Y314960D02*
X531368Y314960D01*
X627074Y314960D02*
X634390Y314960D01*
X49120Y320040D02*
X38710Y320040D01*
X57560Y320040D02*
X70358Y320040D01*
X187198Y320040D02*
X205262Y320040D01*
X226538Y320040D02*
X239804Y320040D01*
X340602Y320040D02*
X346594Y320040D01*
X390144Y320040D02*
X396748Y320040D01*
X510602Y320040D02*
X531368Y320040D01*
X627074Y320040D02*
X634390Y320040D01*
X4874Y325120D02*
X3302Y325120D01*
X35766Y325120D02*
X70358Y325120D01*
X187951Y325120D02*
X205262Y325120D01*
X226538Y325120D02*
X242160Y325120D01*
X250600Y325120D02*
X253998Y325120D01*
X390144Y325120D02*
X396748Y325120D01*
X510602Y325120D02*
X527334Y325120D01*
X668226Y325120D02*
X669798Y325120D01*
X69624Y330200D02*
X3302Y330200D01*
X187320Y330200D02*
X253998Y330200D01*
X390144Y330200D02*
X396748Y330200D01*
X510872Y330200D02*
X527334Y330200D01*
X639572Y330200D02*
X669798Y330200D01*
X4874Y335280D02*
X3302Y335280D01*
X11938Y335280D02*
X13462Y335280D01*
X35766Y335280D02*
X71980Y335280D01*
X113792Y335280D02*
X142748Y335280D01*
X151892Y335280D02*
X159794Y335280D01*
X182875Y335280D02*
X191654Y335280D01*
X390144Y335280D02*
X396748Y335280D01*
X659638Y335280D02*
X661162Y335280D01*
X668226Y335280D02*
X669798Y335280D01*
X13462Y340360D02*
X11938Y340360D01*
X38596Y340360D02*
X92994Y340360D01*
X113792Y340360D02*
X142748Y340360D01*
X151892Y340360D02*
X161896Y340360D01*
X170844Y340360D02*
X171797Y340360D01*
X180801Y340360D02*
X186574Y340360D01*
X199506Y340360D02*
X245303Y340360D01*
X390144Y340360D02*
X396748Y340360D01*
X623686Y340360D02*
X634504Y340360D01*
X659638Y340360D02*
X661162Y340360D01*
X13462Y345440D02*
X11938Y345440D01*
X38596Y345440D02*
X90054Y345440D01*
X115512Y345440D02*
X142748Y345440D01*
X194426Y345440D02*
X244582Y345440D01*
X390144Y345440D02*
X397792Y345440D01*
X438266Y345440D02*
X623160Y345440D01*
X631600Y345440D02*
X634504Y345440D01*
X659638Y345440D02*
X661162Y345440D01*
X4874Y350520D02*
X3302Y350520D01*
X11938Y350520D02*
X13462Y350520D01*
X35766Y350520D02*
X84974Y350520D01*
X115512Y350520D02*
X144664Y350520D01*
X189856Y350520D02*
X246436Y350520D01*
X255580Y350520D02*
X262774Y350520D01*
X390144Y350520D02*
X402514Y350520D01*
X406222Y350520D02*
X409448Y350520D01*
X443243Y350520D02*
X527334Y350520D01*
X539466Y350520D02*
X620804Y350520D01*
X633956Y350520D02*
X637334Y350520D01*
X659638Y350520D02*
X661162Y350520D01*
X668226Y350520D02*
X669798Y350520D01*
X67274Y355600D02*
X3302Y355600D01*
X101462Y355600D02*
X159746Y355600D01*
X190067Y355600D02*
X246436Y355600D01*
X255580Y355600D02*
X267853Y355600D01*
X390144Y355600D02*
X409448Y355600D01*
X443664Y355600D02*
X527334Y355600D01*
X542406Y355600D02*
X623160Y355600D01*
X638926Y355600D02*
X669798Y355600D01*
X62194Y360680D02*
X3302Y360680D01*
X96382Y360680D02*
X161544Y360680D01*
X187452Y360680D02*
X244994Y360680D01*
X255580Y360680D02*
X357154Y360680D01*
X390144Y360680D02*
X409448Y360680D01*
X448426Y360680D02*
X534554Y360680D01*
X547486Y360680D02*
X631074Y360680D01*
X640492Y360680D02*
X669798Y360680D01*
X11149Y365760D02*
X3302Y365760D01*
X91302Y365760D02*
X161544Y365760D01*
X187452Y365760D02*
X239914Y365760D01*
X252846Y365760D02*
X262774Y365760D01*
X390144Y365760D02*
X409448Y365760D01*
X479160Y365760D02*
X539634Y365760D01*
X552566Y365760D02*
X631348Y365760D01*
X640492Y365760D02*
X669798Y365760D01*
X6069Y370840D02*
X3302Y370840D01*
X115286Y370840D02*
X161544Y370840D01*
X187452Y370840D02*
X234834Y370840D01*
X247766Y370840D02*
X253014Y370840D01*
X390144Y370840D02*
X410094Y370840D01*
X484240Y370840D02*
X544714Y370840D01*
X557646Y370840D02*
X631348Y370840D01*
X640492Y370840D02*
X669798Y370840D01*
X61262Y375920D02*
X13203Y375920D01*
X115286Y375920D02*
X161544Y375920D01*
X189346Y375920D02*
X231648Y375920D01*
X242686Y375920D02*
X253014Y375920D01*
X390144Y375920D02*
X415174Y375920D01*
X489320Y375920D02*
X549794Y375920D01*
X562726Y375920D02*
X598054Y375920D01*
X642386Y375920D02*
X669798Y375920D01*
X64210Y381000D02*
X11518Y381000D01*
X86466Y381000D02*
X109591Y381000D01*
X119609Y381000D02*
X134991Y381000D01*
X145009Y381000D02*
X161544Y381000D01*
X189992Y381000D02*
X231648Y381000D01*
X240792Y381000D02*
X257694Y381000D01*
X390144Y381000D02*
X417068Y381000D01*
X426212Y381000D02*
X449591Y381000D01*
X459609Y381000D02*
X464534Y381000D01*
X494400Y381000D02*
X554874Y381000D01*
X567806Y381000D02*
X592974Y381000D01*
X605906Y381000D02*
X619591Y381000D01*
X629609Y381000D02*
X634534Y381000D01*
X655009Y381000D02*
X669798Y381000D01*
X104694Y386080D02*
X87884Y386080D01*
X124506Y386080D02*
X130094Y386080D01*
X149906Y386080D02*
X161544Y386080D01*
X189992Y386080D02*
X231648Y386080D01*
X240792Y386080D02*
X249780Y386080D01*
X265546Y386080D02*
X274694Y386080D01*
X319906Y386080D02*
X355974Y386080D01*
X390144Y386080D02*
X417068Y386080D01*
X426212Y386080D02*
X444694Y386080D01*
X464506Y386080D02*
X469614Y386080D01*
X496062Y386080D02*
X559954Y386080D01*
X572886Y386080D02*
X585060Y386080D01*
X600826Y386080D02*
X614694Y386080D01*
X634506Y386080D02*
X639614Y386080D01*
X659906Y386080D02*
X669798Y386080D01*
X104694Y391160D02*
X87884Y391160D01*
X124506Y391160D02*
X130094Y391160D01*
X149906Y391160D02*
X161544Y391160D01*
X189992Y391160D02*
X231648Y391160D01*
X240792Y391160D02*
X248584Y391160D01*
X261736Y391160D02*
X274694Y391160D01*
X319906Y391160D02*
X347669Y391160D01*
X358959Y391160D02*
X361054Y391160D01*
X390144Y391160D02*
X417068Y391160D01*
X426212Y391160D02*
X444694Y391160D01*
X464506Y391160D02*
X470094Y391160D01*
X496062Y391160D02*
X565034Y391160D01*
X577966Y391160D02*
X582704Y391160D01*
X595856Y391160D02*
X614694Y391160D01*
X634506Y391160D02*
X640094Y391160D01*
X659906Y391160D02*
X669798Y391160D01*
X106831Y396240D02*
X87884Y396240D01*
X122369Y396240D02*
X132231Y396240D01*
X147769Y396240D02*
X161574Y396240D01*
X189992Y396240D02*
X231648Y396240D01*
X242686Y396240D02*
X253041Y396240D01*
X257279Y396240D02*
X271894Y396240D01*
X359801Y396240D02*
X362712Y396240D01*
X390144Y396240D02*
X417068Y396240D01*
X426212Y396240D02*
X446831Y396240D01*
X467306Y396240D02*
X472231Y396240D01*
X496062Y396240D02*
X569468Y396240D01*
X578612Y396240D02*
X585060Y396240D01*
X593500Y396240D02*
X616831Y396240D01*
X632369Y396240D02*
X642231Y396240D01*
X657769Y396240D02*
X669798Y396240D01*
X164084Y401320D02*
X87884Y401320D01*
X189992Y401320D02*
X234834Y401320D01*
X247766Y401320D02*
X253014Y401320D01*
X279746Y401320D02*
X289454Y401320D01*
X390144Y401320D02*
X417068Y401320D01*
X426212Y401320D02*
X459454Y401320D01*
X491606Y401320D02*
X569468Y401320D01*
X578612Y401320D02*
X669798Y401320D01*
X164084Y406400D02*
X87884Y406400D01*
X186806Y406400D02*
X225074Y406400D01*
X252846Y406400D02*
X253014Y406400D01*
X274666Y406400D02*
X294534Y406400D01*
X390144Y406400D02*
X417068Y406400D01*
X426212Y406400D02*
X569468Y406400D01*
X578612Y406400D02*
X669798Y406400D01*
X164084Y411480D02*
X87884Y411480D01*
X186806Y411480D02*
X225074Y411480D01*
X257926Y411480D02*
X357632Y411480D01*
X390144Y411480D02*
X417068Y411480D01*
X426212Y411480D02*
X569468Y411480D01*
X578612Y411480D02*
X669798Y411480D01*
X166254Y416560D02*
X90326Y416560D01*
X260326Y416560D02*
X357632Y416560D01*
X390144Y416560D02*
X417068Y416560D01*
X430326Y416560D02*
X569468Y416560D01*
X580326Y416560D02*
X669798Y416560D01*
X171334Y421640D02*
X170602Y421640D01*
X204586Y421640D02*
X233016Y421640D01*
X340602Y421640D02*
X357632Y421640D01*
X390144Y421640D02*
X417068Y421640D01*
X510602Y421640D02*
X569468Y421640D01*
X660602Y421640D02*
X669798Y421640D01*
X176414Y426720D02*
X170602Y426720D01*
X209666Y426720D02*
X242160Y426720D01*
X340602Y426720D02*
X357632Y426720D01*
X390144Y426720D02*
X417068Y426720D01*
X510602Y426720D02*
X569468Y426720D01*
X660602Y426720D02*
X669798Y426720D01*
X201814Y431800D02*
X170602Y431800D01*
X214746Y431800D02*
X244348Y431800D01*
X340602Y431800D02*
X357632Y431800D01*
X390144Y431800D02*
X417068Y431800D01*
X510602Y431800D02*
X569468Y431800D01*
X660602Y431800D02*
X669798Y431800D01*
X206894Y436880D02*
X170602Y436880D01*
X217932Y436880D02*
X244348Y436880D01*
X340602Y436880D02*
X357632Y436880D01*
X390144Y436880D02*
X417068Y436880D01*
X510602Y436880D02*
X569468Y436880D01*
X660602Y436880D02*
X669798Y436880D01*
X208788Y441960D02*
X170602Y441960D01*
X217932Y441960D02*
X244348Y441960D01*
X340602Y441960D02*
X357632Y441960D01*
X390144Y441960D02*
X415174Y441960D01*
X510602Y441960D02*
X569468Y441960D01*
X660602Y441960D02*
X669798Y441960D01*
X208788Y447040D02*
X170602Y447040D01*
X217932Y447040D02*
X244348Y447040D01*
X340602Y447040D02*
X357632Y447040D01*
X390144Y447040D02*
X410094Y447040D01*
X423026Y447040D02*
X423998Y447040D01*
X510602Y447040D02*
X569468Y447040D01*
X660602Y447040D02*
X669798Y447040D01*
X208788Y452120D02*
X170602Y452120D01*
X217932Y452120D02*
X244348Y452120D01*
X340602Y452120D02*
X343546Y452120D01*
X390144Y452120D02*
X405014Y452120D01*
X417946Y452120D02*
X423998Y452120D01*
X510602Y452120D02*
X569468Y452120D01*
X660602Y452120D02*
X669798Y452120D01*
X208788Y457200D02*
X170602Y457200D01*
X217932Y457200D02*
X244348Y457200D01*
X390144Y457200D02*
X399934Y457200D01*
X412866Y457200D02*
X423998Y457200D01*
X510602Y457200D02*
X569468Y457200D01*
X660602Y457200D02*
X669798Y457200D01*
X208788Y462280D02*
X170602Y462280D01*
X217932Y462280D02*
X244348Y462280D01*
X346318Y462280D02*
X347056Y462280D01*
X390144Y462280D02*
X398018Y462280D01*
X415954Y462280D02*
X423998Y462280D01*
X510602Y462280D02*
X569468Y462280D01*
X660602Y462280D02*
X669798Y462280D01*
X71628Y467360D02*
X11370Y467360D01*
X170602Y467360D02*
X208788Y467360D01*
X217932Y467360D02*
X244348Y467360D01*
X345440Y467360D02*
X346425Y467360D01*
X361050Y467360D02*
X362712Y467360D01*
X390144Y467360D02*
X398018Y467360D01*
X418200Y467360D02*
X423998Y467360D01*
X510602Y467360D02*
X569468Y467360D01*
X660602Y467360D02*
X669798Y467360D01*
X69624Y472440D02*
X7210Y472440D01*
X170602Y472440D02*
X208788Y472440D01*
X217932Y472440D02*
X244348Y472440D01*
X345440Y472440D02*
X362712Y472440D01*
X390144Y472440D02*
X398018Y472440D01*
X422402Y472440D02*
X423998Y472440D01*
X510602Y472440D02*
X569468Y472440D01*
X660602Y472440D02*
X669798Y472440D01*
X71980Y477520D02*
X12290Y477520D01*
X170602Y477520D02*
X208124Y477520D01*
X218596Y477520D02*
X244348Y477520D01*
X345440Y477520D02*
X358140Y477520D01*
X390144Y477520D02*
X398018Y477520D01*
X422402Y477520D02*
X423998Y477520D01*
X510602Y477520D02*
X569468Y477520D01*
X660602Y477520D02*
X669798Y477520D01*
X79248Y482600D02*
X17370Y482600D01*
X170602Y482600D02*
X206784Y482600D01*
X219936Y482600D02*
X244348Y482600D01*
X345440Y482600D02*
X358140Y482600D01*
X390144Y482600D02*
X398018Y482600D01*
X422402Y482600D02*
X423998Y482600D01*
X510602Y482600D02*
X569468Y482600D01*
X660602Y482600D02*
X669798Y482600D01*
X79248Y487680D02*
X22450Y487680D01*
X170602Y487680D02*
X191654Y487680D01*
X345440Y487680D02*
X358140Y487680D01*
X390144Y487680D02*
X398018Y487680D01*
X422402Y487680D02*
X423998Y487680D01*
X510602Y487680D02*
X569468Y487680D01*
X660602Y487680D02*
X669798Y487680D01*
X79248Y492760D02*
X27530Y492760D01*
X170602Y492760D02*
X188468Y492760D01*
X345440Y492760D02*
X358140Y492760D01*
X390014Y492760D02*
X398018Y492760D01*
X422402Y492760D02*
X423998Y492760D01*
X510602Y492760D02*
X567280Y492760D01*
X660602Y492760D02*
X669798Y492760D01*
X71980Y497840D02*
X28702Y497840D01*
X171606Y497840D02*
X188468Y497840D01*
X345440Y497840D02*
X354958Y497840D01*
X386337Y497840D02*
X398018Y497840D01*
X510872Y497840D02*
X564924Y497840D01*
X660872Y497840D02*
X669798Y497840D01*
X69624Y502920D02*
X28702Y502920D01*
X344286Y502920D02*
X349878Y502920D01*
X381257Y502920D02*
X402474Y502920D01*
X659050Y502920D02*
X669798Y502920D01*
X64654Y508000D02*
X28702Y508000D01*
X102242Y508000D02*
X168834Y508000D01*
X339206Y508000D02*
X344798Y508000D01*
X376177Y508000D02*
X407554Y508000D01*
X653766Y508000D02*
X669798Y508000D01*
X64008Y513080D02*
X28702Y513080D01*
X143226Y513080D02*
X187376Y513080D01*
X191084Y513080D02*
X339718Y513080D01*
X371097Y513080D02*
X412634Y513080D01*
X592698Y513080D02*
X669798Y513080D01*
X64008Y518160D02*
X28702Y518160D01*
X143226Y518160D02*
X182654Y518160D01*
X366017Y518160D02*
X417714Y518160D01*
X430646Y518160D02*
X584846Y518160D01*
X594572Y518160D02*
X669798Y518160D01*
X64008Y523240D02*
X28702Y523240D01*
X95632Y523240D02*
X105320Y523240D01*
X360937Y523240D02*
X422794Y523240D01*
X435726Y523240D02*
X565224Y523240D01*
X577776Y523240D02*
X585428Y523240D01*
X594572Y523240D02*
X669798Y523240D01*
X64008Y528320D02*
X28702Y528320D01*
X87718Y528320D02*
X101374Y528320D01*
X355857Y528320D02*
X427874Y528320D01*
X440806Y528320D02*
X565645Y528320D01*
X577355Y528320D02*
X586454Y528320D01*
X599386Y528320D02*
X669798Y528320D01*
X64008Y533400D02*
X28702Y533400D01*
X83312Y533400D02*
X102460Y533400D01*
X352806Y533400D02*
X432308Y533400D01*
X441452Y533400D02*
X566928Y533400D01*
X576072Y533400D02*
X591534Y533400D01*
X604466Y533400D02*
X669798Y533400D01*
X64008Y538480D02*
X28702Y538480D01*
X83312Y538480D02*
X129654Y538480D01*
X217904Y538480D02*
X338074Y538480D01*
X352806Y538480D02*
X432308Y538480D01*
X441452Y538480D02*
X566928Y538480D01*
X576072Y538480D02*
X596614Y538480D01*
X609546Y538480D02*
X669798Y538480D01*
X64008Y543560D02*
X28702Y543560D01*
X83312Y543560D02*
X124574Y543560D01*
X215548Y543560D02*
X338074Y543560D01*
X352806Y543560D02*
X432308Y543560D01*
X441452Y543560D02*
X566928Y543560D01*
X576072Y543560D02*
X601694Y543560D01*
X614626Y543560D02*
X669798Y543560D01*
X64008Y548640D02*
X28702Y548640D01*
X83312Y548640D02*
X119494Y548640D01*
X132426Y548640D02*
X144894Y548640D01*
X217794Y548640D02*
X271918Y548640D01*
X305106Y548640D02*
X338074Y548640D01*
X352806Y548640D02*
X432308Y548640D01*
X441452Y548640D02*
X566928Y548640D01*
X576072Y548640D02*
X606774Y548640D01*
X619706Y548640D02*
X669798Y548640D01*
X64008Y553720D02*
X28702Y553720D01*
X83312Y553720D02*
X106871Y553720D01*
X127346Y553720D02*
X132271Y553720D01*
X152746Y553720D02*
X188496Y553720D01*
X222874Y553720D02*
X266838Y553720D01*
X292329Y553720D02*
X297254Y553720D01*
X317729Y553720D02*
X336616Y553720D01*
X352806Y553720D02*
X362016Y553720D01*
X377184Y553720D02*
X387416Y553720D01*
X402584Y553720D02*
X412816Y553720D01*
X419638Y553720D02*
X421162Y553720D01*
X427984Y553720D02*
X432308Y553720D01*
X441452Y553720D02*
X446871Y553720D01*
X462329Y553720D02*
X472271Y553720D01*
X487729Y553720D02*
X566928Y553720D01*
X576072Y553720D02*
X611854Y553720D01*
X632329Y553720D02*
X642271Y553720D01*
X657729Y553720D02*
X669798Y553720D01*
X64008Y558800D02*
X28702Y558800D01*
X83312Y558800D02*
X104694Y558800D01*
X124506Y558800D02*
X130094Y558800D01*
X149906Y558800D02*
X189836Y558800D01*
X227954Y558800D02*
X265684Y558800D01*
X294506Y558800D02*
X300094Y558800D01*
X319906Y558800D02*
X333530Y558800D01*
X354870Y558800D02*
X358930Y558800D01*
X380270Y558800D02*
X384330Y558800D01*
X405670Y558800D02*
X409820Y558800D01*
X419638Y558800D02*
X421162Y558800D01*
X430980Y558800D02*
X432308Y558800D01*
X441452Y558800D02*
X444694Y558800D01*
X464506Y558800D02*
X470094Y558800D01*
X489906Y558800D02*
X566928Y558800D01*
X576072Y558800D02*
X614694Y558800D01*
X634506Y558800D02*
X640094Y558800D01*
X659906Y558800D02*
X669798Y558800D01*
X64008Y563880D02*
X28702Y563880D01*
X83312Y563880D02*
X104694Y563880D01*
X124506Y563880D02*
X130094Y563880D01*
X149906Y563880D02*
X197442Y563880D01*
X233034Y563880D02*
X262774Y563880D01*
X294506Y563880D02*
X300094Y563880D01*
X319906Y563880D02*
X333278Y563880D01*
X355122Y563880D02*
X358678Y563880D01*
X380522Y563880D02*
X384078Y563880D01*
X405922Y563880D02*
X409478Y563880D01*
X419638Y563880D02*
X421162Y563880D01*
X431322Y563880D02*
X432308Y563880D01*
X441452Y563880D02*
X444694Y563880D01*
X464506Y563880D02*
X470094Y563880D01*
X489906Y563880D02*
X566928Y563880D01*
X576072Y563880D02*
X614694Y563880D01*
X634506Y563880D02*
X640094Y563880D01*
X659906Y563880D02*
X669798Y563880D01*
X64008Y568960D02*
X28702Y568960D01*
X83312Y568960D02*
X109551Y568960D01*
X119649Y568960D02*
X134951Y568960D01*
X145049Y568960D02*
X202522Y568960D01*
X289649Y568960D02*
X304951Y568960D01*
X315049Y568960D02*
X333278Y568960D01*
X355122Y568960D02*
X358678Y568960D01*
X380522Y568960D02*
X384078Y568960D01*
X405922Y568960D02*
X419638Y568960D01*
X421162Y568960D02*
X432308Y568960D01*
X441452Y568960D02*
X449551Y568960D01*
X459649Y568960D02*
X474951Y568960D01*
X485049Y568960D02*
X566928Y568960D01*
X576072Y568960D02*
X619551Y568960D01*
X629649Y568960D02*
X644951Y568960D01*
X655049Y568960D02*
X669798Y568960D01*
X64008Y574040D02*
X28702Y574040D01*
X83312Y574040D02*
X207602Y574040D01*
X277026Y574040D02*
X333278Y574040D01*
X355122Y574040D02*
X358678Y574040D01*
X380522Y574040D02*
X384078Y574040D01*
X405922Y574040D02*
X409478Y574040D01*
X419638Y574040D02*
X421162Y574040D01*
X431322Y574040D02*
X432308Y574040D01*
X441452Y574040D02*
X566928Y574040D01*
X576072Y574040D02*
X669798Y574040D01*
X64008Y579120D02*
X28702Y579120D01*
X88318Y579120D02*
X212682Y579120D01*
X271946Y579120D02*
X333330Y579120D01*
X355070Y579120D02*
X358730Y579120D01*
X380470Y579120D02*
X384130Y579120D01*
X405870Y579120D02*
X409706Y579120D01*
X419638Y579120D02*
X421162Y579120D01*
X431094Y579120D02*
X432308Y579120D01*
X441452Y579120D02*
X566928Y579120D01*
X577966Y579120D02*
X669798Y579120D01*
X64008Y584200D02*
X28702Y584200D01*
X170602Y584200D02*
X217762Y584200D01*
X330602Y584200D02*
X336132Y584200D01*
X352268Y584200D02*
X361532Y584200D01*
X377668Y584200D02*
X386932Y584200D01*
X403068Y584200D02*
X412332Y584200D01*
X419638Y584200D02*
X421162Y584200D01*
X428468Y584200D02*
X432308Y584200D01*
X520602Y584200D02*
X570114Y584200D01*
X660602Y584200D02*
X669798Y584200D01*
X64008Y589280D02*
X28702Y589280D01*
X170602Y589280D02*
X222842Y589280D01*
X330602Y589280D02*
X389128Y589280D01*
X398272Y589280D02*
X402434Y589280D01*
X411890Y589280D02*
X426056Y589280D01*
X520602Y589280D02*
X573998Y589280D01*
X660602Y589280D02*
X669798Y589280D01*
X64008Y594360D02*
X28702Y594360D01*
X170602Y594360D02*
X243998Y594360D01*
X330602Y594360D02*
X389128Y594360D01*
X398272Y594360D02*
X400586Y594360D01*
X520602Y594360D02*
X573998Y594360D01*
X660602Y594360D02*
X669798Y594360D01*
X67194Y599440D02*
X28702Y599440D01*
X170602Y599440D02*
X171040Y599440D01*
X179480Y599440D02*
X200055Y599440D01*
X221585Y599440D02*
X243998Y599440D01*
X330602Y599440D02*
X389128Y599440D01*
X398272Y599440D02*
X403469Y599440D01*
X410855Y599440D02*
X427091Y599440D01*
X520602Y599440D02*
X536605Y599440D01*
X558135Y599440D02*
X573998Y599440D01*
X660602Y599440D02*
X669798Y599440D01*
X72274Y604520D02*
X28702Y604520D01*
X181836Y604520D02*
X192131Y604520D01*
X229509Y604520D02*
X243998Y604520D01*
X330602Y604520D02*
X389128Y604520D01*
X398272Y604520D02*
X433998Y604520D01*
X520602Y604520D02*
X528681Y604520D01*
X566059Y604520D02*
X573998Y604520D01*
X660602Y604520D02*
X669798Y604520D01*
X76708Y609600D02*
X28702Y609600D01*
X179832Y609600D02*
X187525Y609600D01*
X234115Y609600D02*
X243998Y609600D01*
X330602Y609600D02*
X389128Y609600D01*
X398272Y609600D02*
X433998Y609600D01*
X520602Y609600D02*
X524075Y609600D01*
X570665Y609600D02*
X573998Y609600D01*
X660602Y609600D02*
X669798Y609600D01*
X76708Y614680D02*
X28702Y614680D01*
X179832Y614680D02*
X184592Y614680D01*
X237048Y614680D02*
X243998Y614680D01*
X330602Y614680D02*
X389128Y614680D01*
X398272Y614680D02*
X433998Y614680D01*
X520602Y614680D02*
X521142Y614680D01*
X573598Y614680D02*
X573998Y614680D01*
X660602Y614680D02*
X669798Y614680D01*
X76708Y619760D02*
X28702Y619760D01*
X179832Y619760D02*
X183153Y619760D01*
X238487Y619760D02*
X243998Y619760D01*
X330602Y619760D02*
X389128Y619760D01*
X398272Y619760D02*
X433998Y619760D01*
X660602Y619760D02*
X669798Y619760D01*
X76708Y624840D02*
X27530Y624840D01*
X179832Y624840D02*
X182518Y624840D01*
X239122Y624840D02*
X243998Y624840D01*
X330602Y624840D02*
X389128Y624840D01*
X398272Y624840D02*
X433998Y624840D01*
X660602Y624840D02*
X669798Y624840D01*
X76708Y629920D02*
X22450Y629920D01*
X179832Y629920D02*
X182609Y629920D01*
X239031Y629920D02*
X243998Y629920D01*
X330602Y629920D02*
X389128Y629920D01*
X398272Y629920D02*
X433998Y629920D01*
X660602Y629920D02*
X669798Y629920D01*
X76708Y635000D02*
X17370Y635000D01*
X179832Y635000D02*
X183970Y635000D01*
X237670Y635000D02*
X243998Y635000D01*
X330602Y635000D02*
X389128Y635000D01*
X398272Y635000D02*
X433998Y635000D01*
X660602Y635000D02*
X669798Y635000D01*
X76708Y640080D02*
X12290Y640080D01*
X179832Y640080D02*
X186352Y640080D01*
X235288Y640080D02*
X243998Y640080D01*
X330602Y640080D02*
X389128Y640080D01*
X398272Y640080D02*
X433998Y640080D01*
X520602Y640080D02*
X522902Y640080D01*
X571838Y640080D02*
X573998Y640080D01*
X660602Y640080D02*
X669798Y640080D01*
X76708Y645160D02*
X7210Y645160D01*
X179832Y645160D02*
X190099Y645160D01*
X231541Y645160D02*
X243998Y645160D01*
X330602Y645160D02*
X389128Y645160D01*
X398272Y645160D02*
X433998Y645160D01*
X520602Y645160D02*
X526649Y645160D01*
X568091Y645160D02*
X573998Y645160D01*
X660602Y645160D02*
X669798Y645160D01*
X76708Y650240D02*
X3302Y650240D01*
X179832Y650240D02*
X196450Y650240D01*
X225190Y650240D02*
X243998Y650240D01*
X330602Y650240D02*
X389128Y650240D01*
X400460Y650240D02*
X433998Y650240D01*
X520602Y650240D02*
X533000Y650240D01*
X561740Y650240D02*
X573998Y650240D01*
X660602Y650240D02*
X669798Y650240D01*
X72674Y655320D02*
X3302Y655320D01*
X179832Y655320D02*
X243998Y655320D01*
X330602Y655320D02*
X389664Y655320D01*
X402816Y655320D02*
X433998Y655320D01*
X520602Y655320D02*
X521560Y655320D01*
X530000Y655320D02*
X573998Y655320D01*
X72674Y660400D02*
X3302Y660400D01*
X242286Y660400D02*
X243998Y660400D01*
X343886Y660400D02*
X392020Y660400D01*
X400460Y660400D02*
X433998Y660400D01*
X532356Y660400D02*
X573998Y660400D01*
X83998Y665480D02*
X3302Y665480D01*
X242286Y665480D02*
X243998Y665480D01*
X343886Y665480D02*
X433998Y665480D01*
X5080Y4610D02*
X5080Y3302D01*
X5080Y81750D02*
X5080Y161174D01*
X5080Y244850D02*
X5080Y258874D01*
X5080Y274526D02*
X5080Y284274D01*
X5080Y299926D02*
X5080Y309674D01*
X5080Y325326D02*
X5080Y335074D01*
X5080Y350726D02*
X5080Y371829D01*
X5080Y469162D02*
X5080Y470310D01*
X5080Y647290D02*
X5080Y669798D01*
X10160Y3878D02*
X10160Y3302D01*
X10160Y82482D02*
X10160Y160020D01*
X10160Y244890D02*
X10160Y255930D01*
X10160Y277470D02*
X10160Y281330D01*
X10160Y302870D02*
X10160Y306730D01*
X10160Y328270D02*
X10160Y332244D01*
X10160Y353556D02*
X10160Y366749D01*
X10160Y468570D02*
X10160Y475390D01*
X10160Y642210D02*
X10160Y669798D01*
X15240Y5878D02*
X15240Y3302D01*
X15240Y80482D02*
X15240Y160020D01*
X15240Y243042D02*
X15240Y255778D01*
X15240Y277622D02*
X15240Y281178D01*
X15240Y303022D02*
X15240Y306578D01*
X15240Y328422D02*
X15240Y331978D01*
X15240Y342138D02*
X15240Y343662D01*
X15240Y353822D02*
X15240Y363998D01*
X15240Y373883D02*
X15240Y382558D01*
X15240Y467162D02*
X15240Y480470D01*
X15240Y637130D02*
X15240Y669798D01*
X20320Y5878D02*
X20320Y3302D01*
X20320Y80482D02*
X20320Y119383D01*
X20320Y129537D02*
X20320Y160020D01*
X20320Y243042D02*
X20320Y255778D01*
X20320Y277622D02*
X20320Y281178D01*
X20320Y303022D02*
X20320Y306578D01*
X20320Y328422D02*
X20320Y331978D01*
X20320Y342138D02*
X20320Y343662D01*
X20320Y353822D02*
X20320Y363998D01*
X20320Y372634D02*
X20320Y382558D01*
X20320Y467162D02*
X20320Y485550D01*
X20320Y632050D02*
X20320Y669798D01*
X25400Y5878D02*
X25400Y3302D01*
X25400Y80482D02*
X25400Y107451D01*
X25400Y141469D02*
X25400Y160020D01*
X25400Y243042D02*
X25400Y255778D01*
X25400Y277622D02*
X25400Y281178D01*
X25400Y303022D02*
X25400Y306578D01*
X25400Y328422D02*
X25400Y331978D01*
X25400Y342138D02*
X25400Y343662D01*
X25400Y353822D02*
X25400Y363998D01*
X25400Y372634D02*
X25400Y382558D01*
X25400Y467162D02*
X25400Y490630D01*
X25400Y626970D02*
X25400Y669798D01*
X30480Y5878D02*
X30480Y3302D01*
X30480Y80482D02*
X30480Y102215D01*
X30480Y146705D02*
X30480Y160020D01*
X30480Y243042D02*
X30480Y255930D01*
X30480Y277470D02*
X30480Y281330D01*
X30480Y302870D02*
X30480Y306730D01*
X30480Y328270D02*
X30480Y332244D01*
X30480Y342138D02*
X30480Y343662D01*
X30480Y353556D02*
X30480Y363998D01*
X30480Y372634D02*
X30480Y382558D01*
X30480Y467162D02*
X30480Y669798D01*
X35560Y5878D02*
X35560Y3302D01*
X35560Y80482D02*
X35560Y99112D01*
X35560Y149808D02*
X35560Y160020D01*
X35560Y243042D02*
X35560Y258874D01*
X35560Y274526D02*
X35560Y284274D01*
X35560Y299926D02*
X35560Y309674D01*
X35560Y325326D02*
X35560Y335074D01*
X35560Y342138D02*
X35560Y343662D01*
X35560Y350726D02*
X35560Y363998D01*
X35560Y372634D02*
X35560Y382558D01*
X35560Y467162D02*
X35560Y669798D01*
X40640Y5878D02*
X40640Y3302D01*
X40640Y80482D02*
X40640Y97201D01*
X40640Y151719D02*
X40640Y160020D01*
X40640Y243042D02*
X40640Y310388D01*
X40640Y319532D02*
X40640Y363998D01*
X40640Y372634D02*
X40640Y382558D01*
X40640Y467162D02*
X40640Y669798D01*
X45720Y5878D02*
X45720Y3302D01*
X45720Y80482D02*
X45720Y96158D01*
X45720Y152762D02*
X45720Y160020D01*
X45720Y243042D02*
X45720Y310388D01*
X45720Y319532D02*
X45720Y363998D01*
X45720Y372634D02*
X45720Y382558D01*
X45720Y467162D02*
X45720Y669798D01*
X50800Y5878D02*
X50800Y3302D01*
X50800Y80482D02*
X50800Y96158D01*
X50800Y152762D02*
X50800Y160020D01*
X50800Y243042D02*
X50800Y308894D01*
X50800Y321026D02*
X50800Y363998D01*
X50800Y372634D02*
X50800Y382558D01*
X50800Y467162D02*
X50800Y669798D01*
X55880Y5878D02*
X55880Y3302D01*
X55880Y80482D02*
X55880Y97201D01*
X55880Y151719D02*
X55880Y160020D01*
X55880Y243042D02*
X55880Y308894D01*
X55880Y321026D02*
X55880Y362257D01*
X55880Y374375D02*
X55880Y382558D01*
X55880Y467162D02*
X55880Y669798D01*
X60960Y5878D02*
X60960Y3302D01*
X60960Y80482D02*
X60960Y99112D01*
X60960Y149808D02*
X60960Y160020D01*
X60960Y243042D02*
X60960Y362244D01*
X60960Y374388D02*
X60960Y382558D01*
X60960Y467162D02*
X60960Y669798D01*
X66040Y5878D02*
X66040Y3302D01*
X66040Y80482D02*
X66040Y102215D01*
X66040Y146705D02*
X66040Y150720D01*
X66040Y159160D02*
X66040Y160020D01*
X66040Y243042D02*
X66040Y356834D01*
X66040Y467162D02*
X66040Y506614D01*
X66040Y598286D02*
X66040Y669798D01*
X71120Y5878D02*
X71120Y3302D01*
X71120Y80482D02*
X71120Y107451D01*
X71120Y141469D02*
X71120Y148364D01*
X71120Y334420D02*
X71120Y353568D01*
X71120Y467162D02*
X71120Y468220D01*
X71120Y476660D02*
X71120Y498700D01*
X71120Y603366D02*
X71120Y669798D01*
X76200Y3878D02*
X76200Y3302D01*
X76200Y336776D02*
X76200Y353568D01*
X76200Y479016D02*
X76200Y496344D01*
X76200Y608446D02*
X76200Y651794D01*
X76200Y663926D02*
X76200Y669798D01*
X81280Y76814D02*
X81280Y3302D01*
X81280Y338444D02*
X81280Y353568D01*
X81280Y663926D02*
X81280Y669798D01*
X86360Y76474D02*
X86360Y3302D01*
X86360Y339090D02*
X86360Y349134D01*
X86360Y379730D02*
X86360Y380894D01*
X86360Y529678D02*
X86360Y576170D01*
X86360Y668222D02*
X86360Y669798D01*
X91440Y77470D02*
X91440Y3302D01*
X91440Y186916D02*
X91440Y247470D01*
X91440Y339090D02*
X91440Y344054D01*
X91440Y365622D02*
X91440Y370586D01*
X91440Y379730D02*
X91440Y417470D01*
X91440Y525752D02*
X91440Y582390D01*
X91440Y668222D02*
X91440Y669798D01*
X96520Y78698D02*
X96520Y3302D01*
X96520Y184560D02*
X96520Y239620D01*
X96520Y248060D02*
X96520Y248698D01*
X96520Y360542D02*
X96520Y370586D01*
X96520Y379730D02*
X96520Y418698D01*
X96520Y521575D02*
X96520Y583618D01*
X96520Y668222D02*
X96520Y669798D01*
X101600Y78698D02*
X101600Y3302D01*
X101600Y182372D02*
X101600Y237264D01*
X101600Y355462D02*
X101600Y370586D01*
X101600Y379730D02*
X101600Y418698D01*
X101600Y503302D02*
X101600Y507358D01*
X101600Y521462D02*
X101600Y527736D01*
X101600Y531444D02*
X101600Y583618D01*
X101600Y668222D02*
X101600Y669798D01*
X106680Y43911D02*
X106680Y3302D01*
X106680Y56089D02*
X106680Y78698D01*
X106680Y182372D02*
X106680Y213911D01*
X106680Y226089D02*
X106680Y239522D01*
X106680Y353952D02*
X106680Y367314D01*
X106680Y379730D02*
X106680Y383911D01*
X106680Y396089D02*
X106680Y418698D01*
X106680Y503302D02*
X106680Y509778D01*
X106680Y521462D02*
X106680Y522499D01*
X106680Y536166D02*
X106680Y553911D01*
X106680Y566089D02*
X106680Y583618D01*
X106680Y668222D02*
X106680Y669798D01*
X111760Y40094D02*
X111760Y3302D01*
X111760Y59906D02*
X111760Y78698D01*
X111760Y182372D02*
X111760Y210094D01*
X111760Y229906D02*
X111760Y239522D01*
X111760Y354139D02*
X111760Y367314D01*
X111760Y379446D02*
X111760Y380094D01*
X111760Y399906D02*
X111760Y418698D01*
X111760Y503302D02*
X111760Y509778D01*
X111760Y521462D02*
X111760Y521970D01*
X111760Y535080D02*
X111760Y550094D01*
X111760Y569906D02*
X111760Y583618D01*
X111760Y668222D02*
X111760Y669798D01*
X116840Y40094D02*
X116840Y3302D01*
X116840Y59906D02*
X116840Y78698D01*
X116840Y182372D02*
X116840Y210094D01*
X116840Y229906D02*
X116840Y239522D01*
X116840Y333302D02*
X116840Y380094D01*
X116840Y399906D02*
X116840Y418698D01*
X116840Y503302D02*
X116840Y509778D01*
X116840Y521462D02*
X116840Y521970D01*
X116840Y534670D02*
X116840Y550094D01*
X116840Y569906D02*
X116840Y583618D01*
X116840Y668222D02*
X116840Y669798D01*
X121920Y43311D02*
X121920Y3302D01*
X121920Y63786D02*
X121920Y78698D01*
X121920Y182372D02*
X121920Y213311D01*
X121920Y226689D02*
X121920Y239522D01*
X121920Y333302D02*
X121920Y383311D01*
X121920Y396689D02*
X121920Y418698D01*
X121920Y503302D02*
X121920Y509778D01*
X121920Y521462D02*
X121920Y521970D01*
X121920Y534670D02*
X121920Y546214D01*
X121920Y566689D02*
X121920Y583618D01*
X121920Y668222D02*
X121920Y669798D01*
X127000Y55934D02*
X127000Y3302D01*
X127000Y68072D02*
X127000Y78698D01*
X127000Y182372D02*
X127000Y239522D01*
X127000Y333302D02*
X127000Y418698D01*
X127000Y503302D02*
X127000Y509778D01*
X127000Y521462D02*
X127000Y521970D01*
X127000Y534670D02*
X127000Y541134D01*
X127000Y554066D02*
X127000Y583618D01*
X127000Y668222D02*
X127000Y669798D01*
X132080Y43911D02*
X132080Y3302D01*
X132080Y56089D02*
X132080Y58928D01*
X132080Y68072D02*
X132080Y78698D01*
X132080Y182372D02*
X132080Y213911D01*
X132080Y226089D02*
X132080Y239522D01*
X132080Y333302D02*
X132080Y383911D01*
X132080Y396089D02*
X132080Y418698D01*
X132080Y503302D02*
X132080Y509778D01*
X132080Y521462D02*
X132080Y521970D01*
X132080Y534670D02*
X132080Y536054D01*
X132080Y548986D02*
X132080Y553911D01*
X132080Y566089D02*
X132080Y583618D01*
X132080Y668222D02*
X132080Y669798D01*
X137160Y40094D02*
X137160Y3302D01*
X137160Y68072D02*
X137160Y78698D01*
X137160Y182372D02*
X137160Y210094D01*
X137160Y229906D02*
X137160Y239522D01*
X137160Y333302D02*
X137160Y380094D01*
X137160Y399906D02*
X137160Y418698D01*
X137160Y503302D02*
X137160Y509044D01*
X137160Y534670D02*
X137160Y535940D01*
X137160Y545084D02*
X137160Y550094D01*
X137160Y569906D02*
X137160Y583618D01*
X137160Y668222D02*
X137160Y669798D01*
X142240Y40094D02*
X142240Y3302D01*
X142240Y68072D02*
X142240Y78698D01*
X142240Y196607D02*
X142240Y210094D01*
X142240Y229906D02*
X142240Y239522D01*
X142240Y333302D02*
X142240Y380094D01*
X142240Y399906D02*
X142240Y418698D01*
X142240Y503302D02*
X142240Y511400D01*
X142240Y519840D02*
X142240Y521970D01*
X142240Y534670D02*
X142240Y535940D01*
X142240Y545084D02*
X142240Y550094D01*
X142240Y569906D02*
X142240Y583618D01*
X142240Y668222D02*
X142240Y669798D01*
X147320Y43311D02*
X147320Y3302D01*
X147320Y56689D02*
X147320Y58928D01*
X147320Y68072D02*
X147320Y78698D01*
X147320Y201687D02*
X147320Y213311D01*
X147320Y226689D02*
X147320Y239522D01*
X147320Y351282D02*
X147320Y383311D01*
X147320Y396689D02*
X147320Y418698D01*
X147320Y503302D02*
X147320Y521970D01*
X147320Y534670D02*
X147320Y535940D01*
X147320Y545084D02*
X147320Y546214D01*
X147320Y566689D02*
X147320Y583618D01*
X147320Y668222D02*
X147320Y669798D01*
X152400Y58928D02*
X152400Y3302D01*
X152400Y68072D02*
X152400Y78698D01*
X152400Y204978D02*
X152400Y239522D01*
X152400Y333302D02*
X152400Y342138D01*
X152400Y351282D02*
X152400Y418698D01*
X152400Y503302D02*
X152400Y521970D01*
X152400Y534670D02*
X152400Y535940D01*
X152400Y554066D02*
X152400Y583618D01*
X152400Y668222D02*
X152400Y669798D01*
X157480Y58928D02*
X157480Y3302D01*
X157480Y68072D02*
X157480Y78698D01*
X157480Y204978D02*
X157480Y239522D01*
X157480Y333302D02*
X157480Y342138D01*
X157480Y351282D02*
X157480Y418698D01*
X157480Y503302D02*
X157480Y521970D01*
X157480Y534670D02*
X157480Y535940D01*
X157480Y551180D02*
X157480Y583618D01*
X157480Y668222D02*
X157480Y669798D01*
X162560Y23431D02*
X162560Y3302D01*
X162560Y36569D02*
X162560Y53431D01*
X162560Y68072D02*
X162560Y78070D01*
X162560Y204978D02*
X162560Y239522D01*
X162560Y341024D02*
X162560Y342138D01*
X162560Y397920D02*
X162560Y418070D01*
X162560Y503302D02*
X162560Y521970D01*
X162560Y534670D02*
X162560Y535940D01*
X162560Y551180D02*
X162560Y582990D01*
X162560Y668222D02*
X162560Y669798D01*
X167640Y20094D02*
X167640Y3302D01*
X167640Y39906D02*
X167640Y50094D01*
X167640Y69906D02*
X167640Y74814D01*
X167640Y209307D02*
X167640Y239522D01*
X167640Y342110D02*
X167640Y342138D01*
X167640Y506806D02*
X167640Y521970D01*
X167640Y534670D02*
X167640Y535940D01*
X167640Y551180D02*
X167640Y581618D01*
X167640Y668492D02*
X167640Y669798D01*
X172720Y20094D02*
X172720Y3302D01*
X172720Y39906D02*
X172720Y50094D01*
X172720Y82666D02*
X172720Y115338D01*
X172720Y214387D02*
X172720Y239522D01*
X172720Y248158D02*
X172720Y306313D01*
X172720Y341197D02*
X172720Y342138D01*
X172720Y423026D02*
X172720Y498954D01*
X172720Y510032D02*
X172720Y521970D01*
X172720Y534670D02*
X172720Y535940D01*
X172720Y551180D02*
X172720Y598454D01*
X172720Y668492D02*
X172720Y669798D01*
X177800Y23791D02*
X177800Y3302D01*
X177800Y36209D02*
X177800Y53791D01*
X177800Y77586D02*
X177800Y109078D01*
X177800Y219467D02*
X177800Y239522D01*
X177800Y248158D02*
X177800Y301233D01*
X177800Y342058D02*
X177800Y342138D01*
X177800Y428106D02*
X177800Y500888D01*
X177800Y510032D02*
X177800Y521970D01*
X177800Y534670D02*
X177800Y535940D01*
X177800Y551180D02*
X177800Y598454D01*
X177800Y667512D02*
X177800Y669798D01*
X182880Y59574D02*
X182880Y3302D01*
X182880Y72506D02*
X182880Y106960D01*
X182880Y224547D02*
X182880Y239522D01*
X182880Y248158D02*
X182880Y255651D01*
X182880Y333473D02*
X182880Y342138D01*
X182880Y429260D02*
X182880Y500888D01*
X182880Y510032D02*
X182880Y517576D01*
X182880Y521284D02*
X182880Y521970D01*
X182880Y534670D02*
X182880Y535940D01*
X182880Y551180D02*
X182880Y620779D01*
X182880Y630933D02*
X182880Y658368D01*
X182880Y667512D02*
X182880Y669798D01*
X187960Y54494D02*
X187960Y3302D01*
X187960Y67426D02*
X187960Y106744D01*
X187960Y229627D02*
X187960Y240273D01*
X187960Y252487D02*
X187960Y255230D01*
X187960Y318527D02*
X187960Y325141D01*
X187960Y328655D02*
X187960Y338974D01*
X187960Y358550D02*
X187960Y374534D01*
X187960Y405246D02*
X187960Y411988D01*
X187960Y429260D02*
X187960Y500888D01*
X187960Y510032D02*
X187960Y512854D01*
X187960Y534670D02*
X187960Y535940D01*
X187960Y551180D02*
X187960Y608847D01*
X187960Y642865D02*
X187960Y658368D01*
X187960Y667512D02*
X187960Y669798D01*
X193040Y53848D02*
X193040Y3302D01*
X193040Y62992D02*
X193040Y108236D01*
X193040Y234707D02*
X193040Y245353D01*
X193040Y257567D02*
X193040Y257810D01*
X193040Y313447D02*
X193040Y333894D01*
X193040Y346826D02*
X193040Y411988D01*
X193040Y429260D02*
X193040Y486294D01*
X193040Y510032D02*
X193040Y513940D01*
X193040Y534670D02*
X193040Y535940D01*
X193040Y561012D02*
X193040Y603611D01*
X193040Y648101D02*
X193040Y658368D01*
X193040Y667512D02*
X193040Y669798D01*
X198120Y53848D02*
X198120Y3302D01*
X198120Y62992D02*
X198120Y112158D01*
X198120Y131682D02*
X198120Y135382D01*
X198120Y239787D02*
X198120Y250433D01*
X198120Y303940D02*
X198120Y330708D01*
X198120Y341746D02*
X198120Y411988D01*
X198120Y429260D02*
X198120Y485648D01*
X198120Y510032D02*
X198120Y514350D01*
X198120Y534670D02*
X198120Y535940D01*
X198120Y564558D02*
X198120Y600508D01*
X198120Y651204D02*
X198120Y658368D01*
X198120Y667512D02*
X198120Y669798D01*
X203200Y53848D02*
X203200Y3302D01*
X203200Y62992D02*
X203200Y127725D01*
X203200Y313592D02*
X203200Y330708D01*
X203200Y339852D02*
X203200Y411988D01*
X203200Y433186D02*
X203200Y485648D01*
X203200Y510032D02*
X203200Y514350D01*
X203200Y534670D02*
X203200Y535940D01*
X203200Y569638D02*
X203200Y598597D01*
X203200Y653115D02*
X203200Y658368D01*
X203200Y667512D02*
X203200Y669798D01*
X208280Y53848D02*
X208280Y3302D01*
X208280Y62992D02*
X208280Y114451D01*
X208280Y314932D02*
X208280Y316725D01*
X208280Y328435D02*
X208280Y330708D01*
X208280Y339852D02*
X208280Y411988D01*
X208280Y421132D02*
X208280Y425334D01*
X208280Y438266D02*
X208280Y477364D01*
X208280Y510032D02*
X208280Y514350D01*
X208280Y574718D02*
X208280Y597554D01*
X208280Y654158D02*
X208280Y658368D01*
X208280Y667512D02*
X208280Y669798D01*
X213360Y53848D02*
X213360Y3302D01*
X213360Y62992D02*
X213360Y113665D01*
X213360Y328856D02*
X213360Y330708D01*
X213360Y339852D02*
X213360Y411988D01*
X213360Y421132D02*
X213360Y430414D01*
X213360Y508508D02*
X213360Y514350D01*
X213360Y579798D02*
X213360Y597554D01*
X213360Y654158D02*
X213360Y658368D01*
X213360Y667512D02*
X213360Y669798D01*
X218440Y46580D02*
X218440Y3302D01*
X218440Y62992D02*
X218440Y64360D01*
X218440Y72800D02*
X218440Y98074D01*
X218440Y110206D02*
X218440Y116866D01*
X218440Y126974D02*
X218440Y127381D01*
X218440Y328856D02*
X218440Y330708D01*
X218440Y339852D02*
X218440Y411988D01*
X218440Y421132D02*
X218440Y477364D01*
X218440Y508508D02*
X218440Y514350D01*
X218440Y534670D02*
X218440Y549286D01*
X218440Y584878D02*
X218440Y598597D01*
X218440Y653115D02*
X218440Y658368D01*
X218440Y667512D02*
X218440Y669798D01*
X223520Y44224D02*
X223520Y3302D01*
X223520Y110206D02*
X223520Y115338D01*
X223520Y128502D02*
X223520Y129733D01*
X223520Y152207D02*
X223520Y155133D01*
X223520Y159258D02*
X223520Y160782D01*
X223520Y303646D02*
X223520Y316725D01*
X223520Y328435D02*
X223520Y330708D01*
X223520Y339852D02*
X223520Y411988D01*
X223520Y421132D02*
X223520Y485648D01*
X223520Y508508D02*
X223520Y514350D01*
X223520Y534670D02*
X223520Y554366D01*
X223520Y589958D02*
X223520Y600508D01*
X223520Y651204D02*
X223520Y658368D01*
X223520Y667512D02*
X223520Y669798D01*
X228600Y39613D02*
X228600Y3302D01*
X228600Y62992D02*
X228600Y64360D01*
X228600Y72800D02*
X228600Y109078D01*
X228600Y134762D02*
X228600Y135382D01*
X228600Y151638D02*
X228600Y158242D01*
X228600Y285866D02*
X228600Y295794D01*
X228600Y308726D02*
X228600Y330708D01*
X228600Y339852D02*
X228600Y402874D01*
X228600Y421132D02*
X228600Y485648D01*
X228600Y510032D02*
X228600Y514350D01*
X228600Y534670D02*
X228600Y559446D01*
X228600Y590492D02*
X228600Y603611D01*
X228600Y648101D02*
X228600Y658368D01*
X228600Y667512D02*
X228600Y669798D01*
X233680Y36322D02*
X233680Y3302D01*
X233680Y59806D02*
X233680Y106960D01*
X233680Y151638D02*
X233680Y158242D01*
X233680Y289052D02*
X233680Y298734D01*
X233680Y310866D02*
X233680Y330708D01*
X233680Y339852D02*
X233680Y371994D01*
X233680Y400166D02*
X233680Y402874D01*
X233680Y422304D02*
X233680Y485648D01*
X233680Y510032D02*
X233680Y514350D01*
X233680Y534670D02*
X233680Y564526D01*
X233680Y590492D02*
X233680Y608847D01*
X233680Y642865D02*
X233680Y656874D01*
X233680Y669006D02*
X233680Y669798D01*
X238760Y36322D02*
X238760Y3302D01*
X238760Y54726D02*
X238760Y106744D01*
X238760Y151638D02*
X238760Y158242D01*
X238760Y289052D02*
X238760Y298734D01*
X238760Y310866D02*
X238760Y330708D01*
X238760Y339852D02*
X238760Y366914D01*
X238760Y423390D02*
X238760Y485648D01*
X238760Y510032D02*
X238760Y514350D01*
X238760Y534670D02*
X238760Y566420D01*
X238760Y590492D02*
X238760Y620779D01*
X238760Y630933D02*
X238760Y656874D01*
X238760Y669006D02*
X238760Y669798D01*
X243840Y22151D02*
X243840Y3302D01*
X243840Y50292D02*
X243840Y52151D01*
X243840Y98265D02*
X243840Y108236D01*
X243840Y155967D02*
X243840Y158242D01*
X243840Y296828D02*
X243840Y313974D01*
X243840Y326106D02*
X243840Y330708D01*
X243840Y339852D02*
X243840Y361834D01*
X243840Y374766D02*
X243840Y397394D01*
X243840Y427706D02*
X243840Y485648D01*
X243840Y510032D02*
X243840Y514350D01*
X243840Y534670D02*
X243840Y566420D01*
X243840Y590492D02*
X243840Y669798D01*
X248920Y20094D02*
X248920Y3302D01*
X248920Y298168D02*
X248920Y313974D01*
X248920Y326106D02*
X248920Y330708D01*
X248920Y369686D02*
X248920Y387881D01*
X248920Y392119D02*
X248920Y402474D01*
X248920Y510032D02*
X248920Y514350D01*
X248920Y534670D02*
X248920Y566420D01*
X248920Y668222D02*
X248920Y669798D01*
X254000Y20094D02*
X254000Y3302D01*
X254000Y69906D02*
X254000Y78630D01*
X254000Y364606D02*
X254000Y369160D01*
X254000Y377600D02*
X254000Y383424D01*
X254000Y396576D02*
X254000Y399640D01*
X254000Y510032D02*
X254000Y514350D01*
X254000Y534670D02*
X254000Y566420D01*
X254000Y581660D02*
X254000Y583618D01*
X254000Y668222D02*
X254000Y669798D01*
X259080Y25071D02*
X259080Y3302D01*
X259080Y53202D02*
X259080Y55071D01*
X259080Y64929D02*
X259080Y76428D01*
X259080Y348966D02*
X259080Y366804D01*
X259080Y395380D02*
X259080Y397284D01*
X259080Y410436D02*
X259080Y416428D01*
X259080Y510032D02*
X259080Y514350D01*
X259080Y534670D02*
X259080Y566420D01*
X259080Y581660D02*
X259080Y583618D01*
X259080Y668222D02*
X259080Y669798D01*
X264160Y25908D02*
X264160Y3302D01*
X264160Y58282D02*
X264160Y78698D01*
X264160Y351907D02*
X264160Y364374D01*
X264160Y387466D02*
X264160Y399288D01*
X264160Y408432D02*
X264160Y418698D01*
X264160Y510032D02*
X264160Y514350D01*
X264160Y534670D02*
X264160Y562494D01*
X264160Y581660D02*
X264160Y583618D01*
X264160Y668222D02*
X264160Y669798D01*
X269240Y25908D02*
X269240Y3302D01*
X269240Y63362D02*
X269240Y78698D01*
X269240Y163302D02*
X269240Y189114D01*
X269240Y248060D02*
X269240Y248698D01*
X269240Y356987D02*
X269240Y363728D01*
X269240Y383032D02*
X269240Y398894D01*
X269240Y408432D02*
X269240Y418698D01*
X269240Y510032D02*
X269240Y514350D01*
X269240Y534670D02*
X269240Y551318D01*
X269240Y581660D02*
X269240Y583618D01*
X269240Y668222D02*
X269240Y669798D01*
X274320Y29094D02*
X274320Y3302D01*
X274320Y68442D02*
X274320Y78698D01*
X274320Y163302D02*
X274320Y221488D01*
X274320Y240030D02*
X274320Y248698D01*
X274320Y357632D02*
X274320Y363728D01*
X274320Y383032D02*
X274320Y393814D01*
X274320Y406746D02*
X274320Y418698D01*
X274320Y510032D02*
X274320Y514350D01*
X274320Y534670D02*
X274320Y546238D01*
X274320Y576746D02*
X274320Y583618D01*
X274320Y668222D02*
X274320Y669798D01*
X279400Y34174D02*
X279400Y3302D01*
X279400Y73522D02*
X279400Y78698D01*
X279400Y163302D02*
X279400Y211191D01*
X279400Y240030D02*
X279400Y248698D01*
X279400Y357632D02*
X279400Y363728D01*
X279400Y401666D02*
X279400Y418698D01*
X279400Y510032D02*
X279400Y514350D01*
X279400Y534670D02*
X279400Y544068D01*
X279400Y571666D02*
X279400Y583618D01*
X279400Y668222D02*
X279400Y669798D01*
X284480Y39254D02*
X284480Y3302D01*
X284480Y78232D02*
X284480Y78698D01*
X284480Y163302D02*
X284480Y210094D01*
X284480Y240030D02*
X284480Y248698D01*
X284480Y357632D02*
X284480Y363728D01*
X284480Y399906D02*
X284480Y418698D01*
X284480Y510032D02*
X284480Y514350D01*
X284480Y534670D02*
X284480Y544068D01*
X284480Y569906D02*
X284480Y583618D01*
X284480Y668222D02*
X284480Y669798D01*
X289560Y40951D02*
X289560Y3302D01*
X289560Y66548D02*
X289560Y69088D01*
X289560Y78232D02*
X289560Y78698D01*
X289560Y163302D02*
X289560Y210951D01*
X289560Y240030D02*
X289560Y248698D01*
X289560Y357632D02*
X289560Y363728D01*
X289560Y401426D02*
X289560Y418698D01*
X289560Y510032D02*
X289560Y514350D01*
X289560Y534670D02*
X289560Y544068D01*
X289560Y569049D02*
X289560Y583618D01*
X289560Y668222D02*
X289560Y669798D01*
X294640Y57912D02*
X294640Y3302D01*
X294640Y66548D02*
X294640Y69088D01*
X294640Y78232D02*
X294640Y78698D01*
X294640Y163302D02*
X294640Y226314D01*
X294640Y240030D02*
X294640Y248698D01*
X294640Y357632D02*
X294640Y363728D01*
X294640Y406506D02*
X294640Y418698D01*
X294640Y510032D02*
X294640Y514350D01*
X294640Y534670D02*
X294640Y544068D01*
X294640Y553212D02*
X294640Y583618D01*
X294640Y668222D02*
X294640Y669798D01*
X299720Y54173D02*
X299720Y3302D01*
X299720Y66387D02*
X299720Y69088D01*
X299720Y78232D02*
X299720Y78698D01*
X299720Y163302D02*
X299720Y226314D01*
X299720Y240030D02*
X299720Y248698D01*
X299720Y357632D02*
X299720Y363728D01*
X299720Y406908D02*
X299720Y418698D01*
X299720Y510032D02*
X299720Y514350D01*
X299720Y534670D02*
X299720Y544068D01*
X299720Y556186D02*
X299720Y583618D01*
X299720Y668222D02*
X299720Y669798D01*
X304800Y41191D02*
X304800Y3302D01*
X304800Y61307D02*
X304800Y69088D01*
X304800Y78232D02*
X304800Y78698D01*
X304800Y163302D02*
X304800Y211191D01*
X304800Y240030D02*
X304800Y248698D01*
X304800Y357632D02*
X304800Y363728D01*
X304800Y406908D02*
X304800Y418698D01*
X304800Y510032D02*
X304800Y514350D01*
X304800Y534670D02*
X304800Y548334D01*
X304800Y568809D02*
X304800Y583618D01*
X304800Y668222D02*
X304800Y669798D01*
X309880Y40094D02*
X309880Y3302D01*
X309880Y59906D02*
X309880Y69088D01*
X309880Y78232D02*
X309880Y78698D01*
X309880Y166780D02*
X309880Y168500D01*
X309880Y176940D02*
X309880Y178660D01*
X309880Y187100D02*
X309880Y210094D01*
X309880Y240030D02*
X309880Y248698D01*
X309880Y357632D02*
X309880Y363728D01*
X309880Y406908D02*
X309880Y418698D01*
X309880Y510032D02*
X309880Y514350D01*
X309880Y534670D02*
X309880Y550094D01*
X309880Y569906D02*
X309880Y583618D01*
X309880Y668222D02*
X309880Y669798D01*
X314960Y16890D02*
X314960Y3302D01*
X314960Y25330D02*
X314960Y40951D01*
X314960Y59049D02*
X314960Y69088D01*
X314960Y78232D02*
X314960Y78698D01*
X314960Y189456D02*
X314960Y210951D01*
X314960Y240030D02*
X314960Y248698D01*
X314960Y357632D02*
X314960Y363728D01*
X314960Y406908D02*
X314960Y418698D01*
X314960Y510032D02*
X314960Y514350D01*
X314960Y534670D02*
X314960Y550951D01*
X314960Y569049D02*
X314960Y583618D01*
X314960Y668222D02*
X314960Y669798D01*
X320040Y14534D02*
X320040Y3302D01*
X320040Y27686D02*
X320040Y69088D01*
X320040Y78232D02*
X320040Y78698D01*
X320040Y166780D02*
X320040Y168500D01*
X320040Y187452D02*
X320040Y216408D01*
X320040Y240030D02*
X320040Y248698D01*
X320040Y357632D02*
X320040Y363728D01*
X320040Y383299D02*
X320040Y392540D01*
X320040Y406908D02*
X320040Y418698D01*
X320040Y510032D02*
X320040Y514350D01*
X320040Y534670D02*
X320040Y583618D01*
X320040Y668222D02*
X320040Y669798D01*
X325120Y15494D02*
X325120Y3302D01*
X325120Y25682D02*
X325120Y69088D01*
X325120Y78232D02*
X325120Y78698D01*
X325120Y163572D02*
X325120Y170688D01*
X325120Y187452D02*
X325120Y216408D01*
X325120Y240030D02*
X325120Y248698D01*
X325120Y357632D02*
X325120Y363728D01*
X325120Y383286D02*
X325120Y392540D01*
X325120Y406908D02*
X325120Y418698D01*
X325120Y510032D02*
X325120Y514350D01*
X325120Y534670D02*
X325120Y581618D01*
X325120Y668492D02*
X325120Y669798D01*
X330200Y15494D02*
X330200Y3302D01*
X330200Y24638D02*
X330200Y69088D01*
X330200Y78232D02*
X330200Y78698D01*
X330200Y163572D02*
X330200Y170688D01*
X330200Y187452D02*
X330200Y216408D01*
X330200Y240030D02*
X330200Y248698D01*
X330200Y357632D02*
X330200Y363728D01*
X330200Y383286D02*
X330200Y392540D01*
X330200Y406908D02*
X330200Y418698D01*
X330200Y510032D02*
X330200Y514350D01*
X330200Y534670D02*
X330200Y583150D01*
X330200Y668492D02*
X330200Y669798D01*
X335280Y15494D02*
X335280Y3302D01*
X335280Y24638D02*
X335280Y30954D01*
X335280Y59246D02*
X335280Y69088D01*
X335280Y163572D02*
X335280Y170688D01*
X335280Y187452D02*
X335280Y216408D01*
X335280Y240030D02*
X335280Y246698D01*
X335280Y357632D02*
X335280Y363728D01*
X335280Y383286D02*
X335280Y392540D01*
X335280Y406908D02*
X335280Y416698D01*
X335280Y510032D02*
X335280Y514350D01*
X335280Y534670D02*
X335280Y555056D01*
X335280Y583348D02*
X335280Y656874D01*
X335280Y669006D02*
X335280Y669798D01*
X340360Y15494D02*
X340360Y3302D01*
X340360Y24638D02*
X340360Y27249D01*
X340360Y161610D02*
X340360Y170688D01*
X340360Y187452D02*
X340360Y216408D01*
X340360Y240030D02*
X340360Y248390D01*
X340360Y357632D02*
X340360Y363728D01*
X340360Y383286D02*
X340360Y392540D01*
X340360Y406908D02*
X340360Y418390D01*
X340360Y506846D02*
X340360Y512438D01*
X340360Y587053D02*
X340360Y656874D01*
X340360Y669006D02*
X340360Y669798D01*
X345440Y15494D02*
X345440Y3302D01*
X345440Y24638D02*
X345440Y26558D01*
X345440Y163946D02*
X345440Y170688D01*
X345440Y187452D02*
X345440Y216408D01*
X345440Y246254D02*
X345440Y321194D01*
X345440Y357632D02*
X345440Y363728D01*
X345440Y383286D02*
X345440Y392540D01*
X345440Y406908D02*
X345440Y451612D01*
X345440Y463158D02*
X345440Y507358D01*
X345440Y587744D02*
X345440Y669798D01*
X350520Y15494D02*
X350520Y3302D01*
X350520Y24638D02*
X350520Y28354D01*
X350520Y82045D02*
X350520Y156094D01*
X350520Y169026D02*
X350520Y170688D01*
X350520Y187452D02*
X350520Y216408D01*
X350520Y248610D02*
X350520Y316114D01*
X350520Y357632D02*
X350520Y363728D01*
X350520Y383286D02*
X350520Y388756D01*
X350520Y406908D02*
X350520Y450013D01*
X350520Y471753D02*
X350520Y502278D01*
X350520Y585948D02*
X350520Y669798D01*
X355600Y15494D02*
X355600Y3302D01*
X355600Y24638D02*
X355600Y66291D01*
X355600Y87125D02*
X355600Y160528D01*
X355600Y169672D02*
X355600Y170688D01*
X355600Y187452D02*
X355600Y216408D01*
X355600Y250952D02*
X355600Y311034D01*
X355600Y357632D02*
X355600Y363728D01*
X355600Y385706D02*
X355600Y388545D01*
X355600Y406908D02*
X355600Y450223D01*
X355600Y471542D02*
X355600Y497198D01*
X355600Y528577D02*
X355600Y669798D01*
X360680Y15494D02*
X360680Y3302D01*
X360680Y24638D02*
X360680Y30954D01*
X360680Y59246D02*
X360680Y71371D01*
X360680Y92205D02*
X360680Y159034D01*
X360680Y191486D02*
X360680Y214914D01*
X360680Y250952D02*
X360680Y306354D01*
X360680Y390786D02*
X360680Y397764D01*
X360680Y467730D02*
X360680Y474846D01*
X360680Y523497D02*
X360680Y555056D01*
X360680Y583348D02*
X360680Y669798D01*
X365760Y15494D02*
X365760Y3302D01*
X365760Y62951D02*
X365760Y76451D01*
X365760Y97285D02*
X365760Y105694D01*
X365760Y117826D02*
X365760Y159034D01*
X365760Y191486D02*
X365760Y214914D01*
X365760Y518417D02*
X365760Y551351D01*
X365760Y587053D02*
X365760Y669798D01*
X370840Y15494D02*
X370840Y3302D01*
X370840Y63642D02*
X370840Y81531D01*
X370840Y102365D02*
X370840Y105694D01*
X370840Y513337D02*
X370840Y550660D01*
X370840Y587744D02*
X370840Y669798D01*
X375920Y28354D02*
X375920Y3302D01*
X375920Y61846D02*
X375920Y86611D01*
X375920Y508257D02*
X375920Y552456D01*
X375920Y585948D02*
X375920Y669798D01*
X381000Y91691D02*
X381000Y3302D01*
X381000Y503177D02*
X381000Y669798D01*
X386080Y30954D02*
X386080Y3302D01*
X386080Y59246D02*
X386080Y79278D01*
X386080Y91410D02*
X386080Y96771D01*
X386080Y498097D02*
X386080Y555056D01*
X386080Y583348D02*
X386080Y669798D01*
X391160Y27249D02*
X391160Y3302D01*
X391160Y91410D02*
X391160Y551351D01*
X391160Y659540D02*
X391160Y669798D01*
X396240Y26558D02*
X396240Y3302D01*
X396240Y84190D02*
X396240Y550660D01*
X396240Y661896D02*
X396240Y669798D01*
X401320Y28354D02*
X401320Y3302D01*
X401320Y61846D02*
X401320Y96761D01*
X401320Y243897D02*
X401320Y247534D01*
X401320Y350025D02*
X401320Y455814D01*
X401320Y501766D02*
X401320Y552456D01*
X401320Y585948D02*
X401320Y590772D01*
X401320Y596932D02*
X401320Y651100D01*
X401320Y659540D02*
X401320Y669798D01*
X406400Y90348D02*
X406400Y3302D01*
X406400Y93338D02*
X406400Y96340D01*
X406400Y350446D02*
X406400Y450734D01*
X406400Y506846D02*
X406400Y587276D01*
X406400Y600428D02*
X406400Y669798D01*
X411480Y31176D02*
X411480Y3302D01*
X411480Y44338D02*
X411480Y45862D01*
X411480Y59024D02*
X411480Y85312D01*
X411480Y113146D02*
X411480Y151014D01*
X411480Y372226D02*
X411480Y445654D01*
X411480Y458586D02*
X411480Y459514D01*
X411480Y511926D02*
X411480Y555278D01*
X411480Y568440D02*
X411480Y569964D01*
X411480Y583126D02*
X411480Y588870D01*
X411480Y598932D02*
X411480Y669798D01*
X416560Y27244D02*
X416560Y3302D01*
X416560Y44338D02*
X416560Y45862D01*
X416560Y62956D02*
X416560Y86241D01*
X416560Y97444D02*
X416560Y145934D01*
X416560Y181326D02*
X416560Y181494D01*
X416560Y377306D02*
X416560Y440574D01*
X416560Y453506D02*
X416560Y463623D01*
X416560Y517006D02*
X416560Y551346D01*
X416560Y568440D02*
X416560Y569964D01*
X416560Y587058D02*
X416560Y589788D01*
X416560Y598932D02*
X416560Y669798D01*
X421640Y26618D02*
X421640Y3302D01*
X421640Y44338D02*
X421640Y45862D01*
X421640Y63582D02*
X421640Y140854D01*
X421640Y181326D02*
X421640Y189114D01*
X421640Y448426D02*
X421640Y470800D01*
X421640Y522086D02*
X421640Y550720D01*
X421640Y568440D02*
X421640Y569964D01*
X421640Y587684D02*
X421640Y589788D01*
X421640Y598932D02*
X421640Y669798D01*
X426720Y28571D02*
X426720Y3302D01*
X426720Y44338D02*
X426720Y45862D01*
X426720Y61629D02*
X426720Y76428D01*
X426720Y174752D02*
X426720Y246428D01*
X426720Y377600D02*
X426720Y416428D01*
X426720Y527166D02*
X426720Y552673D01*
X426720Y568440D02*
X426720Y569964D01*
X426720Y585731D02*
X426720Y588616D01*
X426720Y599088D02*
X426720Y669798D01*
X431800Y77830D02*
X431800Y3302D01*
X431800Y174752D02*
X431800Y247830D01*
X431800Y379956D02*
X431800Y417830D01*
X431800Y515874D02*
X431800Y519314D01*
X431800Y532246D02*
X431800Y587276D01*
X431800Y600428D02*
X431800Y669798D01*
X436880Y61820D02*
X436880Y3302D01*
X436880Y70260D02*
X436880Y78698D01*
X436880Y174752D02*
X436880Y248698D01*
X436880Y346826D02*
X436880Y346992D01*
X436880Y377952D02*
X436880Y418698D01*
X436880Y515874D02*
X436880Y524394D01*
X436880Y668222D02*
X436880Y669798D01*
X441960Y59464D02*
X441960Y3302D01*
X441960Y72616D02*
X441960Y78698D01*
X441960Y174752D02*
X441960Y248698D01*
X441960Y344932D02*
X441960Y348840D01*
X441960Y377952D02*
X441960Y418698D01*
X441960Y515874D02*
X441960Y582910D01*
X441960Y668222D02*
X441960Y669798D01*
X447040Y43551D02*
X447040Y3302D01*
X447040Y56449D02*
X447040Y61468D01*
X447040Y70612D02*
X447040Y78698D01*
X447040Y174752D02*
X447040Y213551D01*
X447040Y226449D02*
X447040Y248698D01*
X447040Y344932D02*
X447040Y359294D01*
X447040Y377952D02*
X447040Y383551D01*
X447040Y396449D02*
X447040Y418698D01*
X447040Y515874D02*
X447040Y553551D01*
X447040Y566449D02*
X447040Y583618D01*
X447040Y668222D02*
X447040Y669798D01*
X452120Y40094D02*
X452120Y3302D01*
X452120Y59906D02*
X452120Y61468D01*
X452120Y70612D02*
X452120Y78698D01*
X452120Y174752D02*
X452120Y210094D01*
X452120Y229906D02*
X452120Y248698D01*
X452120Y344932D02*
X452120Y361188D01*
X452120Y377952D02*
X452120Y380094D01*
X452120Y399906D02*
X452120Y418698D01*
X452120Y515874D02*
X452120Y550094D01*
X452120Y569906D02*
X452120Y583618D01*
X452120Y668222D02*
X452120Y669798D01*
X457200Y40094D02*
X457200Y3302D01*
X457200Y59906D02*
X457200Y61468D01*
X457200Y70612D02*
X457200Y78698D01*
X457200Y174752D02*
X457200Y210094D01*
X457200Y229906D02*
X457200Y248698D01*
X457200Y344932D02*
X457200Y361188D01*
X457200Y377952D02*
X457200Y380094D01*
X457200Y399906D02*
X457200Y418698D01*
X457200Y515874D02*
X457200Y550094D01*
X457200Y569906D02*
X457200Y583618D01*
X457200Y668222D02*
X457200Y669798D01*
X462280Y35854D02*
X462280Y3302D01*
X462280Y56329D02*
X462280Y61254D01*
X462280Y70612D02*
X462280Y78698D01*
X462280Y174752D02*
X462280Y213671D01*
X462280Y226329D02*
X462280Y248698D01*
X462280Y344932D02*
X462280Y361188D01*
X462280Y378746D02*
X462280Y383671D01*
X462280Y404146D02*
X462280Y418698D01*
X462280Y515874D02*
X462280Y553671D01*
X462280Y566329D02*
X462280Y583618D01*
X462280Y668222D02*
X462280Y669798D01*
X467360Y34544D02*
X467360Y3302D01*
X467360Y43706D02*
X467360Y56174D01*
X467360Y69106D02*
X467360Y78698D01*
X467360Y174752D02*
X467360Y209434D01*
X467360Y222366D02*
X467360Y248698D01*
X467360Y344932D02*
X467360Y361188D01*
X467360Y383826D02*
X467360Y396294D01*
X467360Y405892D02*
X467360Y418698D01*
X467360Y515874D02*
X467360Y583618D01*
X467360Y668222D02*
X467360Y669798D01*
X472440Y34544D02*
X472440Y3302D01*
X472440Y64026D02*
X472440Y78698D01*
X472440Y174752D02*
X472440Y204354D01*
X472440Y226449D02*
X472440Y248698D01*
X472440Y344932D02*
X472440Y361188D01*
X472440Y396449D02*
X472440Y396748D01*
X472440Y405892D02*
X472440Y418698D01*
X472440Y515874D02*
X472440Y553551D01*
X472440Y566449D02*
X472440Y583618D01*
X472440Y668222D02*
X472440Y669798D01*
X477520Y34544D02*
X477520Y3302D01*
X477520Y59906D02*
X477520Y78698D01*
X477520Y174752D02*
X477520Y203708D01*
X477520Y229906D02*
X477520Y248698D01*
X477520Y344932D02*
X477520Y364120D01*
X477520Y405892D02*
X477520Y418698D01*
X477520Y515874D02*
X477520Y550094D01*
X477520Y569906D02*
X477520Y583618D01*
X477520Y668222D02*
X477520Y669798D01*
X482600Y34544D02*
X482600Y3302D01*
X482600Y59906D02*
X482600Y78698D01*
X482600Y174752D02*
X482600Y203708D01*
X482600Y229906D02*
X482600Y248698D01*
X482600Y344932D02*
X482600Y369200D01*
X482600Y405892D02*
X482600Y418698D01*
X482600Y515874D02*
X482600Y550094D01*
X482600Y569906D02*
X482600Y583618D01*
X482600Y668222D02*
X482600Y669798D01*
X487680Y34544D02*
X487680Y3302D01*
X487680Y56329D02*
X487680Y78698D01*
X487680Y174752D02*
X487680Y204354D01*
X487680Y234146D02*
X487680Y248698D01*
X487680Y344932D02*
X487680Y374280D01*
X487680Y405246D02*
X487680Y418698D01*
X487680Y515874D02*
X487680Y553671D01*
X487680Y566329D02*
X487680Y583618D01*
X487680Y668222D02*
X487680Y669798D01*
X492760Y34544D02*
X492760Y3302D01*
X492760Y54572D02*
X492760Y78698D01*
X492760Y174752D02*
X492760Y209434D01*
X492760Y239226D02*
X492760Y248698D01*
X492760Y344932D02*
X492760Y379360D01*
X492760Y400166D02*
X492760Y418698D01*
X492760Y515874D02*
X492760Y583618D01*
X492760Y668222D02*
X492760Y669798D01*
X497840Y34544D02*
X497840Y3302D01*
X497840Y54572D02*
X497840Y78698D01*
X497840Y174752D02*
X497840Y222134D01*
X497840Y243332D02*
X497840Y248698D01*
X497840Y344932D02*
X497840Y418698D01*
X497840Y515874D02*
X497840Y583618D01*
X497840Y668222D02*
X497840Y669798D01*
X502920Y34544D02*
X502920Y3302D01*
X502920Y54572D02*
X502920Y77710D01*
X502920Y174752D02*
X502920Y226568D01*
X502920Y243332D02*
X502920Y247710D01*
X502920Y344932D02*
X502920Y417710D01*
X502920Y515874D02*
X502920Y583618D01*
X502920Y668222D02*
X502920Y669798D01*
X508000Y34544D02*
X508000Y3302D01*
X508000Y54572D02*
X508000Y76698D01*
X508000Y174752D02*
X508000Y226568D01*
X508000Y243332D02*
X508000Y246698D01*
X508000Y344932D02*
X508000Y416698D01*
X508000Y515874D02*
X508000Y583618D01*
X508000Y668222D02*
X508000Y669798D01*
X513080Y34544D02*
X513080Y3302D01*
X513080Y54572D02*
X513080Y94751D01*
X513080Y128769D02*
X513080Y160528D01*
X513080Y174752D02*
X513080Y226568D01*
X513080Y243332D02*
X513080Y330708D01*
X513080Y344932D02*
X513080Y500888D01*
X513080Y515874D02*
X513080Y582470D01*
X513080Y668222D02*
X513080Y669798D01*
X518160Y34544D02*
X518160Y3302D01*
X518160Y54572D02*
X518160Y89515D01*
X518160Y134005D02*
X518160Y160528D01*
X518160Y174752D02*
X518160Y224674D01*
X518160Y244826D02*
X518160Y330708D01*
X518160Y344932D02*
X518160Y500888D01*
X518160Y515874D02*
X518160Y581618D01*
X518160Y668492D02*
X518160Y669798D01*
X523240Y34544D02*
X523240Y3302D01*
X523240Y54572D02*
X523240Y86412D01*
X523240Y137108D02*
X523240Y160528D01*
X523240Y174752D02*
X523240Y217454D01*
X523240Y232526D02*
X523240Y232694D01*
X523240Y244826D02*
X523240Y330708D01*
X523240Y344932D02*
X523240Y500888D01*
X523240Y515874D02*
X523240Y611046D01*
X523240Y640666D02*
X523240Y654334D01*
X523240Y668492D02*
X523240Y669798D01*
X528320Y34544D02*
X528320Y3302D01*
X528320Y54572D02*
X528320Y84501D01*
X528320Y139019D02*
X528320Y160528D01*
X528320Y174752D02*
X528320Y217454D01*
X528320Y229586D02*
X528320Y323440D01*
X528320Y344932D02*
X528320Y348840D01*
X528320Y357280D02*
X528320Y500888D01*
X528320Y515874D02*
X528320Y604881D01*
X528320Y646831D02*
X528320Y654334D01*
X528320Y669406D02*
X528320Y669798D01*
X533400Y34544D02*
X533400Y3302D01*
X533400Y54572D02*
X533400Y83458D01*
X533400Y140062D02*
X533400Y160528D01*
X533400Y174752D02*
X533400Y206894D01*
X533400Y344932D02*
X533400Y346484D01*
X533400Y359636D02*
X533400Y500888D01*
X533400Y515874D02*
X533400Y601241D01*
X533400Y650471D02*
X533400Y661554D01*
X538480Y34544D02*
X538480Y3302D01*
X538480Y54572D02*
X538480Y83458D01*
X538480Y140062D02*
X538480Y145640D01*
X538480Y154080D02*
X538480Y160528D01*
X538480Y174752D02*
X538480Y201814D01*
X538480Y344932D02*
X538480Y348840D01*
X538480Y364606D02*
X538480Y500888D01*
X538480Y515874D02*
X538480Y598938D01*
X538480Y652774D02*
X538480Y664718D01*
X543560Y34544D02*
X543560Y3302D01*
X543560Y54572D02*
X543560Y84501D01*
X543560Y139019D02*
X543560Y143284D01*
X543560Y156436D02*
X543560Y160528D01*
X543560Y174752D02*
X543560Y196734D01*
X543560Y209666D02*
X543560Y216944D01*
X543560Y242796D02*
X543560Y247690D01*
X543560Y344932D02*
X543560Y356754D01*
X543560Y369686D02*
X543560Y500888D01*
X543560Y515874D02*
X543560Y597577D01*
X543560Y654136D02*
X543560Y664718D01*
X548640Y34544D02*
X548640Y3302D01*
X548640Y54572D02*
X548640Y86412D01*
X548640Y137108D02*
X548640Y138314D01*
X548640Y154080D02*
X548640Y160528D01*
X548640Y174752D02*
X548640Y191654D01*
X548640Y204586D02*
X548640Y218948D01*
X548640Y228092D02*
X548640Y231648D01*
X548640Y240792D02*
X548640Y248698D01*
X548640Y344932D02*
X548640Y361834D01*
X548640Y374766D02*
X548640Y500888D01*
X548640Y515874D02*
X548640Y597554D01*
X548640Y654158D02*
X548640Y664718D01*
X553720Y34544D02*
X553720Y3302D01*
X553720Y54572D02*
X553720Y89515D01*
X553720Y146166D02*
X553720Y160528D01*
X553720Y174752D02*
X553720Y186574D01*
X553720Y199506D02*
X553720Y218948D01*
X553720Y228092D02*
X553720Y231648D01*
X553720Y240792D02*
X553720Y248698D01*
X553720Y344932D02*
X553720Y366914D01*
X553720Y379846D02*
X553720Y500888D01*
X553720Y515874D02*
X553720Y598257D01*
X553720Y653455D02*
X553720Y664718D01*
X558800Y34544D02*
X558800Y3302D01*
X558800Y54572D02*
X558800Y94751D01*
X558800Y141086D02*
X558800Y160528D01*
X558800Y174752D02*
X558800Y181494D01*
X558800Y194426D02*
X558800Y218948D01*
X558800Y228092D02*
X558800Y231648D01*
X558800Y240792D02*
X558800Y248698D01*
X558800Y344932D02*
X558800Y371994D01*
X558800Y384926D02*
X558800Y500888D01*
X558800Y515874D02*
X558800Y599775D01*
X558800Y651937D02*
X558800Y664718D01*
X563880Y34544D02*
X563880Y3302D01*
X563880Y54572D02*
X563880Y77354D01*
X563880Y136006D02*
X563880Y153260D01*
X563880Y174752D02*
X563880Y176414D01*
X563880Y189346D02*
X563880Y218948D01*
X563880Y228092D02*
X563880Y231648D01*
X563880Y240792D02*
X563880Y248698D01*
X563880Y344932D02*
X563880Y377074D01*
X563880Y390006D02*
X563880Y500888D01*
X563880Y515874D02*
X563880Y602708D01*
X563880Y649004D02*
X563880Y664718D01*
X568960Y34544D02*
X568960Y3302D01*
X568960Y54572D02*
X568960Y72274D01*
X568960Y184266D02*
X568960Y218948D01*
X568960Y228092D02*
X568960Y231648D01*
X568960Y240792D02*
X568960Y248698D01*
X568960Y344932D02*
X568960Y382154D01*
X568960Y395086D02*
X568960Y491774D01*
X568960Y515874D02*
X568960Y519206D01*
X568960Y583046D02*
X568960Y607421D01*
X568960Y644291D02*
X568960Y664718D01*
X574040Y34544D02*
X574040Y3302D01*
X574040Y54572D02*
X574040Y71628D01*
X574040Y181326D02*
X574040Y218948D01*
X574040Y228092D02*
X574040Y231648D01*
X574040Y240792D02*
X574040Y248698D01*
X574040Y344932D02*
X574040Y387234D01*
X574040Y515874D02*
X574040Y519206D01*
X579120Y34544D02*
X579120Y3302D01*
X579120Y54572D02*
X579120Y71628D01*
X579120Y169672D02*
X579120Y218948D01*
X579120Y228092D02*
X579120Y231648D01*
X579120Y240792D02*
X579120Y248698D01*
X579120Y344932D02*
X579120Y416428D01*
X579120Y515874D02*
X579120Y580274D01*
X584200Y34544D02*
X584200Y3302D01*
X584200Y54572D02*
X584200Y71628D01*
X584200Y169672D02*
X584200Y218948D01*
X584200Y228092D02*
X584200Y231648D01*
X584200Y240792D02*
X584200Y248698D01*
X584200Y344932D02*
X584200Y386940D01*
X584200Y395380D02*
X584200Y418698D01*
X584200Y517514D02*
X584200Y583618D01*
X589280Y34544D02*
X589280Y3302D01*
X589280Y54572D02*
X589280Y71628D01*
X589280Y169672D02*
X589280Y214254D01*
X589280Y227186D02*
X589280Y231648D01*
X589280Y240792D02*
X589280Y248698D01*
X589280Y344932D02*
X589280Y384584D01*
X589280Y397736D02*
X589280Y418698D01*
X589280Y531146D02*
X589280Y583618D01*
X594360Y34544D02*
X594360Y3302D01*
X594360Y54572D02*
X594360Y71628D01*
X594360Y169672D02*
X594360Y209174D01*
X594360Y222106D02*
X594360Y231648D01*
X594360Y240792D02*
X594360Y248698D01*
X594360Y344932D02*
X594360Y379614D01*
X594360Y395380D02*
X594360Y418698D01*
X594360Y510032D02*
X594360Y514742D01*
X594360Y536226D02*
X594360Y583618D01*
X599440Y34544D02*
X599440Y3302D01*
X599440Y54572D02*
X599440Y71628D01*
X599440Y169672D02*
X599440Y204094D01*
X599440Y217026D02*
X599440Y231648D01*
X599440Y240792D02*
X599440Y248698D01*
X599440Y344932D02*
X599440Y374534D01*
X599440Y387466D02*
X599440Y418698D01*
X599440Y510032D02*
X599440Y528374D01*
X599440Y541306D02*
X599440Y583618D01*
X604520Y34544D02*
X604520Y3302D01*
X604520Y54572D02*
X604520Y71628D01*
X604520Y169672D02*
X604520Y199014D01*
X604520Y211946D02*
X604520Y231648D01*
X604520Y240792D02*
X604520Y248698D01*
X604520Y344932D02*
X604520Y371348D01*
X604520Y382386D02*
X604520Y418698D01*
X604520Y510032D02*
X604520Y533454D01*
X604520Y546386D02*
X604520Y583618D01*
X609600Y34544D02*
X609600Y3302D01*
X609600Y54572D02*
X609600Y71628D01*
X609600Y169672D02*
X609600Y198628D01*
X609600Y207772D02*
X609600Y228534D01*
X609600Y240792D02*
X609600Y248698D01*
X609600Y344932D02*
X609600Y371348D01*
X609600Y380492D02*
X609600Y418698D01*
X609600Y510032D02*
X609600Y538534D01*
X609600Y551466D02*
X609600Y583618D01*
X614680Y34544D02*
X614680Y3302D01*
X614680Y54572D02*
X614680Y71628D01*
X614680Y169672D02*
X614680Y198628D01*
X614680Y207772D02*
X614680Y223454D01*
X614680Y236386D02*
X614680Y247850D01*
X614680Y344932D02*
X614680Y371348D01*
X614680Y380492D02*
X614680Y418698D01*
X614680Y510032D02*
X614680Y543614D01*
X614680Y556546D02*
X614680Y583618D01*
X619760Y34544D02*
X619760Y3302D01*
X619760Y59169D02*
X619760Y71628D01*
X619760Y169672D02*
X619760Y198628D01*
X619760Y207772D02*
X619760Y210831D01*
X619760Y344286D02*
X619760Y371348D01*
X619760Y380492D02*
X619760Y380831D01*
X619760Y399169D02*
X619760Y418698D01*
X619760Y510032D02*
X619760Y548694D01*
X619760Y569169D02*
X619760Y583618D01*
X624840Y34544D02*
X624840Y3302D01*
X624840Y59906D02*
X624840Y68694D01*
X624840Y169672D02*
X624840Y198628D01*
X624840Y207772D02*
X624840Y210094D01*
X624840Y339852D02*
X624840Y344454D01*
X624840Y356586D02*
X624840Y371348D01*
X624840Y399906D02*
X624840Y418698D01*
X624840Y510032D02*
X624840Y550094D01*
X624840Y569906D02*
X624840Y583618D01*
X629920Y34544D02*
X629920Y3302D01*
X629920Y58689D02*
X629920Y63614D01*
X629920Y76546D02*
X629920Y78698D01*
X629920Y169672D02*
X629920Y198628D01*
X629920Y207772D02*
X629920Y211311D01*
X629920Y228689D02*
X629920Y321594D01*
X629920Y339852D02*
X629920Y344454D01*
X629920Y359526D02*
X629920Y371348D01*
X629920Y380492D02*
X629920Y381311D01*
X629920Y398689D02*
X629920Y418698D01*
X629920Y510032D02*
X629920Y551311D01*
X629920Y568689D02*
X629920Y583618D01*
X635000Y34544D02*
X635000Y3302D01*
X635000Y43688D02*
X635000Y58534D01*
X635000Y71466D02*
X635000Y78698D01*
X635000Y169672D02*
X635000Y198628D01*
X635000Y211466D02*
X635000Y262688D01*
X635000Y270712D02*
X635000Y288088D01*
X635000Y296112D02*
X635000Y313488D01*
X635000Y337682D02*
X635000Y338825D01*
X635000Y342138D02*
X635000Y343662D01*
X635000Y346975D02*
X635000Y351674D01*
X635000Y381466D02*
X635000Y418698D01*
X635000Y510032D02*
X635000Y583618D01*
X640080Y34544D02*
X640080Y3302D01*
X640080Y46546D02*
X640080Y53454D01*
X640080Y66386D02*
X640080Y78698D01*
X640080Y169672D02*
X640080Y203614D01*
X640080Y216546D02*
X640080Y256982D01*
X640080Y276418D02*
X640080Y282382D01*
X640080Y301818D02*
X640080Y307782D01*
X640080Y329046D02*
X640080Y333230D01*
X640080Y342138D02*
X640080Y343662D01*
X640080Y352570D02*
X640080Y356754D01*
X640080Y386546D02*
X640080Y418698D01*
X640080Y510032D02*
X640080Y583618D01*
X645160Y38694D02*
X645160Y3302D01*
X645160Y61306D02*
X645160Y78698D01*
X645160Y169672D02*
X645160Y208694D01*
X645160Y229169D02*
X645160Y255778D01*
X645160Y277622D02*
X645160Y281178D01*
X645160Y303022D02*
X645160Y306578D01*
X645160Y328422D02*
X645160Y331978D01*
X645160Y342138D02*
X645160Y343662D01*
X645160Y353822D02*
X645160Y378694D01*
X645160Y399169D02*
X645160Y418698D01*
X645160Y510032D02*
X645160Y550831D01*
X645160Y569169D02*
X645160Y583618D01*
X650240Y40094D02*
X650240Y3302D01*
X650240Y59906D02*
X650240Y78698D01*
X650240Y169672D02*
X650240Y210094D01*
X650240Y229906D02*
X650240Y255778D01*
X650240Y277622D02*
X650240Y281178D01*
X650240Y303022D02*
X650240Y306578D01*
X650240Y328422D02*
X650240Y331978D01*
X650240Y342138D02*
X650240Y343662D01*
X650240Y353822D02*
X650240Y380094D01*
X650240Y399906D02*
X650240Y418698D01*
X650240Y510032D02*
X650240Y550094D01*
X650240Y569906D02*
X650240Y583618D01*
X655320Y41311D02*
X655320Y3302D01*
X655320Y58689D02*
X655320Y76698D01*
X655320Y169672D02*
X655320Y211311D01*
X655320Y228689D02*
X655320Y255778D01*
X655320Y277622D02*
X655320Y281178D01*
X655320Y303022D02*
X655320Y306578D01*
X655320Y328422D02*
X655320Y331978D01*
X655320Y342138D02*
X655320Y343662D01*
X655320Y353822D02*
X655320Y381311D01*
X655320Y398689D02*
X655320Y416698D01*
X655320Y506446D02*
X655320Y551311D01*
X655320Y568689D02*
X655320Y581618D01*
X660400Y78430D02*
X660400Y3302D01*
X660400Y161570D02*
X660400Y255778D01*
X660400Y277622D02*
X660400Y281178D01*
X660400Y303022D02*
X660400Y306578D01*
X660400Y328422D02*
X660400Y342138D01*
X660400Y343662D02*
X660400Y418430D01*
X660400Y501570D02*
X660400Y583350D01*
X665480Y256982D02*
X665480Y3302D01*
X665480Y276418D02*
X665480Y282382D01*
X665480Y301818D02*
X665480Y307782D01*
X665480Y327218D02*
X665480Y333230D01*
X665480Y352570D02*
X665480Y651284D01*
D22*
X566420Y652780D03*
X530860Y586740D03*
X563880Y596900D03*
X556260Y541020D03*
X482600Y523240D03*
X490220Y548640D03*
X447040Y530860D03*
X398780Y523240D03*
X356870Y546100D03*
X419354Y459232D03*
X518414Y492252D03*
X564134Y487172D03*
X515874Y423672D03*
X564134Y423672D03*
X589534Y408432D03*
X663194Y405892D03*
X533654Y393192D03*
X500634Y355092D03*
X556514Y355092D03*
X604774Y350012D03*
X653034Y365252D03*
X515874Y327152D03*
X515874Y256032D03*
X526034Y289052D03*
X613664Y244348D03*
X555244Y244348D03*
X519684Y208026D03*
X555752Y179324D03*
X518414Y178816D03*
X497586Y203200D03*
X433832Y178308D03*
X431292Y209042D03*
X430784Y240538D03*
X550672Y214884D03*
X583692Y174244D03*
X642112Y197104D03*
X606552Y222504D03*
X558292Y85344D03*
X553212Y153924D03*
X517652Y136144D03*
X517652Y80264D03*
X568452Y29464D03*
X593852Y59944D03*
X626872Y29464D03*
X499872Y29464D03*
X454152Y34544D03*
X431292Y62484D03*
X497332Y65024D03*
X352552Y92964D03*
X365252Y125984D03*
X355092Y153924D03*
X365252Y197104D03*
X355092Y212344D03*
X337312Y192024D03*
X291592Y204724D03*
X339852Y166624D03*
X393192Y123444D03*
X393192Y194564D03*
X393192Y212344D03*
X393192Y230124D03*
X393192Y247904D03*
X392684Y273558D03*
X393192Y304038D03*
X411734Y438912D03*
X353314Y421132D03*
X353314Y446532D03*
X317754Y413512D03*
X282194Y405892D03*
X264414Y413512D03*
X266954Y393192D03*
X231394Y479552D03*
X239014Y449072D03*
X233934Y431292D03*
X175514Y489712D03*
X178054Y446532D03*
X198374Y433832D03*
X112014Y410972D03*
X127254Y390652D03*
X145034Y410972D03*
X18034Y377952D03*
X58674Y380492D03*
X68834Y482092D03*
X15494Y471932D03*
X61214Y611632D03*
X213614Y593852D03*
X35814Y616712D03*
X7874Y664972D03*
X63754Y664972D03*
X185674Y647192D03*
X239014Y596392D03*
X236474Y644652D03*
X386334Y647192D03*
X335534Y644652D03*
X363474Y604012D03*
X421894Y604012D03*
X429514Y652272D03*
X381254Y507492D03*
X599694Y515112D03*
X607314Y560832D03*
X660654Y510032D03*
X665734Y644652D03*
X665734Y614172D03*
X665734Y479552D03*
X665734Y443992D03*
X665734Y372872D03*
X86614Y70612D03*
X155194Y73152D03*
X86614Y27432D03*
X127254Y42672D03*
X213614Y45212D03*
X233934Y27432D03*
X274574Y24892D03*
X155194Y27432D03*
X66294Y85852D03*
X25654Y101092D03*
X61214Y154432D03*
X63754Y248412D03*
X45974Y248412D03*
X33782Y304800D03*
X64262Y307340D03*
X5842Y363220D03*
X38862Y360680D03*
X104394Y359156D03*
X127000Y337820D03*
X173990Y252476D03*
X189230Y237236D03*
X129794Y187452D03*
X160274Y210312D03*
X157734Y235712D03*
X212598Y69850D03*
X193548Y70358D03*
X236474Y70104D03*
X276098Y74930D03*
X255778Y72390D03*
X331978Y62230D03*
X416052Y138684D03*
X330200Y243840D03*
X393192Y156464D03*
X429514Y410972D03*
X203708Y110998D03*
X237490Y98806D03*
X240284Y359918D03*
X86106Y537464D03*
X124714Y537972D03*
X523240Y647700D03*
D27*
X213106Y594360D02*
X203200Y594360D01*
X213106Y594360D02*
X213614Y593852D01*
X189230Y572770D02*
X185420Y568960D01*
X189230Y572770D02*
X184658Y577342D01*
X172974Y577342D01*
D22*
X182626Y577342D03*
X173228Y577342D03*
X221996Y511556D03*
X235204Y316738D03*
X230378Y264668D03*
D24*
X230378Y281178D01*
X233680Y284480D01*
X243840Y284480D02*
X246380Y281940D01*
X243840Y284480D02*
X233680Y284480D01*
X246380Y281940D02*
X246380Y241300D01*
X256794Y230886D01*
D22*
X368300Y111760D03*
D24*
X374904Y118364D01*
X374904Y482854D02*
X372872Y484886D01*
D22*
X372872Y484886D03*
D24*
X374904Y230886D02*
X374904Y118364D01*
X374904Y230886D02*
X374904Y482854D01*
X374904Y230886D02*
X256794Y230886D01*
D22*
X320040Y21110D03*
D24*
X324330Y21110D01*
X325374Y20066D01*
X369600Y20066D01*
X369600Y45100D01*
D22*
X76200Y502920D03*
D24*
X68580Y510540D01*
X81280Y655320D02*
X78740Y657860D01*
D22*
X78740Y657860D03*
X396240Y655320D03*
D24*
X393700Y570502D02*
X395000Y569202D01*
X393700Y652780D02*
X396240Y655320D01*
X393700Y652780D02*
X393700Y570502D01*
X68580Y594360D02*
X68580Y510540D01*
X68580Y594360D02*
X81280Y607060D01*
X81280Y655320D01*
D22*
X247904Y291592D03*
D21*
X250952Y288544D01*
X250952Y243840D01*
X259080Y235712D01*
X357632Y235712D01*
D24*
X361188Y235712D01*
X363728Y238252D01*
D22*
X363728Y238252D03*
X404876Y238252D03*
D24*
X404876Y237744D01*
X401320Y234188D01*
X401320Y105664D02*
X404368Y102616D01*
D22*
X404368Y102616D03*
X388620Y85344D03*
D24*
X394716Y79248D01*
X394716Y45384D02*
X395000Y45100D01*
X401320Y105664D02*
X401320Y234188D01*
X394716Y79248D02*
X394716Y45384D01*
D21*
X205470Y185420D02*
X201891Y185420D01*
X191731Y195580D02*
X190500Y195580D01*
X191731Y195580D02*
X201891Y185420D01*
D24*
X190500Y195580D02*
X190500Y205232D01*
X218440Y233172D01*
X218440Y320548D02*
X220472Y322580D01*
D22*
X220472Y322580D03*
D24*
X218440Y320548D02*
X218440Y233172D01*
D22*
X259080Y373380D03*
D24*
X261620Y373380D01*
X358140Y368300D02*
X363220Y363220D01*
D22*
X363220Y363220D03*
X421640Y363220D03*
D24*
X266700Y368300D02*
X261620Y373380D01*
X266700Y368300D02*
X358140Y368300D01*
X421640Y363220D02*
X421640Y355600D01*
X436880Y340360D01*
X635000Y331216D02*
X635000Y327660D01*
X645160Y317500D01*
X660400Y317500D01*
X622300Y335280D02*
X617220Y340360D01*
X630936Y335280D02*
X635000Y331216D01*
X617220Y340360D02*
X436880Y340360D01*
X622300Y335280D02*
X630936Y335280D01*
D21*
X205470Y160020D02*
X200390Y154940D01*
D22*
X180340Y154940D03*
X160020Y187960D03*
D21*
X180340Y154940D02*
X200390Y154940D01*
D24*
X162560Y190500D02*
X160020Y187960D01*
X162560Y190500D02*
X168148Y190500D01*
D21*
X213868Y236220D01*
X213868Y320040D02*
X211328Y322580D01*
D22*
X211328Y322580D03*
D21*
X213868Y320040D02*
X213868Y236220D01*
D22*
X53340Y314960D03*
D24*
X15240Y314960D01*
X12700Y317500D01*
D22*
X90396Y519176D03*
D24*
X78740Y530832D01*
X78740Y577850D02*
X82042Y581152D01*
D22*
X82042Y581152D03*
X175260Y604520D03*
D24*
X175260Y662940D01*
X78740Y577850D02*
X78740Y530832D01*
X166300Y663920D02*
X174280Y663920D01*
X175260Y662940D01*
X236220Y662940D01*
D22*
X236220Y662940D03*
X337820Y662940D03*
D24*
X336840Y663920D02*
X326300Y663920D01*
X336840Y663920D02*
X337820Y662940D01*
D22*
X525780Y660400D03*
D24*
X522260Y663920D02*
X516300Y663920D01*
X522260Y663920D02*
X525780Y660400D01*
D22*
X665480Y657860D03*
D24*
X659420Y663920D02*
X656300Y663920D01*
X659420Y663920D02*
X665480Y657860D01*
X656300Y663920D02*
X588300Y663920D01*
X534670Y669290D02*
X525780Y660400D01*
X582930Y669290D02*
X588300Y663920D01*
X582930Y669290D02*
X534670Y669290D01*
X78200Y464860D02*
X76200Y466860D01*
X76200Y472440D01*
D22*
X76200Y472440D03*
X77978Y375158D03*
D24*
X107442Y375158D01*
X109220Y373380D01*
D22*
X109220Y373380D03*
D24*
X329840Y505460D02*
X336300Y499000D01*
X172760Y505460D02*
X166300Y499000D01*
X172760Y505460D02*
X193040Y505460D01*
X209804Y505460D01*
X211328Y503936D01*
X228092Y503936D01*
X229616Y505460D01*
X329840Y505460D01*
X649840Y505460D02*
X656300Y499000D01*
X649840Y505460D02*
X505460Y505460D01*
X505460Y499840D02*
X506300Y499000D01*
X505460Y499840D02*
X505460Y505460D01*
X335280Y505460D02*
X329840Y505460D01*
D22*
X352806Y456184D03*
X410464Y466090D03*
D24*
X417830Y473456D02*
X417830Y497586D01*
X417830Y473456D02*
X410464Y466090D01*
X417830Y497586D02*
X425704Y505460D01*
X340868Y499872D02*
X335280Y505460D01*
X340868Y499872D02*
X340868Y461264D01*
X345948Y456184D02*
X352806Y456184D01*
X345948Y456184D02*
X340868Y461264D01*
X425704Y505460D02*
X505460Y505460D01*
D22*
X246380Y421640D03*
D24*
X248920Y424180D01*
X248920Y487680D02*
X246380Y490220D01*
X195580Y490220D02*
X193040Y492760D01*
X193040Y505460D01*
X248920Y487680D02*
X248920Y424180D01*
X246380Y490220D02*
X195580Y490220D01*
X612140Y335060D02*
X618200Y329000D01*
X612140Y335280D02*
X505460Y335280D01*
X505460Y329840D02*
X506300Y329000D01*
X505460Y329840D02*
X505460Y335280D01*
X612140Y335060D02*
X612140Y335280D01*
X344100Y329000D02*
X336300Y329000D01*
X360680Y312420D02*
X363220Y312420D01*
D22*
X363220Y312420D03*
X421640Y342900D03*
D24*
X360680Y312420D02*
X344100Y329000D01*
X421640Y342900D02*
X429260Y335280D01*
X505460Y335280D01*
X261620Y335280D02*
X198120Y335280D01*
X334960Y327660D02*
X336300Y329000D01*
X264160Y332740D02*
X261620Y335280D01*
X264160Y327660D02*
X334960Y327660D01*
X264160Y327660D02*
X264160Y332740D01*
D22*
X109446Y347980D03*
D24*
X109220Y347754D01*
X109220Y327660D01*
X147320Y327660D01*
X164960Y327660D01*
X186690Y346710D02*
X198120Y335280D01*
X186690Y346710D02*
X147320Y346710D01*
X147320Y327660D01*
D21*
X164960Y327660D02*
X166300Y329000D01*
D22*
X73216Y366824D03*
X58436Y368316D03*
D21*
X14700Y368316D01*
X7200Y375816D01*
X7200Y386860D01*
D24*
X102616Y347980D02*
X109446Y347980D01*
X83772Y366824D02*
X73216Y366824D01*
X83772Y366824D02*
X102616Y347980D01*
X166300Y159000D02*
X167640Y157660D01*
X167640Y81280D02*
X190500Y58420D01*
X228600Y58420D01*
X241300Y45720D01*
X167640Y81280D02*
X167640Y157660D01*
X241300Y45720D02*
X258064Y45720D01*
X286004Y73660D01*
X340283Y73660D01*
X342900Y76278D01*
X342900Y154940D01*
X340360Y154940D02*
X336300Y159000D01*
X340360Y154940D02*
X342900Y154940D01*
X353060Y165100D01*
X363220Y165100D01*
D22*
X363220Y165100D03*
X419100Y165100D03*
D24*
X505460Y165100D01*
X505460Y159840D02*
X506300Y159000D01*
X505460Y159840D02*
X505460Y165100D01*
X655320Y165100D01*
X655320Y159980D02*
X656300Y159000D01*
X655320Y159980D02*
X655320Y165100D01*
D22*
X314960Y162560D03*
D24*
X318520Y159000D01*
X336300Y159000D01*
X88300Y81000D02*
X83820Y85480D01*
X83820Y251460D01*
X84280Y251000D02*
X88300Y251000D01*
X84280Y251000D02*
X83820Y251460D01*
X83820Y334518D01*
X99060Y337820D02*
X99060Y342900D01*
X83820Y358140D01*
X71200Y358140D01*
X65834Y363506D01*
X65834Y376158D01*
X71692Y382016D01*
X81016Y382016D01*
X83312Y384312D01*
X83312Y420624D01*
X83820Y421640D01*
X84460Y421000D02*
X88300Y421000D01*
X84460Y421000D02*
X83820Y421640D01*
X83820Y508000D02*
X73660Y518160D01*
X73660Y589280D01*
X83820Y508000D02*
X83820Y421640D01*
X88300Y585920D02*
X84940Y589280D01*
X73660Y589280D01*
D22*
X99060Y337820D03*
D24*
X95758Y334518D01*
X83820Y334518D01*
X225948Y585920D02*
X248300Y585920D01*
X195072Y555044D02*
X195072Y554736D01*
X195072Y555044D02*
X225948Y585920D01*
D22*
X195072Y554736D03*
X203200Y497840D03*
D24*
X248920Y497840D01*
X254000Y492760D02*
X254000Y421640D01*
X254000Y414020D01*
X254000Y492760D02*
X248920Y497840D01*
X254640Y421000D02*
X258300Y421000D01*
X254640Y421000D02*
X254000Y421640D01*
X256540Y252760D02*
X258300Y251000D01*
X256540Y252760D02*
X256540Y314960D01*
X251460Y320040D01*
X246380Y320040D01*
D22*
X246380Y320040D03*
X251008Y343770D03*
D24*
X251008Y361132D01*
X236220Y375920D02*
X236220Y396240D01*
X248920Y408940D01*
X236220Y375920D02*
X251008Y361132D01*
X258300Y251000D02*
X264160Y245140D01*
X264160Y243840D01*
D22*
X264160Y243840D03*
X266700Y218440D03*
D24*
X266700Y193040D01*
X264160Y190500D01*
X264160Y167640D01*
X258064Y81236D02*
X258300Y81000D01*
X258064Y81236D02*
X258064Y161544D01*
X264160Y167640D01*
D22*
X231140Y408940D03*
D24*
X248920Y408940D01*
X254000Y414020D01*
D22*
X314960Y182880D03*
D24*
X360680Y182880D01*
X363220Y185420D01*
D22*
X363220Y185420D03*
X414020Y187960D03*
D24*
X421640Y195580D01*
X421640Y251460D01*
X427840Y251460D02*
X428300Y251000D01*
X427840Y251460D02*
X421640Y251460D01*
X421640Y330200D02*
X416560Y335280D01*
X416560Y337820D01*
X414020Y340360D01*
X421640Y330200D02*
X421640Y251460D01*
X414020Y340360D02*
X414020Y368300D01*
X421640Y375920D01*
X421640Y421640D01*
X421640Y441960D01*
X402590Y461010D01*
X402590Y496570D01*
X436880Y530860D01*
X436880Y584500D02*
X438300Y585920D01*
X436880Y584500D02*
X436880Y530860D01*
X414020Y187960D02*
X414020Y185420D01*
X411480Y182880D01*
X411480Y157480D01*
X427990Y81310D02*
X428300Y81000D01*
X427990Y81310D02*
X427990Y140970D01*
X411480Y157480D01*
X422280Y421000D02*
X428300Y421000D01*
X422280Y421000D02*
X421640Y421640D01*
D22*
X314960Y172720D03*
D24*
X317500Y175260D01*
X363220Y175260D01*
D22*
X363220Y175260D03*
X419100Y175260D03*
D24*
X424180Y170180D01*
X566420Y170180D02*
X571500Y175260D01*
D22*
X571500Y175260D03*
X568960Y157480D03*
D24*
X571500Y154940D01*
X571500Y86360D01*
X566420Y170180D02*
X424180Y170180D01*
X576860Y81000D02*
X578300Y81000D01*
X576860Y81000D02*
X571500Y86360D01*
X571500Y175260D02*
X535940Y210820D01*
X535940Y251460D01*
X539740Y251460D02*
X540200Y251000D01*
X539740Y251460D02*
X535940Y251460D01*
X535940Y325120D02*
X533400Y327660D01*
D22*
X533400Y327660D03*
X533400Y353060D03*
D24*
X574040Y393700D01*
X535940Y325120D02*
X535940Y251460D01*
X574040Y495300D02*
X571500Y497840D01*
D22*
X571500Y497840D03*
X571500Y525272D03*
D24*
X571500Y579120D01*
X574040Y421640D02*
X574040Y393700D01*
X574040Y421640D02*
X574040Y495300D01*
X571500Y579120D02*
X578300Y585920D01*
X578300Y421000D02*
X574680Y421000D01*
X574040Y421640D01*
D22*
X238760Y276860D03*
D21*
X240284Y275336D01*
X240284Y214376D01*
X259080Y195580D01*
X259080Y170180D02*
X251460Y162560D01*
X251460Y157480D01*
X241300Y147320D01*
X259080Y170180D02*
X259080Y195580D01*
X241300Y147320D02*
X218170Y147320D01*
D22*
X188479Y270086D03*
D21*
X188575Y270086D01*
X191996Y273507D01*
X191996Y281968D01*
X186944Y287020D01*
X174862Y317898D02*
X174862Y334125D01*
X176299Y335562D01*
X186944Y305816D02*
X186944Y287020D01*
X186944Y305816D02*
X174862Y317898D01*
D22*
X176299Y335562D03*
X175006Y353822D03*
D24*
X175006Y378206D01*
X180848Y396240D02*
X176784Y400304D01*
X168656Y400304D01*
X168656Y412496D01*
X180848Y384048D02*
X175006Y378206D01*
X180848Y384048D02*
X180848Y396240D01*
X168656Y412496D02*
X180848Y424688D01*
X213360Y436880D02*
X213360Y481584D01*
D22*
X213360Y481584D03*
X211328Y538480D03*
D24*
X201168Y424688D02*
X180848Y424688D01*
X201168Y424688D02*
X213360Y436880D01*
X134088Y540512D02*
X114600Y560000D01*
X270256Y562864D02*
X270256Y556768D01*
X278384Y548640D01*
X298640Y548640D02*
X310000Y560000D01*
X203200Y540512D02*
X134088Y540512D01*
X203200Y540512D02*
X205994Y543306D01*
X233680Y570992D01*
X262128Y570992D01*
X270256Y562864D01*
X278384Y548640D02*
X298640Y548640D01*
D22*
X430784Y593852D03*
D24*
X430276Y594360D01*
X407162Y594360D01*
X407162Y593852D01*
D22*
X407162Y593852D03*
D24*
X211328Y538480D02*
X206502Y543306D01*
X205994Y543306D01*
D22*
X185674Y278666D03*
D21*
X182880Y281460D02*
X182880Y302260D01*
X182880Y281460D02*
X185674Y278666D01*
X182880Y302260D02*
X170434Y314706D01*
X170434Y332486D01*
X169672Y333248D01*
X168656Y333248D01*
X166370Y335534D01*
D22*
X166370Y335534D03*
X166116Y353794D03*
D24*
X298460Y378460D02*
X310000Y390000D01*
X298460Y378460D02*
X266700Y378460D01*
X255160Y390000D01*
X153392Y546608D02*
X140000Y560000D01*
X267512Y577088D02*
X284600Y560000D01*
X199136Y546608D02*
X153392Y546608D01*
X199136Y546608D02*
X229616Y577088D01*
X267512Y577088D01*
X350918Y397112D02*
X353314Y394716D01*
X317112Y397112D02*
X310000Y390000D01*
X317112Y397112D02*
X350918Y397112D01*
D22*
X353314Y394716D03*
D24*
X167640Y393700D02*
X166116Y392176D01*
D22*
X167640Y393700D03*
D24*
X166116Y392176D02*
X166116Y353794D01*
D22*
X255160Y390000D03*
X185928Y261506D03*
D21*
X186550Y262128D01*
X191516Y262128D01*
X196596Y267208D01*
X196596Y283972D02*
X191008Y289560D01*
X196596Y283972D02*
X196596Y267208D01*
X191008Y289560D02*
X191008Y309372D01*
X182880Y317500D02*
X182880Y325922D01*
X182880Y317500D02*
X191008Y309372D01*
X182880Y325922D02*
X181904Y326898D01*
X181570Y326898D01*
D22*
X181570Y326898D03*
X183896Y353314D03*
D24*
X182880Y354330D01*
X182880Y375920D01*
X185420Y378460D01*
D22*
X352806Y465582D03*
X410464Y479552D03*
D24*
X410464Y497586D01*
X424180Y511302D01*
X584454Y511302D01*
X590000Y516848D01*
D22*
X177800Y408940D03*
D24*
X185420Y416560D01*
X237236Y416560D02*
X237490Y416814D01*
D22*
X237490Y416814D03*
X259080Y403860D03*
D24*
X270740Y403860D01*
X284600Y390000D01*
X237236Y416560D02*
X185420Y416560D01*
X284600Y390000D02*
X296936Y402336D01*
X362204Y402336D01*
X362204Y459740D01*
X185420Y401320D02*
X177800Y408940D01*
X185420Y401320D02*
X185420Y378460D01*
X352806Y465582D02*
X356362Y465582D01*
X362204Y459740D01*
X590000Y525400D02*
X624600Y560000D01*
X590000Y525400D02*
X590000Y516848D01*
D22*
X350520Y242034D03*
D24*
X354866Y246380D01*
X365252Y246380D02*
X370332Y251460D01*
X365252Y246380D02*
X354866Y246380D01*
X370332Y371348D02*
X368300Y373380D01*
D22*
X368300Y373380D03*
X431800Y373380D03*
D24*
X463380Y373380D01*
X480000Y390000D01*
X370332Y371348D02*
X370332Y251460D01*
D22*
X250000Y226060D03*
D24*
X278540Y226060D01*
X284600Y220000D01*
D22*
X261620Y342900D03*
D24*
X271779Y353060D01*
D22*
X363220Y353060D03*
X437388Y353568D03*
D24*
X363220Y353060D02*
X271779Y353060D01*
X604520Y375920D02*
X635920Y375920D01*
X650000Y390000D01*
X635920Y375920D02*
X635920Y359060D01*
X627380Y350520D01*
D22*
X627380Y350520D03*
X627380Y327660D03*
D24*
X622502Y322782D01*
X622502Y222098D02*
X624600Y220000D01*
X622502Y222098D02*
X622502Y322782D01*
X608380Y236220D02*
X624600Y220000D01*
X608380Y236220D02*
X543560Y236220D01*
D22*
X543560Y236220D03*
X520700Y238760D03*
D24*
X498760Y238760D01*
X480000Y220000D01*
X437388Y353568D02*
X437388Y356108D01*
X447040Y365760D01*
X472694Y365760D02*
X491490Y384556D01*
X491490Y394970D01*
X465920Y401320D02*
X454600Y390000D01*
X447040Y365760D02*
X472694Y365760D01*
X491490Y394970D02*
X485140Y401320D01*
X465920Y401320D01*
D22*
X589280Y391160D03*
D24*
X604520Y375920D01*
D22*
X292100Y336324D03*
D24*
X293596Y337820D01*
X360680Y322580D02*
X363220Y322580D01*
D22*
X363220Y322580D03*
X414020Y325120D03*
D24*
X414020Y322580D01*
X411480Y320040D01*
X345440Y337820D02*
X293596Y337820D01*
X345440Y337820D02*
X360680Y322580D01*
X411480Y320040D02*
X411480Y269494D01*
X633200Y203200D02*
X650000Y220000D01*
X633200Y203200D02*
X606800Y203200D01*
D22*
X543560Y223520D03*
X525780Y223520D03*
D24*
X543560Y223520D02*
X586480Y223520D01*
X525780Y223520D02*
X518160Y231140D01*
X492760Y215900D02*
X485140Y208280D01*
X474980Y208280D01*
X463260Y220000D02*
X454600Y220000D01*
X500380Y231140D02*
X518160Y231140D01*
X500380Y231140D02*
X492760Y223520D01*
X492760Y215900D01*
X474980Y208280D02*
X463260Y220000D01*
X310980Y220980D02*
X310000Y220000D01*
X310980Y220980D02*
X363220Y220980D01*
D22*
X363220Y220980D03*
D24*
X453620Y220980D02*
X454600Y220000D01*
X416560Y264414D02*
X411480Y269494D01*
X416560Y223520D02*
X414020Y220980D01*
D22*
X414020Y220980D03*
D24*
X416560Y223520D02*
X416560Y264414D01*
X586480Y223520D02*
X606800Y203200D01*
X170000Y60000D02*
X168600Y60000D01*
X165100Y63500D01*
X128100Y63500D01*
X114600Y50000D01*
X250000Y30000D02*
X250480Y30480D01*
X269240Y30480D01*
X284600Y45840D01*
X284600Y50000D01*
D22*
X271780Y336804D03*
D24*
X271780Y341884D01*
X277876Y347980D01*
X358140Y347980D02*
X363220Y342900D01*
D22*
X363220Y342900D03*
X404368Y344170D03*
D24*
X404368Y343408D01*
X401320Y340360D01*
X401320Y254000D01*
X411480Y243840D02*
X411480Y233680D01*
X406400Y228600D01*
X406400Y111760D02*
X411480Y106680D01*
X463960Y66040D02*
X480000Y50000D01*
X358140Y347980D02*
X277876Y347980D01*
X401320Y254000D02*
X411480Y243840D01*
X406400Y228600D02*
X406400Y111760D01*
X411480Y106680D02*
X411480Y90424D01*
X441960Y66040D02*
X463960Y66040D01*
X412899Y91843D02*
X411480Y90424D01*
D22*
X412899Y91843D03*
X441960Y66040D03*
D24*
X480000Y50000D02*
X624600Y50000D01*
D22*
X281686Y336804D03*
D24*
X281686Y340106D02*
X284480Y342900D01*
X281686Y340106D02*
X281686Y336804D01*
X353060Y342900D02*
X363220Y332740D01*
D22*
X363220Y332740D03*
X408940Y335280D03*
D24*
X408940Y332740D01*
X406400Y330200D01*
X353060Y342900D02*
X284480Y342900D01*
X406400Y261620D02*
X408940Y259080D01*
D22*
X408940Y259080D03*
D24*
X406400Y261620D02*
X406400Y330200D01*
D22*
X543560Y149860D03*
D24*
X566420Y127000D01*
X566420Y81280D01*
X571500Y76200D01*
X623800Y76200D01*
X650000Y50000D01*
X465484Y39116D02*
X454600Y50000D01*
X639116Y39116D02*
X650000Y50000D01*
X639116Y39116D02*
X465484Y39116D01*
D21*
X200660Y139700D02*
X185420Y139700D01*
X205470Y134890D02*
X205470Y134620D01*
X205470Y134890D02*
X200660Y139700D01*
D24*
X185420Y139700D02*
X177800Y139700D01*
X172720Y144780D01*
X172720Y162560D02*
X165100Y170180D01*
X172720Y162560D02*
X172720Y144780D01*
X165100Y170180D02*
X152146Y170180D01*
X91440Y170180D01*
X78740Y80740D02*
X76180Y78180D01*
X78740Y80740D02*
X78740Y149860D01*
X152146Y170180D02*
X152146Y192786D01*
X154940Y195580D01*
X166624Y195580D01*
D21*
X209804Y238760D01*
X209804Y308356D02*
X207264Y308356D01*
D22*
X207264Y308356D03*
D21*
X209804Y308356D02*
X209804Y238760D01*
D22*
X91440Y170180D03*
X71120Y154940D03*
D24*
X73660Y154940D01*
X78740Y149860D01*
D21*
X190500Y147320D02*
X205470Y147320D01*
D22*
X190500Y147320D03*
D24*
X7640Y165080D02*
X7640Y170740D01*
X7640Y165080D02*
X8128Y164592D01*
X72136Y164592D01*
D22*
X144762Y177800D03*
X72136Y164592D03*
X91440Y180340D03*
D24*
X93980Y177800D01*
X144762Y177800D01*
D22*
X198628Y291084D03*
D21*
X200660Y289052D01*
X200660Y259080D01*
X185420Y243840D01*
D22*
X101600Y243840D03*
D21*
X185420Y243840D01*
D22*
X203200Y299720D03*
D21*
X205232Y297688D01*
X205232Y240792D01*
X165100Y200660D01*
X144780Y193040D02*
X144780Y187960D01*
D22*
X144780Y187960D03*
D21*
X152400Y200660D02*
X165100Y200660D01*
X152400Y200660D02*
X144780Y193040D01*
D22*
X220980Y104140D03*
D21*
X223520Y101600D01*
X223520Y68580D01*
D22*
X223520Y68580D03*
X223520Y50800D03*
D21*
X233680Y40640D01*
X260604Y40640D02*
X282194Y62230D01*
X297770Y62230D01*
X310000Y50000D01*
X260604Y40640D02*
X233680Y40640D01*
X221749Y185420D02*
X218170Y185420D01*
X221749Y185420D02*
X233680Y197351D01*
D24*
X233680Y201168D01*
X226568Y208280D01*
X223520Y297180D02*
X231140Y304800D01*
X236220Y304800D01*
D22*
X236220Y304800D03*
D24*
X226568Y228092D02*
X226568Y208280D01*
X226568Y228092D02*
X233680Y235204D01*
X233680Y249936D01*
X223520Y260096D01*
X223520Y297180D01*
D21*
X235712Y305308D02*
X236220Y304800D01*
X205470Y172720D02*
X195310Y162560D01*
X181109Y162560D01*
X170688Y172981D01*
X170688Y180848D01*
X168732Y180848D01*
D22*
X168732Y180848D03*
X206756Y211328D03*
D21*
X206756Y214884D01*
X225044Y233172D02*
X225044Y236728D01*
D22*
X225044Y236728D03*
D21*
X225044Y233172D02*
X206756Y214884D01*
X218170Y172720D02*
X228330Y162560D01*
X243840Y162560D02*
X254000Y172720D01*
X254000Y193040D01*
X233680Y213360D02*
X233680Y225552D01*
D22*
X233680Y225552D03*
D21*
X228330Y162560D02*
X243840Y162560D01*
X254000Y193040D02*
X233680Y213360D01*
D26*
X345440Y567962D02*
X344200Y569202D01*
X344200Y65308D02*
X344200Y45100D01*
X345440Y528320D02*
X345440Y567962D01*
X345440Y528320D02*
X382778Y490982D01*
X382778Y103886D01*
X344200Y65308D01*
D27*
X109220Y528320D02*
X107950Y529590D01*
D22*
X107950Y529590D03*
D27*
X109220Y528320D02*
X345440Y528320D01*
M02*
