G04 EAGLE Gerber RS-274X export*
G75*
%MOMM*%
%FSLAX34Y34*%
%LPD*%
%INSilkscreen Bottom*%
%IPPOS*%
%AMOC8*
5,1,8,0,0,1.08239X$1,22.5*%
G01*
%ADD10C,0.101600*%
%ADD11C,0.152400*%
%ADD12C,0.508000*%
%ADD13C,0.076200*%
%ADD14C,0.000000*%
%ADD15C,0.203200*%


D10*
X318704Y260858D02*
X321301Y260858D01*
X321400Y260860D01*
X321500Y260866D01*
X321599Y260875D01*
X321697Y260888D01*
X321795Y260905D01*
X321893Y260926D01*
X321989Y260951D01*
X322084Y260979D01*
X322178Y261011D01*
X322271Y261046D01*
X322363Y261085D01*
X322453Y261128D01*
X322541Y261173D01*
X322628Y261223D01*
X322712Y261275D01*
X322795Y261331D01*
X322875Y261389D01*
X322953Y261451D01*
X323028Y261516D01*
X323101Y261584D01*
X323171Y261654D01*
X323239Y261727D01*
X323304Y261802D01*
X323366Y261880D01*
X323424Y261960D01*
X323480Y262043D01*
X323532Y262127D01*
X323582Y262214D01*
X323627Y262302D01*
X323670Y262392D01*
X323709Y262484D01*
X323744Y262577D01*
X323776Y262671D01*
X323804Y262766D01*
X323829Y262862D01*
X323850Y262960D01*
X323867Y263058D01*
X323880Y263156D01*
X323889Y263255D01*
X323895Y263355D01*
X323897Y263454D01*
X323897Y269946D01*
X323895Y270045D01*
X323889Y270145D01*
X323880Y270244D01*
X323867Y270342D01*
X323850Y270440D01*
X323829Y270538D01*
X323804Y270634D01*
X323776Y270729D01*
X323744Y270823D01*
X323709Y270916D01*
X323670Y271008D01*
X323627Y271098D01*
X323582Y271186D01*
X323532Y271273D01*
X323480Y271357D01*
X323424Y271440D01*
X323366Y271520D01*
X323304Y271598D01*
X323239Y271673D01*
X323171Y271746D01*
X323101Y271816D01*
X323028Y271884D01*
X322953Y271949D01*
X322875Y272011D01*
X322795Y272069D01*
X322712Y272125D01*
X322628Y272177D01*
X322541Y272227D01*
X322453Y272272D01*
X322363Y272315D01*
X322271Y272354D01*
X322178Y272389D01*
X322084Y272421D01*
X321989Y272449D01*
X321893Y272474D01*
X321795Y272495D01*
X321697Y272512D01*
X321599Y272525D01*
X321500Y272534D01*
X321400Y272540D01*
X321301Y272542D01*
X318704Y272542D01*
X314339Y269946D02*
X311094Y272542D01*
X311094Y260858D01*
X314339Y260858D02*
X307848Y260858D01*
X295647Y343408D02*
X293050Y343408D01*
X295647Y343408D02*
X295746Y343410D01*
X295846Y343416D01*
X295945Y343425D01*
X296043Y343438D01*
X296141Y343455D01*
X296239Y343476D01*
X296335Y343501D01*
X296430Y343529D01*
X296524Y343561D01*
X296617Y343596D01*
X296709Y343635D01*
X296799Y343678D01*
X296887Y343723D01*
X296974Y343773D01*
X297058Y343825D01*
X297141Y343881D01*
X297221Y343939D01*
X297299Y344001D01*
X297374Y344066D01*
X297447Y344134D01*
X297517Y344204D01*
X297585Y344277D01*
X297650Y344352D01*
X297712Y344430D01*
X297770Y344510D01*
X297826Y344593D01*
X297878Y344677D01*
X297928Y344764D01*
X297973Y344852D01*
X298016Y344942D01*
X298055Y345034D01*
X298090Y345127D01*
X298122Y345221D01*
X298150Y345316D01*
X298175Y345412D01*
X298196Y345510D01*
X298213Y345608D01*
X298226Y345706D01*
X298235Y345805D01*
X298241Y345905D01*
X298243Y346004D01*
X298243Y352496D01*
X298241Y352595D01*
X298235Y352695D01*
X298226Y352794D01*
X298213Y352892D01*
X298196Y352990D01*
X298175Y353088D01*
X298150Y353184D01*
X298122Y353279D01*
X298090Y353373D01*
X298055Y353466D01*
X298016Y353558D01*
X297973Y353648D01*
X297928Y353736D01*
X297878Y353823D01*
X297826Y353907D01*
X297770Y353990D01*
X297712Y354070D01*
X297650Y354148D01*
X297585Y354223D01*
X297517Y354296D01*
X297447Y354366D01*
X297374Y354434D01*
X297299Y354499D01*
X297221Y354561D01*
X297141Y354619D01*
X297058Y354675D01*
X296974Y354727D01*
X296887Y354777D01*
X296799Y354822D01*
X296709Y354865D01*
X296617Y354904D01*
X296524Y354939D01*
X296430Y354971D01*
X296335Y354999D01*
X296239Y355024D01*
X296141Y355045D01*
X296043Y355062D01*
X295945Y355075D01*
X295846Y355084D01*
X295746Y355090D01*
X295647Y355092D01*
X293050Y355092D01*
X285115Y355092D02*
X285008Y355090D01*
X284902Y355084D01*
X284796Y355074D01*
X284690Y355061D01*
X284584Y355043D01*
X284480Y355022D01*
X284376Y354997D01*
X284273Y354968D01*
X284172Y354936D01*
X284072Y354899D01*
X283973Y354859D01*
X283875Y354816D01*
X283779Y354769D01*
X283685Y354718D01*
X283593Y354664D01*
X283503Y354607D01*
X283415Y354547D01*
X283330Y354483D01*
X283247Y354416D01*
X283166Y354346D01*
X283088Y354274D01*
X283012Y354198D01*
X282940Y354120D01*
X282870Y354039D01*
X282803Y353956D01*
X282739Y353871D01*
X282679Y353783D01*
X282622Y353693D01*
X282568Y353601D01*
X282517Y353507D01*
X282470Y353411D01*
X282427Y353313D01*
X282387Y353214D01*
X282350Y353114D01*
X282318Y353013D01*
X282289Y352910D01*
X282264Y352806D01*
X282243Y352702D01*
X282225Y352596D01*
X282212Y352490D01*
X282202Y352384D01*
X282196Y352278D01*
X282194Y352171D01*
X285115Y355092D02*
X285236Y355090D01*
X285357Y355084D01*
X285477Y355074D01*
X285598Y355061D01*
X285717Y355043D01*
X285837Y355022D01*
X285955Y354997D01*
X286072Y354968D01*
X286189Y354935D01*
X286304Y354899D01*
X286418Y354858D01*
X286531Y354815D01*
X286643Y354767D01*
X286752Y354716D01*
X286860Y354661D01*
X286967Y354603D01*
X287071Y354542D01*
X287173Y354477D01*
X287273Y354409D01*
X287371Y354338D01*
X287467Y354264D01*
X287560Y354187D01*
X287650Y354106D01*
X287738Y354023D01*
X287823Y353937D01*
X287906Y353848D01*
X287985Y353757D01*
X288062Y353663D01*
X288135Y353567D01*
X288205Y353469D01*
X288272Y353368D01*
X288336Y353265D01*
X288397Y353160D01*
X288454Y353053D01*
X288507Y352945D01*
X288557Y352835D01*
X288603Y352723D01*
X288646Y352610D01*
X288685Y352495D01*
X283168Y349899D02*
X283089Y349977D01*
X283013Y350057D01*
X282940Y350140D01*
X282870Y350226D01*
X282803Y350313D01*
X282739Y350404D01*
X282679Y350496D01*
X282621Y350590D01*
X282567Y350687D01*
X282517Y350785D01*
X282470Y350885D01*
X282426Y350986D01*
X282386Y351089D01*
X282350Y351194D01*
X282318Y351299D01*
X282289Y351406D01*
X282264Y351513D01*
X282242Y351622D01*
X282225Y351731D01*
X282211Y351840D01*
X282202Y351950D01*
X282196Y352061D01*
X282194Y352171D01*
X283168Y349899D02*
X288685Y343408D01*
X282194Y343408D01*
X120086Y260858D02*
X117489Y260858D01*
X120086Y260858D02*
X120185Y260860D01*
X120285Y260866D01*
X120384Y260875D01*
X120482Y260888D01*
X120580Y260905D01*
X120678Y260926D01*
X120774Y260951D01*
X120869Y260979D01*
X120963Y261011D01*
X121056Y261046D01*
X121148Y261085D01*
X121238Y261128D01*
X121326Y261173D01*
X121413Y261223D01*
X121497Y261275D01*
X121580Y261331D01*
X121660Y261389D01*
X121738Y261451D01*
X121813Y261516D01*
X121886Y261584D01*
X121956Y261654D01*
X122024Y261727D01*
X122089Y261802D01*
X122151Y261880D01*
X122209Y261960D01*
X122265Y262043D01*
X122317Y262127D01*
X122367Y262214D01*
X122412Y262302D01*
X122455Y262392D01*
X122494Y262484D01*
X122529Y262577D01*
X122561Y262671D01*
X122589Y262766D01*
X122614Y262862D01*
X122635Y262960D01*
X122652Y263058D01*
X122665Y263156D01*
X122674Y263255D01*
X122680Y263355D01*
X122682Y263454D01*
X122682Y269946D01*
X122680Y270045D01*
X122674Y270145D01*
X122665Y270244D01*
X122652Y270342D01*
X122635Y270440D01*
X122614Y270538D01*
X122589Y270634D01*
X122561Y270729D01*
X122529Y270823D01*
X122494Y270916D01*
X122455Y271008D01*
X122412Y271098D01*
X122367Y271186D01*
X122317Y271273D01*
X122265Y271357D01*
X122209Y271440D01*
X122151Y271520D01*
X122089Y271598D01*
X122024Y271673D01*
X121956Y271746D01*
X121886Y271816D01*
X121813Y271884D01*
X121738Y271949D01*
X121660Y272011D01*
X121580Y272069D01*
X121497Y272125D01*
X121413Y272177D01*
X121326Y272227D01*
X121238Y272272D01*
X121148Y272315D01*
X121056Y272354D01*
X120963Y272389D01*
X120869Y272421D01*
X120774Y272449D01*
X120678Y272474D01*
X120580Y272495D01*
X120482Y272512D01*
X120384Y272525D01*
X120285Y272534D01*
X120185Y272540D01*
X120086Y272542D01*
X117489Y272542D01*
X113124Y260858D02*
X109878Y260858D01*
X109765Y260860D01*
X109652Y260866D01*
X109539Y260876D01*
X109426Y260890D01*
X109314Y260907D01*
X109203Y260929D01*
X109093Y260954D01*
X108983Y260984D01*
X108875Y261017D01*
X108768Y261054D01*
X108662Y261094D01*
X108558Y261139D01*
X108455Y261187D01*
X108354Y261238D01*
X108255Y261293D01*
X108158Y261351D01*
X108063Y261413D01*
X107970Y261478D01*
X107880Y261546D01*
X107792Y261617D01*
X107706Y261692D01*
X107623Y261769D01*
X107543Y261849D01*
X107466Y261932D01*
X107391Y262018D01*
X107320Y262106D01*
X107252Y262196D01*
X107187Y262289D01*
X107125Y262384D01*
X107067Y262481D01*
X107012Y262580D01*
X106961Y262681D01*
X106913Y262784D01*
X106868Y262888D01*
X106828Y262994D01*
X106791Y263101D01*
X106758Y263209D01*
X106728Y263319D01*
X106703Y263429D01*
X106681Y263540D01*
X106664Y263652D01*
X106650Y263765D01*
X106640Y263878D01*
X106634Y263991D01*
X106632Y264104D01*
X106634Y264217D01*
X106640Y264330D01*
X106650Y264443D01*
X106664Y264556D01*
X106681Y264668D01*
X106703Y264779D01*
X106728Y264889D01*
X106758Y264999D01*
X106791Y265107D01*
X106828Y265214D01*
X106868Y265320D01*
X106913Y265424D01*
X106961Y265527D01*
X107012Y265628D01*
X107067Y265727D01*
X107125Y265824D01*
X107187Y265919D01*
X107252Y266012D01*
X107320Y266102D01*
X107391Y266190D01*
X107466Y266276D01*
X107543Y266359D01*
X107623Y266439D01*
X107706Y266516D01*
X107792Y266591D01*
X107880Y266662D01*
X107970Y266730D01*
X108063Y266795D01*
X108158Y266857D01*
X108255Y266915D01*
X108354Y266970D01*
X108455Y267021D01*
X108558Y267069D01*
X108662Y267114D01*
X108768Y267154D01*
X108875Y267191D01*
X108983Y267224D01*
X109093Y267254D01*
X109203Y267279D01*
X109314Y267301D01*
X109426Y267318D01*
X109539Y267332D01*
X109652Y267342D01*
X109765Y267348D01*
X109878Y267350D01*
X109229Y272542D02*
X113124Y272542D01*
X109229Y272542D02*
X109128Y272540D01*
X109028Y272534D01*
X108928Y272524D01*
X108828Y272511D01*
X108729Y272493D01*
X108630Y272472D01*
X108533Y272447D01*
X108436Y272418D01*
X108341Y272385D01*
X108247Y272349D01*
X108155Y272309D01*
X108064Y272266D01*
X107975Y272219D01*
X107888Y272169D01*
X107802Y272115D01*
X107719Y272058D01*
X107639Y271998D01*
X107560Y271935D01*
X107484Y271868D01*
X107411Y271799D01*
X107341Y271727D01*
X107273Y271653D01*
X107208Y271576D01*
X107147Y271496D01*
X107088Y271414D01*
X107033Y271330D01*
X106981Y271244D01*
X106932Y271156D01*
X106887Y271066D01*
X106845Y270974D01*
X106807Y270881D01*
X106773Y270786D01*
X106742Y270691D01*
X106715Y270594D01*
X106692Y270496D01*
X106672Y270397D01*
X106657Y270297D01*
X106645Y270197D01*
X106637Y270097D01*
X106633Y269996D01*
X106633Y269896D01*
X106637Y269795D01*
X106645Y269695D01*
X106657Y269595D01*
X106672Y269495D01*
X106692Y269396D01*
X106715Y269298D01*
X106742Y269201D01*
X106773Y269106D01*
X106807Y269011D01*
X106845Y268918D01*
X106887Y268826D01*
X106932Y268736D01*
X106981Y268648D01*
X107033Y268562D01*
X107088Y268478D01*
X107147Y268396D01*
X107208Y268316D01*
X107273Y268239D01*
X107341Y268165D01*
X107411Y268093D01*
X107484Y268024D01*
X107560Y267957D01*
X107639Y267894D01*
X107719Y267834D01*
X107802Y267777D01*
X107888Y267723D01*
X107975Y267673D01*
X108064Y267626D01*
X108155Y267583D01*
X108247Y267543D01*
X108341Y267507D01*
X108436Y267474D01*
X108533Y267445D01*
X108630Y267420D01*
X108729Y267399D01*
X108828Y267381D01*
X108928Y267368D01*
X109028Y267358D01*
X109128Y267352D01*
X109229Y267350D01*
X109229Y267349D02*
X111826Y267349D01*
X104846Y305308D02*
X102249Y305308D01*
X104846Y305308D02*
X104945Y305310D01*
X105045Y305316D01*
X105144Y305325D01*
X105242Y305338D01*
X105340Y305355D01*
X105438Y305376D01*
X105534Y305401D01*
X105629Y305429D01*
X105723Y305461D01*
X105816Y305496D01*
X105908Y305535D01*
X105998Y305578D01*
X106086Y305623D01*
X106173Y305673D01*
X106257Y305725D01*
X106340Y305781D01*
X106420Y305839D01*
X106498Y305901D01*
X106573Y305966D01*
X106646Y306034D01*
X106716Y306104D01*
X106784Y306177D01*
X106849Y306252D01*
X106911Y306330D01*
X106969Y306410D01*
X107025Y306493D01*
X107077Y306577D01*
X107127Y306664D01*
X107172Y306752D01*
X107215Y306842D01*
X107254Y306934D01*
X107289Y307027D01*
X107321Y307121D01*
X107349Y307216D01*
X107374Y307312D01*
X107395Y307410D01*
X107412Y307508D01*
X107425Y307606D01*
X107434Y307705D01*
X107440Y307805D01*
X107442Y307904D01*
X107442Y314396D01*
X107440Y314495D01*
X107434Y314595D01*
X107425Y314694D01*
X107412Y314792D01*
X107395Y314890D01*
X107374Y314988D01*
X107349Y315084D01*
X107321Y315179D01*
X107289Y315273D01*
X107254Y315366D01*
X107215Y315458D01*
X107172Y315548D01*
X107127Y315636D01*
X107077Y315723D01*
X107025Y315807D01*
X106969Y315890D01*
X106911Y315970D01*
X106849Y316048D01*
X106784Y316123D01*
X106716Y316196D01*
X106646Y316266D01*
X106573Y316334D01*
X106498Y316399D01*
X106420Y316461D01*
X106340Y316519D01*
X106257Y316575D01*
X106173Y316627D01*
X106086Y316677D01*
X105998Y316722D01*
X105908Y316765D01*
X105816Y316804D01*
X105723Y316839D01*
X105629Y316871D01*
X105534Y316899D01*
X105438Y316924D01*
X105340Y316945D01*
X105242Y316962D01*
X105144Y316975D01*
X105045Y316984D01*
X104945Y316990D01*
X104846Y316992D01*
X102249Y316992D01*
X95287Y316992D02*
X97884Y307904D01*
X91393Y307904D01*
X93340Y310501D02*
X93340Y305308D01*
X178308Y360689D02*
X178308Y363286D01*
X178308Y360689D02*
X178310Y360590D01*
X178316Y360490D01*
X178325Y360391D01*
X178338Y360293D01*
X178355Y360195D01*
X178376Y360097D01*
X178401Y360001D01*
X178429Y359906D01*
X178461Y359812D01*
X178496Y359719D01*
X178535Y359627D01*
X178578Y359537D01*
X178623Y359449D01*
X178673Y359362D01*
X178725Y359278D01*
X178781Y359195D01*
X178839Y359115D01*
X178901Y359037D01*
X178966Y358962D01*
X179034Y358889D01*
X179104Y358819D01*
X179177Y358751D01*
X179252Y358686D01*
X179330Y358624D01*
X179410Y358566D01*
X179493Y358510D01*
X179577Y358458D01*
X179664Y358408D01*
X179752Y358363D01*
X179842Y358320D01*
X179934Y358281D01*
X180027Y358246D01*
X180121Y358214D01*
X180216Y358186D01*
X180312Y358161D01*
X180410Y358140D01*
X180508Y358123D01*
X180606Y358110D01*
X180705Y358101D01*
X180805Y358095D01*
X180904Y358093D01*
X187396Y358093D01*
X187495Y358095D01*
X187595Y358101D01*
X187694Y358110D01*
X187792Y358123D01*
X187890Y358140D01*
X187988Y358161D01*
X188084Y358186D01*
X188179Y358214D01*
X188273Y358246D01*
X188366Y358281D01*
X188458Y358320D01*
X188548Y358363D01*
X188636Y358408D01*
X188723Y358458D01*
X188807Y358510D01*
X188890Y358566D01*
X188970Y358624D01*
X189048Y358686D01*
X189123Y358751D01*
X189196Y358819D01*
X189266Y358889D01*
X189334Y358962D01*
X189399Y359037D01*
X189461Y359115D01*
X189519Y359195D01*
X189575Y359278D01*
X189627Y359362D01*
X189677Y359449D01*
X189722Y359537D01*
X189765Y359627D01*
X189804Y359719D01*
X189839Y359811D01*
X189871Y359906D01*
X189899Y360001D01*
X189924Y360097D01*
X189945Y360195D01*
X189962Y360293D01*
X189975Y360391D01*
X189984Y360490D01*
X189990Y360590D01*
X189992Y360689D01*
X189992Y363286D01*
X178308Y367651D02*
X178308Y371546D01*
X178310Y371645D01*
X178316Y371745D01*
X178325Y371844D01*
X178338Y371942D01*
X178355Y372040D01*
X178376Y372138D01*
X178401Y372234D01*
X178429Y372329D01*
X178461Y372423D01*
X178496Y372516D01*
X178535Y372608D01*
X178578Y372698D01*
X178623Y372786D01*
X178673Y372873D01*
X178725Y372957D01*
X178781Y373040D01*
X178839Y373120D01*
X178901Y373198D01*
X178966Y373273D01*
X179034Y373346D01*
X179104Y373416D01*
X179177Y373484D01*
X179252Y373549D01*
X179330Y373611D01*
X179410Y373669D01*
X179493Y373725D01*
X179577Y373777D01*
X179664Y373827D01*
X179752Y373872D01*
X179842Y373915D01*
X179934Y373954D01*
X180027Y373989D01*
X180121Y374021D01*
X180216Y374049D01*
X180312Y374074D01*
X180410Y374095D01*
X180508Y374112D01*
X180606Y374125D01*
X180705Y374134D01*
X180805Y374140D01*
X180904Y374142D01*
X182203Y374142D01*
X182302Y374140D01*
X182402Y374134D01*
X182501Y374125D01*
X182599Y374112D01*
X182697Y374095D01*
X182795Y374074D01*
X182891Y374049D01*
X182986Y374021D01*
X183080Y373989D01*
X183173Y373954D01*
X183265Y373915D01*
X183355Y373872D01*
X183443Y373827D01*
X183530Y373777D01*
X183614Y373725D01*
X183697Y373669D01*
X183777Y373611D01*
X183855Y373549D01*
X183930Y373484D01*
X184003Y373416D01*
X184073Y373346D01*
X184141Y373273D01*
X184206Y373198D01*
X184268Y373120D01*
X184326Y373040D01*
X184382Y372957D01*
X184434Y372873D01*
X184484Y372786D01*
X184529Y372698D01*
X184572Y372608D01*
X184611Y372516D01*
X184646Y372423D01*
X184678Y372329D01*
X184706Y372234D01*
X184731Y372138D01*
X184752Y372040D01*
X184769Y371942D01*
X184782Y371844D01*
X184791Y371745D01*
X184797Y371645D01*
X184799Y371546D01*
X184799Y367651D01*
X189992Y367651D01*
X189992Y374142D01*
X318704Y235458D02*
X321301Y235458D01*
X321400Y235460D01*
X321500Y235466D01*
X321599Y235475D01*
X321697Y235488D01*
X321795Y235505D01*
X321893Y235526D01*
X321989Y235551D01*
X322084Y235579D01*
X322178Y235611D01*
X322271Y235646D01*
X322363Y235685D01*
X322453Y235728D01*
X322541Y235773D01*
X322628Y235823D01*
X322712Y235875D01*
X322795Y235931D01*
X322875Y235989D01*
X322953Y236051D01*
X323028Y236116D01*
X323101Y236184D01*
X323171Y236254D01*
X323239Y236327D01*
X323304Y236402D01*
X323366Y236480D01*
X323424Y236560D01*
X323480Y236643D01*
X323532Y236727D01*
X323582Y236814D01*
X323627Y236902D01*
X323670Y236992D01*
X323709Y237084D01*
X323744Y237177D01*
X323776Y237271D01*
X323804Y237366D01*
X323829Y237462D01*
X323850Y237560D01*
X323867Y237658D01*
X323880Y237756D01*
X323889Y237855D01*
X323895Y237955D01*
X323897Y238054D01*
X323897Y244546D01*
X323895Y244645D01*
X323889Y244745D01*
X323880Y244844D01*
X323867Y244942D01*
X323850Y245040D01*
X323829Y245138D01*
X323804Y245234D01*
X323776Y245329D01*
X323744Y245423D01*
X323709Y245516D01*
X323670Y245608D01*
X323627Y245698D01*
X323582Y245786D01*
X323532Y245873D01*
X323480Y245957D01*
X323424Y246040D01*
X323366Y246120D01*
X323304Y246198D01*
X323239Y246273D01*
X323171Y246346D01*
X323101Y246416D01*
X323028Y246484D01*
X322953Y246549D01*
X322875Y246611D01*
X322795Y246669D01*
X322712Y246725D01*
X322628Y246777D01*
X322541Y246827D01*
X322453Y246872D01*
X322363Y246915D01*
X322271Y246954D01*
X322178Y246989D01*
X322084Y247021D01*
X321989Y247049D01*
X321893Y247074D01*
X321795Y247095D01*
X321697Y247112D01*
X321599Y247125D01*
X321500Y247134D01*
X321400Y247140D01*
X321301Y247142D01*
X318704Y247142D01*
X314339Y241949D02*
X310444Y241949D01*
X310345Y241947D01*
X310245Y241941D01*
X310146Y241932D01*
X310048Y241919D01*
X309950Y241902D01*
X309852Y241881D01*
X309756Y241856D01*
X309661Y241828D01*
X309567Y241796D01*
X309474Y241761D01*
X309382Y241722D01*
X309292Y241679D01*
X309204Y241634D01*
X309117Y241584D01*
X309033Y241532D01*
X308950Y241476D01*
X308870Y241418D01*
X308792Y241356D01*
X308717Y241291D01*
X308644Y241223D01*
X308574Y241153D01*
X308506Y241080D01*
X308441Y241005D01*
X308379Y240927D01*
X308321Y240847D01*
X308265Y240764D01*
X308213Y240680D01*
X308163Y240593D01*
X308118Y240505D01*
X308075Y240415D01*
X308036Y240323D01*
X308001Y240230D01*
X307969Y240136D01*
X307941Y240041D01*
X307916Y239945D01*
X307895Y239847D01*
X307878Y239749D01*
X307865Y239651D01*
X307856Y239552D01*
X307850Y239452D01*
X307848Y239353D01*
X307848Y238704D01*
X307850Y238591D01*
X307856Y238478D01*
X307866Y238365D01*
X307880Y238252D01*
X307897Y238140D01*
X307919Y238029D01*
X307944Y237919D01*
X307974Y237809D01*
X308007Y237701D01*
X308044Y237594D01*
X308084Y237488D01*
X308129Y237384D01*
X308177Y237281D01*
X308228Y237180D01*
X308283Y237081D01*
X308341Y236984D01*
X308403Y236889D01*
X308468Y236796D01*
X308536Y236706D01*
X308607Y236618D01*
X308682Y236532D01*
X308759Y236449D01*
X308839Y236369D01*
X308922Y236292D01*
X309008Y236217D01*
X309096Y236146D01*
X309186Y236078D01*
X309279Y236013D01*
X309374Y235951D01*
X309471Y235893D01*
X309570Y235838D01*
X309671Y235787D01*
X309774Y235739D01*
X309878Y235694D01*
X309984Y235654D01*
X310091Y235617D01*
X310199Y235584D01*
X310309Y235554D01*
X310419Y235529D01*
X310530Y235507D01*
X310642Y235490D01*
X310755Y235476D01*
X310868Y235466D01*
X310981Y235460D01*
X311094Y235458D01*
X311207Y235460D01*
X311320Y235466D01*
X311433Y235476D01*
X311546Y235490D01*
X311658Y235507D01*
X311769Y235529D01*
X311879Y235554D01*
X311989Y235584D01*
X312097Y235617D01*
X312204Y235654D01*
X312310Y235694D01*
X312414Y235739D01*
X312517Y235787D01*
X312618Y235838D01*
X312717Y235893D01*
X312814Y235951D01*
X312909Y236013D01*
X313002Y236078D01*
X313092Y236146D01*
X313180Y236217D01*
X313266Y236292D01*
X313349Y236369D01*
X313429Y236449D01*
X313506Y236532D01*
X313581Y236618D01*
X313652Y236706D01*
X313720Y236796D01*
X313785Y236889D01*
X313847Y236984D01*
X313905Y237081D01*
X313960Y237180D01*
X314011Y237281D01*
X314059Y237384D01*
X314104Y237488D01*
X314144Y237594D01*
X314181Y237701D01*
X314214Y237809D01*
X314244Y237919D01*
X314269Y238029D01*
X314291Y238140D01*
X314308Y238252D01*
X314322Y238365D01*
X314332Y238478D01*
X314338Y238591D01*
X314340Y238704D01*
X314339Y238704D02*
X314339Y241949D01*
X314337Y242092D01*
X314331Y242235D01*
X314321Y242378D01*
X314307Y242520D01*
X314290Y242662D01*
X314268Y242804D01*
X314243Y242945D01*
X314213Y243085D01*
X314180Y243224D01*
X314143Y243362D01*
X314102Y243499D01*
X314058Y243635D01*
X314009Y243770D01*
X313957Y243903D01*
X313902Y244035D01*
X313842Y244165D01*
X313779Y244294D01*
X313713Y244421D01*
X313643Y244546D01*
X313570Y244668D01*
X313493Y244789D01*
X313413Y244908D01*
X313330Y245024D01*
X313244Y245139D01*
X313155Y245250D01*
X313062Y245360D01*
X312967Y245466D01*
X312868Y245570D01*
X312767Y245671D01*
X312663Y245770D01*
X312557Y245865D01*
X312447Y245958D01*
X312336Y246047D01*
X312221Y246133D01*
X312105Y246216D01*
X311986Y246296D01*
X311865Y246373D01*
X311743Y246446D01*
X311618Y246516D01*
X311491Y246582D01*
X311362Y246645D01*
X311232Y246705D01*
X311100Y246760D01*
X310967Y246812D01*
X310832Y246861D01*
X310696Y246905D01*
X310559Y246946D01*
X310421Y246983D01*
X310282Y247016D01*
X310142Y247046D01*
X310001Y247071D01*
X309859Y247093D01*
X309717Y247110D01*
X309575Y247124D01*
X309432Y247134D01*
X309289Y247140D01*
X309146Y247142D01*
X149296Y413258D02*
X146699Y413258D01*
X149296Y413258D02*
X149395Y413260D01*
X149495Y413266D01*
X149594Y413275D01*
X149692Y413288D01*
X149790Y413305D01*
X149888Y413326D01*
X149984Y413351D01*
X150079Y413379D01*
X150173Y413411D01*
X150266Y413446D01*
X150358Y413485D01*
X150448Y413528D01*
X150536Y413573D01*
X150623Y413623D01*
X150707Y413675D01*
X150790Y413731D01*
X150870Y413789D01*
X150948Y413851D01*
X151023Y413916D01*
X151096Y413984D01*
X151166Y414054D01*
X151234Y414127D01*
X151299Y414202D01*
X151361Y414280D01*
X151419Y414360D01*
X151475Y414443D01*
X151527Y414527D01*
X151577Y414614D01*
X151622Y414702D01*
X151665Y414792D01*
X151704Y414884D01*
X151739Y414977D01*
X151771Y415071D01*
X151799Y415166D01*
X151824Y415262D01*
X151845Y415360D01*
X151862Y415458D01*
X151875Y415556D01*
X151884Y415655D01*
X151890Y415755D01*
X151892Y415854D01*
X151892Y422346D01*
X151890Y422445D01*
X151884Y422545D01*
X151875Y422644D01*
X151862Y422742D01*
X151845Y422840D01*
X151824Y422938D01*
X151799Y423034D01*
X151771Y423129D01*
X151739Y423223D01*
X151704Y423316D01*
X151665Y423408D01*
X151622Y423498D01*
X151577Y423586D01*
X151527Y423673D01*
X151475Y423757D01*
X151419Y423840D01*
X151361Y423920D01*
X151299Y423998D01*
X151234Y424073D01*
X151166Y424146D01*
X151096Y424216D01*
X151023Y424284D01*
X150948Y424349D01*
X150870Y424411D01*
X150790Y424469D01*
X150707Y424525D01*
X150623Y424577D01*
X150536Y424627D01*
X150448Y424672D01*
X150358Y424715D01*
X150266Y424754D01*
X150173Y424789D01*
X150079Y424821D01*
X149984Y424849D01*
X149888Y424874D01*
X149790Y424895D01*
X149692Y424912D01*
X149594Y424925D01*
X149495Y424934D01*
X149395Y424940D01*
X149296Y424942D01*
X146699Y424942D01*
X142334Y424942D02*
X142334Y423644D01*
X142334Y424942D02*
X135843Y424942D01*
X139088Y413258D01*
X184799Y413258D02*
X187396Y413258D01*
X187495Y413260D01*
X187595Y413266D01*
X187694Y413275D01*
X187792Y413288D01*
X187890Y413305D01*
X187988Y413326D01*
X188084Y413351D01*
X188179Y413379D01*
X188273Y413411D01*
X188366Y413446D01*
X188458Y413485D01*
X188548Y413528D01*
X188636Y413573D01*
X188723Y413623D01*
X188807Y413675D01*
X188890Y413731D01*
X188970Y413789D01*
X189048Y413851D01*
X189123Y413916D01*
X189196Y413984D01*
X189266Y414054D01*
X189334Y414127D01*
X189399Y414202D01*
X189461Y414280D01*
X189519Y414360D01*
X189575Y414443D01*
X189627Y414527D01*
X189677Y414614D01*
X189722Y414702D01*
X189765Y414792D01*
X189804Y414884D01*
X189839Y414977D01*
X189871Y415071D01*
X189899Y415166D01*
X189924Y415262D01*
X189945Y415360D01*
X189962Y415458D01*
X189975Y415556D01*
X189984Y415655D01*
X189990Y415755D01*
X189992Y415854D01*
X189992Y422346D01*
X189990Y422445D01*
X189984Y422545D01*
X189975Y422644D01*
X189962Y422742D01*
X189945Y422840D01*
X189924Y422938D01*
X189899Y423034D01*
X189871Y423129D01*
X189839Y423223D01*
X189804Y423316D01*
X189765Y423408D01*
X189722Y423498D01*
X189677Y423586D01*
X189627Y423673D01*
X189575Y423757D01*
X189519Y423840D01*
X189461Y423920D01*
X189399Y423998D01*
X189334Y424073D01*
X189266Y424146D01*
X189196Y424216D01*
X189123Y424284D01*
X189048Y424349D01*
X188970Y424411D01*
X188890Y424469D01*
X188807Y424525D01*
X188723Y424577D01*
X188636Y424627D01*
X188548Y424672D01*
X188458Y424715D01*
X188366Y424754D01*
X188273Y424789D01*
X188179Y424821D01*
X188084Y424849D01*
X187988Y424874D01*
X187890Y424895D01*
X187792Y424912D01*
X187694Y424925D01*
X187595Y424934D01*
X187495Y424940D01*
X187396Y424942D01*
X184799Y424942D01*
X180434Y416504D02*
X180432Y416617D01*
X180426Y416730D01*
X180416Y416843D01*
X180402Y416956D01*
X180385Y417068D01*
X180363Y417179D01*
X180338Y417289D01*
X180308Y417399D01*
X180275Y417507D01*
X180238Y417614D01*
X180198Y417720D01*
X180153Y417824D01*
X180105Y417927D01*
X180054Y418028D01*
X179999Y418127D01*
X179941Y418224D01*
X179879Y418319D01*
X179814Y418412D01*
X179746Y418502D01*
X179675Y418590D01*
X179600Y418676D01*
X179523Y418759D01*
X179443Y418839D01*
X179360Y418916D01*
X179274Y418991D01*
X179186Y419062D01*
X179096Y419130D01*
X179003Y419195D01*
X178908Y419257D01*
X178811Y419315D01*
X178712Y419370D01*
X178611Y419421D01*
X178508Y419469D01*
X178404Y419514D01*
X178298Y419554D01*
X178191Y419591D01*
X178083Y419624D01*
X177973Y419654D01*
X177863Y419679D01*
X177752Y419701D01*
X177640Y419718D01*
X177527Y419732D01*
X177414Y419742D01*
X177301Y419748D01*
X177188Y419750D01*
X177075Y419748D01*
X176962Y419742D01*
X176849Y419732D01*
X176736Y419718D01*
X176624Y419701D01*
X176513Y419679D01*
X176403Y419654D01*
X176293Y419624D01*
X176185Y419591D01*
X176078Y419554D01*
X175972Y419514D01*
X175868Y419469D01*
X175765Y419421D01*
X175664Y419370D01*
X175565Y419315D01*
X175468Y419257D01*
X175373Y419195D01*
X175280Y419130D01*
X175190Y419062D01*
X175102Y418991D01*
X175016Y418916D01*
X174933Y418839D01*
X174853Y418759D01*
X174776Y418676D01*
X174701Y418590D01*
X174630Y418502D01*
X174562Y418412D01*
X174497Y418319D01*
X174435Y418224D01*
X174377Y418127D01*
X174322Y418028D01*
X174271Y417927D01*
X174223Y417824D01*
X174178Y417720D01*
X174138Y417614D01*
X174101Y417507D01*
X174068Y417399D01*
X174038Y417289D01*
X174013Y417179D01*
X173991Y417068D01*
X173974Y416956D01*
X173960Y416843D01*
X173950Y416730D01*
X173944Y416617D01*
X173942Y416504D01*
X173944Y416391D01*
X173950Y416278D01*
X173960Y416165D01*
X173974Y416052D01*
X173991Y415940D01*
X174013Y415829D01*
X174038Y415719D01*
X174068Y415609D01*
X174101Y415501D01*
X174138Y415394D01*
X174178Y415288D01*
X174223Y415184D01*
X174271Y415081D01*
X174322Y414980D01*
X174377Y414881D01*
X174435Y414784D01*
X174497Y414689D01*
X174562Y414596D01*
X174630Y414506D01*
X174701Y414418D01*
X174776Y414332D01*
X174853Y414249D01*
X174933Y414169D01*
X175016Y414092D01*
X175102Y414017D01*
X175190Y413946D01*
X175280Y413878D01*
X175373Y413813D01*
X175468Y413751D01*
X175565Y413693D01*
X175664Y413638D01*
X175765Y413587D01*
X175868Y413539D01*
X175972Y413494D01*
X176078Y413454D01*
X176185Y413417D01*
X176293Y413384D01*
X176403Y413354D01*
X176513Y413329D01*
X176624Y413307D01*
X176736Y413290D01*
X176849Y413276D01*
X176962Y413266D01*
X177075Y413260D01*
X177188Y413258D01*
X177301Y413260D01*
X177414Y413266D01*
X177527Y413276D01*
X177640Y413290D01*
X177752Y413307D01*
X177863Y413329D01*
X177973Y413354D01*
X178083Y413384D01*
X178191Y413417D01*
X178298Y413454D01*
X178404Y413494D01*
X178508Y413539D01*
X178611Y413587D01*
X178712Y413638D01*
X178811Y413693D01*
X178908Y413751D01*
X179003Y413813D01*
X179096Y413878D01*
X179186Y413946D01*
X179274Y414017D01*
X179360Y414092D01*
X179443Y414169D01*
X179523Y414249D01*
X179600Y414332D01*
X179675Y414418D01*
X179746Y414506D01*
X179814Y414596D01*
X179879Y414689D01*
X179941Y414784D01*
X179999Y414881D01*
X180054Y414980D01*
X180105Y415081D01*
X180153Y415184D01*
X180198Y415288D01*
X180238Y415394D01*
X180275Y415501D01*
X180308Y415609D01*
X180338Y415719D01*
X180363Y415829D01*
X180385Y415940D01*
X180402Y416052D01*
X180416Y416165D01*
X180426Y416278D01*
X180432Y416391D01*
X180434Y416504D01*
X179784Y422346D02*
X179782Y422447D01*
X179776Y422547D01*
X179766Y422647D01*
X179753Y422747D01*
X179735Y422846D01*
X179714Y422945D01*
X179689Y423042D01*
X179660Y423139D01*
X179627Y423234D01*
X179591Y423328D01*
X179551Y423420D01*
X179508Y423511D01*
X179461Y423600D01*
X179411Y423687D01*
X179357Y423773D01*
X179300Y423856D01*
X179240Y423936D01*
X179177Y424015D01*
X179110Y424091D01*
X179041Y424164D01*
X178969Y424234D01*
X178895Y424302D01*
X178818Y424367D01*
X178738Y424428D01*
X178656Y424487D01*
X178572Y424542D01*
X178486Y424594D01*
X178398Y424643D01*
X178308Y424688D01*
X178216Y424730D01*
X178123Y424768D01*
X178028Y424802D01*
X177933Y424833D01*
X177836Y424860D01*
X177738Y424883D01*
X177639Y424903D01*
X177539Y424918D01*
X177439Y424930D01*
X177339Y424938D01*
X177238Y424942D01*
X177138Y424942D01*
X177037Y424938D01*
X176937Y424930D01*
X176837Y424918D01*
X176737Y424903D01*
X176638Y424883D01*
X176540Y424860D01*
X176443Y424833D01*
X176348Y424802D01*
X176253Y424768D01*
X176160Y424730D01*
X176068Y424688D01*
X175978Y424643D01*
X175890Y424594D01*
X175804Y424542D01*
X175720Y424487D01*
X175638Y424428D01*
X175558Y424367D01*
X175481Y424302D01*
X175407Y424234D01*
X175335Y424164D01*
X175266Y424091D01*
X175199Y424015D01*
X175136Y423936D01*
X175076Y423856D01*
X175019Y423773D01*
X174965Y423687D01*
X174915Y423600D01*
X174868Y423511D01*
X174825Y423420D01*
X174785Y423328D01*
X174749Y423234D01*
X174716Y423139D01*
X174687Y423042D01*
X174662Y422945D01*
X174641Y422846D01*
X174623Y422747D01*
X174610Y422647D01*
X174600Y422547D01*
X174594Y422447D01*
X174592Y422346D01*
X174594Y422245D01*
X174600Y422145D01*
X174610Y422045D01*
X174623Y421945D01*
X174641Y421846D01*
X174662Y421747D01*
X174687Y421650D01*
X174716Y421553D01*
X174749Y421458D01*
X174785Y421364D01*
X174825Y421272D01*
X174868Y421181D01*
X174915Y421092D01*
X174965Y421005D01*
X175019Y420919D01*
X175076Y420836D01*
X175136Y420756D01*
X175199Y420677D01*
X175266Y420601D01*
X175335Y420528D01*
X175407Y420458D01*
X175481Y420390D01*
X175558Y420325D01*
X175638Y420264D01*
X175720Y420205D01*
X175804Y420150D01*
X175890Y420098D01*
X175978Y420049D01*
X176068Y420004D01*
X176160Y419962D01*
X176253Y419924D01*
X176348Y419890D01*
X176443Y419859D01*
X176540Y419832D01*
X176638Y419809D01*
X176737Y419789D01*
X176837Y419774D01*
X176937Y419762D01*
X177037Y419754D01*
X177138Y419750D01*
X177238Y419750D01*
X177339Y419754D01*
X177439Y419762D01*
X177539Y419774D01*
X177639Y419789D01*
X177738Y419809D01*
X177836Y419832D01*
X177933Y419859D01*
X178028Y419890D01*
X178123Y419924D01*
X178216Y419962D01*
X178308Y420004D01*
X178398Y420049D01*
X178486Y420098D01*
X178572Y420150D01*
X178656Y420205D01*
X178738Y420264D01*
X178818Y420325D01*
X178895Y420390D01*
X178969Y420458D01*
X179041Y420528D01*
X179110Y420601D01*
X179177Y420677D01*
X179240Y420756D01*
X179300Y420836D01*
X179357Y420919D01*
X179411Y421005D01*
X179461Y421092D01*
X179508Y421181D01*
X179551Y421272D01*
X179591Y421364D01*
X179627Y421458D01*
X179660Y421553D01*
X179689Y421650D01*
X179714Y421747D01*
X179735Y421846D01*
X179753Y421945D01*
X179766Y422045D01*
X179776Y422145D01*
X179782Y422245D01*
X179784Y422346D01*
D11*
X17145Y517271D02*
X17145Y600329D01*
X27649Y600329D01*
X27649Y517271D02*
X17145Y517271D01*
D12*
X66743Y503301D02*
X66621Y503299D01*
X66499Y503293D01*
X66377Y503283D01*
X66256Y503270D01*
X66135Y503252D01*
X66015Y503231D01*
X65895Y503205D01*
X65777Y503176D01*
X65659Y503144D01*
X65542Y503107D01*
X65427Y503067D01*
X65313Y503023D01*
X65201Y502975D01*
X65090Y502924D01*
X64981Y502869D01*
X64873Y502811D01*
X64768Y502749D01*
X64665Y502684D01*
X64563Y502616D01*
X64464Y502544D01*
X64368Y502470D01*
X64273Y502392D01*
X64182Y502311D01*
X64092Y502228D01*
X64006Y502142D01*
X63923Y502052D01*
X63842Y501961D01*
X63764Y501866D01*
X63690Y501770D01*
X63618Y501671D01*
X63550Y501569D01*
X63485Y501466D01*
X63423Y501361D01*
X63365Y501253D01*
X63310Y501144D01*
X63259Y501033D01*
X63211Y500921D01*
X63167Y500807D01*
X63127Y500692D01*
X63090Y500575D01*
X63058Y500457D01*
X63029Y500339D01*
X63003Y500219D01*
X62982Y500099D01*
X62964Y499978D01*
X62951Y499857D01*
X62941Y499735D01*
X62935Y499613D01*
X62933Y499491D01*
X62935Y499369D01*
X62941Y499247D01*
X62951Y499125D01*
X62964Y499004D01*
X62982Y498883D01*
X63003Y498763D01*
X63029Y498643D01*
X63058Y498525D01*
X63090Y498407D01*
X63127Y498290D01*
X63167Y498175D01*
X63211Y498061D01*
X63259Y497949D01*
X63310Y497838D01*
X63365Y497729D01*
X63423Y497621D01*
X63485Y497516D01*
X63550Y497413D01*
X63618Y497311D01*
X63690Y497212D01*
X63764Y497116D01*
X63842Y497021D01*
X63923Y496930D01*
X64006Y496840D01*
X64092Y496754D01*
X64182Y496671D01*
X64273Y496590D01*
X64368Y496512D01*
X64464Y496438D01*
X64563Y496366D01*
X64665Y496298D01*
X64768Y496233D01*
X64873Y496171D01*
X64981Y496113D01*
X65090Y496058D01*
X65201Y496007D01*
X65313Y495959D01*
X65427Y495915D01*
X65542Y495875D01*
X65659Y495838D01*
X65777Y495806D01*
X65895Y495777D01*
X66015Y495751D01*
X66135Y495730D01*
X66256Y495712D01*
X66377Y495699D01*
X66499Y495689D01*
X66621Y495683D01*
X66743Y495681D01*
X66865Y495683D01*
X66987Y495689D01*
X67109Y495699D01*
X67230Y495712D01*
X67351Y495730D01*
X67471Y495751D01*
X67591Y495777D01*
X67709Y495806D01*
X67827Y495838D01*
X67944Y495875D01*
X68059Y495915D01*
X68173Y495959D01*
X68285Y496007D01*
X68396Y496058D01*
X68505Y496113D01*
X68613Y496171D01*
X68718Y496233D01*
X68821Y496298D01*
X68923Y496366D01*
X69022Y496438D01*
X69118Y496512D01*
X69213Y496590D01*
X69304Y496671D01*
X69394Y496754D01*
X69480Y496840D01*
X69563Y496930D01*
X69644Y497021D01*
X69722Y497116D01*
X69796Y497212D01*
X69868Y497311D01*
X69936Y497413D01*
X70001Y497516D01*
X70063Y497621D01*
X70121Y497729D01*
X70176Y497838D01*
X70227Y497949D01*
X70275Y498061D01*
X70319Y498175D01*
X70359Y498290D01*
X70396Y498407D01*
X70428Y498525D01*
X70457Y498643D01*
X70483Y498763D01*
X70504Y498883D01*
X70522Y499004D01*
X70535Y499125D01*
X70545Y499247D01*
X70551Y499369D01*
X70553Y499491D01*
X70551Y499613D01*
X70545Y499735D01*
X70535Y499857D01*
X70522Y499978D01*
X70504Y500099D01*
X70483Y500219D01*
X70457Y500339D01*
X70428Y500457D01*
X70396Y500575D01*
X70359Y500692D01*
X70319Y500807D01*
X70275Y500921D01*
X70227Y501033D01*
X70176Y501144D01*
X70121Y501253D01*
X70063Y501361D01*
X70001Y501466D01*
X69936Y501569D01*
X69868Y501671D01*
X69796Y501770D01*
X69722Y501866D01*
X69644Y501961D01*
X69563Y502052D01*
X69480Y502142D01*
X69394Y502228D01*
X69304Y502311D01*
X69213Y502392D01*
X69118Y502470D01*
X69022Y502544D01*
X68923Y502616D01*
X68821Y502684D01*
X68718Y502749D01*
X68613Y502811D01*
X68505Y502869D01*
X68396Y502924D01*
X68285Y502975D01*
X68173Y503023D01*
X68059Y503067D01*
X67944Y503107D01*
X67827Y503144D01*
X67709Y503176D01*
X67591Y503205D01*
X67471Y503231D01*
X67351Y503252D01*
X67230Y503270D01*
X67109Y503283D01*
X66987Y503293D01*
X66865Y503299D01*
X66743Y503301D01*
D11*
X70993Y599059D02*
X18415Y599059D01*
X70993Y599059D02*
X70993Y518541D01*
X18415Y518541D01*
D12*
X85793Y541990D02*
X85671Y541992D01*
X85549Y541998D01*
X85427Y542008D01*
X85306Y542021D01*
X85185Y542039D01*
X85065Y542060D01*
X84945Y542086D01*
X84827Y542115D01*
X84709Y542147D01*
X84592Y542184D01*
X84477Y542224D01*
X84363Y542268D01*
X84251Y542316D01*
X84140Y542367D01*
X84031Y542422D01*
X83923Y542480D01*
X83818Y542542D01*
X83715Y542607D01*
X83613Y542675D01*
X83514Y542747D01*
X83418Y542821D01*
X83323Y542899D01*
X83232Y542980D01*
X83142Y543063D01*
X83056Y543149D01*
X82973Y543239D01*
X82892Y543330D01*
X82814Y543425D01*
X82740Y543521D01*
X82668Y543620D01*
X82600Y543722D01*
X82535Y543825D01*
X82473Y543930D01*
X82415Y544038D01*
X82360Y544147D01*
X82309Y544258D01*
X82261Y544370D01*
X82217Y544484D01*
X82177Y544599D01*
X82140Y544716D01*
X82108Y544834D01*
X82079Y544952D01*
X82053Y545072D01*
X82032Y545192D01*
X82014Y545313D01*
X82001Y545434D01*
X81991Y545556D01*
X81985Y545678D01*
X81983Y545800D01*
X81985Y545922D01*
X81991Y546044D01*
X82001Y546166D01*
X82014Y546287D01*
X82032Y546408D01*
X82053Y546528D01*
X82079Y546648D01*
X82108Y546766D01*
X82140Y546884D01*
X82177Y547001D01*
X82217Y547116D01*
X82261Y547230D01*
X82309Y547342D01*
X82360Y547453D01*
X82415Y547562D01*
X82473Y547670D01*
X82535Y547775D01*
X82600Y547878D01*
X82668Y547980D01*
X82740Y548079D01*
X82814Y548175D01*
X82892Y548270D01*
X82973Y548361D01*
X83056Y548451D01*
X83142Y548537D01*
X83232Y548620D01*
X83323Y548701D01*
X83418Y548779D01*
X83514Y548853D01*
X83613Y548925D01*
X83715Y548993D01*
X83818Y549058D01*
X83923Y549120D01*
X84031Y549178D01*
X84140Y549233D01*
X84251Y549284D01*
X84363Y549332D01*
X84477Y549376D01*
X84592Y549416D01*
X84709Y549453D01*
X84827Y549485D01*
X84945Y549514D01*
X85065Y549540D01*
X85185Y549561D01*
X85306Y549579D01*
X85427Y549592D01*
X85549Y549602D01*
X85671Y549608D01*
X85793Y549610D01*
X85915Y549608D01*
X86037Y549602D01*
X86159Y549592D01*
X86280Y549579D01*
X86401Y549561D01*
X86521Y549540D01*
X86641Y549514D01*
X86759Y549485D01*
X86877Y549453D01*
X86994Y549416D01*
X87109Y549376D01*
X87223Y549332D01*
X87335Y549284D01*
X87446Y549233D01*
X87555Y549178D01*
X87663Y549120D01*
X87768Y549058D01*
X87871Y548993D01*
X87973Y548925D01*
X88072Y548853D01*
X88168Y548779D01*
X88263Y548701D01*
X88354Y548620D01*
X88444Y548537D01*
X88530Y548451D01*
X88613Y548361D01*
X88694Y548270D01*
X88772Y548175D01*
X88846Y548079D01*
X88918Y547980D01*
X88986Y547878D01*
X89051Y547775D01*
X89113Y547670D01*
X89171Y547562D01*
X89226Y547453D01*
X89277Y547342D01*
X89325Y547230D01*
X89369Y547116D01*
X89409Y547001D01*
X89446Y546884D01*
X89478Y546766D01*
X89507Y546648D01*
X89533Y546528D01*
X89554Y546408D01*
X89572Y546287D01*
X89585Y546166D01*
X89595Y546044D01*
X89601Y545922D01*
X89603Y545800D01*
X89601Y545678D01*
X89595Y545556D01*
X89585Y545434D01*
X89572Y545313D01*
X89554Y545192D01*
X89533Y545072D01*
X89507Y544952D01*
X89478Y544834D01*
X89446Y544716D01*
X89409Y544599D01*
X89369Y544484D01*
X89325Y544370D01*
X89277Y544258D01*
X89226Y544147D01*
X89171Y544038D01*
X89113Y543930D01*
X89051Y543825D01*
X88986Y543722D01*
X88918Y543620D01*
X88846Y543521D01*
X88772Y543425D01*
X88694Y543330D01*
X88613Y543239D01*
X88530Y543149D01*
X88444Y543063D01*
X88354Y542980D01*
X88263Y542899D01*
X88168Y542821D01*
X88072Y542747D01*
X87973Y542675D01*
X87871Y542607D01*
X87768Y542542D01*
X87663Y542480D01*
X87555Y542422D01*
X87446Y542367D01*
X87335Y542316D01*
X87223Y542268D01*
X87109Y542224D01*
X86994Y542184D01*
X86877Y542147D01*
X86759Y542115D01*
X86641Y542086D01*
X86521Y542060D01*
X86401Y542039D01*
X86280Y542021D01*
X86159Y542008D01*
X86037Y541998D01*
X85915Y541992D01*
X85793Y541990D01*
X66743Y503301D02*
X66621Y503299D01*
X66499Y503293D01*
X66377Y503283D01*
X66256Y503270D01*
X66135Y503252D01*
X66015Y503231D01*
X65895Y503205D01*
X65777Y503176D01*
X65659Y503144D01*
X65542Y503107D01*
X65427Y503067D01*
X65313Y503023D01*
X65201Y502975D01*
X65090Y502924D01*
X64981Y502869D01*
X64873Y502811D01*
X64768Y502749D01*
X64665Y502684D01*
X64563Y502616D01*
X64464Y502544D01*
X64368Y502470D01*
X64273Y502392D01*
X64182Y502311D01*
X64092Y502228D01*
X64006Y502142D01*
X63923Y502052D01*
X63842Y501961D01*
X63764Y501866D01*
X63690Y501770D01*
X63618Y501671D01*
X63550Y501569D01*
X63485Y501466D01*
X63423Y501361D01*
X63365Y501253D01*
X63310Y501144D01*
X63259Y501033D01*
X63211Y500921D01*
X63167Y500807D01*
X63127Y500692D01*
X63090Y500575D01*
X63058Y500457D01*
X63029Y500339D01*
X63003Y500219D01*
X62982Y500099D01*
X62964Y499978D01*
X62951Y499857D01*
X62941Y499735D01*
X62935Y499613D01*
X62933Y499491D01*
X62935Y499369D01*
X62941Y499247D01*
X62951Y499125D01*
X62964Y499004D01*
X62982Y498883D01*
X63003Y498763D01*
X63029Y498643D01*
X63058Y498525D01*
X63090Y498407D01*
X63127Y498290D01*
X63167Y498175D01*
X63211Y498061D01*
X63259Y497949D01*
X63310Y497838D01*
X63365Y497729D01*
X63423Y497621D01*
X63485Y497516D01*
X63550Y497413D01*
X63618Y497311D01*
X63690Y497212D01*
X63764Y497116D01*
X63842Y497021D01*
X63923Y496930D01*
X64006Y496840D01*
X64092Y496754D01*
X64182Y496671D01*
X64273Y496590D01*
X64368Y496512D01*
X64464Y496438D01*
X64563Y496366D01*
X64665Y496298D01*
X64768Y496233D01*
X64873Y496171D01*
X64981Y496113D01*
X65090Y496058D01*
X65201Y496007D01*
X65313Y495959D01*
X65427Y495915D01*
X65542Y495875D01*
X65659Y495838D01*
X65777Y495806D01*
X65895Y495777D01*
X66015Y495751D01*
X66135Y495730D01*
X66256Y495712D01*
X66377Y495699D01*
X66499Y495689D01*
X66621Y495683D01*
X66743Y495681D01*
X66865Y495683D01*
X66987Y495689D01*
X67109Y495699D01*
X67230Y495712D01*
X67351Y495730D01*
X67471Y495751D01*
X67591Y495777D01*
X67709Y495806D01*
X67827Y495838D01*
X67944Y495875D01*
X68059Y495915D01*
X68173Y495959D01*
X68285Y496007D01*
X68396Y496058D01*
X68505Y496113D01*
X68613Y496171D01*
X68718Y496233D01*
X68821Y496298D01*
X68923Y496366D01*
X69022Y496438D01*
X69118Y496512D01*
X69213Y496590D01*
X69304Y496671D01*
X69394Y496754D01*
X69480Y496840D01*
X69563Y496930D01*
X69644Y497021D01*
X69722Y497116D01*
X69796Y497212D01*
X69868Y497311D01*
X69936Y497413D01*
X70001Y497516D01*
X70063Y497621D01*
X70121Y497729D01*
X70176Y497838D01*
X70227Y497949D01*
X70275Y498061D01*
X70319Y498175D01*
X70359Y498290D01*
X70396Y498407D01*
X70428Y498525D01*
X70457Y498643D01*
X70483Y498763D01*
X70504Y498883D01*
X70522Y499004D01*
X70535Y499125D01*
X70545Y499247D01*
X70551Y499369D01*
X70553Y499491D01*
X70551Y499613D01*
X70545Y499735D01*
X70535Y499857D01*
X70522Y499978D01*
X70504Y500099D01*
X70483Y500219D01*
X70457Y500339D01*
X70428Y500457D01*
X70396Y500575D01*
X70359Y500692D01*
X70319Y500807D01*
X70275Y500921D01*
X70227Y501033D01*
X70176Y501144D01*
X70121Y501253D01*
X70063Y501361D01*
X70001Y501466D01*
X69936Y501569D01*
X69868Y501671D01*
X69796Y501770D01*
X69722Y501866D01*
X69644Y501961D01*
X69563Y502052D01*
X69480Y502142D01*
X69394Y502228D01*
X69304Y502311D01*
X69213Y502392D01*
X69118Y502470D01*
X69022Y502544D01*
X68923Y502616D01*
X68821Y502684D01*
X68718Y502749D01*
X68613Y502811D01*
X68505Y502869D01*
X68396Y502924D01*
X68285Y502975D01*
X68173Y503023D01*
X68059Y503067D01*
X67944Y503107D01*
X67827Y503144D01*
X67709Y503176D01*
X67591Y503205D01*
X67471Y503231D01*
X67351Y503252D01*
X67230Y503270D01*
X67109Y503283D01*
X66987Y503293D01*
X66865Y503299D01*
X66743Y503301D01*
D13*
X71840Y612634D02*
X71840Y621919D01*
X71840Y612634D02*
X71842Y612532D01*
X71848Y612431D01*
X71858Y612330D01*
X71871Y612229D01*
X71889Y612129D01*
X71910Y612030D01*
X71935Y611931D01*
X71964Y611834D01*
X71996Y611737D01*
X72032Y611642D01*
X72072Y611549D01*
X72115Y611457D01*
X72162Y611367D01*
X72213Y611278D01*
X72266Y611192D01*
X72323Y611108D01*
X72383Y611026D01*
X72446Y610946D01*
X72512Y610869D01*
X72581Y610794D01*
X72653Y610722D01*
X72728Y610653D01*
X72805Y610587D01*
X72885Y610524D01*
X72967Y610464D01*
X73051Y610407D01*
X73137Y610354D01*
X73226Y610303D01*
X73316Y610256D01*
X73408Y610213D01*
X73501Y610173D01*
X73596Y610137D01*
X73693Y610105D01*
X73790Y610076D01*
X73889Y610051D01*
X73988Y610030D01*
X74088Y610012D01*
X74189Y609999D01*
X74290Y609989D01*
X74391Y609983D01*
X74493Y609981D01*
X75819Y609981D01*
X63054Y621920D02*
X62947Y621918D01*
X62841Y621912D01*
X62735Y621903D01*
X62629Y621890D01*
X62524Y621873D01*
X62419Y621852D01*
X62316Y621827D01*
X62213Y621799D01*
X62111Y621767D01*
X62011Y621732D01*
X61912Y621693D01*
X61814Y621650D01*
X61718Y621604D01*
X61623Y621555D01*
X61531Y621502D01*
X61440Y621446D01*
X61352Y621387D01*
X61265Y621325D01*
X61181Y621259D01*
X61099Y621191D01*
X61020Y621120D01*
X60943Y621046D01*
X60869Y620969D01*
X60798Y620890D01*
X60730Y620808D01*
X60664Y620724D01*
X60602Y620637D01*
X60543Y620549D01*
X60487Y620458D01*
X60434Y620366D01*
X60385Y620271D01*
X60339Y620175D01*
X60296Y620077D01*
X60257Y619978D01*
X60222Y619878D01*
X60190Y619776D01*
X60162Y619673D01*
X60137Y619570D01*
X60116Y619465D01*
X60099Y619360D01*
X60086Y619254D01*
X60077Y619148D01*
X60071Y619042D01*
X60069Y618935D01*
X63054Y621919D02*
X63175Y621917D01*
X63295Y621911D01*
X63415Y621902D01*
X63535Y621889D01*
X63654Y621872D01*
X63773Y621851D01*
X63891Y621827D01*
X64008Y621798D01*
X64124Y621767D01*
X64240Y621731D01*
X64354Y621692D01*
X64466Y621649D01*
X64578Y621603D01*
X64688Y621554D01*
X64796Y621500D01*
X64902Y621444D01*
X65007Y621384D01*
X65110Y621321D01*
X65210Y621255D01*
X65309Y621186D01*
X65405Y621113D01*
X65499Y621038D01*
X65591Y620960D01*
X65680Y620878D01*
X65767Y620794D01*
X65851Y620708D01*
X65932Y620619D01*
X66010Y620527D01*
X66085Y620433D01*
X66157Y620336D01*
X66227Y620238D01*
X66293Y620137D01*
X66356Y620034D01*
X66415Y619929D01*
X66472Y619823D01*
X66525Y619714D01*
X66574Y619605D01*
X66620Y619493D01*
X66663Y619380D01*
X66701Y619266D01*
X61064Y616613D02*
X60984Y616693D01*
X60906Y616775D01*
X60832Y616859D01*
X60760Y616947D01*
X60692Y617037D01*
X60626Y617129D01*
X60564Y617223D01*
X60506Y617319D01*
X60451Y617418D01*
X60399Y617518D01*
X60351Y617620D01*
X60306Y617724D01*
X60266Y617829D01*
X60229Y617936D01*
X60195Y618044D01*
X60166Y618153D01*
X60140Y618263D01*
X60119Y618374D01*
X60101Y618485D01*
X60087Y618597D01*
X60077Y618709D01*
X60071Y618822D01*
X60069Y618935D01*
X61064Y616613D02*
X66702Y609981D01*
X60069Y609981D01*
D10*
X107442Y336042D02*
X107442Y324358D01*
X107442Y336042D02*
X104196Y336042D01*
X104083Y336040D01*
X103970Y336034D01*
X103857Y336024D01*
X103744Y336010D01*
X103632Y335993D01*
X103521Y335971D01*
X103411Y335946D01*
X103301Y335916D01*
X103193Y335883D01*
X103086Y335846D01*
X102980Y335806D01*
X102876Y335761D01*
X102773Y335713D01*
X102672Y335662D01*
X102573Y335607D01*
X102476Y335549D01*
X102381Y335487D01*
X102288Y335422D01*
X102198Y335354D01*
X102110Y335283D01*
X102024Y335208D01*
X101941Y335131D01*
X101861Y335051D01*
X101784Y334968D01*
X101709Y334882D01*
X101638Y334794D01*
X101570Y334704D01*
X101505Y334611D01*
X101443Y334516D01*
X101385Y334419D01*
X101330Y334320D01*
X101279Y334219D01*
X101231Y334116D01*
X101186Y334012D01*
X101146Y333906D01*
X101109Y333799D01*
X101076Y333691D01*
X101046Y333581D01*
X101021Y333471D01*
X100999Y333360D01*
X100982Y333248D01*
X100968Y333135D01*
X100958Y333022D01*
X100952Y332909D01*
X100950Y332796D01*
X100952Y332683D01*
X100958Y332570D01*
X100968Y332457D01*
X100982Y332344D01*
X100999Y332232D01*
X101021Y332121D01*
X101046Y332011D01*
X101076Y331901D01*
X101109Y331793D01*
X101146Y331686D01*
X101186Y331580D01*
X101231Y331476D01*
X101279Y331373D01*
X101330Y331272D01*
X101385Y331173D01*
X101443Y331076D01*
X101505Y330981D01*
X101570Y330888D01*
X101638Y330798D01*
X101709Y330710D01*
X101784Y330624D01*
X101861Y330541D01*
X101941Y330461D01*
X102024Y330384D01*
X102110Y330309D01*
X102198Y330238D01*
X102288Y330170D01*
X102381Y330105D01*
X102476Y330043D01*
X102573Y329985D01*
X102672Y329930D01*
X102773Y329879D01*
X102876Y329831D01*
X102980Y329786D01*
X103086Y329746D01*
X103193Y329709D01*
X103301Y329676D01*
X103411Y329646D01*
X103521Y329621D01*
X103632Y329599D01*
X103744Y329582D01*
X103857Y329568D01*
X103970Y329558D01*
X104083Y329552D01*
X104196Y329550D01*
X104196Y329551D02*
X107442Y329551D01*
X103547Y329551D02*
X100951Y324358D01*
X96086Y333446D02*
X92840Y336042D01*
X92840Y324358D01*
X89595Y324358D02*
X96086Y324358D01*
X84656Y333446D02*
X81410Y336042D01*
X81410Y324358D01*
X78165Y324358D02*
X84656Y324358D01*
X59182Y202692D02*
X59182Y191008D01*
X59182Y202692D02*
X55936Y202692D01*
X55823Y202690D01*
X55710Y202684D01*
X55597Y202674D01*
X55484Y202660D01*
X55372Y202643D01*
X55261Y202621D01*
X55151Y202596D01*
X55041Y202566D01*
X54933Y202533D01*
X54826Y202496D01*
X54720Y202456D01*
X54616Y202411D01*
X54513Y202363D01*
X54412Y202312D01*
X54313Y202257D01*
X54216Y202199D01*
X54121Y202137D01*
X54028Y202072D01*
X53938Y202004D01*
X53850Y201933D01*
X53764Y201858D01*
X53681Y201781D01*
X53601Y201701D01*
X53524Y201618D01*
X53449Y201532D01*
X53378Y201444D01*
X53310Y201354D01*
X53245Y201261D01*
X53183Y201166D01*
X53125Y201069D01*
X53070Y200970D01*
X53019Y200869D01*
X52971Y200766D01*
X52926Y200662D01*
X52886Y200556D01*
X52849Y200449D01*
X52816Y200341D01*
X52786Y200231D01*
X52761Y200121D01*
X52739Y200010D01*
X52722Y199898D01*
X52708Y199785D01*
X52698Y199672D01*
X52692Y199559D01*
X52690Y199446D01*
X52692Y199333D01*
X52698Y199220D01*
X52708Y199107D01*
X52722Y198994D01*
X52739Y198882D01*
X52761Y198771D01*
X52786Y198661D01*
X52816Y198551D01*
X52849Y198443D01*
X52886Y198336D01*
X52926Y198230D01*
X52971Y198126D01*
X53019Y198023D01*
X53070Y197922D01*
X53125Y197823D01*
X53183Y197726D01*
X53245Y197631D01*
X53310Y197538D01*
X53378Y197448D01*
X53449Y197360D01*
X53524Y197274D01*
X53601Y197191D01*
X53681Y197111D01*
X53764Y197034D01*
X53850Y196959D01*
X53938Y196888D01*
X54028Y196820D01*
X54121Y196755D01*
X54216Y196693D01*
X54313Y196635D01*
X54412Y196580D01*
X54513Y196529D01*
X54616Y196481D01*
X54720Y196436D01*
X54826Y196396D01*
X54933Y196359D01*
X55041Y196326D01*
X55151Y196296D01*
X55261Y196271D01*
X55372Y196249D01*
X55484Y196232D01*
X55597Y196218D01*
X55710Y196208D01*
X55823Y196202D01*
X55936Y196200D01*
X55936Y196201D02*
X59182Y196201D01*
X55287Y196201D02*
X52691Y191008D01*
X47826Y200096D02*
X44580Y202692D01*
X44580Y191008D01*
X41335Y191008D02*
X47826Y191008D01*
X32826Y202692D02*
X32719Y202690D01*
X32613Y202684D01*
X32507Y202674D01*
X32401Y202661D01*
X32295Y202643D01*
X32191Y202622D01*
X32087Y202597D01*
X31984Y202568D01*
X31883Y202536D01*
X31783Y202499D01*
X31684Y202459D01*
X31586Y202416D01*
X31490Y202369D01*
X31396Y202318D01*
X31304Y202264D01*
X31214Y202207D01*
X31126Y202147D01*
X31041Y202083D01*
X30958Y202016D01*
X30877Y201946D01*
X30799Y201874D01*
X30723Y201798D01*
X30651Y201720D01*
X30581Y201639D01*
X30514Y201556D01*
X30450Y201471D01*
X30390Y201383D01*
X30333Y201293D01*
X30279Y201201D01*
X30228Y201107D01*
X30181Y201011D01*
X30138Y200913D01*
X30098Y200814D01*
X30061Y200714D01*
X30029Y200613D01*
X30000Y200510D01*
X29975Y200406D01*
X29954Y200302D01*
X29936Y200196D01*
X29923Y200090D01*
X29913Y199984D01*
X29907Y199878D01*
X29905Y199771D01*
X32826Y202692D02*
X32947Y202690D01*
X33068Y202684D01*
X33188Y202674D01*
X33309Y202661D01*
X33428Y202643D01*
X33548Y202622D01*
X33666Y202597D01*
X33783Y202568D01*
X33900Y202535D01*
X34015Y202499D01*
X34129Y202458D01*
X34242Y202415D01*
X34354Y202367D01*
X34463Y202316D01*
X34571Y202261D01*
X34678Y202203D01*
X34782Y202142D01*
X34884Y202077D01*
X34984Y202009D01*
X35082Y201938D01*
X35178Y201864D01*
X35271Y201787D01*
X35361Y201706D01*
X35449Y201623D01*
X35534Y201537D01*
X35617Y201448D01*
X35696Y201357D01*
X35773Y201263D01*
X35846Y201167D01*
X35916Y201069D01*
X35983Y200968D01*
X36047Y200865D01*
X36108Y200760D01*
X36165Y200653D01*
X36218Y200545D01*
X36268Y200435D01*
X36314Y200323D01*
X36357Y200210D01*
X36396Y200095D01*
X30879Y197499D02*
X30800Y197577D01*
X30724Y197657D01*
X30651Y197740D01*
X30581Y197826D01*
X30514Y197913D01*
X30450Y198004D01*
X30390Y198096D01*
X30332Y198190D01*
X30278Y198287D01*
X30228Y198385D01*
X30181Y198485D01*
X30137Y198586D01*
X30097Y198689D01*
X30061Y198794D01*
X30029Y198899D01*
X30000Y199006D01*
X29975Y199113D01*
X29953Y199222D01*
X29936Y199331D01*
X29922Y199440D01*
X29913Y199550D01*
X29907Y199661D01*
X29905Y199771D01*
X30878Y197499D02*
X36396Y191008D01*
X29905Y191008D01*
X107442Y343408D02*
X107442Y355092D01*
X104196Y355092D01*
X104083Y355090D01*
X103970Y355084D01*
X103857Y355074D01*
X103744Y355060D01*
X103632Y355043D01*
X103521Y355021D01*
X103411Y354996D01*
X103301Y354966D01*
X103193Y354933D01*
X103086Y354896D01*
X102980Y354856D01*
X102876Y354811D01*
X102773Y354763D01*
X102672Y354712D01*
X102573Y354657D01*
X102476Y354599D01*
X102381Y354537D01*
X102288Y354472D01*
X102198Y354404D01*
X102110Y354333D01*
X102024Y354258D01*
X101941Y354181D01*
X101861Y354101D01*
X101784Y354018D01*
X101709Y353932D01*
X101638Y353844D01*
X101570Y353754D01*
X101505Y353661D01*
X101443Y353566D01*
X101385Y353469D01*
X101330Y353370D01*
X101279Y353269D01*
X101231Y353166D01*
X101186Y353062D01*
X101146Y352956D01*
X101109Y352849D01*
X101076Y352741D01*
X101046Y352631D01*
X101021Y352521D01*
X100999Y352410D01*
X100982Y352298D01*
X100968Y352185D01*
X100958Y352072D01*
X100952Y351959D01*
X100950Y351846D01*
X100952Y351733D01*
X100958Y351620D01*
X100968Y351507D01*
X100982Y351394D01*
X100999Y351282D01*
X101021Y351171D01*
X101046Y351061D01*
X101076Y350951D01*
X101109Y350843D01*
X101146Y350736D01*
X101186Y350630D01*
X101231Y350526D01*
X101279Y350423D01*
X101330Y350322D01*
X101385Y350223D01*
X101443Y350126D01*
X101505Y350031D01*
X101570Y349938D01*
X101638Y349848D01*
X101709Y349760D01*
X101784Y349674D01*
X101861Y349591D01*
X101941Y349511D01*
X102024Y349434D01*
X102110Y349359D01*
X102198Y349288D01*
X102288Y349220D01*
X102381Y349155D01*
X102476Y349093D01*
X102573Y349035D01*
X102672Y348980D01*
X102773Y348929D01*
X102876Y348881D01*
X102980Y348836D01*
X103086Y348796D01*
X103193Y348759D01*
X103301Y348726D01*
X103411Y348696D01*
X103521Y348671D01*
X103632Y348649D01*
X103744Y348632D01*
X103857Y348618D01*
X103970Y348608D01*
X104083Y348602D01*
X104196Y348600D01*
X104196Y348601D02*
X107442Y348601D01*
X103547Y348601D02*
X100951Y343408D01*
X96086Y352496D02*
X92840Y355092D01*
X92840Y343408D01*
X89595Y343408D02*
X96086Y343408D01*
X84656Y343408D02*
X81410Y343408D01*
X81297Y343410D01*
X81184Y343416D01*
X81071Y343426D01*
X80958Y343440D01*
X80846Y343457D01*
X80735Y343479D01*
X80625Y343504D01*
X80515Y343534D01*
X80407Y343567D01*
X80300Y343604D01*
X80194Y343644D01*
X80090Y343689D01*
X79987Y343737D01*
X79886Y343788D01*
X79787Y343843D01*
X79690Y343901D01*
X79595Y343963D01*
X79502Y344028D01*
X79412Y344096D01*
X79324Y344167D01*
X79238Y344242D01*
X79155Y344319D01*
X79075Y344399D01*
X78998Y344482D01*
X78923Y344568D01*
X78852Y344656D01*
X78784Y344746D01*
X78719Y344839D01*
X78657Y344934D01*
X78599Y345031D01*
X78544Y345130D01*
X78493Y345231D01*
X78445Y345334D01*
X78400Y345438D01*
X78360Y345544D01*
X78323Y345651D01*
X78290Y345759D01*
X78260Y345869D01*
X78235Y345979D01*
X78213Y346090D01*
X78196Y346202D01*
X78182Y346315D01*
X78172Y346428D01*
X78166Y346541D01*
X78164Y346654D01*
X78166Y346767D01*
X78172Y346880D01*
X78182Y346993D01*
X78196Y347106D01*
X78213Y347218D01*
X78235Y347329D01*
X78260Y347439D01*
X78290Y347549D01*
X78323Y347657D01*
X78360Y347764D01*
X78400Y347870D01*
X78445Y347974D01*
X78493Y348077D01*
X78544Y348178D01*
X78599Y348277D01*
X78657Y348374D01*
X78719Y348469D01*
X78784Y348562D01*
X78852Y348652D01*
X78923Y348740D01*
X78998Y348826D01*
X79075Y348909D01*
X79155Y348989D01*
X79238Y349066D01*
X79324Y349141D01*
X79412Y349212D01*
X79502Y349280D01*
X79595Y349345D01*
X79690Y349407D01*
X79787Y349465D01*
X79886Y349520D01*
X79987Y349571D01*
X80090Y349619D01*
X80194Y349664D01*
X80300Y349704D01*
X80407Y349741D01*
X80515Y349774D01*
X80625Y349804D01*
X80735Y349829D01*
X80846Y349851D01*
X80958Y349868D01*
X81071Y349882D01*
X81184Y349892D01*
X81297Y349898D01*
X81410Y349900D01*
X80761Y355092D02*
X84656Y355092D01*
X80761Y355092D02*
X80660Y355090D01*
X80560Y355084D01*
X80460Y355074D01*
X80360Y355061D01*
X80261Y355043D01*
X80162Y355022D01*
X80065Y354997D01*
X79968Y354968D01*
X79873Y354935D01*
X79779Y354899D01*
X79687Y354859D01*
X79596Y354816D01*
X79507Y354769D01*
X79420Y354719D01*
X79334Y354665D01*
X79251Y354608D01*
X79171Y354548D01*
X79092Y354485D01*
X79016Y354418D01*
X78943Y354349D01*
X78873Y354277D01*
X78805Y354203D01*
X78740Y354126D01*
X78679Y354046D01*
X78620Y353964D01*
X78565Y353880D01*
X78513Y353794D01*
X78464Y353706D01*
X78419Y353616D01*
X78377Y353524D01*
X78339Y353431D01*
X78305Y353336D01*
X78274Y353241D01*
X78247Y353144D01*
X78224Y353046D01*
X78204Y352947D01*
X78189Y352847D01*
X78177Y352747D01*
X78169Y352647D01*
X78165Y352546D01*
X78165Y352446D01*
X78169Y352345D01*
X78177Y352245D01*
X78189Y352145D01*
X78204Y352045D01*
X78224Y351946D01*
X78247Y351848D01*
X78274Y351751D01*
X78305Y351656D01*
X78339Y351561D01*
X78377Y351468D01*
X78419Y351376D01*
X78464Y351286D01*
X78513Y351198D01*
X78565Y351112D01*
X78620Y351028D01*
X78679Y350946D01*
X78740Y350866D01*
X78805Y350789D01*
X78873Y350715D01*
X78943Y350643D01*
X79016Y350574D01*
X79092Y350507D01*
X79171Y350444D01*
X79251Y350384D01*
X79334Y350327D01*
X79420Y350273D01*
X79507Y350223D01*
X79596Y350176D01*
X79687Y350133D01*
X79779Y350093D01*
X79873Y350057D01*
X79968Y350024D01*
X80065Y349995D01*
X80162Y349970D01*
X80261Y349949D01*
X80360Y349931D01*
X80460Y349918D01*
X80560Y349908D01*
X80660Y349902D01*
X80761Y349900D01*
X80761Y349899D02*
X83357Y349899D01*
X107442Y362458D02*
X107442Y374142D01*
X104196Y374142D01*
X104083Y374140D01*
X103970Y374134D01*
X103857Y374124D01*
X103744Y374110D01*
X103632Y374093D01*
X103521Y374071D01*
X103411Y374046D01*
X103301Y374016D01*
X103193Y373983D01*
X103086Y373946D01*
X102980Y373906D01*
X102876Y373861D01*
X102773Y373813D01*
X102672Y373762D01*
X102573Y373707D01*
X102476Y373649D01*
X102381Y373587D01*
X102288Y373522D01*
X102198Y373454D01*
X102110Y373383D01*
X102024Y373308D01*
X101941Y373231D01*
X101861Y373151D01*
X101784Y373068D01*
X101709Y372982D01*
X101638Y372894D01*
X101570Y372804D01*
X101505Y372711D01*
X101443Y372616D01*
X101385Y372519D01*
X101330Y372420D01*
X101279Y372319D01*
X101231Y372216D01*
X101186Y372112D01*
X101146Y372006D01*
X101109Y371899D01*
X101076Y371791D01*
X101046Y371681D01*
X101021Y371571D01*
X100999Y371460D01*
X100982Y371348D01*
X100968Y371235D01*
X100958Y371122D01*
X100952Y371009D01*
X100950Y370896D01*
X100952Y370783D01*
X100958Y370670D01*
X100968Y370557D01*
X100982Y370444D01*
X100999Y370332D01*
X101021Y370221D01*
X101046Y370111D01*
X101076Y370001D01*
X101109Y369893D01*
X101146Y369786D01*
X101186Y369680D01*
X101231Y369576D01*
X101279Y369473D01*
X101330Y369372D01*
X101385Y369273D01*
X101443Y369176D01*
X101505Y369081D01*
X101570Y368988D01*
X101638Y368898D01*
X101709Y368810D01*
X101784Y368724D01*
X101861Y368641D01*
X101941Y368561D01*
X102024Y368484D01*
X102110Y368409D01*
X102198Y368338D01*
X102288Y368270D01*
X102381Y368205D01*
X102476Y368143D01*
X102573Y368085D01*
X102672Y368030D01*
X102773Y367979D01*
X102876Y367931D01*
X102980Y367886D01*
X103086Y367846D01*
X103193Y367809D01*
X103301Y367776D01*
X103411Y367746D01*
X103521Y367721D01*
X103632Y367699D01*
X103744Y367682D01*
X103857Y367668D01*
X103970Y367658D01*
X104083Y367652D01*
X104196Y367650D01*
X104196Y367651D02*
X107442Y367651D01*
X103547Y367651D02*
X100951Y362458D01*
X96086Y371546D02*
X92840Y374142D01*
X92840Y362458D01*
X89595Y362458D02*
X96086Y362458D01*
X84656Y365054D02*
X82059Y374142D01*
X84656Y365054D02*
X78165Y365054D01*
X80112Y367651D02*
X80112Y362458D01*
X203708Y344865D02*
X215392Y344865D01*
X215392Y348110D01*
X215390Y348223D01*
X215384Y348336D01*
X215374Y348449D01*
X215360Y348562D01*
X215343Y348674D01*
X215321Y348785D01*
X215296Y348895D01*
X215266Y349005D01*
X215233Y349113D01*
X215196Y349220D01*
X215156Y349326D01*
X215111Y349430D01*
X215063Y349533D01*
X215012Y349634D01*
X214957Y349733D01*
X214899Y349830D01*
X214837Y349925D01*
X214772Y350018D01*
X214704Y350108D01*
X214633Y350196D01*
X214558Y350282D01*
X214481Y350365D01*
X214401Y350445D01*
X214318Y350522D01*
X214232Y350597D01*
X214144Y350668D01*
X214054Y350736D01*
X213961Y350801D01*
X213866Y350863D01*
X213769Y350921D01*
X213670Y350976D01*
X213569Y351027D01*
X213466Y351075D01*
X213362Y351120D01*
X213256Y351160D01*
X213149Y351197D01*
X213041Y351230D01*
X212931Y351260D01*
X212821Y351285D01*
X212710Y351307D01*
X212598Y351324D01*
X212485Y351338D01*
X212372Y351348D01*
X212259Y351354D01*
X212146Y351356D01*
X212033Y351354D01*
X211920Y351348D01*
X211807Y351338D01*
X211694Y351324D01*
X211582Y351307D01*
X211471Y351285D01*
X211361Y351260D01*
X211251Y351230D01*
X211143Y351197D01*
X211036Y351160D01*
X210930Y351120D01*
X210826Y351075D01*
X210723Y351027D01*
X210622Y350976D01*
X210523Y350921D01*
X210426Y350863D01*
X210331Y350801D01*
X210238Y350736D01*
X210148Y350668D01*
X210060Y350597D01*
X209974Y350522D01*
X209891Y350445D01*
X209811Y350365D01*
X209734Y350282D01*
X209659Y350196D01*
X209588Y350108D01*
X209520Y350018D01*
X209455Y349925D01*
X209393Y349830D01*
X209335Y349733D01*
X209280Y349634D01*
X209229Y349533D01*
X209181Y349430D01*
X209136Y349326D01*
X209096Y349220D01*
X209059Y349113D01*
X209026Y349005D01*
X208996Y348895D01*
X208971Y348785D01*
X208949Y348674D01*
X208932Y348562D01*
X208918Y348449D01*
X208908Y348336D01*
X208902Y348223D01*
X208900Y348110D01*
X208901Y348110D02*
X208901Y344865D01*
X208901Y348759D02*
X203708Y351356D01*
X212796Y356221D02*
X215392Y359466D01*
X203708Y359466D01*
X203708Y356221D02*
X203708Y362712D01*
X203708Y367651D02*
X203708Y371546D01*
X203710Y371645D01*
X203716Y371745D01*
X203725Y371844D01*
X203738Y371942D01*
X203755Y372040D01*
X203776Y372138D01*
X203801Y372234D01*
X203829Y372329D01*
X203861Y372423D01*
X203896Y372516D01*
X203935Y372608D01*
X203978Y372698D01*
X204023Y372786D01*
X204073Y372873D01*
X204125Y372957D01*
X204181Y373040D01*
X204239Y373120D01*
X204301Y373198D01*
X204366Y373273D01*
X204434Y373346D01*
X204504Y373416D01*
X204577Y373484D01*
X204652Y373549D01*
X204730Y373611D01*
X204810Y373669D01*
X204893Y373725D01*
X204977Y373777D01*
X205064Y373827D01*
X205152Y373872D01*
X205242Y373915D01*
X205334Y373954D01*
X205427Y373989D01*
X205521Y374021D01*
X205616Y374049D01*
X205712Y374074D01*
X205810Y374095D01*
X205908Y374112D01*
X206006Y374125D01*
X206105Y374134D01*
X206205Y374140D01*
X206304Y374142D01*
X207603Y374142D01*
X207702Y374140D01*
X207802Y374134D01*
X207901Y374125D01*
X207999Y374112D01*
X208097Y374095D01*
X208195Y374074D01*
X208291Y374049D01*
X208386Y374021D01*
X208480Y373989D01*
X208573Y373954D01*
X208665Y373915D01*
X208755Y373872D01*
X208843Y373827D01*
X208930Y373777D01*
X209014Y373725D01*
X209097Y373669D01*
X209177Y373611D01*
X209255Y373549D01*
X209330Y373484D01*
X209403Y373416D01*
X209473Y373346D01*
X209541Y373273D01*
X209606Y373198D01*
X209668Y373120D01*
X209726Y373040D01*
X209782Y372957D01*
X209834Y372873D01*
X209884Y372786D01*
X209929Y372698D01*
X209972Y372608D01*
X210011Y372516D01*
X210046Y372423D01*
X210078Y372329D01*
X210106Y372234D01*
X210131Y372138D01*
X210152Y372040D01*
X210169Y371942D01*
X210182Y371844D01*
X210191Y371745D01*
X210197Y371645D01*
X210199Y371546D01*
X210199Y367651D01*
X215392Y367651D01*
X215392Y374142D01*
X229108Y344865D02*
X240792Y344865D01*
X240792Y348110D01*
X240790Y348223D01*
X240784Y348336D01*
X240774Y348449D01*
X240760Y348562D01*
X240743Y348674D01*
X240721Y348785D01*
X240696Y348895D01*
X240666Y349005D01*
X240633Y349113D01*
X240596Y349220D01*
X240556Y349326D01*
X240511Y349430D01*
X240463Y349533D01*
X240412Y349634D01*
X240357Y349733D01*
X240299Y349830D01*
X240237Y349925D01*
X240172Y350018D01*
X240104Y350108D01*
X240033Y350196D01*
X239958Y350282D01*
X239881Y350365D01*
X239801Y350445D01*
X239718Y350522D01*
X239632Y350597D01*
X239544Y350668D01*
X239454Y350736D01*
X239361Y350801D01*
X239266Y350863D01*
X239169Y350921D01*
X239070Y350976D01*
X238969Y351027D01*
X238866Y351075D01*
X238762Y351120D01*
X238656Y351160D01*
X238549Y351197D01*
X238441Y351230D01*
X238331Y351260D01*
X238221Y351285D01*
X238110Y351307D01*
X237998Y351324D01*
X237885Y351338D01*
X237772Y351348D01*
X237659Y351354D01*
X237546Y351356D01*
X237433Y351354D01*
X237320Y351348D01*
X237207Y351338D01*
X237094Y351324D01*
X236982Y351307D01*
X236871Y351285D01*
X236761Y351260D01*
X236651Y351230D01*
X236543Y351197D01*
X236436Y351160D01*
X236330Y351120D01*
X236226Y351075D01*
X236123Y351027D01*
X236022Y350976D01*
X235923Y350921D01*
X235826Y350863D01*
X235731Y350801D01*
X235638Y350736D01*
X235548Y350668D01*
X235460Y350597D01*
X235374Y350522D01*
X235291Y350445D01*
X235211Y350365D01*
X235134Y350282D01*
X235059Y350196D01*
X234988Y350108D01*
X234920Y350018D01*
X234855Y349925D01*
X234793Y349830D01*
X234735Y349733D01*
X234680Y349634D01*
X234629Y349533D01*
X234581Y349430D01*
X234536Y349326D01*
X234496Y349220D01*
X234459Y349113D01*
X234426Y349005D01*
X234396Y348895D01*
X234371Y348785D01*
X234349Y348674D01*
X234332Y348562D01*
X234318Y348449D01*
X234308Y348336D01*
X234302Y348223D01*
X234300Y348110D01*
X234301Y348110D02*
X234301Y344865D01*
X234301Y348759D02*
X229108Y351356D01*
X238196Y356221D02*
X240792Y359466D01*
X229108Y359466D01*
X229108Y356221D02*
X229108Y362712D01*
X235599Y367651D02*
X235599Y371546D01*
X235597Y371645D01*
X235591Y371745D01*
X235582Y371844D01*
X235569Y371942D01*
X235552Y372040D01*
X235531Y372138D01*
X235506Y372234D01*
X235478Y372329D01*
X235446Y372423D01*
X235411Y372516D01*
X235372Y372608D01*
X235329Y372698D01*
X235284Y372786D01*
X235234Y372873D01*
X235182Y372957D01*
X235126Y373040D01*
X235068Y373120D01*
X235006Y373198D01*
X234941Y373273D01*
X234873Y373346D01*
X234803Y373416D01*
X234730Y373484D01*
X234655Y373549D01*
X234577Y373611D01*
X234497Y373669D01*
X234414Y373725D01*
X234330Y373777D01*
X234243Y373827D01*
X234155Y373872D01*
X234065Y373915D01*
X233973Y373954D01*
X233880Y373989D01*
X233786Y374021D01*
X233691Y374049D01*
X233595Y374074D01*
X233497Y374095D01*
X233399Y374112D01*
X233301Y374125D01*
X233202Y374134D01*
X233102Y374140D01*
X233003Y374142D01*
X232354Y374142D01*
X232241Y374140D01*
X232128Y374134D01*
X232015Y374124D01*
X231902Y374110D01*
X231790Y374093D01*
X231679Y374071D01*
X231569Y374046D01*
X231459Y374016D01*
X231351Y373983D01*
X231244Y373946D01*
X231138Y373906D01*
X231034Y373861D01*
X230931Y373813D01*
X230830Y373762D01*
X230731Y373707D01*
X230634Y373649D01*
X230539Y373587D01*
X230446Y373522D01*
X230356Y373454D01*
X230268Y373383D01*
X230182Y373308D01*
X230099Y373231D01*
X230019Y373151D01*
X229942Y373068D01*
X229867Y372982D01*
X229796Y372894D01*
X229728Y372804D01*
X229663Y372711D01*
X229601Y372616D01*
X229543Y372519D01*
X229488Y372420D01*
X229437Y372319D01*
X229389Y372216D01*
X229344Y372112D01*
X229304Y372006D01*
X229267Y371899D01*
X229234Y371791D01*
X229204Y371681D01*
X229179Y371571D01*
X229157Y371460D01*
X229140Y371348D01*
X229126Y371235D01*
X229116Y371122D01*
X229110Y371009D01*
X229108Y370896D01*
X229110Y370783D01*
X229116Y370670D01*
X229126Y370557D01*
X229140Y370444D01*
X229157Y370332D01*
X229179Y370221D01*
X229204Y370111D01*
X229234Y370001D01*
X229267Y369893D01*
X229304Y369786D01*
X229344Y369680D01*
X229389Y369576D01*
X229437Y369473D01*
X229488Y369372D01*
X229543Y369273D01*
X229601Y369176D01*
X229663Y369081D01*
X229728Y368988D01*
X229796Y368898D01*
X229867Y368810D01*
X229942Y368724D01*
X230019Y368641D01*
X230099Y368561D01*
X230182Y368484D01*
X230268Y368409D01*
X230356Y368338D01*
X230446Y368270D01*
X230539Y368205D01*
X230634Y368143D01*
X230731Y368085D01*
X230830Y368030D01*
X230931Y367979D01*
X231034Y367931D01*
X231138Y367886D01*
X231244Y367846D01*
X231351Y367809D01*
X231459Y367776D01*
X231569Y367746D01*
X231679Y367721D01*
X231790Y367699D01*
X231902Y367682D01*
X232015Y367668D01*
X232128Y367658D01*
X232241Y367652D01*
X232354Y367650D01*
X232354Y367651D02*
X235599Y367651D01*
X235742Y367653D01*
X235885Y367659D01*
X236028Y367669D01*
X236170Y367683D01*
X236312Y367700D01*
X236454Y367722D01*
X236595Y367747D01*
X236735Y367777D01*
X236874Y367810D01*
X237012Y367847D01*
X237149Y367888D01*
X237285Y367932D01*
X237420Y367981D01*
X237553Y368033D01*
X237685Y368088D01*
X237815Y368148D01*
X237944Y368211D01*
X238071Y368277D01*
X238195Y368347D01*
X238318Y368420D01*
X238439Y368497D01*
X238558Y368577D01*
X238674Y368660D01*
X238789Y368746D01*
X238900Y368835D01*
X239010Y368928D01*
X239116Y369023D01*
X239220Y369122D01*
X239321Y369223D01*
X239420Y369327D01*
X239515Y369433D01*
X239608Y369543D01*
X239697Y369654D01*
X239783Y369769D01*
X239866Y369885D01*
X239946Y370004D01*
X240023Y370125D01*
X240096Y370247D01*
X240166Y370372D01*
X240232Y370499D01*
X240295Y370628D01*
X240355Y370758D01*
X240410Y370890D01*
X240462Y371023D01*
X240511Y371158D01*
X240555Y371294D01*
X240596Y371431D01*
X240633Y371569D01*
X240666Y371708D01*
X240696Y371848D01*
X240721Y371989D01*
X240743Y372131D01*
X240760Y372273D01*
X240774Y372415D01*
X240784Y372558D01*
X240790Y372701D01*
X240792Y372844D01*
X276352Y202692D02*
X276352Y191008D01*
X276352Y202692D02*
X273106Y202692D01*
X272993Y202690D01*
X272880Y202684D01*
X272767Y202674D01*
X272654Y202660D01*
X272542Y202643D01*
X272431Y202621D01*
X272321Y202596D01*
X272211Y202566D01*
X272103Y202533D01*
X271996Y202496D01*
X271890Y202456D01*
X271786Y202411D01*
X271683Y202363D01*
X271582Y202312D01*
X271483Y202257D01*
X271386Y202199D01*
X271291Y202137D01*
X271198Y202072D01*
X271108Y202004D01*
X271020Y201933D01*
X270934Y201858D01*
X270851Y201781D01*
X270771Y201701D01*
X270694Y201618D01*
X270619Y201532D01*
X270548Y201444D01*
X270480Y201354D01*
X270415Y201261D01*
X270353Y201166D01*
X270295Y201069D01*
X270240Y200970D01*
X270189Y200869D01*
X270141Y200766D01*
X270096Y200662D01*
X270056Y200556D01*
X270019Y200449D01*
X269986Y200341D01*
X269956Y200231D01*
X269931Y200121D01*
X269909Y200010D01*
X269892Y199898D01*
X269878Y199785D01*
X269868Y199672D01*
X269862Y199559D01*
X269860Y199446D01*
X269862Y199333D01*
X269868Y199220D01*
X269878Y199107D01*
X269892Y198994D01*
X269909Y198882D01*
X269931Y198771D01*
X269956Y198661D01*
X269986Y198551D01*
X270019Y198443D01*
X270056Y198336D01*
X270096Y198230D01*
X270141Y198126D01*
X270189Y198023D01*
X270240Y197922D01*
X270295Y197823D01*
X270353Y197726D01*
X270415Y197631D01*
X270480Y197538D01*
X270548Y197448D01*
X270619Y197360D01*
X270694Y197274D01*
X270771Y197191D01*
X270851Y197111D01*
X270934Y197034D01*
X271020Y196959D01*
X271108Y196888D01*
X271198Y196820D01*
X271291Y196755D01*
X271386Y196693D01*
X271483Y196635D01*
X271582Y196580D01*
X271683Y196529D01*
X271786Y196481D01*
X271890Y196436D01*
X271996Y196396D01*
X272103Y196359D01*
X272211Y196326D01*
X272321Y196296D01*
X272431Y196271D01*
X272542Y196249D01*
X272654Y196232D01*
X272767Y196218D01*
X272880Y196208D01*
X272993Y196202D01*
X273106Y196200D01*
X273106Y196201D02*
X276352Y196201D01*
X272457Y196201D02*
X269861Y191008D01*
X264996Y200096D02*
X261750Y202692D01*
X261750Y191008D01*
X258505Y191008D02*
X264996Y191008D01*
X253566Y201394D02*
X253566Y202692D01*
X247075Y202692D01*
X250320Y191008D01*
X276352Y164592D02*
X276352Y152908D01*
X276352Y164592D02*
X273106Y164592D01*
X272993Y164590D01*
X272880Y164584D01*
X272767Y164574D01*
X272654Y164560D01*
X272542Y164543D01*
X272431Y164521D01*
X272321Y164496D01*
X272211Y164466D01*
X272103Y164433D01*
X271996Y164396D01*
X271890Y164356D01*
X271786Y164311D01*
X271683Y164263D01*
X271582Y164212D01*
X271483Y164157D01*
X271386Y164099D01*
X271291Y164037D01*
X271198Y163972D01*
X271108Y163904D01*
X271020Y163833D01*
X270934Y163758D01*
X270851Y163681D01*
X270771Y163601D01*
X270694Y163518D01*
X270619Y163432D01*
X270548Y163344D01*
X270480Y163254D01*
X270415Y163161D01*
X270353Y163066D01*
X270295Y162969D01*
X270240Y162870D01*
X270189Y162769D01*
X270141Y162666D01*
X270096Y162562D01*
X270056Y162456D01*
X270019Y162349D01*
X269986Y162241D01*
X269956Y162131D01*
X269931Y162021D01*
X269909Y161910D01*
X269892Y161798D01*
X269878Y161685D01*
X269868Y161572D01*
X269862Y161459D01*
X269860Y161346D01*
X269862Y161233D01*
X269868Y161120D01*
X269878Y161007D01*
X269892Y160894D01*
X269909Y160782D01*
X269931Y160671D01*
X269956Y160561D01*
X269986Y160451D01*
X270019Y160343D01*
X270056Y160236D01*
X270096Y160130D01*
X270141Y160026D01*
X270189Y159923D01*
X270240Y159822D01*
X270295Y159723D01*
X270353Y159626D01*
X270415Y159531D01*
X270480Y159438D01*
X270548Y159348D01*
X270619Y159260D01*
X270694Y159174D01*
X270771Y159091D01*
X270851Y159011D01*
X270934Y158934D01*
X271020Y158859D01*
X271108Y158788D01*
X271198Y158720D01*
X271291Y158655D01*
X271386Y158593D01*
X271483Y158535D01*
X271582Y158480D01*
X271683Y158429D01*
X271786Y158381D01*
X271890Y158336D01*
X271996Y158296D01*
X272103Y158259D01*
X272211Y158226D01*
X272321Y158196D01*
X272431Y158171D01*
X272542Y158149D01*
X272654Y158132D01*
X272767Y158118D01*
X272880Y158108D01*
X272993Y158102D01*
X273106Y158100D01*
X273106Y158101D02*
X276352Y158101D01*
X272457Y158101D02*
X269861Y152908D01*
X264996Y161996D02*
X261750Y164592D01*
X261750Y152908D01*
X258505Y152908D02*
X264996Y152908D01*
X253566Y156154D02*
X253564Y156267D01*
X253558Y156380D01*
X253548Y156493D01*
X253534Y156606D01*
X253517Y156718D01*
X253495Y156829D01*
X253470Y156939D01*
X253440Y157049D01*
X253407Y157157D01*
X253370Y157264D01*
X253330Y157370D01*
X253285Y157474D01*
X253237Y157577D01*
X253186Y157678D01*
X253131Y157777D01*
X253073Y157874D01*
X253011Y157969D01*
X252946Y158062D01*
X252878Y158152D01*
X252807Y158240D01*
X252732Y158326D01*
X252655Y158409D01*
X252575Y158489D01*
X252492Y158566D01*
X252406Y158641D01*
X252318Y158712D01*
X252228Y158780D01*
X252135Y158845D01*
X252040Y158907D01*
X251943Y158965D01*
X251844Y159020D01*
X251743Y159071D01*
X251640Y159119D01*
X251536Y159164D01*
X251430Y159204D01*
X251323Y159241D01*
X251215Y159274D01*
X251105Y159304D01*
X250995Y159329D01*
X250884Y159351D01*
X250772Y159368D01*
X250659Y159382D01*
X250546Y159392D01*
X250433Y159398D01*
X250320Y159400D01*
X250207Y159398D01*
X250094Y159392D01*
X249981Y159382D01*
X249868Y159368D01*
X249756Y159351D01*
X249645Y159329D01*
X249535Y159304D01*
X249425Y159274D01*
X249317Y159241D01*
X249210Y159204D01*
X249104Y159164D01*
X249000Y159119D01*
X248897Y159071D01*
X248796Y159020D01*
X248697Y158965D01*
X248600Y158907D01*
X248505Y158845D01*
X248412Y158780D01*
X248322Y158712D01*
X248234Y158641D01*
X248148Y158566D01*
X248065Y158489D01*
X247985Y158409D01*
X247908Y158326D01*
X247833Y158240D01*
X247762Y158152D01*
X247694Y158062D01*
X247629Y157969D01*
X247567Y157874D01*
X247509Y157777D01*
X247454Y157678D01*
X247403Y157577D01*
X247355Y157474D01*
X247310Y157370D01*
X247270Y157264D01*
X247233Y157157D01*
X247200Y157049D01*
X247170Y156939D01*
X247145Y156829D01*
X247123Y156718D01*
X247106Y156606D01*
X247092Y156493D01*
X247082Y156380D01*
X247076Y156267D01*
X247074Y156154D01*
X247076Y156041D01*
X247082Y155928D01*
X247092Y155815D01*
X247106Y155702D01*
X247123Y155590D01*
X247145Y155479D01*
X247170Y155369D01*
X247200Y155259D01*
X247233Y155151D01*
X247270Y155044D01*
X247310Y154938D01*
X247355Y154834D01*
X247403Y154731D01*
X247454Y154630D01*
X247509Y154531D01*
X247567Y154434D01*
X247629Y154339D01*
X247694Y154246D01*
X247762Y154156D01*
X247833Y154068D01*
X247908Y153982D01*
X247985Y153899D01*
X248065Y153819D01*
X248148Y153742D01*
X248234Y153667D01*
X248322Y153596D01*
X248412Y153528D01*
X248505Y153463D01*
X248600Y153401D01*
X248697Y153343D01*
X248796Y153288D01*
X248897Y153237D01*
X249000Y153189D01*
X249104Y153144D01*
X249210Y153104D01*
X249317Y153067D01*
X249425Y153034D01*
X249535Y153004D01*
X249645Y152979D01*
X249756Y152957D01*
X249868Y152940D01*
X249981Y152926D01*
X250094Y152916D01*
X250207Y152910D01*
X250320Y152908D01*
X250433Y152910D01*
X250546Y152916D01*
X250659Y152926D01*
X250772Y152940D01*
X250884Y152957D01*
X250995Y152979D01*
X251105Y153004D01*
X251215Y153034D01*
X251323Y153067D01*
X251430Y153104D01*
X251536Y153144D01*
X251640Y153189D01*
X251743Y153237D01*
X251844Y153288D01*
X251943Y153343D01*
X252040Y153401D01*
X252135Y153463D01*
X252228Y153528D01*
X252318Y153596D01*
X252406Y153667D01*
X252492Y153742D01*
X252575Y153819D01*
X252655Y153899D01*
X252732Y153982D01*
X252807Y154068D01*
X252878Y154156D01*
X252946Y154246D01*
X253011Y154339D01*
X253073Y154434D01*
X253131Y154531D01*
X253186Y154630D01*
X253237Y154731D01*
X253285Y154834D01*
X253330Y154938D01*
X253370Y155044D01*
X253407Y155151D01*
X253440Y155259D01*
X253470Y155369D01*
X253495Y155479D01*
X253517Y155590D01*
X253534Y155702D01*
X253548Y155815D01*
X253558Y155928D01*
X253564Y156041D01*
X253566Y156154D01*
X252916Y161996D02*
X252914Y162097D01*
X252908Y162197D01*
X252898Y162297D01*
X252885Y162397D01*
X252867Y162496D01*
X252846Y162595D01*
X252821Y162692D01*
X252792Y162789D01*
X252759Y162884D01*
X252723Y162978D01*
X252683Y163070D01*
X252640Y163161D01*
X252593Y163250D01*
X252543Y163337D01*
X252489Y163423D01*
X252432Y163506D01*
X252372Y163586D01*
X252309Y163665D01*
X252242Y163741D01*
X252173Y163814D01*
X252101Y163884D01*
X252027Y163952D01*
X251950Y164017D01*
X251870Y164078D01*
X251788Y164137D01*
X251704Y164192D01*
X251618Y164244D01*
X251530Y164293D01*
X251440Y164338D01*
X251348Y164380D01*
X251255Y164418D01*
X251160Y164452D01*
X251065Y164483D01*
X250968Y164510D01*
X250870Y164533D01*
X250771Y164553D01*
X250671Y164568D01*
X250571Y164580D01*
X250471Y164588D01*
X250370Y164592D01*
X250270Y164592D01*
X250169Y164588D01*
X250069Y164580D01*
X249969Y164568D01*
X249869Y164553D01*
X249770Y164533D01*
X249672Y164510D01*
X249575Y164483D01*
X249480Y164452D01*
X249385Y164418D01*
X249292Y164380D01*
X249200Y164338D01*
X249110Y164293D01*
X249022Y164244D01*
X248936Y164192D01*
X248852Y164137D01*
X248770Y164078D01*
X248690Y164017D01*
X248613Y163952D01*
X248539Y163884D01*
X248467Y163814D01*
X248398Y163741D01*
X248331Y163665D01*
X248268Y163586D01*
X248208Y163506D01*
X248151Y163423D01*
X248097Y163337D01*
X248047Y163250D01*
X248000Y163161D01*
X247957Y163070D01*
X247917Y162978D01*
X247881Y162884D01*
X247848Y162789D01*
X247819Y162692D01*
X247794Y162595D01*
X247773Y162496D01*
X247755Y162397D01*
X247742Y162297D01*
X247732Y162197D01*
X247726Y162097D01*
X247724Y161996D01*
X247726Y161895D01*
X247732Y161795D01*
X247742Y161695D01*
X247755Y161595D01*
X247773Y161496D01*
X247794Y161397D01*
X247819Y161300D01*
X247848Y161203D01*
X247881Y161108D01*
X247917Y161014D01*
X247957Y160922D01*
X248000Y160831D01*
X248047Y160742D01*
X248097Y160655D01*
X248151Y160569D01*
X248208Y160486D01*
X248268Y160406D01*
X248331Y160327D01*
X248398Y160251D01*
X248467Y160178D01*
X248539Y160108D01*
X248613Y160040D01*
X248690Y159975D01*
X248770Y159914D01*
X248852Y159855D01*
X248936Y159800D01*
X249022Y159748D01*
X249110Y159699D01*
X249200Y159654D01*
X249292Y159612D01*
X249385Y159574D01*
X249480Y159540D01*
X249575Y159509D01*
X249672Y159482D01*
X249770Y159459D01*
X249869Y159439D01*
X249969Y159424D01*
X250069Y159412D01*
X250169Y159404D01*
X250270Y159400D01*
X250370Y159400D01*
X250471Y159404D01*
X250571Y159412D01*
X250671Y159424D01*
X250771Y159439D01*
X250870Y159459D01*
X250968Y159482D01*
X251065Y159509D01*
X251160Y159540D01*
X251255Y159574D01*
X251348Y159612D01*
X251440Y159654D01*
X251530Y159699D01*
X251618Y159748D01*
X251704Y159800D01*
X251788Y159855D01*
X251870Y159914D01*
X251950Y159975D01*
X252027Y160040D01*
X252101Y160108D01*
X252173Y160178D01*
X252242Y160251D01*
X252309Y160327D01*
X252372Y160406D01*
X252432Y160486D01*
X252489Y160569D01*
X252543Y160655D01*
X252593Y160742D01*
X252640Y160831D01*
X252683Y160922D01*
X252723Y161014D01*
X252759Y161108D01*
X252792Y161203D01*
X252821Y161300D01*
X252846Y161397D01*
X252867Y161496D01*
X252885Y161595D01*
X252898Y161695D01*
X252908Y161795D01*
X252914Y161895D01*
X252916Y161996D01*
X276352Y145542D02*
X276352Y133858D01*
X276352Y145542D02*
X273106Y145542D01*
X272993Y145540D01*
X272880Y145534D01*
X272767Y145524D01*
X272654Y145510D01*
X272542Y145493D01*
X272431Y145471D01*
X272321Y145446D01*
X272211Y145416D01*
X272103Y145383D01*
X271996Y145346D01*
X271890Y145306D01*
X271786Y145261D01*
X271683Y145213D01*
X271582Y145162D01*
X271483Y145107D01*
X271386Y145049D01*
X271291Y144987D01*
X271198Y144922D01*
X271108Y144854D01*
X271020Y144783D01*
X270934Y144708D01*
X270851Y144631D01*
X270771Y144551D01*
X270694Y144468D01*
X270619Y144382D01*
X270548Y144294D01*
X270480Y144204D01*
X270415Y144111D01*
X270353Y144016D01*
X270295Y143919D01*
X270240Y143820D01*
X270189Y143719D01*
X270141Y143616D01*
X270096Y143512D01*
X270056Y143406D01*
X270019Y143299D01*
X269986Y143191D01*
X269956Y143081D01*
X269931Y142971D01*
X269909Y142860D01*
X269892Y142748D01*
X269878Y142635D01*
X269868Y142522D01*
X269862Y142409D01*
X269860Y142296D01*
X269862Y142183D01*
X269868Y142070D01*
X269878Y141957D01*
X269892Y141844D01*
X269909Y141732D01*
X269931Y141621D01*
X269956Y141511D01*
X269986Y141401D01*
X270019Y141293D01*
X270056Y141186D01*
X270096Y141080D01*
X270141Y140976D01*
X270189Y140873D01*
X270240Y140772D01*
X270295Y140673D01*
X270353Y140576D01*
X270415Y140481D01*
X270480Y140388D01*
X270548Y140298D01*
X270619Y140210D01*
X270694Y140124D01*
X270771Y140041D01*
X270851Y139961D01*
X270934Y139884D01*
X271020Y139809D01*
X271108Y139738D01*
X271198Y139670D01*
X271291Y139605D01*
X271386Y139543D01*
X271483Y139485D01*
X271582Y139430D01*
X271683Y139379D01*
X271786Y139331D01*
X271890Y139286D01*
X271996Y139246D01*
X272103Y139209D01*
X272211Y139176D01*
X272321Y139146D01*
X272431Y139121D01*
X272542Y139099D01*
X272654Y139082D01*
X272767Y139068D01*
X272880Y139058D01*
X272993Y139052D01*
X273106Y139050D01*
X273106Y139051D02*
X276352Y139051D01*
X272457Y139051D02*
X269861Y133858D01*
X264996Y142946D02*
X261750Y145542D01*
X261750Y133858D01*
X258505Y133858D02*
X264996Y133858D01*
X250969Y139051D02*
X247075Y139051D01*
X250969Y139051D02*
X251068Y139053D01*
X251168Y139059D01*
X251267Y139068D01*
X251365Y139081D01*
X251463Y139098D01*
X251561Y139119D01*
X251657Y139144D01*
X251752Y139172D01*
X251846Y139204D01*
X251939Y139239D01*
X252031Y139278D01*
X252121Y139321D01*
X252209Y139366D01*
X252296Y139416D01*
X252380Y139468D01*
X252463Y139524D01*
X252543Y139582D01*
X252621Y139644D01*
X252696Y139709D01*
X252769Y139777D01*
X252839Y139847D01*
X252907Y139920D01*
X252972Y139995D01*
X253034Y140073D01*
X253092Y140153D01*
X253148Y140236D01*
X253200Y140320D01*
X253250Y140407D01*
X253295Y140495D01*
X253338Y140585D01*
X253377Y140677D01*
X253412Y140770D01*
X253444Y140864D01*
X253472Y140959D01*
X253497Y141055D01*
X253518Y141153D01*
X253535Y141251D01*
X253548Y141349D01*
X253557Y141448D01*
X253563Y141548D01*
X253565Y141647D01*
X253566Y141647D02*
X253566Y142296D01*
X253564Y142409D01*
X253558Y142522D01*
X253548Y142635D01*
X253534Y142748D01*
X253517Y142860D01*
X253495Y142971D01*
X253470Y143081D01*
X253440Y143191D01*
X253407Y143299D01*
X253370Y143406D01*
X253330Y143512D01*
X253285Y143616D01*
X253237Y143719D01*
X253186Y143820D01*
X253131Y143919D01*
X253073Y144016D01*
X253011Y144111D01*
X252946Y144204D01*
X252878Y144294D01*
X252807Y144382D01*
X252732Y144468D01*
X252655Y144551D01*
X252575Y144631D01*
X252492Y144708D01*
X252406Y144783D01*
X252318Y144854D01*
X252228Y144922D01*
X252135Y144987D01*
X252040Y145049D01*
X251943Y145107D01*
X251844Y145162D01*
X251743Y145213D01*
X251640Y145261D01*
X251536Y145306D01*
X251430Y145346D01*
X251323Y145383D01*
X251215Y145416D01*
X251105Y145446D01*
X250995Y145471D01*
X250884Y145493D01*
X250772Y145510D01*
X250659Y145524D01*
X250546Y145534D01*
X250433Y145540D01*
X250320Y145542D01*
X250207Y145540D01*
X250094Y145534D01*
X249981Y145524D01*
X249868Y145510D01*
X249756Y145493D01*
X249645Y145471D01*
X249535Y145446D01*
X249425Y145416D01*
X249317Y145383D01*
X249210Y145346D01*
X249104Y145306D01*
X249000Y145261D01*
X248897Y145213D01*
X248796Y145162D01*
X248697Y145107D01*
X248600Y145049D01*
X248505Y144987D01*
X248412Y144922D01*
X248322Y144854D01*
X248234Y144783D01*
X248148Y144708D01*
X248065Y144631D01*
X247985Y144551D01*
X247908Y144468D01*
X247833Y144382D01*
X247762Y144294D01*
X247694Y144204D01*
X247629Y144111D01*
X247567Y144016D01*
X247509Y143919D01*
X247454Y143820D01*
X247403Y143719D01*
X247355Y143616D01*
X247310Y143512D01*
X247270Y143406D01*
X247233Y143299D01*
X247200Y143191D01*
X247170Y143081D01*
X247145Y142971D01*
X247123Y142860D01*
X247106Y142748D01*
X247092Y142635D01*
X247082Y142522D01*
X247076Y142409D01*
X247074Y142296D01*
X247075Y142296D02*
X247075Y139051D01*
X247074Y139051D02*
X247076Y138908D01*
X247082Y138765D01*
X247092Y138622D01*
X247106Y138480D01*
X247123Y138338D01*
X247145Y138196D01*
X247170Y138055D01*
X247200Y137915D01*
X247233Y137776D01*
X247270Y137638D01*
X247311Y137501D01*
X247355Y137365D01*
X247404Y137230D01*
X247456Y137097D01*
X247511Y136965D01*
X247571Y136835D01*
X247634Y136706D01*
X247700Y136579D01*
X247770Y136455D01*
X247843Y136332D01*
X247920Y136211D01*
X248000Y136092D01*
X248083Y135976D01*
X248169Y135861D01*
X248258Y135750D01*
X248351Y135640D01*
X248446Y135534D01*
X248545Y135430D01*
X248646Y135329D01*
X248750Y135230D01*
X248856Y135135D01*
X248966Y135042D01*
X249077Y134953D01*
X249192Y134867D01*
X249308Y134784D01*
X249427Y134704D01*
X249548Y134627D01*
X249670Y134554D01*
X249795Y134484D01*
X249922Y134418D01*
X250051Y134355D01*
X250181Y134295D01*
X250313Y134240D01*
X250446Y134188D01*
X250581Y134139D01*
X250717Y134095D01*
X250854Y134054D01*
X250992Y134017D01*
X251131Y133984D01*
X251271Y133954D01*
X251412Y133929D01*
X251554Y133907D01*
X251696Y133890D01*
X251838Y133876D01*
X251981Y133866D01*
X252124Y133860D01*
X252267Y133858D01*
D11*
X183549Y329311D02*
X178689Y329311D01*
X253111Y329311D02*
X253111Y324451D01*
X253111Y254889D02*
X248251Y254889D01*
X178689Y254889D02*
X178689Y259749D01*
X178689Y324451D02*
X178689Y329311D01*
X248251Y329311D02*
X253111Y329311D01*
X253111Y259749D02*
X253111Y254889D01*
X183549Y254889D02*
X178689Y254889D01*
X163153Y264600D02*
X163151Y264654D01*
X163145Y264708D01*
X163136Y264762D01*
X163122Y264815D01*
X163105Y264866D01*
X163084Y264917D01*
X163060Y264965D01*
X163032Y265012D01*
X163001Y265057D01*
X162967Y265099D01*
X162930Y265139D01*
X162890Y265176D01*
X162848Y265210D01*
X162803Y265241D01*
X162756Y265269D01*
X162708Y265293D01*
X162657Y265314D01*
X162606Y265331D01*
X162553Y265345D01*
X162499Y265354D01*
X162445Y265360D01*
X162391Y265362D01*
X162337Y265360D01*
X162283Y265354D01*
X162229Y265345D01*
X162176Y265331D01*
X162125Y265314D01*
X162074Y265293D01*
X162026Y265269D01*
X161979Y265241D01*
X161934Y265210D01*
X161892Y265176D01*
X161852Y265139D01*
X161815Y265099D01*
X161781Y265057D01*
X161750Y265012D01*
X161722Y264965D01*
X161698Y264917D01*
X161677Y264866D01*
X161660Y264815D01*
X161646Y264762D01*
X161637Y264708D01*
X161631Y264654D01*
X161629Y264600D01*
X161631Y264546D01*
X161637Y264492D01*
X161646Y264438D01*
X161660Y264385D01*
X161677Y264334D01*
X161698Y264283D01*
X161722Y264235D01*
X161750Y264188D01*
X161781Y264143D01*
X161815Y264101D01*
X161852Y264061D01*
X161892Y264024D01*
X161934Y263990D01*
X161979Y263959D01*
X162026Y263931D01*
X162074Y263907D01*
X162125Y263886D01*
X162176Y263869D01*
X162229Y263855D01*
X162283Y263846D01*
X162337Y263840D01*
X162391Y263838D01*
X162445Y263840D01*
X162499Y263846D01*
X162553Y263855D01*
X162606Y263869D01*
X162657Y263886D01*
X162708Y263907D01*
X162756Y263931D01*
X162803Y263959D01*
X162848Y263990D01*
X162890Y264024D01*
X162930Y264061D01*
X162967Y264101D01*
X163001Y264143D01*
X163032Y264188D01*
X163060Y264235D01*
X163084Y264283D01*
X163105Y264334D01*
X163122Y264385D01*
X163136Y264438D01*
X163145Y264492D01*
X163151Y264546D01*
X163153Y264600D01*
X179959Y268859D02*
X192659Y256159D01*
X179959Y328041D02*
X251841Y328041D01*
X251841Y256159D01*
X179959Y256159D01*
X179959Y328041D01*
D14*
X184957Y264600D02*
X184959Y264654D01*
X184965Y264708D01*
X184974Y264762D01*
X184988Y264815D01*
X185005Y264866D01*
X185026Y264917D01*
X185050Y264965D01*
X185078Y265012D01*
X185109Y265057D01*
X185143Y265099D01*
X185180Y265139D01*
X185220Y265176D01*
X185262Y265210D01*
X185307Y265241D01*
X185354Y265269D01*
X185402Y265293D01*
X185453Y265314D01*
X185504Y265331D01*
X185557Y265345D01*
X185611Y265354D01*
X185665Y265360D01*
X185719Y265362D01*
X185773Y265360D01*
X185827Y265354D01*
X185881Y265345D01*
X185934Y265331D01*
X185985Y265314D01*
X186036Y265293D01*
X186084Y265269D01*
X186131Y265241D01*
X186176Y265210D01*
X186218Y265176D01*
X186258Y265139D01*
X186295Y265099D01*
X186329Y265057D01*
X186360Y265012D01*
X186388Y264965D01*
X186412Y264917D01*
X186433Y264866D01*
X186450Y264815D01*
X186464Y264762D01*
X186473Y264708D01*
X186479Y264654D01*
X186481Y264600D01*
X186479Y264546D01*
X186473Y264492D01*
X186464Y264438D01*
X186450Y264385D01*
X186433Y264334D01*
X186412Y264283D01*
X186388Y264235D01*
X186360Y264188D01*
X186329Y264143D01*
X186295Y264101D01*
X186258Y264061D01*
X186218Y264024D01*
X186176Y263990D01*
X186131Y263959D01*
X186084Y263931D01*
X186036Y263907D01*
X185985Y263886D01*
X185934Y263869D01*
X185881Y263855D01*
X185827Y263846D01*
X185773Y263840D01*
X185719Y263838D01*
X185665Y263840D01*
X185611Y263846D01*
X185557Y263855D01*
X185504Y263869D01*
X185453Y263886D01*
X185402Y263907D01*
X185354Y263931D01*
X185307Y263959D01*
X185262Y263990D01*
X185220Y264024D01*
X185180Y264061D01*
X185143Y264101D01*
X185109Y264143D01*
X185078Y264188D01*
X185050Y264235D01*
X185026Y264283D01*
X185005Y264334D01*
X184988Y264385D01*
X184974Y264438D01*
X184965Y264492D01*
X184959Y264546D01*
X184957Y264600D01*
D13*
X177419Y247269D02*
X177419Y238647D01*
X177417Y238533D01*
X177411Y238418D01*
X177401Y238304D01*
X177387Y238191D01*
X177370Y238077D01*
X177348Y237965D01*
X177323Y237853D01*
X177293Y237743D01*
X177260Y237633D01*
X177223Y237525D01*
X177183Y237418D01*
X177138Y237312D01*
X177091Y237208D01*
X177039Y237106D01*
X176984Y237006D01*
X176926Y236907D01*
X176864Y236811D01*
X176799Y236716D01*
X176731Y236625D01*
X176659Y236535D01*
X176585Y236448D01*
X176508Y236364D01*
X176427Y236282D01*
X176344Y236203D01*
X176259Y236127D01*
X176170Y236054D01*
X176080Y235985D01*
X175987Y235918D01*
X175891Y235855D01*
X175794Y235795D01*
X175694Y235738D01*
X175593Y235685D01*
X175490Y235635D01*
X175385Y235589D01*
X175279Y235546D01*
X175171Y235508D01*
X175062Y235473D01*
X174952Y235442D01*
X174841Y235414D01*
X174729Y235391D01*
X174616Y235371D01*
X174503Y235355D01*
X174389Y235343D01*
X174275Y235335D01*
X174160Y235331D01*
X174046Y235331D01*
X173931Y235335D01*
X173817Y235343D01*
X173703Y235355D01*
X173590Y235371D01*
X173477Y235391D01*
X173365Y235414D01*
X173254Y235442D01*
X173144Y235473D01*
X173035Y235508D01*
X172927Y235546D01*
X172821Y235589D01*
X172716Y235635D01*
X172613Y235685D01*
X172512Y235738D01*
X172412Y235795D01*
X172315Y235855D01*
X172219Y235918D01*
X172126Y235985D01*
X172036Y236054D01*
X171947Y236127D01*
X171862Y236203D01*
X171779Y236282D01*
X171698Y236364D01*
X171621Y236448D01*
X171547Y236535D01*
X171475Y236625D01*
X171407Y236716D01*
X171342Y236811D01*
X171280Y236907D01*
X171222Y237006D01*
X171167Y237106D01*
X171115Y237208D01*
X171068Y237312D01*
X171023Y237418D01*
X170983Y237525D01*
X170946Y237633D01*
X170913Y237743D01*
X170883Y237853D01*
X170858Y237965D01*
X170836Y238077D01*
X170819Y238191D01*
X170805Y238304D01*
X170795Y238418D01*
X170789Y238533D01*
X170787Y238647D01*
X170787Y247269D01*
X165608Y244616D02*
X162292Y247269D01*
X162292Y235331D01*
X165608Y235331D02*
X158976Y235331D01*
D11*
X195623Y476280D02*
X199120Y476280D01*
X131080Y476280D02*
X131080Y514320D01*
X146077Y514320D01*
X199120Y514320D02*
X199120Y476280D01*
X180577Y476280D02*
X172623Y476280D01*
X157577Y476280D02*
X149623Y476280D01*
X134577Y476280D02*
X131080Y476280D01*
X184123Y514320D02*
X199120Y514320D01*
X209280Y459800D02*
X209282Y459730D01*
X209288Y459660D01*
X209297Y459591D01*
X209311Y459522D01*
X209328Y459454D01*
X209349Y459388D01*
X209373Y459322D01*
X209401Y459258D01*
X209433Y459196D01*
X209468Y459135D01*
X209506Y459076D01*
X209548Y459020D01*
X209592Y458966D01*
X209640Y458914D01*
X209690Y458866D01*
X209743Y458820D01*
X209798Y458777D01*
X209855Y458737D01*
X209915Y458700D01*
X209977Y458667D01*
X210040Y458637D01*
X210105Y458611D01*
X210171Y458588D01*
X210238Y458569D01*
X210307Y458554D01*
X210376Y458542D01*
X210445Y458534D01*
X210515Y458530D01*
X210585Y458530D01*
X210655Y458534D01*
X210724Y458542D01*
X210793Y458554D01*
X210862Y458569D01*
X210929Y458588D01*
X210995Y458611D01*
X211060Y458637D01*
X211123Y458667D01*
X211185Y458700D01*
X211245Y458737D01*
X211302Y458777D01*
X211357Y458820D01*
X211410Y458866D01*
X211460Y458914D01*
X211508Y458966D01*
X211552Y459020D01*
X211594Y459076D01*
X211632Y459135D01*
X211667Y459196D01*
X211699Y459258D01*
X211727Y459322D01*
X211751Y459388D01*
X211772Y459454D01*
X211789Y459522D01*
X211803Y459591D01*
X211812Y459660D01*
X211818Y459730D01*
X211820Y459800D01*
X211818Y459870D01*
X211812Y459940D01*
X211803Y460009D01*
X211789Y460078D01*
X211772Y460146D01*
X211751Y460212D01*
X211727Y460278D01*
X211699Y460342D01*
X211667Y460404D01*
X211632Y460465D01*
X211594Y460524D01*
X211552Y460580D01*
X211508Y460634D01*
X211460Y460686D01*
X211410Y460734D01*
X211357Y460780D01*
X211302Y460823D01*
X211245Y460863D01*
X211185Y460900D01*
X211123Y460933D01*
X211060Y460963D01*
X210995Y460989D01*
X210929Y461012D01*
X210862Y461031D01*
X210793Y461046D01*
X210724Y461058D01*
X210655Y461066D01*
X210585Y461070D01*
X210515Y461070D01*
X210445Y461066D01*
X210376Y461058D01*
X210307Y461046D01*
X210238Y461031D01*
X210171Y461012D01*
X210105Y460989D01*
X210040Y460963D01*
X209977Y460933D01*
X209915Y460900D01*
X209855Y460863D01*
X209798Y460823D01*
X209743Y460780D01*
X209690Y460734D01*
X209640Y460686D01*
X209592Y460634D01*
X209548Y460580D01*
X209506Y460524D01*
X209468Y460465D01*
X209433Y460404D01*
X209401Y460342D01*
X209373Y460278D01*
X209349Y460212D01*
X209328Y460146D01*
X209311Y460078D01*
X209297Y460009D01*
X209288Y459940D01*
X209282Y459870D01*
X209280Y459800D01*
D13*
X126619Y486297D02*
X126619Y494919D01*
X126619Y486297D02*
X126617Y486183D01*
X126611Y486068D01*
X126601Y485954D01*
X126587Y485841D01*
X126570Y485727D01*
X126548Y485615D01*
X126523Y485503D01*
X126493Y485393D01*
X126460Y485283D01*
X126423Y485175D01*
X126383Y485068D01*
X126338Y484962D01*
X126291Y484858D01*
X126239Y484756D01*
X126184Y484656D01*
X126126Y484557D01*
X126064Y484461D01*
X125999Y484366D01*
X125931Y484275D01*
X125859Y484185D01*
X125785Y484098D01*
X125708Y484014D01*
X125627Y483932D01*
X125544Y483853D01*
X125459Y483777D01*
X125370Y483704D01*
X125280Y483635D01*
X125187Y483568D01*
X125091Y483505D01*
X124994Y483445D01*
X124894Y483388D01*
X124793Y483335D01*
X124690Y483285D01*
X124585Y483239D01*
X124479Y483196D01*
X124371Y483158D01*
X124262Y483123D01*
X124152Y483092D01*
X124041Y483064D01*
X123929Y483041D01*
X123816Y483021D01*
X123703Y483005D01*
X123589Y482993D01*
X123475Y482985D01*
X123360Y482981D01*
X123246Y482981D01*
X123131Y482985D01*
X123017Y482993D01*
X122903Y483005D01*
X122790Y483021D01*
X122677Y483041D01*
X122565Y483064D01*
X122454Y483092D01*
X122344Y483123D01*
X122235Y483158D01*
X122127Y483196D01*
X122021Y483239D01*
X121916Y483285D01*
X121813Y483335D01*
X121712Y483388D01*
X121612Y483445D01*
X121515Y483505D01*
X121419Y483568D01*
X121326Y483635D01*
X121236Y483704D01*
X121147Y483777D01*
X121062Y483853D01*
X120979Y483932D01*
X120898Y484014D01*
X120821Y484098D01*
X120747Y484185D01*
X120675Y484275D01*
X120607Y484366D01*
X120542Y484461D01*
X120480Y484557D01*
X120422Y484656D01*
X120367Y484756D01*
X120315Y484858D01*
X120268Y484962D01*
X120223Y485068D01*
X120183Y485175D01*
X120146Y485283D01*
X120113Y485393D01*
X120083Y485503D01*
X120058Y485615D01*
X120036Y485727D01*
X120019Y485841D01*
X120005Y485954D01*
X119995Y486068D01*
X119989Y486183D01*
X119987Y486297D01*
X119987Y494919D01*
X111160Y494920D02*
X111053Y494918D01*
X110947Y494912D01*
X110841Y494903D01*
X110735Y494890D01*
X110630Y494873D01*
X110525Y494852D01*
X110422Y494827D01*
X110319Y494799D01*
X110217Y494767D01*
X110117Y494732D01*
X110018Y494693D01*
X109920Y494650D01*
X109824Y494604D01*
X109729Y494555D01*
X109637Y494502D01*
X109546Y494446D01*
X109458Y494387D01*
X109371Y494325D01*
X109287Y494259D01*
X109205Y494191D01*
X109126Y494120D01*
X109049Y494046D01*
X108975Y493969D01*
X108904Y493890D01*
X108836Y493808D01*
X108770Y493724D01*
X108708Y493637D01*
X108649Y493549D01*
X108593Y493458D01*
X108540Y493366D01*
X108491Y493271D01*
X108445Y493175D01*
X108402Y493077D01*
X108363Y492978D01*
X108328Y492878D01*
X108296Y492776D01*
X108268Y492673D01*
X108243Y492570D01*
X108222Y492465D01*
X108205Y492360D01*
X108192Y492254D01*
X108183Y492148D01*
X108177Y492042D01*
X108175Y491935D01*
X111160Y494919D02*
X111281Y494917D01*
X111401Y494911D01*
X111521Y494902D01*
X111641Y494889D01*
X111760Y494872D01*
X111879Y494851D01*
X111997Y494827D01*
X112114Y494798D01*
X112230Y494767D01*
X112346Y494731D01*
X112460Y494692D01*
X112572Y494649D01*
X112684Y494603D01*
X112794Y494554D01*
X112902Y494500D01*
X113008Y494444D01*
X113113Y494384D01*
X113216Y494321D01*
X113316Y494255D01*
X113415Y494186D01*
X113511Y494113D01*
X113605Y494038D01*
X113697Y493960D01*
X113786Y493878D01*
X113873Y493794D01*
X113957Y493708D01*
X114038Y493619D01*
X114116Y493527D01*
X114191Y493433D01*
X114263Y493336D01*
X114333Y493238D01*
X114399Y493137D01*
X114462Y493034D01*
X114521Y492929D01*
X114578Y492823D01*
X114631Y492714D01*
X114680Y492605D01*
X114726Y492493D01*
X114769Y492380D01*
X114807Y492266D01*
X109170Y489613D02*
X109090Y489693D01*
X109012Y489775D01*
X108938Y489859D01*
X108866Y489947D01*
X108798Y490037D01*
X108732Y490129D01*
X108670Y490223D01*
X108612Y490319D01*
X108557Y490418D01*
X108505Y490518D01*
X108457Y490620D01*
X108412Y490724D01*
X108372Y490829D01*
X108335Y490936D01*
X108301Y491044D01*
X108272Y491153D01*
X108246Y491263D01*
X108225Y491374D01*
X108207Y491485D01*
X108193Y491597D01*
X108183Y491709D01*
X108177Y491822D01*
X108175Y491935D01*
X109171Y489613D02*
X114808Y482981D01*
X108176Y482981D01*
D11*
X522370Y625856D02*
X522378Y626470D01*
X522400Y627083D01*
X522438Y627695D01*
X522490Y628306D01*
X522558Y628916D01*
X522641Y629524D01*
X522738Y630130D01*
X522850Y630733D01*
X522977Y631334D01*
X523119Y631931D01*
X523276Y632524D01*
X523446Y633113D01*
X523632Y633698D01*
X523831Y634278D01*
X524045Y634853D01*
X524273Y635423D01*
X524515Y635987D01*
X524770Y636545D01*
X525039Y637096D01*
X525322Y637641D01*
X525618Y638178D01*
X525927Y638709D01*
X526249Y639231D01*
X526583Y639745D01*
X526930Y640251D01*
X527290Y640748D01*
X527661Y641237D01*
X528045Y641716D01*
X528440Y642185D01*
X528846Y642645D01*
X529264Y643095D01*
X529692Y643534D01*
X530131Y643962D01*
X530581Y644380D01*
X531041Y644786D01*
X531510Y645181D01*
X531989Y645565D01*
X532478Y645936D01*
X532975Y646296D01*
X533481Y646643D01*
X533995Y646977D01*
X534517Y647299D01*
X535048Y647608D01*
X535585Y647904D01*
X536130Y648187D01*
X536681Y648456D01*
X537239Y648711D01*
X537803Y648953D01*
X538373Y649181D01*
X538948Y649395D01*
X539528Y649594D01*
X540113Y649780D01*
X540702Y649950D01*
X541295Y650107D01*
X541892Y650249D01*
X542493Y650376D01*
X543096Y650488D01*
X543702Y650585D01*
X544310Y650668D01*
X544920Y650736D01*
X545531Y650788D01*
X546143Y650826D01*
X546756Y650848D01*
X547370Y650856D01*
X547984Y650848D01*
X548597Y650826D01*
X549209Y650788D01*
X549820Y650736D01*
X550430Y650668D01*
X551038Y650585D01*
X551644Y650488D01*
X552247Y650376D01*
X552848Y650249D01*
X553445Y650107D01*
X554038Y649950D01*
X554627Y649780D01*
X555212Y649594D01*
X555792Y649395D01*
X556367Y649181D01*
X556937Y648953D01*
X557501Y648711D01*
X558059Y648456D01*
X558610Y648187D01*
X559155Y647904D01*
X559692Y647608D01*
X560223Y647299D01*
X560745Y646977D01*
X561259Y646643D01*
X561765Y646296D01*
X562262Y645936D01*
X562751Y645565D01*
X563230Y645181D01*
X563699Y644786D01*
X564159Y644380D01*
X564609Y643962D01*
X565048Y643534D01*
X565476Y643095D01*
X565894Y642645D01*
X566300Y642185D01*
X566695Y641716D01*
X567079Y641237D01*
X567450Y640748D01*
X567810Y640251D01*
X568157Y639745D01*
X568491Y639231D01*
X568813Y638709D01*
X569122Y638178D01*
X569418Y637641D01*
X569701Y637096D01*
X569970Y636545D01*
X570225Y635987D01*
X570467Y635423D01*
X570695Y634853D01*
X570909Y634278D01*
X571108Y633698D01*
X571294Y633113D01*
X571464Y632524D01*
X571621Y631931D01*
X571763Y631334D01*
X571890Y630733D01*
X572002Y630130D01*
X572099Y629524D01*
X572182Y628916D01*
X572250Y628306D01*
X572302Y627695D01*
X572340Y627083D01*
X572362Y626470D01*
X572370Y625856D01*
X572362Y625242D01*
X572340Y624629D01*
X572302Y624017D01*
X572250Y623406D01*
X572182Y622796D01*
X572099Y622188D01*
X572002Y621582D01*
X571890Y620979D01*
X571763Y620378D01*
X571621Y619781D01*
X571464Y619188D01*
X571294Y618599D01*
X571108Y618014D01*
X570909Y617434D01*
X570695Y616859D01*
X570467Y616289D01*
X570225Y615725D01*
X569970Y615167D01*
X569701Y614616D01*
X569418Y614071D01*
X569122Y613534D01*
X568813Y613003D01*
X568491Y612481D01*
X568157Y611967D01*
X567810Y611461D01*
X567450Y610964D01*
X567079Y610475D01*
X566695Y609996D01*
X566300Y609527D01*
X565894Y609067D01*
X565476Y608617D01*
X565048Y608178D01*
X564609Y607750D01*
X564159Y607332D01*
X563699Y606926D01*
X563230Y606531D01*
X562751Y606147D01*
X562262Y605776D01*
X561765Y605416D01*
X561259Y605069D01*
X560745Y604735D01*
X560223Y604413D01*
X559692Y604104D01*
X559155Y603808D01*
X558610Y603525D01*
X558059Y603256D01*
X557501Y603001D01*
X556937Y602759D01*
X556367Y602531D01*
X555792Y602317D01*
X555212Y602118D01*
X554627Y601932D01*
X554038Y601762D01*
X553445Y601605D01*
X552848Y601463D01*
X552247Y601336D01*
X551644Y601224D01*
X551038Y601127D01*
X550430Y601044D01*
X549820Y600976D01*
X549209Y600924D01*
X548597Y600886D01*
X547984Y600864D01*
X547370Y600856D01*
X546756Y600864D01*
X546143Y600886D01*
X545531Y600924D01*
X544920Y600976D01*
X544310Y601044D01*
X543702Y601127D01*
X543096Y601224D01*
X542493Y601336D01*
X541892Y601463D01*
X541295Y601605D01*
X540702Y601762D01*
X540113Y601932D01*
X539528Y602118D01*
X538948Y602317D01*
X538373Y602531D01*
X537803Y602759D01*
X537239Y603001D01*
X536681Y603256D01*
X536130Y603525D01*
X535585Y603808D01*
X535048Y604104D01*
X534517Y604413D01*
X533995Y604735D01*
X533481Y605069D01*
X532975Y605416D01*
X532478Y605776D01*
X531989Y606147D01*
X531510Y606531D01*
X531041Y606926D01*
X530581Y607332D01*
X530131Y607750D01*
X529692Y608178D01*
X529264Y608617D01*
X528846Y609067D01*
X528440Y609527D01*
X528045Y609996D01*
X527661Y610475D01*
X527290Y610964D01*
X526930Y611461D01*
X526583Y611967D01*
X526249Y612481D01*
X525927Y613003D01*
X525618Y613534D01*
X525322Y614071D01*
X525039Y614616D01*
X524770Y615167D01*
X524515Y615725D01*
X524273Y616289D01*
X524045Y616859D01*
X523831Y617434D01*
X523632Y618014D01*
X523446Y618599D01*
X523276Y619188D01*
X523119Y619781D01*
X522977Y620378D01*
X522850Y620979D01*
X522738Y621582D01*
X522641Y622188D01*
X522558Y622796D01*
X522490Y623406D01*
X522438Y624017D01*
X522400Y624629D01*
X522378Y625242D01*
X522370Y625856D01*
D15*
X532370Y625856D02*
X532375Y626224D01*
X532388Y626592D01*
X532411Y626959D01*
X532442Y627326D01*
X532483Y627692D01*
X532532Y628057D01*
X532591Y628420D01*
X532658Y628782D01*
X532734Y629143D01*
X532820Y629501D01*
X532913Y629857D01*
X533016Y630210D01*
X533127Y630561D01*
X533247Y630909D01*
X533375Y631254D01*
X533512Y631596D01*
X533657Y631935D01*
X533810Y632269D01*
X533972Y632600D01*
X534141Y632927D01*
X534319Y633249D01*
X534504Y633568D01*
X534697Y633881D01*
X534898Y634190D01*
X535106Y634493D01*
X535322Y634791D01*
X535545Y635084D01*
X535775Y635372D01*
X536012Y635654D01*
X536256Y635929D01*
X536506Y636199D01*
X536763Y636463D01*
X537027Y636720D01*
X537297Y636970D01*
X537572Y637214D01*
X537854Y637451D01*
X538142Y637681D01*
X538435Y637904D01*
X538733Y638120D01*
X539036Y638328D01*
X539345Y638529D01*
X539658Y638722D01*
X539977Y638907D01*
X540299Y639085D01*
X540626Y639254D01*
X540957Y639416D01*
X541291Y639569D01*
X541630Y639714D01*
X541972Y639851D01*
X542317Y639979D01*
X542665Y640099D01*
X543016Y640210D01*
X543369Y640313D01*
X543725Y640406D01*
X544083Y640492D01*
X544444Y640568D01*
X544806Y640635D01*
X545169Y640694D01*
X545534Y640743D01*
X545900Y640784D01*
X546267Y640815D01*
X546634Y640838D01*
X547002Y640851D01*
X547370Y640856D01*
X547738Y640851D01*
X548106Y640838D01*
X548473Y640815D01*
X548840Y640784D01*
X549206Y640743D01*
X549571Y640694D01*
X549934Y640635D01*
X550296Y640568D01*
X550657Y640492D01*
X551015Y640406D01*
X551371Y640313D01*
X551724Y640210D01*
X552075Y640099D01*
X552423Y639979D01*
X552768Y639851D01*
X553110Y639714D01*
X553449Y639569D01*
X553783Y639416D01*
X554114Y639254D01*
X554441Y639085D01*
X554763Y638907D01*
X555082Y638722D01*
X555395Y638529D01*
X555704Y638328D01*
X556007Y638120D01*
X556305Y637904D01*
X556598Y637681D01*
X556886Y637451D01*
X557168Y637214D01*
X557443Y636970D01*
X557713Y636720D01*
X557977Y636463D01*
X558234Y636199D01*
X558484Y635929D01*
X558728Y635654D01*
X558965Y635372D01*
X559195Y635084D01*
X559418Y634791D01*
X559634Y634493D01*
X559842Y634190D01*
X560043Y633881D01*
X560236Y633568D01*
X560421Y633249D01*
X560599Y632927D01*
X560768Y632600D01*
X560930Y632269D01*
X561083Y631935D01*
X561228Y631596D01*
X561365Y631254D01*
X561493Y630909D01*
X561613Y630561D01*
X561724Y630210D01*
X561827Y629857D01*
X561920Y629501D01*
X562006Y629143D01*
X562082Y628782D01*
X562149Y628420D01*
X562208Y628057D01*
X562257Y627692D01*
X562298Y627326D01*
X562329Y626959D01*
X562352Y626592D01*
X562365Y626224D01*
X562370Y625856D01*
X562365Y625488D01*
X562352Y625120D01*
X562329Y624753D01*
X562298Y624386D01*
X562257Y624020D01*
X562208Y623655D01*
X562149Y623292D01*
X562082Y622930D01*
X562006Y622569D01*
X561920Y622211D01*
X561827Y621855D01*
X561724Y621502D01*
X561613Y621151D01*
X561493Y620803D01*
X561365Y620458D01*
X561228Y620116D01*
X561083Y619777D01*
X560930Y619443D01*
X560768Y619112D01*
X560599Y618785D01*
X560421Y618463D01*
X560236Y618144D01*
X560043Y617831D01*
X559842Y617522D01*
X559634Y617219D01*
X559418Y616921D01*
X559195Y616628D01*
X558965Y616340D01*
X558728Y616058D01*
X558484Y615783D01*
X558234Y615513D01*
X557977Y615249D01*
X557713Y614992D01*
X557443Y614742D01*
X557168Y614498D01*
X556886Y614261D01*
X556598Y614031D01*
X556305Y613808D01*
X556007Y613592D01*
X555704Y613384D01*
X555395Y613183D01*
X555082Y612990D01*
X554763Y612805D01*
X554441Y612627D01*
X554114Y612458D01*
X553783Y612296D01*
X553449Y612143D01*
X553110Y611998D01*
X552768Y611861D01*
X552423Y611733D01*
X552075Y611613D01*
X551724Y611502D01*
X551371Y611399D01*
X551015Y611306D01*
X550657Y611220D01*
X550296Y611144D01*
X549934Y611077D01*
X549571Y611018D01*
X549206Y610969D01*
X548840Y610928D01*
X548473Y610897D01*
X548106Y610874D01*
X547738Y610861D01*
X547370Y610856D01*
X547002Y610861D01*
X546634Y610874D01*
X546267Y610897D01*
X545900Y610928D01*
X545534Y610969D01*
X545169Y611018D01*
X544806Y611077D01*
X544444Y611144D01*
X544083Y611220D01*
X543725Y611306D01*
X543369Y611399D01*
X543016Y611502D01*
X542665Y611613D01*
X542317Y611733D01*
X541972Y611861D01*
X541630Y611998D01*
X541291Y612143D01*
X540957Y612296D01*
X540626Y612458D01*
X540299Y612627D01*
X539977Y612805D01*
X539658Y612990D01*
X539345Y613183D01*
X539036Y613384D01*
X538733Y613592D01*
X538435Y613808D01*
X538142Y614031D01*
X537854Y614261D01*
X537572Y614498D01*
X537297Y614742D01*
X537027Y614992D01*
X536763Y615249D01*
X536506Y615513D01*
X536256Y615783D01*
X536012Y616058D01*
X535775Y616340D01*
X535545Y616628D01*
X535322Y616921D01*
X535106Y617219D01*
X534898Y617522D01*
X534697Y617831D01*
X534504Y618144D01*
X534319Y618463D01*
X534141Y618785D01*
X533972Y619112D01*
X533810Y619443D01*
X533657Y619777D01*
X533512Y620116D01*
X533375Y620458D01*
X533247Y620803D01*
X533127Y621151D01*
X533016Y621502D01*
X532913Y621855D01*
X532820Y622211D01*
X532734Y622569D01*
X532658Y622930D01*
X532591Y623292D01*
X532532Y623655D01*
X532483Y624020D01*
X532442Y624386D01*
X532411Y624753D01*
X532388Y625120D01*
X532375Y625488D01*
X532370Y625856D01*
D11*
X510940Y111760D02*
X510948Y112374D01*
X510970Y112987D01*
X511008Y113599D01*
X511060Y114210D01*
X511128Y114820D01*
X511211Y115428D01*
X511308Y116034D01*
X511420Y116637D01*
X511547Y117238D01*
X511689Y117835D01*
X511846Y118428D01*
X512016Y119017D01*
X512202Y119602D01*
X512401Y120182D01*
X512615Y120757D01*
X512843Y121327D01*
X513085Y121891D01*
X513340Y122449D01*
X513609Y123000D01*
X513892Y123545D01*
X514188Y124082D01*
X514497Y124613D01*
X514819Y125135D01*
X515153Y125649D01*
X515500Y126155D01*
X515860Y126652D01*
X516231Y127141D01*
X516615Y127620D01*
X517010Y128089D01*
X517416Y128549D01*
X517834Y128999D01*
X518262Y129438D01*
X518701Y129866D01*
X519151Y130284D01*
X519611Y130690D01*
X520080Y131085D01*
X520559Y131469D01*
X521048Y131840D01*
X521545Y132200D01*
X522051Y132547D01*
X522565Y132881D01*
X523087Y133203D01*
X523618Y133512D01*
X524155Y133808D01*
X524700Y134091D01*
X525251Y134360D01*
X525809Y134615D01*
X526373Y134857D01*
X526943Y135085D01*
X527518Y135299D01*
X528098Y135498D01*
X528683Y135684D01*
X529272Y135854D01*
X529865Y136011D01*
X530462Y136153D01*
X531063Y136280D01*
X531666Y136392D01*
X532272Y136489D01*
X532880Y136572D01*
X533490Y136640D01*
X534101Y136692D01*
X534713Y136730D01*
X535326Y136752D01*
X535940Y136760D01*
X536554Y136752D01*
X537167Y136730D01*
X537779Y136692D01*
X538390Y136640D01*
X539000Y136572D01*
X539608Y136489D01*
X540214Y136392D01*
X540817Y136280D01*
X541418Y136153D01*
X542015Y136011D01*
X542608Y135854D01*
X543197Y135684D01*
X543782Y135498D01*
X544362Y135299D01*
X544937Y135085D01*
X545507Y134857D01*
X546071Y134615D01*
X546629Y134360D01*
X547180Y134091D01*
X547725Y133808D01*
X548262Y133512D01*
X548793Y133203D01*
X549315Y132881D01*
X549829Y132547D01*
X550335Y132200D01*
X550832Y131840D01*
X551321Y131469D01*
X551800Y131085D01*
X552269Y130690D01*
X552729Y130284D01*
X553179Y129866D01*
X553618Y129438D01*
X554046Y128999D01*
X554464Y128549D01*
X554870Y128089D01*
X555265Y127620D01*
X555649Y127141D01*
X556020Y126652D01*
X556380Y126155D01*
X556727Y125649D01*
X557061Y125135D01*
X557383Y124613D01*
X557692Y124082D01*
X557988Y123545D01*
X558271Y123000D01*
X558540Y122449D01*
X558795Y121891D01*
X559037Y121327D01*
X559265Y120757D01*
X559479Y120182D01*
X559678Y119602D01*
X559864Y119017D01*
X560034Y118428D01*
X560191Y117835D01*
X560333Y117238D01*
X560460Y116637D01*
X560572Y116034D01*
X560669Y115428D01*
X560752Y114820D01*
X560820Y114210D01*
X560872Y113599D01*
X560910Y112987D01*
X560932Y112374D01*
X560940Y111760D01*
X560932Y111146D01*
X560910Y110533D01*
X560872Y109921D01*
X560820Y109310D01*
X560752Y108700D01*
X560669Y108092D01*
X560572Y107486D01*
X560460Y106883D01*
X560333Y106282D01*
X560191Y105685D01*
X560034Y105092D01*
X559864Y104503D01*
X559678Y103918D01*
X559479Y103338D01*
X559265Y102763D01*
X559037Y102193D01*
X558795Y101629D01*
X558540Y101071D01*
X558271Y100520D01*
X557988Y99975D01*
X557692Y99438D01*
X557383Y98907D01*
X557061Y98385D01*
X556727Y97871D01*
X556380Y97365D01*
X556020Y96868D01*
X555649Y96379D01*
X555265Y95900D01*
X554870Y95431D01*
X554464Y94971D01*
X554046Y94521D01*
X553618Y94082D01*
X553179Y93654D01*
X552729Y93236D01*
X552269Y92830D01*
X551800Y92435D01*
X551321Y92051D01*
X550832Y91680D01*
X550335Y91320D01*
X549829Y90973D01*
X549315Y90639D01*
X548793Y90317D01*
X548262Y90008D01*
X547725Y89712D01*
X547180Y89429D01*
X546629Y89160D01*
X546071Y88905D01*
X545507Y88663D01*
X544937Y88435D01*
X544362Y88221D01*
X543782Y88022D01*
X543197Y87836D01*
X542608Y87666D01*
X542015Y87509D01*
X541418Y87367D01*
X540817Y87240D01*
X540214Y87128D01*
X539608Y87031D01*
X539000Y86948D01*
X538390Y86880D01*
X537779Y86828D01*
X537167Y86790D01*
X536554Y86768D01*
X535940Y86760D01*
X535326Y86768D01*
X534713Y86790D01*
X534101Y86828D01*
X533490Y86880D01*
X532880Y86948D01*
X532272Y87031D01*
X531666Y87128D01*
X531063Y87240D01*
X530462Y87367D01*
X529865Y87509D01*
X529272Y87666D01*
X528683Y87836D01*
X528098Y88022D01*
X527518Y88221D01*
X526943Y88435D01*
X526373Y88663D01*
X525809Y88905D01*
X525251Y89160D01*
X524700Y89429D01*
X524155Y89712D01*
X523618Y90008D01*
X523087Y90317D01*
X522565Y90639D01*
X522051Y90973D01*
X521545Y91320D01*
X521048Y91680D01*
X520559Y92051D01*
X520080Y92435D01*
X519611Y92830D01*
X519151Y93236D01*
X518701Y93654D01*
X518262Y94082D01*
X517834Y94521D01*
X517416Y94971D01*
X517010Y95431D01*
X516615Y95900D01*
X516231Y96379D01*
X515860Y96868D01*
X515500Y97365D01*
X515153Y97871D01*
X514819Y98385D01*
X514497Y98907D01*
X514188Y99438D01*
X513892Y99975D01*
X513609Y100520D01*
X513340Y101071D01*
X513085Y101629D01*
X512843Y102193D01*
X512615Y102763D01*
X512401Y103338D01*
X512202Y103918D01*
X512016Y104503D01*
X511846Y105092D01*
X511689Y105685D01*
X511547Y106282D01*
X511420Y106883D01*
X511308Y107486D01*
X511211Y108092D01*
X511128Y108700D01*
X511060Y109310D01*
X511008Y109921D01*
X510970Y110533D01*
X510948Y111146D01*
X510940Y111760D01*
D15*
X520940Y111760D02*
X520945Y112128D01*
X520958Y112496D01*
X520981Y112863D01*
X521012Y113230D01*
X521053Y113596D01*
X521102Y113961D01*
X521161Y114324D01*
X521228Y114686D01*
X521304Y115047D01*
X521390Y115405D01*
X521483Y115761D01*
X521586Y116114D01*
X521697Y116465D01*
X521817Y116813D01*
X521945Y117158D01*
X522082Y117500D01*
X522227Y117839D01*
X522380Y118173D01*
X522542Y118504D01*
X522711Y118831D01*
X522889Y119153D01*
X523074Y119472D01*
X523267Y119785D01*
X523468Y120094D01*
X523676Y120397D01*
X523892Y120695D01*
X524115Y120988D01*
X524345Y121276D01*
X524582Y121558D01*
X524826Y121833D01*
X525076Y122103D01*
X525333Y122367D01*
X525597Y122624D01*
X525867Y122874D01*
X526142Y123118D01*
X526424Y123355D01*
X526712Y123585D01*
X527005Y123808D01*
X527303Y124024D01*
X527606Y124232D01*
X527915Y124433D01*
X528228Y124626D01*
X528547Y124811D01*
X528869Y124989D01*
X529196Y125158D01*
X529527Y125320D01*
X529861Y125473D01*
X530200Y125618D01*
X530542Y125755D01*
X530887Y125883D01*
X531235Y126003D01*
X531586Y126114D01*
X531939Y126217D01*
X532295Y126310D01*
X532653Y126396D01*
X533014Y126472D01*
X533376Y126539D01*
X533739Y126598D01*
X534104Y126647D01*
X534470Y126688D01*
X534837Y126719D01*
X535204Y126742D01*
X535572Y126755D01*
X535940Y126760D01*
X536308Y126755D01*
X536676Y126742D01*
X537043Y126719D01*
X537410Y126688D01*
X537776Y126647D01*
X538141Y126598D01*
X538504Y126539D01*
X538866Y126472D01*
X539227Y126396D01*
X539585Y126310D01*
X539941Y126217D01*
X540294Y126114D01*
X540645Y126003D01*
X540993Y125883D01*
X541338Y125755D01*
X541680Y125618D01*
X542019Y125473D01*
X542353Y125320D01*
X542684Y125158D01*
X543011Y124989D01*
X543333Y124811D01*
X543652Y124626D01*
X543965Y124433D01*
X544274Y124232D01*
X544577Y124024D01*
X544875Y123808D01*
X545168Y123585D01*
X545456Y123355D01*
X545738Y123118D01*
X546013Y122874D01*
X546283Y122624D01*
X546547Y122367D01*
X546804Y122103D01*
X547054Y121833D01*
X547298Y121558D01*
X547535Y121276D01*
X547765Y120988D01*
X547988Y120695D01*
X548204Y120397D01*
X548412Y120094D01*
X548613Y119785D01*
X548806Y119472D01*
X548991Y119153D01*
X549169Y118831D01*
X549338Y118504D01*
X549500Y118173D01*
X549653Y117839D01*
X549798Y117500D01*
X549935Y117158D01*
X550063Y116813D01*
X550183Y116465D01*
X550294Y116114D01*
X550397Y115761D01*
X550490Y115405D01*
X550576Y115047D01*
X550652Y114686D01*
X550719Y114324D01*
X550778Y113961D01*
X550827Y113596D01*
X550868Y113230D01*
X550899Y112863D01*
X550922Y112496D01*
X550935Y112128D01*
X550940Y111760D01*
X550935Y111392D01*
X550922Y111024D01*
X550899Y110657D01*
X550868Y110290D01*
X550827Y109924D01*
X550778Y109559D01*
X550719Y109196D01*
X550652Y108834D01*
X550576Y108473D01*
X550490Y108115D01*
X550397Y107759D01*
X550294Y107406D01*
X550183Y107055D01*
X550063Y106707D01*
X549935Y106362D01*
X549798Y106020D01*
X549653Y105681D01*
X549500Y105347D01*
X549338Y105016D01*
X549169Y104689D01*
X548991Y104367D01*
X548806Y104048D01*
X548613Y103735D01*
X548412Y103426D01*
X548204Y103123D01*
X547988Y102825D01*
X547765Y102532D01*
X547535Y102244D01*
X547298Y101962D01*
X547054Y101687D01*
X546804Y101417D01*
X546547Y101153D01*
X546283Y100896D01*
X546013Y100646D01*
X545738Y100402D01*
X545456Y100165D01*
X545168Y99935D01*
X544875Y99712D01*
X544577Y99496D01*
X544274Y99288D01*
X543965Y99087D01*
X543652Y98894D01*
X543333Y98709D01*
X543011Y98531D01*
X542684Y98362D01*
X542353Y98200D01*
X542019Y98047D01*
X541680Y97902D01*
X541338Y97765D01*
X540993Y97637D01*
X540645Y97517D01*
X540294Y97406D01*
X539941Y97303D01*
X539585Y97210D01*
X539227Y97124D01*
X538866Y97048D01*
X538504Y96981D01*
X538141Y96922D01*
X537776Y96873D01*
X537410Y96832D01*
X537043Y96801D01*
X536676Y96778D01*
X536308Y96765D01*
X535940Y96760D01*
X535572Y96765D01*
X535204Y96778D01*
X534837Y96801D01*
X534470Y96832D01*
X534104Y96873D01*
X533739Y96922D01*
X533376Y96981D01*
X533014Y97048D01*
X532653Y97124D01*
X532295Y97210D01*
X531939Y97303D01*
X531586Y97406D01*
X531235Y97517D01*
X530887Y97637D01*
X530542Y97765D01*
X530200Y97902D01*
X529861Y98047D01*
X529527Y98200D01*
X529196Y98362D01*
X528869Y98531D01*
X528547Y98709D01*
X528228Y98894D01*
X527915Y99087D01*
X527606Y99288D01*
X527303Y99496D01*
X527005Y99712D01*
X526712Y99935D01*
X526424Y100165D01*
X526142Y100402D01*
X525867Y100646D01*
X525597Y100896D01*
X525333Y101153D01*
X525076Y101417D01*
X524826Y101687D01*
X524582Y101962D01*
X524345Y102244D01*
X524115Y102532D01*
X523892Y102825D01*
X523676Y103123D01*
X523468Y103426D01*
X523267Y103735D01*
X523074Y104048D01*
X522889Y104367D01*
X522711Y104689D01*
X522542Y105016D01*
X522380Y105347D01*
X522227Y105681D01*
X522082Y106020D01*
X521945Y106362D01*
X521817Y106707D01*
X521697Y107055D01*
X521586Y107406D01*
X521483Y107759D01*
X521390Y108115D01*
X521304Y108473D01*
X521228Y108834D01*
X521161Y109196D01*
X521102Y109559D01*
X521053Y109924D01*
X521012Y110290D01*
X520981Y110657D01*
X520958Y111024D01*
X520945Y111392D01*
X520940Y111760D01*
D11*
X23260Y124460D02*
X23268Y125074D01*
X23290Y125687D01*
X23328Y126299D01*
X23380Y126910D01*
X23448Y127520D01*
X23531Y128128D01*
X23628Y128734D01*
X23740Y129337D01*
X23867Y129938D01*
X24009Y130535D01*
X24166Y131128D01*
X24336Y131717D01*
X24522Y132302D01*
X24721Y132882D01*
X24935Y133457D01*
X25163Y134027D01*
X25405Y134591D01*
X25660Y135149D01*
X25929Y135700D01*
X26212Y136245D01*
X26508Y136782D01*
X26817Y137313D01*
X27139Y137835D01*
X27473Y138349D01*
X27820Y138855D01*
X28180Y139352D01*
X28551Y139841D01*
X28935Y140320D01*
X29330Y140789D01*
X29736Y141249D01*
X30154Y141699D01*
X30582Y142138D01*
X31021Y142566D01*
X31471Y142984D01*
X31931Y143390D01*
X32400Y143785D01*
X32879Y144169D01*
X33368Y144540D01*
X33865Y144900D01*
X34371Y145247D01*
X34885Y145581D01*
X35407Y145903D01*
X35938Y146212D01*
X36475Y146508D01*
X37020Y146791D01*
X37571Y147060D01*
X38129Y147315D01*
X38693Y147557D01*
X39263Y147785D01*
X39838Y147999D01*
X40418Y148198D01*
X41003Y148384D01*
X41592Y148554D01*
X42185Y148711D01*
X42782Y148853D01*
X43383Y148980D01*
X43986Y149092D01*
X44592Y149189D01*
X45200Y149272D01*
X45810Y149340D01*
X46421Y149392D01*
X47033Y149430D01*
X47646Y149452D01*
X48260Y149460D01*
X48874Y149452D01*
X49487Y149430D01*
X50099Y149392D01*
X50710Y149340D01*
X51320Y149272D01*
X51928Y149189D01*
X52534Y149092D01*
X53137Y148980D01*
X53738Y148853D01*
X54335Y148711D01*
X54928Y148554D01*
X55517Y148384D01*
X56102Y148198D01*
X56682Y147999D01*
X57257Y147785D01*
X57827Y147557D01*
X58391Y147315D01*
X58949Y147060D01*
X59500Y146791D01*
X60045Y146508D01*
X60582Y146212D01*
X61113Y145903D01*
X61635Y145581D01*
X62149Y145247D01*
X62655Y144900D01*
X63152Y144540D01*
X63641Y144169D01*
X64120Y143785D01*
X64589Y143390D01*
X65049Y142984D01*
X65499Y142566D01*
X65938Y142138D01*
X66366Y141699D01*
X66784Y141249D01*
X67190Y140789D01*
X67585Y140320D01*
X67969Y139841D01*
X68340Y139352D01*
X68700Y138855D01*
X69047Y138349D01*
X69381Y137835D01*
X69703Y137313D01*
X70012Y136782D01*
X70308Y136245D01*
X70591Y135700D01*
X70860Y135149D01*
X71115Y134591D01*
X71357Y134027D01*
X71585Y133457D01*
X71799Y132882D01*
X71998Y132302D01*
X72184Y131717D01*
X72354Y131128D01*
X72511Y130535D01*
X72653Y129938D01*
X72780Y129337D01*
X72892Y128734D01*
X72989Y128128D01*
X73072Y127520D01*
X73140Y126910D01*
X73192Y126299D01*
X73230Y125687D01*
X73252Y125074D01*
X73260Y124460D01*
X73252Y123846D01*
X73230Y123233D01*
X73192Y122621D01*
X73140Y122010D01*
X73072Y121400D01*
X72989Y120792D01*
X72892Y120186D01*
X72780Y119583D01*
X72653Y118982D01*
X72511Y118385D01*
X72354Y117792D01*
X72184Y117203D01*
X71998Y116618D01*
X71799Y116038D01*
X71585Y115463D01*
X71357Y114893D01*
X71115Y114329D01*
X70860Y113771D01*
X70591Y113220D01*
X70308Y112675D01*
X70012Y112138D01*
X69703Y111607D01*
X69381Y111085D01*
X69047Y110571D01*
X68700Y110065D01*
X68340Y109568D01*
X67969Y109079D01*
X67585Y108600D01*
X67190Y108131D01*
X66784Y107671D01*
X66366Y107221D01*
X65938Y106782D01*
X65499Y106354D01*
X65049Y105936D01*
X64589Y105530D01*
X64120Y105135D01*
X63641Y104751D01*
X63152Y104380D01*
X62655Y104020D01*
X62149Y103673D01*
X61635Y103339D01*
X61113Y103017D01*
X60582Y102708D01*
X60045Y102412D01*
X59500Y102129D01*
X58949Y101860D01*
X58391Y101605D01*
X57827Y101363D01*
X57257Y101135D01*
X56682Y100921D01*
X56102Y100722D01*
X55517Y100536D01*
X54928Y100366D01*
X54335Y100209D01*
X53738Y100067D01*
X53137Y99940D01*
X52534Y99828D01*
X51928Y99731D01*
X51320Y99648D01*
X50710Y99580D01*
X50099Y99528D01*
X49487Y99490D01*
X48874Y99468D01*
X48260Y99460D01*
X47646Y99468D01*
X47033Y99490D01*
X46421Y99528D01*
X45810Y99580D01*
X45200Y99648D01*
X44592Y99731D01*
X43986Y99828D01*
X43383Y99940D01*
X42782Y100067D01*
X42185Y100209D01*
X41592Y100366D01*
X41003Y100536D01*
X40418Y100722D01*
X39838Y100921D01*
X39263Y101135D01*
X38693Y101363D01*
X38129Y101605D01*
X37571Y101860D01*
X37020Y102129D01*
X36475Y102412D01*
X35938Y102708D01*
X35407Y103017D01*
X34885Y103339D01*
X34371Y103673D01*
X33865Y104020D01*
X33368Y104380D01*
X32879Y104751D01*
X32400Y105135D01*
X31931Y105530D01*
X31471Y105936D01*
X31021Y106354D01*
X30582Y106782D01*
X30154Y107221D01*
X29736Y107671D01*
X29330Y108131D01*
X28935Y108600D01*
X28551Y109079D01*
X28180Y109568D01*
X27820Y110065D01*
X27473Y110571D01*
X27139Y111085D01*
X26817Y111607D01*
X26508Y112138D01*
X26212Y112675D01*
X25929Y113220D01*
X25660Y113771D01*
X25405Y114329D01*
X25163Y114893D01*
X24935Y115463D01*
X24721Y116038D01*
X24522Y116618D01*
X24336Y117203D01*
X24166Y117792D01*
X24009Y118385D01*
X23867Y118982D01*
X23740Y119583D01*
X23628Y120186D01*
X23531Y120792D01*
X23448Y121400D01*
X23380Y122010D01*
X23328Y122621D01*
X23290Y123233D01*
X23268Y123846D01*
X23260Y124460D01*
D15*
X33260Y124460D02*
X33265Y124828D01*
X33278Y125196D01*
X33301Y125563D01*
X33332Y125930D01*
X33373Y126296D01*
X33422Y126661D01*
X33481Y127024D01*
X33548Y127386D01*
X33624Y127747D01*
X33710Y128105D01*
X33803Y128461D01*
X33906Y128814D01*
X34017Y129165D01*
X34137Y129513D01*
X34265Y129858D01*
X34402Y130200D01*
X34547Y130539D01*
X34700Y130873D01*
X34862Y131204D01*
X35031Y131531D01*
X35209Y131853D01*
X35394Y132172D01*
X35587Y132485D01*
X35788Y132794D01*
X35996Y133097D01*
X36212Y133395D01*
X36435Y133688D01*
X36665Y133976D01*
X36902Y134258D01*
X37146Y134533D01*
X37396Y134803D01*
X37653Y135067D01*
X37917Y135324D01*
X38187Y135574D01*
X38462Y135818D01*
X38744Y136055D01*
X39032Y136285D01*
X39325Y136508D01*
X39623Y136724D01*
X39926Y136932D01*
X40235Y137133D01*
X40548Y137326D01*
X40867Y137511D01*
X41189Y137689D01*
X41516Y137858D01*
X41847Y138020D01*
X42181Y138173D01*
X42520Y138318D01*
X42862Y138455D01*
X43207Y138583D01*
X43555Y138703D01*
X43906Y138814D01*
X44259Y138917D01*
X44615Y139010D01*
X44973Y139096D01*
X45334Y139172D01*
X45696Y139239D01*
X46059Y139298D01*
X46424Y139347D01*
X46790Y139388D01*
X47157Y139419D01*
X47524Y139442D01*
X47892Y139455D01*
X48260Y139460D01*
X48628Y139455D01*
X48996Y139442D01*
X49363Y139419D01*
X49730Y139388D01*
X50096Y139347D01*
X50461Y139298D01*
X50824Y139239D01*
X51186Y139172D01*
X51547Y139096D01*
X51905Y139010D01*
X52261Y138917D01*
X52614Y138814D01*
X52965Y138703D01*
X53313Y138583D01*
X53658Y138455D01*
X54000Y138318D01*
X54339Y138173D01*
X54673Y138020D01*
X55004Y137858D01*
X55331Y137689D01*
X55653Y137511D01*
X55972Y137326D01*
X56285Y137133D01*
X56594Y136932D01*
X56897Y136724D01*
X57195Y136508D01*
X57488Y136285D01*
X57776Y136055D01*
X58058Y135818D01*
X58333Y135574D01*
X58603Y135324D01*
X58867Y135067D01*
X59124Y134803D01*
X59374Y134533D01*
X59618Y134258D01*
X59855Y133976D01*
X60085Y133688D01*
X60308Y133395D01*
X60524Y133097D01*
X60732Y132794D01*
X60933Y132485D01*
X61126Y132172D01*
X61311Y131853D01*
X61489Y131531D01*
X61658Y131204D01*
X61820Y130873D01*
X61973Y130539D01*
X62118Y130200D01*
X62255Y129858D01*
X62383Y129513D01*
X62503Y129165D01*
X62614Y128814D01*
X62717Y128461D01*
X62810Y128105D01*
X62896Y127747D01*
X62972Y127386D01*
X63039Y127024D01*
X63098Y126661D01*
X63147Y126296D01*
X63188Y125930D01*
X63219Y125563D01*
X63242Y125196D01*
X63255Y124828D01*
X63260Y124460D01*
X63255Y124092D01*
X63242Y123724D01*
X63219Y123357D01*
X63188Y122990D01*
X63147Y122624D01*
X63098Y122259D01*
X63039Y121896D01*
X62972Y121534D01*
X62896Y121173D01*
X62810Y120815D01*
X62717Y120459D01*
X62614Y120106D01*
X62503Y119755D01*
X62383Y119407D01*
X62255Y119062D01*
X62118Y118720D01*
X61973Y118381D01*
X61820Y118047D01*
X61658Y117716D01*
X61489Y117389D01*
X61311Y117067D01*
X61126Y116748D01*
X60933Y116435D01*
X60732Y116126D01*
X60524Y115823D01*
X60308Y115525D01*
X60085Y115232D01*
X59855Y114944D01*
X59618Y114662D01*
X59374Y114387D01*
X59124Y114117D01*
X58867Y113853D01*
X58603Y113596D01*
X58333Y113346D01*
X58058Y113102D01*
X57776Y112865D01*
X57488Y112635D01*
X57195Y112412D01*
X56897Y112196D01*
X56594Y111988D01*
X56285Y111787D01*
X55972Y111594D01*
X55653Y111409D01*
X55331Y111231D01*
X55004Y111062D01*
X54673Y110900D01*
X54339Y110747D01*
X54000Y110602D01*
X53658Y110465D01*
X53313Y110337D01*
X52965Y110217D01*
X52614Y110106D01*
X52261Y110003D01*
X51905Y109910D01*
X51547Y109824D01*
X51186Y109748D01*
X50824Y109681D01*
X50461Y109622D01*
X50096Y109573D01*
X49730Y109532D01*
X49363Y109501D01*
X48996Y109478D01*
X48628Y109465D01*
X48260Y109460D01*
X47892Y109465D01*
X47524Y109478D01*
X47157Y109501D01*
X46790Y109532D01*
X46424Y109573D01*
X46059Y109622D01*
X45696Y109681D01*
X45334Y109748D01*
X44973Y109824D01*
X44615Y109910D01*
X44259Y110003D01*
X43906Y110106D01*
X43555Y110217D01*
X43207Y110337D01*
X42862Y110465D01*
X42520Y110602D01*
X42181Y110747D01*
X41847Y110900D01*
X41516Y111062D01*
X41189Y111231D01*
X40867Y111409D01*
X40548Y111594D01*
X40235Y111787D01*
X39926Y111988D01*
X39623Y112196D01*
X39325Y112412D01*
X39032Y112635D01*
X38744Y112865D01*
X38462Y113102D01*
X38187Y113346D01*
X37917Y113596D01*
X37653Y113853D01*
X37396Y114117D01*
X37146Y114387D01*
X36902Y114662D01*
X36665Y114944D01*
X36435Y115232D01*
X36212Y115525D01*
X35996Y115823D01*
X35788Y116126D01*
X35587Y116435D01*
X35394Y116748D01*
X35209Y117067D01*
X35031Y117389D01*
X34862Y117716D01*
X34700Y118047D01*
X34547Y118381D01*
X34402Y118720D01*
X34265Y119062D01*
X34137Y119407D01*
X34017Y119755D01*
X33906Y120106D01*
X33803Y120459D01*
X33710Y120815D01*
X33624Y121173D01*
X33548Y121534D01*
X33481Y121896D01*
X33422Y122259D01*
X33373Y122624D01*
X33332Y122990D01*
X33301Y123357D01*
X33278Y123724D01*
X33265Y124092D01*
X33260Y124460D01*
D11*
X185820Y625856D02*
X185828Y626470D01*
X185850Y627083D01*
X185888Y627695D01*
X185940Y628306D01*
X186008Y628916D01*
X186091Y629524D01*
X186188Y630130D01*
X186300Y630733D01*
X186427Y631334D01*
X186569Y631931D01*
X186726Y632524D01*
X186896Y633113D01*
X187082Y633698D01*
X187281Y634278D01*
X187495Y634853D01*
X187723Y635423D01*
X187965Y635987D01*
X188220Y636545D01*
X188489Y637096D01*
X188772Y637641D01*
X189068Y638178D01*
X189377Y638709D01*
X189699Y639231D01*
X190033Y639745D01*
X190380Y640251D01*
X190740Y640748D01*
X191111Y641237D01*
X191495Y641716D01*
X191890Y642185D01*
X192296Y642645D01*
X192714Y643095D01*
X193142Y643534D01*
X193581Y643962D01*
X194031Y644380D01*
X194491Y644786D01*
X194960Y645181D01*
X195439Y645565D01*
X195928Y645936D01*
X196425Y646296D01*
X196931Y646643D01*
X197445Y646977D01*
X197967Y647299D01*
X198498Y647608D01*
X199035Y647904D01*
X199580Y648187D01*
X200131Y648456D01*
X200689Y648711D01*
X201253Y648953D01*
X201823Y649181D01*
X202398Y649395D01*
X202978Y649594D01*
X203563Y649780D01*
X204152Y649950D01*
X204745Y650107D01*
X205342Y650249D01*
X205943Y650376D01*
X206546Y650488D01*
X207152Y650585D01*
X207760Y650668D01*
X208370Y650736D01*
X208981Y650788D01*
X209593Y650826D01*
X210206Y650848D01*
X210820Y650856D01*
X211434Y650848D01*
X212047Y650826D01*
X212659Y650788D01*
X213270Y650736D01*
X213880Y650668D01*
X214488Y650585D01*
X215094Y650488D01*
X215697Y650376D01*
X216298Y650249D01*
X216895Y650107D01*
X217488Y649950D01*
X218077Y649780D01*
X218662Y649594D01*
X219242Y649395D01*
X219817Y649181D01*
X220387Y648953D01*
X220951Y648711D01*
X221509Y648456D01*
X222060Y648187D01*
X222605Y647904D01*
X223142Y647608D01*
X223673Y647299D01*
X224195Y646977D01*
X224709Y646643D01*
X225215Y646296D01*
X225712Y645936D01*
X226201Y645565D01*
X226680Y645181D01*
X227149Y644786D01*
X227609Y644380D01*
X228059Y643962D01*
X228498Y643534D01*
X228926Y643095D01*
X229344Y642645D01*
X229750Y642185D01*
X230145Y641716D01*
X230529Y641237D01*
X230900Y640748D01*
X231260Y640251D01*
X231607Y639745D01*
X231941Y639231D01*
X232263Y638709D01*
X232572Y638178D01*
X232868Y637641D01*
X233151Y637096D01*
X233420Y636545D01*
X233675Y635987D01*
X233917Y635423D01*
X234145Y634853D01*
X234359Y634278D01*
X234558Y633698D01*
X234744Y633113D01*
X234914Y632524D01*
X235071Y631931D01*
X235213Y631334D01*
X235340Y630733D01*
X235452Y630130D01*
X235549Y629524D01*
X235632Y628916D01*
X235700Y628306D01*
X235752Y627695D01*
X235790Y627083D01*
X235812Y626470D01*
X235820Y625856D01*
X235812Y625242D01*
X235790Y624629D01*
X235752Y624017D01*
X235700Y623406D01*
X235632Y622796D01*
X235549Y622188D01*
X235452Y621582D01*
X235340Y620979D01*
X235213Y620378D01*
X235071Y619781D01*
X234914Y619188D01*
X234744Y618599D01*
X234558Y618014D01*
X234359Y617434D01*
X234145Y616859D01*
X233917Y616289D01*
X233675Y615725D01*
X233420Y615167D01*
X233151Y614616D01*
X232868Y614071D01*
X232572Y613534D01*
X232263Y613003D01*
X231941Y612481D01*
X231607Y611967D01*
X231260Y611461D01*
X230900Y610964D01*
X230529Y610475D01*
X230145Y609996D01*
X229750Y609527D01*
X229344Y609067D01*
X228926Y608617D01*
X228498Y608178D01*
X228059Y607750D01*
X227609Y607332D01*
X227149Y606926D01*
X226680Y606531D01*
X226201Y606147D01*
X225712Y605776D01*
X225215Y605416D01*
X224709Y605069D01*
X224195Y604735D01*
X223673Y604413D01*
X223142Y604104D01*
X222605Y603808D01*
X222060Y603525D01*
X221509Y603256D01*
X220951Y603001D01*
X220387Y602759D01*
X219817Y602531D01*
X219242Y602317D01*
X218662Y602118D01*
X218077Y601932D01*
X217488Y601762D01*
X216895Y601605D01*
X216298Y601463D01*
X215697Y601336D01*
X215094Y601224D01*
X214488Y601127D01*
X213880Y601044D01*
X213270Y600976D01*
X212659Y600924D01*
X212047Y600886D01*
X211434Y600864D01*
X210820Y600856D01*
X210206Y600864D01*
X209593Y600886D01*
X208981Y600924D01*
X208370Y600976D01*
X207760Y601044D01*
X207152Y601127D01*
X206546Y601224D01*
X205943Y601336D01*
X205342Y601463D01*
X204745Y601605D01*
X204152Y601762D01*
X203563Y601932D01*
X202978Y602118D01*
X202398Y602317D01*
X201823Y602531D01*
X201253Y602759D01*
X200689Y603001D01*
X200131Y603256D01*
X199580Y603525D01*
X199035Y603808D01*
X198498Y604104D01*
X197967Y604413D01*
X197445Y604735D01*
X196931Y605069D01*
X196425Y605416D01*
X195928Y605776D01*
X195439Y606147D01*
X194960Y606531D01*
X194491Y606926D01*
X194031Y607332D01*
X193581Y607750D01*
X193142Y608178D01*
X192714Y608617D01*
X192296Y609067D01*
X191890Y609527D01*
X191495Y609996D01*
X191111Y610475D01*
X190740Y610964D01*
X190380Y611461D01*
X190033Y611967D01*
X189699Y612481D01*
X189377Y613003D01*
X189068Y613534D01*
X188772Y614071D01*
X188489Y614616D01*
X188220Y615167D01*
X187965Y615725D01*
X187723Y616289D01*
X187495Y616859D01*
X187281Y617434D01*
X187082Y618014D01*
X186896Y618599D01*
X186726Y619188D01*
X186569Y619781D01*
X186427Y620378D01*
X186300Y620979D01*
X186188Y621582D01*
X186091Y622188D01*
X186008Y622796D01*
X185940Y623406D01*
X185888Y624017D01*
X185850Y624629D01*
X185828Y625242D01*
X185820Y625856D01*
D15*
X195820Y625856D02*
X195825Y626224D01*
X195838Y626592D01*
X195861Y626959D01*
X195892Y627326D01*
X195933Y627692D01*
X195982Y628057D01*
X196041Y628420D01*
X196108Y628782D01*
X196184Y629143D01*
X196270Y629501D01*
X196363Y629857D01*
X196466Y630210D01*
X196577Y630561D01*
X196697Y630909D01*
X196825Y631254D01*
X196962Y631596D01*
X197107Y631935D01*
X197260Y632269D01*
X197422Y632600D01*
X197591Y632927D01*
X197769Y633249D01*
X197954Y633568D01*
X198147Y633881D01*
X198348Y634190D01*
X198556Y634493D01*
X198772Y634791D01*
X198995Y635084D01*
X199225Y635372D01*
X199462Y635654D01*
X199706Y635929D01*
X199956Y636199D01*
X200213Y636463D01*
X200477Y636720D01*
X200747Y636970D01*
X201022Y637214D01*
X201304Y637451D01*
X201592Y637681D01*
X201885Y637904D01*
X202183Y638120D01*
X202486Y638328D01*
X202795Y638529D01*
X203108Y638722D01*
X203427Y638907D01*
X203749Y639085D01*
X204076Y639254D01*
X204407Y639416D01*
X204741Y639569D01*
X205080Y639714D01*
X205422Y639851D01*
X205767Y639979D01*
X206115Y640099D01*
X206466Y640210D01*
X206819Y640313D01*
X207175Y640406D01*
X207533Y640492D01*
X207894Y640568D01*
X208256Y640635D01*
X208619Y640694D01*
X208984Y640743D01*
X209350Y640784D01*
X209717Y640815D01*
X210084Y640838D01*
X210452Y640851D01*
X210820Y640856D01*
X211188Y640851D01*
X211556Y640838D01*
X211923Y640815D01*
X212290Y640784D01*
X212656Y640743D01*
X213021Y640694D01*
X213384Y640635D01*
X213746Y640568D01*
X214107Y640492D01*
X214465Y640406D01*
X214821Y640313D01*
X215174Y640210D01*
X215525Y640099D01*
X215873Y639979D01*
X216218Y639851D01*
X216560Y639714D01*
X216899Y639569D01*
X217233Y639416D01*
X217564Y639254D01*
X217891Y639085D01*
X218213Y638907D01*
X218532Y638722D01*
X218845Y638529D01*
X219154Y638328D01*
X219457Y638120D01*
X219755Y637904D01*
X220048Y637681D01*
X220336Y637451D01*
X220618Y637214D01*
X220893Y636970D01*
X221163Y636720D01*
X221427Y636463D01*
X221684Y636199D01*
X221934Y635929D01*
X222178Y635654D01*
X222415Y635372D01*
X222645Y635084D01*
X222868Y634791D01*
X223084Y634493D01*
X223292Y634190D01*
X223493Y633881D01*
X223686Y633568D01*
X223871Y633249D01*
X224049Y632927D01*
X224218Y632600D01*
X224380Y632269D01*
X224533Y631935D01*
X224678Y631596D01*
X224815Y631254D01*
X224943Y630909D01*
X225063Y630561D01*
X225174Y630210D01*
X225277Y629857D01*
X225370Y629501D01*
X225456Y629143D01*
X225532Y628782D01*
X225599Y628420D01*
X225658Y628057D01*
X225707Y627692D01*
X225748Y627326D01*
X225779Y626959D01*
X225802Y626592D01*
X225815Y626224D01*
X225820Y625856D01*
X225815Y625488D01*
X225802Y625120D01*
X225779Y624753D01*
X225748Y624386D01*
X225707Y624020D01*
X225658Y623655D01*
X225599Y623292D01*
X225532Y622930D01*
X225456Y622569D01*
X225370Y622211D01*
X225277Y621855D01*
X225174Y621502D01*
X225063Y621151D01*
X224943Y620803D01*
X224815Y620458D01*
X224678Y620116D01*
X224533Y619777D01*
X224380Y619443D01*
X224218Y619112D01*
X224049Y618785D01*
X223871Y618463D01*
X223686Y618144D01*
X223493Y617831D01*
X223292Y617522D01*
X223084Y617219D01*
X222868Y616921D01*
X222645Y616628D01*
X222415Y616340D01*
X222178Y616058D01*
X221934Y615783D01*
X221684Y615513D01*
X221427Y615249D01*
X221163Y614992D01*
X220893Y614742D01*
X220618Y614498D01*
X220336Y614261D01*
X220048Y614031D01*
X219755Y613808D01*
X219457Y613592D01*
X219154Y613384D01*
X218845Y613183D01*
X218532Y612990D01*
X218213Y612805D01*
X217891Y612627D01*
X217564Y612458D01*
X217233Y612296D01*
X216899Y612143D01*
X216560Y611998D01*
X216218Y611861D01*
X215873Y611733D01*
X215525Y611613D01*
X215174Y611502D01*
X214821Y611399D01*
X214465Y611306D01*
X214107Y611220D01*
X213746Y611144D01*
X213384Y611077D01*
X213021Y611018D01*
X212656Y610969D01*
X212290Y610928D01*
X211923Y610897D01*
X211556Y610874D01*
X211188Y610861D01*
X210820Y610856D01*
X210452Y610861D01*
X210084Y610874D01*
X209717Y610897D01*
X209350Y610928D01*
X208984Y610969D01*
X208619Y611018D01*
X208256Y611077D01*
X207894Y611144D01*
X207533Y611220D01*
X207175Y611306D01*
X206819Y611399D01*
X206466Y611502D01*
X206115Y611613D01*
X205767Y611733D01*
X205422Y611861D01*
X205080Y611998D01*
X204741Y612143D01*
X204407Y612296D01*
X204076Y612458D01*
X203749Y612627D01*
X203427Y612805D01*
X203108Y612990D01*
X202795Y613183D01*
X202486Y613384D01*
X202183Y613592D01*
X201885Y613808D01*
X201592Y614031D01*
X201304Y614261D01*
X201022Y614498D01*
X200747Y614742D01*
X200477Y614992D01*
X200213Y615249D01*
X199956Y615513D01*
X199706Y615783D01*
X199462Y616058D01*
X199225Y616340D01*
X198995Y616628D01*
X198772Y616921D01*
X198556Y617219D01*
X198348Y617522D01*
X198147Y617831D01*
X197954Y618144D01*
X197769Y618463D01*
X197591Y618785D01*
X197422Y619112D01*
X197260Y619443D01*
X197107Y619777D01*
X196962Y620116D01*
X196825Y620458D01*
X196697Y620803D01*
X196577Y621151D01*
X196466Y621502D01*
X196363Y621855D01*
X196270Y622211D01*
X196184Y622569D01*
X196108Y622930D01*
X196041Y623292D01*
X195982Y623655D01*
X195933Y624020D01*
X195892Y624386D01*
X195861Y624753D01*
X195838Y625120D01*
X195825Y625488D01*
X195820Y625856D01*
M02*
