G04 EAGLE Gerber RS-274X export*
G75*
%MOMM*%
%FSLAX34Y34*%
%LPD*%
%INSolderpaste Bottom*%
%IPPOS*%
%AMOC8*
5,1,8,0,0,1.08239X$1,22.5*%
G01*
%ADD10R,1.100000X1.000000*%
%ADD11R,1.000000X1.100000*%
%ADD12R,1.346200X0.406400*%
%ADD13R,2.108200X1.600200*%
%ADD14R,1.803400X1.905000*%
%ADD15R,1.905000X1.905000*%
%ADD16R,1.193800X0.304800*%
%ADD17R,0.304800X1.193800*%
%ADD18R,0.901600X2.066000*%
%ADD19R,3.201600X2.066000*%


D10*
X300600Y266700D03*
X283600Y266700D03*
X275200Y355600D03*
X258200Y355600D03*
X131200Y266700D03*
X148200Y266700D03*
X118500Y307340D03*
X135500Y307340D03*
D11*
X190500Y399660D03*
X190500Y382660D03*
D10*
X300600Y241300D03*
X283600Y241300D03*
X131200Y431800D03*
X148200Y431800D03*
X186300Y431800D03*
X169300Y431800D03*
D12*
X66743Y545800D03*
X66743Y552300D03*
X66743Y558800D03*
X66743Y565300D03*
X66743Y571800D03*
D13*
X65493Y527800D03*
X65493Y589800D03*
D14*
X39993Y520800D03*
X39993Y596800D03*
D15*
X39993Y546800D03*
X39993Y570800D03*
D11*
X135500Y327660D03*
X118500Y327660D03*
D10*
X43180Y164220D03*
X43180Y181220D03*
D11*
X135500Y347980D03*
X118500Y347980D03*
X135500Y368300D03*
X118500Y368300D03*
D10*
X210820Y382660D03*
X210820Y399660D03*
X231140Y399660D03*
X231140Y382660D03*
D11*
X300600Y190500D03*
X283600Y190500D03*
X300600Y165100D03*
X283600Y165100D03*
X300600Y139700D03*
X283600Y139700D03*
D16*
X173400Y264600D03*
X173400Y269600D03*
X173400Y274600D03*
X173400Y279600D03*
X173400Y284600D03*
X173400Y289600D03*
X173400Y294600D03*
X173400Y299600D03*
X173400Y304600D03*
X173400Y309600D03*
X173400Y314600D03*
X173400Y319600D03*
D17*
X188400Y334600D03*
X193400Y334600D03*
X198400Y334600D03*
X203400Y334600D03*
X208400Y334600D03*
X213400Y334600D03*
X218400Y334600D03*
X223400Y334600D03*
X228400Y334600D03*
X233400Y334600D03*
X238400Y334600D03*
X243400Y334600D03*
D16*
X258400Y319600D03*
X258400Y314600D03*
X258400Y309600D03*
X258400Y304600D03*
X258400Y299600D03*
X258400Y294600D03*
X258400Y289600D03*
X258400Y284600D03*
X258400Y279600D03*
X258400Y274600D03*
X258400Y269600D03*
X258400Y264600D03*
D17*
X243400Y249600D03*
X238400Y249600D03*
X233400Y249600D03*
X228400Y249600D03*
X223400Y249600D03*
X218400Y249600D03*
X213400Y249600D03*
X208400Y249600D03*
X203400Y249600D03*
X198400Y249600D03*
X193400Y249600D03*
X188400Y249600D03*
D18*
X188100Y464542D03*
X165100Y464542D03*
X142100Y464542D03*
D19*
X165100Y526058D03*
M02*
