G04 EAGLE Gerber RS-274X export*
G75*
%MOMM*%
%FSLAX34Y34*%
%LPD*%
%INSoldermask Bottom*%
%IPPOS*%
%AMOC8*
5,1,8,0,0,1.08239X$1,22.5*%
G01*
%ADD10R,1.201600X1.101600*%
%ADD11R,1.101600X1.201600*%
%ADD12P,1.539592X8X22.500000*%
%ADD13C,1.092200*%
%ADD14C,2.476400*%
%ADD15R,1.447800X0.508000*%
%ADD16R,2.209800X1.701800*%
%ADD17R,1.905000X2.006600*%
%ADD18R,2.006600X2.006600*%
%ADD19C,1.625600*%
%ADD20P,1.539592X8X202.500000*%
%ADD21R,1.295400X0.406400*%
%ADD22R,0.406400X1.295400*%
%ADD23R,1.003200X2.167600*%
%ADD24R,3.303200X2.167600*%
%ADD25C,2.901600*%


D10*
X300600Y266700D03*
X283600Y266700D03*
X275200Y355600D03*
X258200Y355600D03*
X131200Y266700D03*
X148200Y266700D03*
X118500Y307340D03*
X135500Y307340D03*
D11*
X190500Y399660D03*
X190500Y382660D03*
D10*
X300600Y241300D03*
X283600Y241300D03*
X131200Y431800D03*
X148200Y431800D03*
X186300Y431800D03*
X169300Y431800D03*
D12*
X114600Y560000D03*
X140000Y560000D03*
X284600Y220000D03*
X310000Y220000D03*
X454600Y220000D03*
X480000Y220000D03*
X624600Y220000D03*
X650000Y220000D03*
X114600Y50000D03*
X140000Y50000D03*
X284600Y50000D03*
X310000Y50000D03*
X454600Y50000D03*
X480000Y50000D03*
X624600Y50000D03*
X650000Y50000D03*
X284600Y560000D03*
X310000Y560000D03*
X454600Y560000D03*
X480000Y560000D03*
X624600Y560000D03*
X650000Y560000D03*
X114600Y390000D03*
X140000Y390000D03*
X284600Y390000D03*
X310000Y390000D03*
X454600Y390000D03*
X480000Y390000D03*
X624600Y390000D03*
X650000Y390000D03*
X114600Y220000D03*
X140000Y220000D03*
D13*
X211820Y121920D03*
X201660Y198120D03*
X221980Y198120D03*
D14*
X237220Y121920D03*
X237220Y179070D03*
X186420Y179070D03*
X186420Y121920D03*
D15*
X66743Y545800D03*
X66743Y552300D03*
X66743Y558800D03*
X66743Y565300D03*
X66743Y571800D03*
D16*
X65493Y527800D03*
X65493Y589800D03*
D17*
X39993Y520800D03*
X39993Y596800D03*
D18*
X39993Y546800D03*
X39993Y570800D03*
D19*
X420400Y52720D02*
X420400Y37480D01*
X395000Y37480D02*
X395000Y52720D01*
X369600Y52720D02*
X369600Y37480D01*
X344200Y37480D02*
X344200Y52720D01*
X344200Y561582D02*
X344200Y576822D01*
X369600Y576822D02*
X369600Y561582D01*
X395000Y561582D02*
X395000Y576822D01*
X420400Y576822D02*
X420400Y561582D01*
X645160Y266700D02*
X660400Y266700D01*
X660400Y292100D02*
X645160Y292100D01*
X645160Y317500D02*
X660400Y317500D01*
X660400Y342900D02*
X645160Y342900D01*
X27940Y342900D02*
X12700Y342900D01*
X12700Y317500D02*
X27940Y317500D01*
X27940Y292100D02*
X12700Y292100D01*
X12700Y266700D02*
X27940Y266700D01*
D11*
X135500Y327660D03*
X118500Y327660D03*
D10*
X43180Y164220D03*
X43180Y181220D03*
D11*
X135500Y347980D03*
X118500Y347980D03*
X135500Y368300D03*
X118500Y368300D03*
D10*
X210820Y382660D03*
X210820Y399660D03*
X231140Y399660D03*
X231140Y382660D03*
D11*
X300600Y190500D03*
X283600Y190500D03*
X300600Y165100D03*
X283600Y165100D03*
X300600Y139700D03*
X283600Y139700D03*
D12*
X170000Y60000D03*
X250000Y60000D03*
D20*
X250000Y30000D03*
X170000Y30000D03*
D21*
X173400Y264600D03*
X173400Y269600D03*
X173400Y274600D03*
X173400Y279600D03*
X173400Y284600D03*
X173400Y289600D03*
X173400Y294600D03*
X173400Y299600D03*
X173400Y304600D03*
X173400Y309600D03*
X173400Y314600D03*
X173400Y319600D03*
D22*
X188400Y334600D03*
X193400Y334600D03*
X198400Y334600D03*
X203400Y334600D03*
X208400Y334600D03*
X213400Y334600D03*
X218400Y334600D03*
X223400Y334600D03*
X228400Y334600D03*
X233400Y334600D03*
X238400Y334600D03*
X243400Y334600D03*
D21*
X258400Y319600D03*
X258400Y314600D03*
X258400Y309600D03*
X258400Y304600D03*
X258400Y299600D03*
X258400Y294600D03*
X258400Y289600D03*
X258400Y284600D03*
X258400Y279600D03*
X258400Y274600D03*
X258400Y269600D03*
X258400Y264600D03*
D22*
X243400Y249600D03*
X238400Y249600D03*
X233400Y249600D03*
X228400Y249600D03*
X223400Y249600D03*
X218400Y249600D03*
X213400Y249600D03*
X208400Y249600D03*
X203400Y249600D03*
X198400Y249600D03*
X193400Y249600D03*
X188400Y249600D03*
D23*
X188100Y464542D03*
X165100Y464542D03*
X142100Y464542D03*
D24*
X165100Y526058D03*
D25*
X547370Y625856D03*
X535940Y111760D03*
X48260Y124460D03*
X210820Y625856D03*
M02*
