G04 EAGLE Gerber RS-274X export*
G75*
%MOMM*%
%FSLAX34Y34*%
%LPD*%
%INSoldermask Top*%
%IPPOS*%
%AMOC8*
5,1,8,0,0,1.08239X$1,22.5*%
G01*
%ADD10R,6.600000X6.800000*%
%ADD11P,1.539592X8X22.500000*%
%ADD12C,0.889000*%
%ADD13C,1.092200*%
%ADD14C,2.476400*%
%ADD15C,1.625600*%
%ADD16P,1.539592X8X202.500000*%
%ADD17C,2.901600*%


D10*
X41640Y205740D03*
D11*
X114600Y560000D03*
X140000Y560000D03*
X284600Y220000D03*
X310000Y220000D03*
X454600Y220000D03*
X480000Y220000D03*
X624600Y220000D03*
X650000Y220000D03*
X114600Y50000D03*
X140000Y50000D03*
X284600Y50000D03*
X310000Y50000D03*
X454600Y50000D03*
X480000Y50000D03*
X624600Y50000D03*
X650000Y50000D03*
X284600Y560000D03*
X310000Y560000D03*
X454600Y560000D03*
X480000Y560000D03*
X624600Y560000D03*
X650000Y560000D03*
X114600Y390000D03*
X140000Y390000D03*
X284600Y390000D03*
X310000Y390000D03*
X454600Y390000D03*
X480000Y390000D03*
X624600Y390000D03*
X650000Y390000D03*
X114600Y220000D03*
X140000Y220000D03*
D12*
X218170Y134620D03*
X218170Y147320D03*
X218170Y160020D03*
X218170Y172720D03*
X218170Y185420D03*
X205470Y185420D03*
X205470Y172720D03*
X205470Y160020D03*
X205470Y147320D03*
X205470Y134620D03*
D13*
X211820Y121920D03*
X201660Y198120D03*
X221980Y198120D03*
D14*
X237220Y121920D03*
X237220Y179070D03*
X186420Y179070D03*
X186420Y121920D03*
D15*
X420400Y52720D02*
X420400Y37480D01*
X395000Y37480D02*
X395000Y52720D01*
X369600Y52720D02*
X369600Y37480D01*
X344200Y37480D02*
X344200Y52720D01*
X344200Y561582D02*
X344200Y576822D01*
X369600Y576822D02*
X369600Y561582D01*
X395000Y561582D02*
X395000Y576822D01*
X420400Y576822D02*
X420400Y561582D01*
X645160Y266700D02*
X660400Y266700D01*
X660400Y292100D02*
X645160Y292100D01*
X645160Y317500D02*
X660400Y317500D01*
X660400Y342900D02*
X645160Y342900D01*
X27940Y342900D02*
X12700Y342900D01*
X12700Y317500D02*
X27940Y317500D01*
X27940Y292100D02*
X12700Y292100D01*
X12700Y266700D02*
X27940Y266700D01*
D11*
X170000Y60000D03*
X250000Y60000D03*
D16*
X250000Y30000D03*
X170000Y30000D03*
D10*
X42180Y43180D03*
D17*
X547370Y625856D03*
X535940Y111760D03*
X48260Y124460D03*
X210820Y625856D03*
M02*
